<svg width="574" height="424" viewBox="0 0 574 424" fill="none" xmlns="http://www.w3.org/2000/svg">
<path d="M107.513 423.716C79.1361 423.716 58.2365 416.562 44.8144 402.254C31.3923 387.947 24.2725 364.1 23.4549 330.715L82.9345 322.948C82.8481 330.932 83.3777 338.91 84.5186 346.812C85.1438 351.959 86.6657 356.957 89.0154 361.579C90.4772 364.467 92.6377 366.944 95.3006 368.784C97.6818 370.186 100.407 370.894 103.17 370.828C111.039 370.828 114.974 365.207 114.974 353.914C115.261 343.863 112.635 333.943 107.411 325.35C100.689 315.516 92.5628 306.719 83.2922 299.238L65.1519 283.908C58.5601 278.287 53.1947 273.228 48.9534 268.885C44.2634 263.841 39.991 258.423 36.1786 252.687C31.817 246.221 28.5699 239.07 26.572 231.531C24.4278 223.1 23.3801 214.426 23.4549 205.726C23.4549 180.96 30.9324 161.849 45.8875 148.393C60.8426 134.937 81.4356 128.123 107.667 127.953C154.712 127.953 178.405 155.853 178.746 211.654L117.886 217.684C117.886 210.223 117.886 204.602 117.631 200.821C117.449 196.921 116.953 193.042 116.149 189.221C115.766 186.119 114.406 183.22 112.266 180.943C110.245 179.317 107.703 178.481 105.112 178.593C103.015 178.662 100.984 179.335 99.2616 180.532C97.5392 181.729 96.1992 183.397 95.4028 185.338C93.28 189.465 92.1596 194.034 92.1324 198.675C92.1296 201.056 92.3347 203.432 92.7456 205.777C93.1544 208.077 93.5121 210.121 93.8698 211.909C94.293 213.978 95.0526 215.963 96.1182 217.786C97.2424 219.932 98.111 221.618 98.6731 222.896C99.6279 224.729 100.794 226.444 102.148 228.006C103.885 230.101 105.061 231.531 105.623 232.349C106.902 233.873 108.285 235.307 109.762 236.641L113.747 240.372L118.244 244.357C120.748 246.606 122.179 247.832 122.383 248.088L138.991 262.753C145.292 268.347 151.263 274.302 156.875 280.587C162.104 286.551 166.822 292.943 170.979 299.698C175.549 306.974 178.994 314.899 181.199 323.204C183.504 332.149 184.637 341.356 184.571 350.593C184.797 360.258 183.036 369.867 179.397 378.823C175.758 387.78 170.319 395.894 163.416 402.663C156.01 409.777 147.236 415.311 137.627 418.93C128.017 422.549 117.772 424.178 107.513 423.716Z" fill="#D0D1DE"/>
<path d="M215.077 419.224V132.506H349.263V179.517H285.287V243.494H333.014V292.294H285.287V372.366H349.979V419.224H215.077Z" fill="#D0D1DE"/>
<path d="M504.861 417.379C477.566 425.828 448.354 425.828 421.058 417.379C410.343 413.751 400.833 407.245 393.567 398.574C386.609 389.873 381.592 379.786 378.85 368.988C375.635 355.831 374.124 342.315 374.353 328.773V222.946C374.12 209.404 375.632 195.887 378.85 182.731C381.592 171.933 386.609 161.845 393.567 153.144C400.844 144.474 410.349 137.955 421.058 134.289C448.364 125.909 477.555 125.909 504.861 134.289C515.607 137.967 525.159 144.482 532.506 153.144C539.511 161.836 544.581 171.923 547.376 182.731C550.657 195.878 552.203 209.398 551.975 222.946V328.773C552.201 342.321 550.654 355.84 547.376 368.988C544.581 379.796 539.511 389.883 532.506 398.574C525.17 407.237 515.613 413.738 504.861 417.379ZM462.909 375.12C466.208 375.261 469.472 374.387 472.26 372.616C474.737 370.803 476.536 368.212 477.37 365.258C478.338 362.388 479.005 359.425 479.363 356.418C479.701 353.158 479.854 349.883 479.823 346.606V204.959C479.854 201.666 479.7 198.373 479.363 195.097C479.01 192.122 478.342 189.193 477.37 186.359C476.519 183.44 474.721 180.887 472.26 179.103C469.472 177.332 466.208 176.458 462.909 176.599C460.13 176.507 457.378 177.16 454.937 178.49C452.909 179.528 451.158 181.035 449.827 182.884C448.544 185.014 447.693 187.375 447.323 189.834C446.789 192.219 446.464 194.647 446.352 197.09C446.352 198.981 446.352 201.587 446.352 204.959V346.606C446.352 349.826 446.352 352.432 446.352 354.374C446.463 356.85 446.788 359.312 447.323 361.732C447.701 364.173 448.551 366.516 449.827 368.63C451.151 370.512 452.903 372.053 454.937 373.127C457.363 374.504 460.12 375.193 462.909 375.12Z" fill="#D0D1DE"/>
<path d="M298.88 49.561C298.88 49.561 306.954 78.6876 310.889 83.4399C316.033 88.0482 321.732 91.9963 327.854 95.1927L324.43 101.325C324.43 101.325 300.822 89.2652 296.734 79.4541C294.627 74.5211 293.035 69.384 291.982 64.1243C291.318 60.4963 288.66 51.5539 289.989 47.9769C290.561 47.2452 291.321 46.6832 292.189 46.3513C293.056 46.0193 293.997 45.93 294.911 46.0929C295.826 46.2558 296.678 46.6647 297.377 47.2758C298.077 47.8868 298.596 48.6768 298.88 49.561Z" fill="#00BAD1"/>
<g style="mix-blend-mode:multiply" opacity="0.65">
<path d="M298.88 49.561C298.88 49.561 306.954 78.6876 310.889 83.4399C316.033 88.0482 321.732 91.9963 327.854 95.1927L324.43 101.325C324.43 101.325 300.822 89.2652 296.734 79.4541C294.627 74.5211 293.035 69.384 291.982 64.1243C291.318 60.4963 288.66 51.5539 289.989 47.9769C290.561 47.2452 291.321 46.6832 292.189 46.3513C293.056 46.0193 293.997 45.93 294.911 46.0929C295.826 46.2558 296.678 46.6647 297.377 47.2758C298.077 47.8868 298.596 48.6768 298.88 49.561Z" fill="#1AA3A4"/>
</g>
<path d="M379.77 188.553L385.697 182.983C385.697 182.983 409.509 181.245 410.889 183.341C412.269 185.436 388.354 196.729 385.339 196.524C382.324 196.32 380.178 190.852 379.77 188.553Z" fill="#110239"/>
<path d="M336.132 108.078C336.132 108.078 358.666 102.304 360.506 106.034C362.345 109.764 385.698 182.99 385.698 182.99L379.77 188.56C379.77 188.56 354.732 126.729 347.476 120.24C340.219 113.75 332.81 110.582 336.132 108.078Z" fill="#F88667"/>
<path d="M336.132 108.078C336.132 108.078 358.666 102.304 360.506 106.034C362.345 109.764 385.698 182.99 385.698 182.99L379.77 188.56C379.77 188.56 354.732 126.729 347.476 120.24C340.219 113.75 332.81 110.582 336.132 108.078Z" fill="#E45940"/>
<path d="M324.532 94.3806C326.172 93.9735 327.752 93.3551 329.233 92.541C330.363 91.6985 331.763 91.2987 333.168 91.4168C334.241 91.4168 342.928 95.1471 340.577 96.7823C339.862 97.2932 337.971 96.3734 337.255 96.1179C336.54 95.8624 335.109 95.1982 334.087 94.7383C335.007 94.7383 339.708 96.68 339.197 97.8042C338.329 99.6949 333.627 97.1399 332.503 96.5267C333.372 96.5267 336.285 97.7531 336.285 98.8262C336.285 99.8993 332.81 98.8262 332.043 98.8262C331.576 98.4601 331.036 98.1987 330.459 98.0597C329.729 98.0533 329.002 98.1743 328.313 98.4174C327.093 98.5964 325.854 98.5964 324.634 98.4174C323.919 98.4174 322.232 98.4174 321.875 97.9064C321.731 97.4593 321.698 96.9841 321.779 96.5214C321.859 96.0588 322.049 95.6223 322.334 95.2493C323.005 94.8234 323.751 94.5286 324.532 94.3806Z" fill="#F88667"/>
<path d="M324.532 94.3806C326.172 93.9735 327.752 93.3551 329.233 92.541C330.363 91.6985 331.763 91.2987 333.168 91.4168C334.241 91.4168 342.928 95.1471 340.577 96.7823C339.862 97.2932 337.971 96.3734 337.255 96.1179C336.54 95.8624 335.109 95.1982 334.087 94.7383C335.007 94.7383 339.708 96.68 339.197 97.8042C338.329 99.6949 333.627 97.1399 332.503 96.5267C333.372 96.5267 336.285 97.7531 336.285 98.8262C336.285 99.8993 332.81 98.8262 332.043 98.8262C331.576 98.4601 331.036 98.1987 330.459 98.0597C329.729 98.0533 329.002 98.1743 328.313 98.4174C327.093 98.5964 325.854 98.5964 324.634 98.4174C323.919 98.4174 322.232 98.4174 321.875 97.9064C321.731 97.4593 321.698 96.9841 321.779 96.5214C321.859 96.0588 322.049 95.6223 322.334 95.2493C323.005 94.8234 323.751 94.5286 324.532 94.3806Z" fill="#E45940"/>
<path d="M363.52 55.6953L368.834 57.8416L350.643 101.685L345.277 98.8232L363.52 55.6953Z" fill="#110239"/>
<path d="M347.221 98.0508H312.627V103.416H347.221V98.0508Z" fill="#110239"/>
<path d="M251.408 73.0703C256.007 70.4131 256.518 67.5005 254.218 57.7405C253.295 53.3608 253.835 48.799 255.755 44.7557C257.675 40.7124 260.869 37.4112 264.847 35.359C269.599 33.4172 273.738 32.5485 276.6 27.4897C279.462 22.4309 274.045 11.6489 283.192 3.67741C289.835 -2.14792 299.39 2.50214 299.39 2.50214C301.434 1.37796 302.303 13.3352 302.405 22.3286C290.857 40.0601 294.178 63.2082 298.368 82.9836C298.467 83.4373 298.603 83.8817 298.777 84.3121C297.908 99.6419 297.142 112.366 297.142 112.366C297.142 112.366 269.344 128.104 250.437 114.614C231.53 101.124 242.108 78.3335 251.408 73.0703Z" fill="#110239"/>
<path d="M333.167 184.922L340.218 188.959C340.218 188.959 348.854 211.187 347.27 213.129C345.686 215.07 327.852 195.499 327.137 192.689C326.422 189.879 331.072 185.944 333.167 184.922Z" fill="#110239"/>
<path d="M324.124 106.738C324.124 106.738 369.5 109.906 373.741 113.943C377.983 117.979 339.454 188.548 339.454 188.548L333.168 184.92C333.168 184.92 342.673 151.398 345.126 143.631C347.578 135.864 352.382 126.513 351.513 125.235C350.644 123.958 304.911 130.908 305.268 118.031C305.626 105.153 324.124 106.738 324.124 106.738Z" fill="#F88667"/>
<path d="M301.792 30.2509C299.13 37.4877 298.477 45.31 299.901 52.888L284.061 49.0044C286.504 40.2697 289.596 31.7295 293.31 23.4547C296.12 19.9288 301.792 30.2509 301.792 30.2509Z" fill="#F88667"/>
<path d="M295.149 41.9016C294.096 41.8744 293.048 42.0576 292.067 42.4402C291.086 42.8228 290.191 43.3974 289.434 44.1302C288.678 44.8629 288.075 45.7392 287.661 46.7078C287.247 47.6764 287.031 48.7178 287.024 49.771L284.061 49.0045C286.504 40.2698 289.596 31.7296 293.31 23.4548C296.12 19.7756 301.792 30.0977 301.792 30.0977C300.39 34.1645 299.481 38.3848 299.084 42.6682C297.853 42.1001 296.503 41.8371 295.149 41.9016Z" fill="#E45940"/>
<path d="M303.428 13.331C306.307 14.6014 308.897 16.4443 311.042 18.7475C312.523 21.2513 311.042 24.675 311.348 26.9745C311.693 29.0164 311.83 31.088 311.757 33.1575C311.45 33.7196 309.151 33.1575 308.793 33.6685C308.435 34.1795 305.472 35.9679 304.552 38.063C303.632 40.1581 302.406 40.3625 300.26 39.2894C295.177 34.7654 291.535 28.8487 289.784 22.2733C290.049 20.7679 290.619 19.3327 291.459 18.0561C292.3 16.7795 293.393 15.6887 294.672 14.8508C295.95 14.0129 297.386 13.4458 298.892 13.1844C300.398 12.923 301.942 12.9729 303.428 13.331Z" fill="#F88667"/>
<path d="M298.215 6.38357C299.537 8.96278 300.599 11.6674 301.384 14.4573C301.279 17.9935 300.181 21.4288 298.215 24.3706C296.887 25.2903 298.216 16.8079 294.741 19.2606C291.266 21.7134 294.741 26.7211 294.741 27.692C294.435 28.8657 293.784 29.921 292.874 30.7223C291.963 31.5237 290.834 32.0343 289.631 32.1887C286.258 32.1887 280.74 15.6836 284.521 11.4935C288.234 8.05249 293.156 6.21614 298.215 6.38357Z" fill="#110239"/>
<path d="M297.654 3.00508C299.295 1.86684 301.264 1.3002 303.259 1.39255C305.254 1.4849 307.163 2.23114 308.691 3.5161C314.363 8.06394 314.159 14.9623 318.911 14.3491C318.911 14.3491 315.794 22.2696 309.049 20.3789C302.304 18.4882 295.303 7.80841 297.654 3.00508Z" fill="#110239"/>
<path d="M279.154 92.7891L300.156 91.2051C300.156 91.2051 311.142 103.418 321.924 103.418H358.92C357.492 113.805 353.755 123.74 347.985 132.493C347.985 132.493 312.88 133.617 295.761 132.187C278.643 130.756 262.394 111.9 279.154 92.7891Z" fill="#AA22C6"/>
<path d="M277.162 95.2419C277.775 94.4243 278.439 93.6067 279.154 92.7891L300.156 91.2051C300.156 91.2051 310.836 103.06 321.516 103.418C308.639 104.593 284.009 107.557 277.162 95.2419Z" fill="#81199B"/>
<path d="M349.162 105.875C343.796 105.364 338.584 104.086 333.321 103.422H356.52C354.22 104.597 353.096 106.283 349.162 105.875Z" fill="#81199B"/>
<path d="M286.053 41.6953C290.253 43.396 294.574 44.7795 298.981 45.8343C298.981 45.8343 305.777 60.8575 308.435 64.8944C311.092 68.9312 301.741 84.5166 301.178 91.2106C301.178 91.2106 295.558 96.576 278.541 93.2545C278.541 93.2545 274.096 51.1487 286.053 41.6953Z" fill="#49E4DB"/>
<g style="mix-blend-mode:multiply" opacity="0.65">
<path d="M283.447 50.6338C285.149 50.005 287.011 49.96 288.741 50.5058C290.471 51.0516 291.97 52.1572 293.003 53.6486C294.792 57.3278 293.003 63.8685 293.003 67.8031C293.129 72.4198 293.642 77.0179 294.536 81.5489C295.703 85.2886 297.595 88.7615 300.106 91.7687C297.909 93.0973 291.623 95.7033 278.389 93.1484C278.389 93.1484 275.68 67.5987 280.177 51.7068C281.286 51.408 282.377 51.0498 283.447 50.6338Z" fill="#008F9C"/>
</g>
<path d="M321.211 94.3713C322.851 93.9642 324.431 93.3459 325.912 92.5318C327.058 91.6815 328.477 91.2815 329.898 91.4076C330.971 91.4076 339.607 95.1378 337.307 96.773C336.541 97.284 334.701 96.3642 333.935 96.1087C333.168 95.8532 331.789 95.189 330.767 94.7291C331.738 94.7291 336.388 96.6708 335.877 97.795C335.008 99.6857 330.256 97.1307 329.131 96.5175C330 96.5175 332.913 97.7439 332.913 98.817C332.913 99.89 329.438 98.817 328.672 98.817C328.205 98.4509 327.664 98.1895 327.088 98.0505C326.373 98.0402 325.663 98.1615 324.992 98.4082C323.773 98.5864 322.533 98.5864 321.313 98.4082C320.547 98.4082 318.912 98.4082 318.554 97.8972C318.387 97.4536 318.341 96.9732 318.422 96.506C318.503 96.0387 318.707 95.6016 319.014 95.24C319.677 94.7994 320.426 94.5034 321.211 94.3713Z" fill="#F88667"/>
<path d="M322.692 94.3816L320.853 101.382C320.853 101.382 275.323 96.2722 274.25 87.9942C273.177 79.7161 276.09 42.3114 287.076 46.246C298.062 50.1807 287.076 77.4166 288.916 79.5116C290.755 81.6067 322.692 94.3816 322.692 94.3816Z" fill="#49E4DB"/>
<path d="M549.317 270.409H476.347C462.755 270.409 452.995 258.911 457.338 247.721C457.318 247.551 457.318 247.379 457.338 247.21C464.186 231.88 484.472 236.07 489.837 243.071C489.837 243.071 476.143 218.236 505.423 218.236C529.95 218.236 522.388 242.406 522.388 242.406C522.388 242.406 526.987 223.755 541.397 225.186C564.749 227.485 550.85 250.736 550.85 250.736C550.85 250.736 574.254 245.626 573.998 258.043C573.743 270.46 549.317 270.409 549.317 270.409Z" fill="#49E4DB"/>
<path d="M95.9126 278.328H45.8353C36.4841 278.328 29.8412 270.408 32.7539 262.743V262.386C37.5061 252.166 51.4052 254.721 55.0843 259.524C55.0843 259.524 45.682 242.508 65.7641 242.508C82.6268 242.508 77.4147 259.064 77.4147 259.064C77.4147 259.064 80.5829 246.289 90.4451 247.26C106.49 248.844 96.9346 264.787 96.9346 264.787C96.9346 264.787 112.98 261.21 112.827 269.897C112.673 278.584 95.9126 278.328 95.9126 278.328Z" fill="#49E4DB"/>
<path d="M283.754 365.202H182.475C163.517 365.202 149.925 349.157 155.955 333.623L156.261 332.856C165.817 311.854 194.024 317.526 201.484 327.133C201.484 327.133 182.424 292.59 223.15 292.59C257.285 292.59 246.758 326.162 246.758 326.162C246.758 326.162 253.145 300.255 273.228 302.248C305.676 305.416 286.36 337.762 286.36 337.762C286.36 337.762 318.91 330.454 318.604 347.982C318.297 365.509 283.754 365.202 283.754 365.202Z" fill="#49E4DB"/>
<path d="M127.952 138.778C128.175 137.084 128.294 135.377 128.31 133.668C128.296 131.959 128.177 130.253 127.952 128.558L120.083 127.332C119.844 126.135 119.52 124.957 119.112 123.806L125.346 118.696C124.07 115.538 122.349 112.579 120.236 109.907L112.776 112.769C111.958 111.849 111.089 111.031 110.221 110.214L113.082 102.753C110.389 100.673 107.434 98.9547 104.293 97.6433L99.1833 103.877C98.008 103.52 96.8838 103.162 95.6574 102.907L94.4311 95.0373C91.0411 94.5605 87.6011 94.5605 84.2112 95.0373L82.9848 102.907C81.7584 103.162 80.6342 103.52 79.4589 103.877L74.349 97.6433C71.1867 98.943 68.2134 100.662 65.5088 102.753L68.3704 110.214C67.5017 111.031 66.633 111.849 65.8154 112.769L58.355 109.907C56.2622 112.592 54.5432 115.549 53.245 118.696L59.4791 123.806C59.0716 124.957 58.7472 126.135 58.5082 127.332L50.6389 128.558C50.4145 130.253 50.2951 131.959 50.2812 133.668C50.2969 135.377 50.4163 137.084 50.6389 138.778L58.5082 140.005C58.7604 141.198 59.0845 142.376 59.4791 143.53L53.245 148.64C54.554 151.798 56.272 154.77 58.355 157.481L65.8154 154.568C66.6152 155.47 67.4684 156.323 68.3704 157.123L65.5088 164.635C68.2243 166.71 71.1954 168.427 74.349 169.744L79.4589 163.51C80.6342 163.868 81.7584 164.226 82.9848 164.481L84.2112 172.351C87.6011 172.827 91.0411 172.827 94.4311 172.351L95.6574 164.481C96.8838 164.481 98.008 163.868 99.1833 163.51L104.293 169.744C107.424 168.414 110.377 166.697 113.082 164.635L110.221 157.123C111.123 156.323 111.976 155.47 112.776 154.568L120.236 157.481C122.337 154.782 124.057 151.808 125.346 148.64L119.112 143.53C119.507 142.376 119.831 141.198 120.083 140.005L127.952 138.778ZM89.3722 154.108C85.3296 154.108 81.3778 152.909 78.0165 150.663C74.6552 148.417 72.0354 145.225 70.4884 141.49C68.9414 137.755 68.5365 133.646 69.3252 129.681C70.1139 125.716 72.0606 122.074 74.9191 119.215C77.7777 116.357 81.4197 114.41 85.3846 113.621C89.3495 112.833 93.4593 113.237 97.1941 114.784C100.929 116.332 104.121 118.951 106.367 122.313C108.613 125.674 109.812 129.626 109.812 133.668C109.798 139.08 107.639 144.266 103.807 148.088C99.9756 151.911 94.7843 154.057 89.3722 154.057V154.108Z" fill="#49E4DB"/>
<path d="M89.3728 110.729C84.835 110.729 80.3991 112.074 76.6261 114.595C72.853 117.116 69.9122 120.7 68.1757 124.892C66.4391 129.084 65.9848 133.698 66.8701 138.148C67.7553 142.599 69.9405 146.687 73.1493 149.896C76.358 153.104 80.4461 155.29 84.8967 156.175C89.3474 157.06 93.9606 156.606 98.153 154.869C102.345 153.133 105.929 150.192 108.45 146.419C110.971 142.646 112.316 138.21 112.316 133.672C112.316 127.587 109.899 121.751 105.596 117.449C101.294 113.146 95.4579 110.729 89.3728 110.729ZM89.3728 147.929C86.5531 147.929 83.7968 147.093 81.4523 145.526C79.1078 143.96 77.2804 141.733 76.2014 139.128C75.1223 136.523 74.84 133.656 75.3901 130.891C75.9402 128.125 77.298 125.585 79.2918 123.591C81.2857 121.597 83.826 120.239 86.5915 119.689C89.3571 119.139 92.2236 119.422 94.8287 120.501C97.4337 121.58 99.6604 123.407 101.227 125.751C102.793 128.096 103.63 130.852 103.63 133.672C103.63 137.453 102.127 141.079 99.4538 143.753C96.7802 146.427 93.154 147.929 89.3728 147.929Z" fill="#110239"/>
<path d="M467.763 339.135C468.668 337.497 469.437 335.788 470.063 334.025C470.716 332.228 471.228 330.383 471.596 328.506L463.829 324.265C463.829 322.936 464.084 321.557 464.135 320.228L472.567 317.264C472.364 313.458 471.659 309.696 470.472 306.074H461.58C461.069 304.847 460.456 303.621 459.843 302.446L465.668 295.65C463.616 292.437 461.141 289.515 458.31 286.963L450.696 291.613C449.631 290.772 448.522 289.987 447.375 289.262L449.01 280.524C447.358 279.649 445.651 278.881 443.9 278.225C442.095 277.596 440.252 277.083 438.381 276.692L434.14 284.51C432.787 284.306 431.42 284.204 430.052 284.203L427.139 275.721C423.333 275.924 419.571 276.628 415.949 277.816V286.758C414.689 287.264 413.461 287.844 412.27 288.496L405.524 282.619C402.312 284.671 399.39 287.146 396.838 289.977L401.488 297.642C400.635 298.699 399.85 299.808 399.137 300.964L390.399 299.278C389.533 300.934 388.765 302.64 388.1 304.388C387.471 306.192 386.958 308.036 386.567 309.906L394.385 314.148C394.183 315.501 394.081 316.867 394.078 318.235L385.596 321.199C385.804 325.005 386.508 328.767 387.691 332.39L396.633 332.134C397.129 333.398 397.71 334.627 398.371 335.814L392.494 342.559C394.546 345.787 397.02 348.726 399.852 351.297L407.466 346.647C408.55 347.471 409.675 348.239 410.839 348.946L409.153 357.684C410.808 358.567 412.514 359.352 414.262 360.035C416.068 360.647 417.912 361.142 419.781 361.517L424.022 353.749C425.402 353.749 426.731 354.005 428.11 354.056L431.023 362.487C434.844 362.301 438.623 361.614 442.265 360.443V351.501C443.529 351.005 444.758 350.425 445.944 349.764L452.689 355.589C455.904 353.54 458.841 351.084 461.427 348.282L456.777 340.617C457.601 339.551 458.369 338.442 459.077 337.295L467.763 339.135ZM421.467 340.719C417.222 339.203 413.522 336.462 410.835 332.844C408.147 329.225 406.594 324.89 406.37 320.388C406.146 315.886 407.262 311.419 409.577 307.551C411.892 303.684 415.302 300.589 419.376 298.66C423.449 296.73 428.004 296.052 432.463 296.711C436.922 297.369 441.086 299.336 444.427 302.361C447.769 305.386 450.138 309.334 451.236 313.706C452.334 318.078 452.11 322.677 450.594 326.922C449.593 329.745 448.044 332.342 446.037 334.564C444.03 336.786 441.603 338.59 438.897 339.872C436.191 341.154 433.258 341.889 430.267 342.034C427.276 342.179 424.285 341.732 421.467 340.719Z" fill="#AA22C6"/>
<path d="M437.972 295.193C433.22 293.472 428.064 293.199 423.157 294.409C418.25 295.618 413.811 298.256 410.404 301.989C406.996 305.721 404.772 310.38 404.012 315.377C403.253 320.374 403.993 325.484 406.138 330.06C408.283 334.636 411.737 338.474 416.063 341.086C420.39 343.699 425.394 344.97 430.443 344.739C435.491 344.507 440.358 342.783 444.427 339.785C448.496 336.787 451.584 332.65 453.302 327.897C455.603 321.527 455.281 314.504 452.406 308.372C449.532 302.239 444.34 297.499 437.972 295.193ZM423.766 334.539C420.804 333.469 418.225 331.546 416.355 329.012C414.485 326.477 413.407 323.446 413.258 320.3C413.108 317.154 413.895 314.034 415.517 311.334C417.139 308.634 419.524 306.475 422.372 305.13C425.219 303.784 428.402 303.312 431.518 303.774C434.633 304.235 437.543 305.609 439.878 307.722C442.214 309.835 443.871 312.592 444.642 315.646C445.412 318.7 445.26 321.914 444.206 324.882C443.503 326.861 442.415 328.682 441.006 330.24C439.597 331.798 437.893 333.062 435.994 333.96C434.094 334.857 432.036 335.37 429.938 335.47C427.839 335.569 425.742 335.253 423.766 334.539Z" fill="#110239"/>
<path d="M46.5501 127.434H40.9292V130.704H46.5501V127.434Z" fill="#110239"/>
<path d="M35.6169 130.704H30.507V127.434H35.6169V130.704ZM25.0905 130.704H19.9806V127.434H25.0905V130.704ZM14.564 130.704H9.4541V127.434H14.564V130.704Z" fill="#110239"/>
<path d="M3.27035 131.419H0V127.434H3.98582V130.704H3.27035V131.419Z" fill="#110239"/>
<path d="M3.27035 214.72H0V210.07H3.27035V214.72ZM3.27035 205.471H0V200.821H3.27035V205.471ZM3.27035 196.222H0V191.47H3.27035V196.222ZM3.27035 186.973H0V182.323H3.27035V186.973ZM3.27035 177.724H0V173.074H3.27035V177.724ZM3.27035 168.424H0V163.825H3.27035V168.424ZM3.27035 159.175H0V154.576H3.27035V159.175ZM3.27035 149.926H0V145.48H3.27035V149.926ZM3.27035 140.677H0V136.078H3.27035V140.677Z" fill="#110239"/>
<path d="M3.98582 223.359H0V219.373H3.27035V220.037H3.98582V223.359Z" fill="#110239"/>
<path d="M78.2329 223.355H73.5829V220.033H78.2329V223.355ZM68.9839 223.355H64.3339V220.033H68.9839V223.355ZM59.6838 223.355H55.0338V220.033H59.8371L59.6838 223.355ZM50.3837 223.355H45.7848V220.033H50.3837V223.355ZM41.1348 223.355H36.4847V220.033H41.1348V223.355ZM31.8347 223.355H27.1847V220.033H31.8347V223.355ZM22.5346 223.355H17.9357V220.033H22.5346V223.355ZM13.2856 223.355H8.73779V220.033H13.3879L13.2856 223.355Z" fill="#110239"/>
<path d="M86.8671 224.07H83.5967V223.355H82.8813V220.033H86.8671V224.07Z" fill="#110239"/>
<path d="M86.868 259.788H83.5977V255.343H86.868V259.788ZM86.868 250.846H83.5977V246.4H86.868V250.846ZM86.868 241.904H83.5977V237.458H86.868V241.904ZM86.868 233.012H83.5977V228.516H86.868V233.012Z" fill="#110239"/>
<path d="M87.5834 268.263H83.5977V264.227H86.868V264.942H87.5834V268.263Z" fill="#110239"/>
<path d="M173.891 268.116H169.088V264.795H173.891V268.116ZM164.284 268.116H159.481V264.795H164.284V268.116ZM154.678 268.116H149.926V264.795H154.678V268.116ZM145.122 268.116H140.319V264.795H145.122V268.116ZM135.516 268.116H130.712V264.795H135.516V268.116ZM125.96 268.116H121.157V264.795H125.96V268.116ZM116.353 268.116H111.55V264.795H116.353V268.116ZM106.747 268.116H101.994V264.795H106.747V268.116ZM97.191 268.116H92.3877V264.795H97.191V268.116Z" fill="#110239"/>
<path d="M182.679 268.982H179.358V268.267H178.643V264.945H182.679V268.982Z" fill="#110239"/>
<path d="M182.476 337.868H179.154V332.758H182.476V337.868ZM182.476 328.006H179.154V322.896H182.476V328.006ZM182.476 318.195H179.154V313.085H182.476V318.195ZM182.476 308.333H179.154V303.223H182.476V308.333ZM182.476 298.471H179.154V293.361H182.476V298.471ZM182.476 288.66H179.154V283.55H182.476V288.66ZM182.476 278.797H179.154V273.688H182.476V278.797Z" fill="#110239"/>
<path d="M183.396 346.808H179.359V342.771H182.68V343.487H183.396V346.808Z" fill="#110239"/>
<path d="M293.309 346.81H288.761V343.488H293.309V346.81ZM284.162 346.81H279.563V343.488H284.162V346.81ZM275.016 346.81H270.417V343.488H275.016V346.81ZM265.818 346.81H261.27V343.488H265.818V346.81ZM256.671 346.81H252.072V343.488H256.671V346.81ZM247.524 346.81H242.925V343.488H247.524V346.81ZM238.326 346.81H233.574V343.488H238.122L238.326 346.81ZM229.18 346.81H224.581V343.488H229.18V346.81ZM220.033 346.81H215.434V343.488H220.033V346.81ZM210.886 346.81H206.287V343.488H210.886V346.81ZM201.688 346.81H197.14V343.488H201.688V346.81ZM192.541 346.81H187.942V343.488H192.541V346.81Z" fill="#110239"/>
<path d="M301.894 346.808H297.908V343.487H298.624V342.771H301.894V346.808Z" fill="#110239"/>
<path d="M301.894 338.123H298.624V333.422H301.894V338.123ZM301.894 328.72H298.624V324.019H301.894V328.72ZM301.894 319.369H298.624V314.668H301.894V319.369ZM301.894 309.967H298.624V305.266H301.894V309.967ZM301.894 300.616H298.624V295.915H301.894V300.616ZM301.894 291.214H298.624V286.563H301.894V291.214ZM301.894 281.862H298.624V277.161H301.894V281.862ZM301.894 272.46H298.624V267.81H301.894V272.46ZM301.894 263.109H298.624V258.408H301.894V263.109ZM301.894 253.707H298.624V249.057H301.894V253.707ZM301.894 244.356H298.624V239.654H301.894V244.356Z" fill="#110239"/>
<path d="M301.894 234.956H298.624V230.971H302.61V234.292H301.894V234.956Z" fill="#110239"/>
<path d="M423.971 234.292H419.269V230.971H423.971V234.292ZM414.619 234.292H409.969V230.971H414.619V234.292ZM405.268 234.292H400.618V230.971H405.268V234.292ZM395.968 234.292H391.267V230.971H395.968V234.292ZM386.617 234.292H381.763V230.971H386.873L386.617 234.292ZM377.266 234.292H372.616V230.971H377.266V234.292ZM367.966 234.292H363.265V230.971H367.966V234.292ZM358.615 234.292H353.965V230.971H358.615V234.292ZM349.263 234.292H344.613V230.971H349.263V234.292ZM339.963 234.292H335.262V230.971H339.963V234.292ZM330.612 234.292H325.962V230.971H330.663L330.612 234.292ZM321.261 234.292H316.611V230.971H321.261V234.292ZM311.961 234.292H307.26V230.971H311.961V234.292Z" fill="#110239"/>
<path d="M432.606 234.956H429.336V234.292H428.621V230.971H432.606V234.956Z" fill="#110239"/>
<path d="M432.862 262.345H429.591V257.899H432.862V262.345ZM432.862 253.249H429.591V248.65H432.862V253.249ZM432.862 244.102H429.591V239.555H432.862V244.102Z" fill="#110239"/>
<path d="M432.607 266.941H429.336V271.438H432.607V266.941Z" fill="#110239"/>
</svg>
