<svg width="374" height="392" viewBox="0 0 374 392" fill="none" xmlns="http://www.w3.org/2000/svg">
<path d="M221.243 370.454H152.715L158.348 287.865H215.61L221.243 370.454Z" fill="#110239"/>
<path d="M230.201 357.232C229.795 356.616 229.242 356.111 228.591 355.762C227.941 355.413 227.214 355.233 226.476 355.236H147.48C146.742 355.233 146.014 355.413 145.364 355.762C144.713 356.111 144.16 356.616 143.754 357.232L133.419 372.668C132.953 373.339 132.682 374.125 132.635 374.941C132.588 375.756 132.767 376.569 133.152 377.289C133.537 378.009 134.114 378.609 134.819 379.023C135.523 379.436 136.328 379.647 137.145 379.632H236.855C237.671 379.647 238.476 379.436 239.181 379.023C239.885 378.609 240.462 378.009 240.847 377.289C241.233 376.569 241.412 375.756 241.365 374.941C241.318 374.125 241.046 373.339 240.58 372.668L230.201 357.232Z" fill="#110239"/>
<path d="M354.706 59.125H19.2943C8.63834 59.125 0 67.7634 0 78.4193V290.524C0 301.18 8.63834 309.819 19.2943 309.819H354.706C365.362 309.819 374 301.18 374 290.524V78.4193C374 67.7634 365.362 59.125 354.706 59.125Z" fill="#110239"/>
<path d="M356.746 75.7148H17.2095V290.614H356.746V75.7148Z" fill="#49E4DB"/>
<path d="M312.392 354.403C272.96 347.084 226.964 338.435 226.831 353.693C226.831 368.153 244.174 379.33 259.299 386.471C267.823 383.881 276.593 382.187 285.468 381.415C300.904 379.02 316.073 381.415 331.553 381.415C341.168 377.496 349.647 371.228 356.214 363.185C356.214 363.185 342.775 360.036 312.392 354.403Z" fill="#616161"/>
<path d="M279.17 381.763C280.412 382.429 265.332 389.57 266.529 390.146C273.005 392.187 336.566 392.541 342.376 391.033C352.445 388.461 323.703 375.953 333.771 373.868C350.271 362.158 359.541 346.9 350.626 344.993C340.513 342.82 324.767 348.142 314.566 349.207C308.018 350.491 301.25 350.063 294.916 347.965L270.078 345.215C244.618 350.271 239.384 359.453 239.029 359.32C239.029 362.957 257.614 370.453 274.247 379.235C276.004 379.829 277.664 380.681 279.17 381.763Z" fill="#931CAB"/>
<path d="M269.677 371.922L277.75 382.833C277.75 382.833 268.879 388.954 266.528 390.063C264.177 391.172 244.35 391.97 239.117 387.978C233.883 383.986 232.862 379.728 235.258 377.511C237.653 375.293 245.592 373.829 249.274 373.341C257.302 372.365 269.677 371.922 269.677 371.922Z" fill="black"/>
<path d="M264.799 372.403L269.457 388.859C269.457 388.859 347.61 387.706 355.771 375.553C366.239 364.73 370.497 343.44 349.384 342.996C344.733 343.225 340.142 344.152 335.767 345.746C307.069 355.593 264.799 372.403 264.799 372.403Z" fill="#AA22C6"/>
<g style="mix-blend-mode:multiply" opacity="0.32">
<path d="M351.158 371.294C346.469 370.913 341.981 369.223 338.207 366.415C333.177 363.462 327.714 361.322 322.017 360.072C317.094 358.919 311.904 357.189 307.957 355.637C285.247 363 264.799 372.181 264.799 372.181L268.614 385.221L274.602 386.774C276.995 386.941 279.369 387.312 281.699 387.883L283.207 388.193C305.65 386.951 350.892 383.492 356.924 374.665C358.263 372.949 359.478 371.141 360.561 369.254C357.514 370.288 354.36 370.972 351.158 371.294Z" fill="#931CAB"/>
</g>
<path d="M332.084 373.021L325.297 381.582C325.297 381.582 336.386 388.324 338.604 389.433C340.822 390.542 356.878 391.296 361.934 387.659C366.991 384.021 368.144 379.985 365.926 377.812C361.931 375.245 357.356 373.72 352.62 373.376C345.799 372.641 338.926 372.522 332.084 373.021Z" fill="black"/>
<path d="M339.937 370.903L332.974 390.153C332.974 390.153 236.99 382.569 229.183 369.173C224.526 361.145 223.861 348.681 233.885 344.246C242.673 340.676 252.508 340.676 261.296 344.246C292.212 355.069 339.937 370.903 339.937 370.903Z" fill="#AA22C6"/>
<path d="M302.19 243.295H288.617C288.617 243.295 286.666 261.835 283.117 264.009C283.117 264.009 278.682 285.876 295.404 285.876C315.585 285.876 307.734 264.009 307.734 264.009C304.097 261.747 302.19 243.295 302.19 243.295Z" fill="#E45940"/>
<path d="M312.967 246.83C311.06 244.657 308.798 247.939 308.798 247.939C308.798 247.939 311.903 235.697 308.798 230.197C305.693 224.697 295.491 227.669 295.491 227.669C295.491 227.669 285.423 224.83 282.185 230.197C278.947 235.564 282.185 247.939 282.185 247.939C282.185 247.939 279.923 244.657 278.016 246.83C276.108 249.004 281.12 254.459 282.451 255.124C282.451 255.124 289.681 268.697 295.758 268.697C301.834 268.697 308.842 255.124 308.842 255.124C309.995 254.459 314.963 249.004 312.967 246.83Z" fill="#F88667"/>
<path d="M293.231 232.641C293.231 232.641 285.602 234.016 284.759 238.097C284.515 240.144 284.65 242.219 285.158 244.218C285.558 246.444 285.78 248.698 285.824 250.96C285.664 251.035 285.49 251.074 285.314 251.074C285.137 251.074 284.963 251.035 284.803 250.96C283.806 250.049 282.94 249.004 282.231 247.855C280.812 245.726 278.727 246.081 278.106 247.411C278.106 247.411 276.42 227.319 284.803 226.609C293.187 225.899 293.231 232.641 293.231 232.641Z" fill="#110239"/>
<path d="M298.197 232.641C298.197 232.641 305.826 234.016 306.669 238.097C306.914 240.144 306.778 242.219 306.27 244.218C305.848 246.441 305.625 248.697 305.605 250.96C305.755 251.038 305.923 251.078 306.092 251.078C306.262 251.078 306.429 251.038 306.58 250.96C307.602 250.073 308.472 249.024 309.153 247.855C310.617 245.726 312.701 246.081 313.322 247.411C313.322 247.411 315.008 227.319 306.58 226.609C298.153 225.899 298.197 232.641 298.197 232.641Z" fill="#110239"/>
<path d="M309.419 227.632C309.37 226.494 309.009 225.391 308.375 224.445C307.741 223.498 306.859 222.744 305.826 222.265C303.129 221.017 300.193 220.371 297.221 220.371C294.249 220.371 291.313 221.017 288.616 222.265C282.717 225.237 280.898 225.902 279.169 224.927C277.439 223.951 278.548 222.931 278.548 222.931C278.548 222.931 274.644 222.931 274.822 228.963C274.999 234.995 282.451 242.269 292.12 242.269C306.89 242.447 311.681 232.112 309.419 227.632Z" fill="#110239"/>
<path d="M307.734 263.91C306.98 282.539 295.403 280.588 295.403 280.588C295.403 280.588 283.826 282.539 283.117 263.91C273.537 266.526 264.305 270.278 255.617 275.088C258.068 286.36 259.434 297.841 259.697 309.374L270.254 350.313L295.403 345.878L320.552 350.313L331.153 309.374C331.39 297.839 332.757 286.356 335.234 275.088C326.546 270.278 317.313 266.526 307.734 263.91Z" fill="#D0D1DE"/>
<path d="M329.336 285.825C317.848 291.946 312.215 306.051 301.082 312.97C289.949 319.889 281.344 305.696 275.711 298.155C271.009 291.647 264.612 286.553 257.215 283.43C258.68 292.006 259.51 300.679 259.699 309.377L270.255 350.317L295.404 347.256L320.554 350.317L331.154 309.377C331.326 300.814 332.126 292.275 333.55 283.829C332.086 284.494 330.711 285.115 329.336 285.825Z" fill="#B8B9CD"/>
<path d="M255.618 275.089C255.618 275.089 234.638 324.323 234.372 331.109C233.884 344.416 262.626 349.561 275.711 347.166L281.078 346.19C281.078 346.19 261.606 274.734 255.618 275.089Z" fill="#D0D1DE"/>
<path d="M335.144 275.089C335.144 275.089 356.302 324.323 356.346 331.109C356.346 344.416 328.092 349.561 315.007 347.166L309.685 346.19C309.685 346.19 329.156 274.734 335.144 275.089Z" fill="#D0D1DE"/>
<path d="M264.532 292.387C264.481 294.82 264.184 297.243 263.645 299.617C261.605 308.487 258.411 317.846 261.782 326.939C264.665 334.011 268.121 340.835 272.117 347.342C273.311 347.479 274.516 347.479 275.71 347.342L281.077 346.367C281.077 346.367 272.161 313.411 264.532 292.387Z" fill="#B8B9CD"/>
<path d="M322.681 346.905C324.476 342.704 325.339 338.165 325.209 333.598C324.899 324.461 324.854 315.324 325.209 306.187C325.209 302.24 325.209 298.425 325.608 294.699C318.201 315.723 309.951 346.062 309.951 346.062L315.274 347.038C317.732 347.423 320.238 347.378 322.681 346.905Z" fill="#B8B9CD"/>
<path d="M328.359 346.721H262.447V350.624H328.359V346.721Z" fill="#110239"/>
<path d="M338.073 300.955H252.735C252.109 300.947 251.491 301.087 250.93 301.365C250.369 301.642 249.883 302.049 249.51 302.552C249.138 303.054 248.89 303.638 248.787 304.255C248.685 304.872 248.73 305.505 248.92 306.101C249.718 311.201 260.497 347.173 262.67 347.173H328.182C330.089 347.173 341.089 311.201 341.888 306.101C342.078 305.505 342.123 304.872 342.02 304.255C341.918 303.638 341.67 303.054 341.298 302.552C340.925 302.049 340.438 301.642 339.878 301.365C339.317 301.087 338.699 300.947 338.073 300.955Z" fill="#110239"/>
<path d="M298.952 325.919C298.952 326.383 298.86 326.843 298.681 327.271C298.502 327.699 298.24 328.087 297.91 328.413C297.58 328.739 297.189 328.996 296.758 329.17C296.328 329.343 295.868 329.429 295.404 329.423C294.474 329.423 293.583 329.054 292.926 328.397C292.269 327.74 291.9 326.849 291.9 325.919C291.894 325.456 291.98 324.995 292.154 324.565C292.327 324.135 292.584 323.743 292.91 323.413C293.236 323.083 293.624 322.821 294.052 322.642C294.481 322.463 294.94 322.371 295.404 322.371C295.87 322.371 296.331 322.463 296.762 322.641C297.192 322.82 297.583 323.081 297.913 323.41C298.242 323.74 298.504 324.131 298.682 324.562C298.86 324.992 298.952 325.454 298.952 325.919Z" fill="white"/>
<path d="M72.7417 183.184C72.7417 183.184 179.593 317.934 301.214 183.184C179.593 48.3896 72.7417 183.184 72.7417 183.184Z" fill="#110239"/>
<path d="M88.7549 183.191C88.7549 183.191 180.658 299.09 285.203 183.191C180.658 67.2471 88.7549 183.191 88.7549 183.191Z" fill="white"/>
<path d="M236.481 194.609C242.81 167.284 225.789 140.002 198.463 133.674C171.138 127.345 143.856 144.366 137.528 171.691C131.199 199.016 148.22 226.298 175.545 232.627C202.871 238.956 230.153 221.934 236.481 194.609Z" fill="#AA22C6"/>
<path d="M218.981 183.185C218.981 189.51 217.105 195.693 213.591 200.952C210.077 206.211 205.083 210.31 199.239 212.73C193.395 215.151 186.965 215.784 180.762 214.55C174.558 213.316 168.86 210.27 164.388 205.798C159.915 201.326 156.869 195.627 155.635 189.424C154.402 183.22 155.035 176.79 157.455 170.947C159.876 165.103 163.975 160.109 169.234 156.595C174.493 153.081 180.676 151.205 187.001 151.205C191.201 151.205 195.359 152.032 199.239 153.639C203.119 155.247 206.644 157.602 209.614 160.572C212.584 163.541 214.939 167.067 216.546 170.947C218.154 174.827 218.981 178.985 218.981 183.185Z" fill="#110239"/>
<path d="M224.836 163.011C224.871 165.6 224.135 168.14 222.722 170.309C221.309 172.477 219.282 174.176 216.9 175.189C214.518 176.202 211.888 176.483 209.346 175.997C206.803 175.51 204.463 174.278 202.623 172.457C200.784 170.636 199.527 168.309 199.015 165.772C198.502 163.234 198.756 160.602 199.744 158.209C200.733 155.817 202.411 153.773 204.565 152.337C206.719 150.902 209.251 150.14 211.84 150.149C215.26 150.16 218.539 151.514 220.97 153.921C223.401 156.327 224.789 159.591 224.836 163.011Z" fill="white"/>
<path d="M175.379 0H37.9234C34.1264 0 31.0483 3.07802 31.0483 6.87498V95.4073C31.0483 99.2042 34.1264 102.282 37.9234 102.282H175.379C179.176 102.282 182.254 99.2042 182.254 95.4073V6.87498C182.254 3.07802 179.176 0 175.379 0Z" fill="#E5E6ED"/>
<path d="M175.38 8.16211H37.9248V94.1662H175.38V8.16211Z" fill="#110239"/>
<path d="M88.1338 31.2734V73.3662L129.162 52.2977L88.1338 31.2734Z" fill="#49E4DB"/>
</svg>
