<svg width="488" height="430" viewBox="0 0 488 430" fill="none" xmlns="http://www.w3.org/2000/svg">
<path d="M288.657 406.215H199.287L206.644 298.506H281.356L288.657 406.215Z" fill="#110239"/>
<path d="M300.372 389.007C299.855 388.202 299.143 387.541 298.302 387.085C297.46 386.63 296.517 386.395 295.561 386.403H192.437C191.471 386.386 190.516 386.616 189.664 387.071C188.812 387.527 188.091 388.193 187.569 389.007L174.098 409.1C173.434 409.959 173.031 410.992 172.937 412.074C172.843 413.157 173.063 414.244 173.571 415.205C174.078 416.165 174.851 416.96 175.798 417.493C176.745 418.027 177.825 418.276 178.909 418.212H309.088C310.178 418.288 311.266 418.047 312.221 417.518C313.177 416.99 313.959 416.196 314.474 415.233C314.988 414.269 315.213 413.178 315.121 412.09C315.029 411.001 314.625 409.963 313.956 409.1L300.372 389.007Z" fill="#110239"/>
<path d="M462.87 0H25.1301C11.2512 0 0 11.2511 0 25.1301V301.958C0 315.837 11.2512 327.088 25.1301 327.088H462.87C476.749 327.088 488 315.837 488 301.958V25.1301C488 11.2511 476.749 0 462.87 0Z" fill="#110239"/>
<path d="M465.529 21.6797H22.4688V302.073H465.529V21.6797Z" fill="#49E4DB"/>
<path d="M305.183 211.342H280.902V301.788H305.183V211.342Z" fill="#D0D1DE"/>
<path d="M305.183 211.342H280.902V239.698H305.183V211.342Z" fill="#9698B5"/>
<path d="M370.894 71.0918H227.301V217.005H427.946V128.201C427.953 120.704 426.483 113.279 423.62 106.35C420.756 99.4219 416.554 93.1258 411.256 87.822C405.957 82.5182 399.665 78.3107 392.74 75.44C385.814 72.5694 378.391 71.0918 370.894 71.0918Z" fill="#AA22C6"/>
<path d="M285.261 217.006H169.685V128.201C169.678 120.704 171.148 113.279 174.012 106.351C176.876 99.4226 181.077 93.1265 186.375 87.8227C191.674 82.5189 197.966 78.3114 204.891 75.4407C211.817 72.5701 219.24 71.0925 226.737 71.0925H227.926C235.447 71.0552 242.901 72.5052 249.859 75.3592C256.817 78.2132 263.143 82.4148 268.471 87.7223C273.8 93.0298 278.026 99.3385 280.908 106.285C283.789 113.232 285.269 120.68 285.261 128.201V217.006Z" fill="#AA22C6"/>
<path d="M275.128 204.492H179.532V130.913C179.524 124.694 180.743 118.535 183.117 112.788C185.492 107.041 188.976 101.818 193.371 97.4179C197.765 93.0181 202.984 89.5277 208.728 87.1463C214.473 84.7648 220.63 83.5391 226.849 83.5391H227.811C234.03 83.5391 240.187 84.7648 245.932 87.1463C251.676 89.5277 256.895 93.0181 261.289 97.4179C265.684 101.818 269.168 107.041 271.543 112.788C273.917 118.535 275.135 124.694 275.128 130.913V204.492Z" fill="#110239"/>
<path d="M241.114 205.736H131.707V216.943H241.114V205.736Z" fill="#AA22C6"/>
<path d="M367.047 163.003C370.499 163.003 373.895 157.343 373.895 149.532C374.161 145.82 373.641 142.093 372.367 138.596C371.093 135.099 369.095 131.91 366.504 129.239C363.912 126.567 360.786 124.473 357.329 123.093C353.872 121.714 350.163 121.08 346.445 121.233C338.939 121.233 331.741 124.214 326.434 129.521C321.127 134.829 318.145 142.027 318.145 149.532C318.082 153.124 318.749 156.691 320.105 160.017C321.461 163.344 323.478 166.36 326.033 168.884C328.589 171.408 331.631 173.387 334.974 174.702C338.317 176.016 341.892 176.638 345.482 176.53C351.107 176.479 356.58 174.7 361.16 171.436L365.009 178.115C359.273 182.103 352.469 184.272 345.482 184.341C340.831 184.502 336.195 183.718 331.855 182.036C327.515 180.354 323.561 177.809 320.233 174.555C316.905 171.301 314.272 167.405 312.493 163.105C310.713 158.804 309.825 154.186 309.881 149.532C309.866 144.743 310.806 139.998 312.647 135.577C314.488 131.155 317.193 127.145 320.603 123.782C324.014 120.419 328.061 117.771 332.508 115.992C336.955 114.213 341.712 113.339 346.501 113.422C351.215 113.289 355.906 114.119 360.289 115.861C364.671 117.602 368.652 120.219 371.989 123.551C375.327 126.883 377.949 130.86 379.698 135.239C381.446 139.619 382.284 144.309 382.159 149.023C382.159 161.418 375.367 169.455 366.141 169.455C364.066 169.82 361.93 169.426 360.121 168.345C358.313 167.264 356.954 165.569 356.293 163.569V162.607C354.927 164.651 353.074 166.322 350.899 167.468C348.725 168.615 346.299 169.2 343.841 169.172C341.378 169.121 338.95 168.581 336.699 167.582C334.447 166.584 332.417 165.147 330.726 163.356C329.035 161.565 327.717 159.456 326.85 157.15C325.982 154.845 325.582 152.39 325.673 149.929C325.673 139.231 332.351 130.289 342.653 130.289C344.804 130.249 346.937 130.691 348.896 131.582C350.854 132.473 352.589 133.791 353.972 135.439V131.194H364.273V159.154C363.99 161.871 365.236 163.003 367.047 163.003ZM336.766 149.193C336.766 154.853 339.879 159.55 344.747 159.55C349.614 159.55 353.01 154.909 353.01 149.306C353.234 148.113 353.192 146.884 352.887 145.709C352.582 144.534 352.022 143.44 351.247 142.506C350.472 141.571 349.5 140.82 348.401 140.303C347.302 139.787 346.102 139.52 344.888 139.52C343.674 139.52 342.475 139.787 341.376 140.303C340.277 140.82 339.305 141.571 338.529 142.506C337.754 143.44 337.194 144.534 336.889 145.709C336.584 146.884 336.542 148.113 336.766 149.306V149.193Z" fill="white"/>
<path d="M250.679 236.022C251.528 213.382 267.036 194.082 275.13 185.479V180.555H200.362C185.08 180.555 175.968 188.365 167.704 201.27C160.702 211.547 156.56 223.502 155.705 235.909C154.573 266.756 161.365 281.754 141.216 302.13C121.066 322.506 112.237 334.165 118.18 367.502H213.436C207.493 334.165 216.436 322.506 236.472 302.13C256.509 281.754 249.604 266.869 250.679 236.022Z" fill="#E5E6ED"/>
<path d="M261.716 187.74H191.533L188.873 190.853H259.112L261.716 187.74Z" fill="#9A94AB"/>
<path d="M250.678 202.465H180.495C179.872 203.427 179.25 204.446 178.684 205.521H248.867C249.433 204.446 250.055 203.201 250.678 202.465Z" fill="#9A94AB"/>
<path d="M243.321 217.123H173.137C172.741 218.142 172.402 219.161 172.062 220.179H242.245L243.321 217.123Z" fill="#9A94AB"/>
<path d="M239.979 231.781H169.796C169.796 232.8 169.796 233.819 169.513 234.838H239.697C239.47 233.819 239.583 232.8 239.979 231.781Z" fill="#9A94AB"/>
<path d="M239.246 246.439H169.063C169.063 247.515 169.063 248.534 169.063 249.552H239.246C239.246 248.477 239.246 247.515 239.246 246.439Z" fill="#9A94AB"/>
<path d="M239.528 261.143H169.345C169.345 262.161 169.345 263.18 169.345 264.199H239.528C239.585 263.18 239.585 262.161 239.528 261.143Z" fill="#9A94AB"/>
<path d="M238.905 275.811H168.666C168.551 276.838 168.381 277.858 168.156 278.867H238.339C238.566 277.848 238.736 276.773 238.905 275.811Z" fill="#9A94AB"/>
<path d="M233.983 290.471H163.799L161.875 293.584H232.058C232.737 292.508 233.417 291.489 233.983 290.471Z" fill="#9A94AB"/>
<path d="M222.039 305.074H151.856L148.913 308.131H219.096L222.039 305.074Z" fill="#9A94AB"/>
<path d="M209.361 319.842H139.178C138.461 320.861 137.782 321.879 137.14 322.898H207.324L209.361 319.842Z" fill="#9A94AB"/>
<path d="M202.058 334.5H131.874C131.874 335.519 131.308 336.538 131.082 337.556H201.265C201.492 336.538 201.775 335.519 202.058 334.5Z" fill="#9A94AB"/>
<path d="M200.362 349.158H130.179V352.271H200.362V349.158Z" fill="#9A94AB"/>
<path d="M164.081 213.716C163.459 212.698 159.497 215.924 158.931 216.773C157.879 217.986 156.914 219.272 156.044 220.621C155.422 221.98 154.799 223.282 154.12 224.64C153.872 225.436 153.682 226.25 153.554 227.074C152.998 228.218 152.294 229.283 151.46 230.243C151.46 230.243 151.46 230.696 151.063 231.092C152.648 232.394 152.705 233.583 153.61 235.394C154.206 234.813 154.85 234.282 155.535 233.809C156.157 233.413 160.119 231.885 160.799 231.602C162.157 231.041 163.432 230.298 164.591 229.394C165.043 229.055 166.741 228.489 166.572 227.866C166.402 227.244 163.968 227.244 163.402 227.357C162.051 227.904 160.614 228.21 159.157 228.262C158.89 228.174 158.644 228.032 158.433 227.846C158.223 227.66 158.051 227.434 157.93 227.18C157.808 226.927 157.739 226.651 157.726 226.371C157.713 226.09 157.757 225.809 157.855 225.546C158.301 224.161 159.173 222.953 160.346 222.093L164.251 218.471C166.345 216.66 165.44 215.358 163.515 216.603C163.119 216.603 160.119 219.263 159.836 219.433C159.553 219.603 160.459 218.754 160.629 218.527C161.817 217.169 164.874 214.905 164.081 213.716Z" fill="#F88667"/>
<path d="M80.7095 179.307C80.7095 179.307 80.9926 179.873 81.1624 180.099C82.6522 182.629 84.3969 185 86.3695 187.174C87.5581 188.476 89.6523 189.551 90.6711 190.853C91.0752 191.351 91.51 191.824 91.9729 192.268C89.3446 198.163 87.187 204.257 85.5205 210.493C85.5205 210.493 72.8988 206.701 69.3896 200.475C73.7917 193.773 77.5803 186.689 80.7095 179.307Z" fill="#F88667"/>
<path d="M82.7489 202.348C82.7584 198.288 81.4911 194.328 79.1265 191.028C78.2775 190.01 77.4285 188.991 76.5229 188.085C78.1471 185.177 79.5473 182.15 80.7112 179.029C80.7112 179.029 80.9943 179.595 81.1641 179.822C82.6539 182.352 84.3986 184.722 86.3712 186.897C87.5598 188.198 89.654 189.274 90.6728 190.576C91.0769 191.074 91.5118 191.546 91.9746 191.991C89.3464 197.886 87.1888 203.98 85.5222 210.216C83.8431 209.697 82.1985 209.074 80.5981 208.348C81.9602 206.642 82.7168 204.531 82.7489 202.348Z" fill="#E45940"/>
<path d="M33.7899 412.618C33.7899 412.618 31.8655 425.466 33.7899 427.277C35.7142 429.088 62.4292 431.013 64.7497 428.692C67.0703 426.372 65.8817 422.296 60.2783 420.598C54.675 418.901 51.3357 420.259 47.6001 418.561C43.8646 416.863 45.0531 410.977 45.0531 410.977L33.7899 412.618Z" fill="#110239"/>
<path d="M78.6707 412.618C78.6707 412.618 76.7463 425.466 78.6707 427.277C80.5951 429.088 107.31 431.013 109.631 428.692C111.951 426.372 110.763 422.296 105.159 420.598C99.5558 418.901 96.2165 420.259 92.481 418.561C88.7454 416.863 89.9339 410.977 89.9339 410.977L78.6707 412.618Z" fill="#110239"/>
<path d="M29.6009 340.329C25.1525 316.268 22.9733 291.842 23.092 267.373C27.5028 266.583 32.0281 266.699 36.3929 267.712C44.8828 270.033 53.3727 272.184 61.806 274.278C56.477 297.127 52.6952 320.31 50.4861 343.669C50.4861 355.328 47.4298 416.569 47.4298 416.569L32.0348 416.965C30.5632 407.626 30.1103 343.442 29.6009 340.329Z" fill="#AA22C6"/>
<path d="M48.2795 271.111C52.7482 272.377 57.2829 273.397 61.8634 274.167C56.6109 296.993 52.8299 320.133 50.5435 343.445C47.5437 337.785 36.1106 317.465 29.7714 302.07C25.5036 291.787 23.274 280.773 23.2061 269.639C31.5771 268.421 40.1085 268.922 48.2795 271.111Z" fill="#86159D"/>
<path d="M37.92 267.263C43.5799 268.905 53.9943 271.225 61.8616 273.659C67.8045 287.073 84.5013 322.731 87.5011 336.937C91.8593 356.634 91.9159 415.497 91.9159 415.497H76.9737C76.9737 415.497 66.7857 348.823 64.9745 344.182C57.7298 325.504 44.429 312.543 39.2785 303.713C31.6327 291.638 26.4398 278.176 23.9966 264.094C28.4113 265.452 33.109 265.848 37.92 267.263Z" fill="#AA22C6"/>
<path d="M74.3715 216.833C77.5976 210.438 75.0507 205.91 81.8426 208.117C93.1625 211.739 103.633 235.794 110.142 237.322C119.085 239.473 152.196 228.04 152.196 228.04L155.592 236.473C155.592 236.473 111.953 255.547 104.652 253.453C97.3508 251.359 78.7297 231.209 74.1452 224.304C73.5235 223.149 73.2171 221.85 73.2568 220.538C73.2966 219.227 73.681 217.949 74.3715 216.833Z" fill="#D0D1DE"/>
<path d="M74.3715 216.833C77.5976 210.438 75.0507 205.91 81.8426 208.117C93.1625 211.739 103.633 235.794 110.142 237.322C119.085 239.473 152.196 228.04 152.196 228.04L155.592 236.473C155.592 236.473 111.953 255.547 104.652 253.453C97.3508 251.359 78.7297 231.209 74.1452 224.304C73.5235 223.149 73.2171 221.85 73.2568 220.538C73.2966 219.227 73.681 217.949 74.3715 216.833Z" fill="#B8B9CD"/>
<path d="M67.863 283.444C58.8309 282.834 49.9023 281.162 41.2614 278.463C31.5829 275.294 23.2627 269.86 21.9043 265.672C21.9043 265.672 37.1862 226.052 47.7703 212.242C50.3626 208.474 53.7174 205.293 57.6175 202.904C61.5175 200.515 65.8757 198.972 70.41 198.375C74.8901 202.49 80.2245 205.563 86.0313 207.374C86.0313 207.374 79.4659 237.146 76.1831 248.465C72.9003 259.785 67.863 283.444 67.863 283.444Z" fill="#D0D1DE"/>
<path d="M64.5233 238.558C63.6946 231.927 64.0394 225.202 65.5421 218.691C66.1647 219.201 66.8439 219.71 67.4099 220.276C70.7439 223.877 74.6678 226.882 79.0127 229.162C79.5787 229.392 80.1666 229.562 80.7673 229.672C79.0693 236.86 77.2581 244.105 75.9563 248.689C72.7302 260.349 67.6362 283.441 67.6362 283.441C67.6362 283.441 63.8441 283.441 58.354 282.422C64.5233 269.631 64.9761 253.217 64.5233 238.558Z" fill="#B8B9CD"/>
<path d="M81.5018 161.249C81.5018 161.249 92.1425 153.778 98.4816 157.91C104.821 162.041 108.33 165.381 107.764 168.381C106.444 173.069 105.516 177.858 104.991 182.7C105.716 185.994 106.132 189.348 106.236 192.718C105.5 193.85 101.538 192.152 101.029 192.718C100.519 193.284 93.7839 200.359 91.9161 200.472C86.3918 196.344 82.4071 190.487 80.5962 183.832C80.8792 178.795 77.4267 167.588 81.5018 161.249Z" fill="#F88667"/>
<path d="M94.6348 169.572C95.4838 171.836 98.7665 175.742 107.483 176.477C116.199 177.213 122.085 159.498 106.917 152.762C91.7481 146.027 89.5408 151.291 86.258 150.951C84.6656 150.654 83.0281 150.703 81.456 151.094C79.884 151.484 78.4141 152.208 77.1456 153.215C74.1613 155.425 72.0345 158.601 71.1265 162.202C70.2186 165.803 70.5854 169.607 72.1648 172.968C75.6174 182.873 80.7679 184.288 80.7679 184.288C82.0696 182.647 83.5978 179.534 82.5224 177.723C81.8346 176.941 81.2628 176.064 80.8245 175.119C80.6311 174.439 80.6663 173.715 80.9247 173.057C81.1831 172.399 81.6503 171.844 82.2547 171.478C82.8591 171.111 83.5671 170.953 84.2699 171.028C84.9727 171.103 85.6315 171.407 86.1449 171.893C87.6165 173.025 86.8241 176.308 87.2203 177.553C87.6165 178.798 88.4088 179.364 89.088 179.421C89.7672 179.477 92.8802 176.817 92.484 172.119C92.201 169.516 93.7292 167.308 94.6348 169.572Z" fill="#110239"/>
<path d="M135.95 284.535C136.488 284.651 137.017 284.802 137.535 284.988C138.615 285.618 139.851 285.931 141.101 285.894C143.232 285.706 145.379 285.996 147.383 286.743C148.289 287.309 153.553 290.874 151.232 292.685C150.893 292.685 149.987 293.195 149.817 293.025L147.893 291.327C148.357 291.71 148.792 292.126 149.195 292.572C149.446 292.83 149.64 293.139 149.761 293.478C149.761 294.044 149.025 294.949 148.402 294.893C147.78 294.836 147.666 294.27 147.327 293.874C147.61 294.383 148.346 294.893 147.327 295.912C146.308 296.93 146.082 295.912 145.572 295.912L145.063 295.402C145.063 295.402 145.855 296.308 145.969 296.534C146.082 296.761 144.497 298.345 143.478 297.836C142.459 297.327 141.667 295.912 141.271 295.855C140.788 295.796 140.313 295.682 139.856 295.515C138.5 295.062 137.276 294.285 136.29 293.251C135.837 292.742 134.931 291.95 134.479 291.44C133.861 290.76 133.311 290.02 132.837 289.233C134.37 288.058 135.465 286.404 135.95 284.535Z" fill="#F88667"/>
<path d="M133.405 292.674L140.31 283.392C140.31 283.392 115.463 259.79 105.898 248.017C96.3323 236.244 87.5028 213.548 79.6921 211.341C71.8813 209.133 63.335 212.699 66.7309 224.302C70.1269 235.905 92.0873 253.224 96.3323 258.601C108.078 270.607 120.453 281.981 133.405 292.674Z" fill="#D0D1DE"/>
</svg>
