<svg width="523" height="370" viewBox="0 0 523 370" fill="none" xmlns="http://www.w3.org/2000/svg">
<path d="M474.093 332.458H94.8417C90.0647 332.7 85.3864 331.04 81.8299 327.842C78.2733 324.643 76.1279 320.167 75.8628 315.391V27.4437C76.1279 22.6679 78.2733 18.1914 81.8299 14.9931C85.3864 11.7949 90.0647 10.1351 94.8417 10.3766H474.093C478.87 10.1351 483.548 11.7949 487.105 14.9931C490.661 18.1914 492.807 22.6679 493.072 27.4437V315.391C492.807 320.167 490.661 324.643 487.105 327.842C483.548 331.04 478.87 332.7 474.093 332.458Z" fill="#D0D1DE"/>
<path d="M474.092 30.6191H94.8408V312.225H474.092V30.6191Z" fill="white"/>
<path d="M352.57 277.747C411.656 242.524 431.002 166.072 395.779 106.986C360.557 47.8998 284.104 28.5544 225.018 63.7768C165.932 98.9993 146.587 175.452 181.809 234.538C217.032 293.624 293.484 312.969 352.57 277.747Z" fill="#110239"/>
<path d="M270.825 47.6407C303.226 43.5121 336.999 51.731 363 71.5C389.001 91.269 406.816 119.175 411.5 151.5C416.184 183.825 406.316 218.528 386.996 244.865C367.677 271.201 338.785 288.894 306.545 294.133L270.825 47.6407Z" fill="#AA22C6"/>
<path d="M279.919 295.199H279.266L287.986 171.16L392.067 101.586C405.072 120.924 412.386 143.524 413.177 166.814C413.968 190.104 408.205 213.149 396.543 233.325C384.88 253.5 367.788 269.996 347.211 280.935C326.634 291.874 303.4 296.816 280.152 295.199H279.919Z" fill="#49E4DB"/>
<path d="M272.318 294.223C279.409 295.188 286.571 295.532 293.722 295.249L288.779 170.604L165.346 154.283C160.974 187.026 169.788 220.164 189.85 246.408C209.911 272.652 239.575 289.851 272.318 294.223Z" fill="#E5E6ED"/>
<path d="M238.37 201.945L122.865 141.324C113.649 158.909 108.565 178.365 108 198.21C107.434 218.056 111.402 237.769 119.601 255.85L238.37 201.945Z" fill="#49E4DB"/>
<path d="M301.229 183.104L426.621 160.395C427.615 165.804 428.269 171.271 428.579 176.762C429.729 199.423 424.751 221.974 414.17 242.046L301.229 183.104Z" fill="#AA22C6"/>
<path d="M125.665 138.664C122.498 138.815 119.441 139.866 116.852 141.695C114.404 142.983 111.803 143.954 109.111 144.586C109.395 146.127 109.582 147.685 109.67 149.249C109.67 149.249 114.007 148.503 114.334 148.363C115.826 147.897 116.945 146.778 118.624 147.198C119.42 147.495 120.185 147.87 120.909 148.317C121.795 148.83 123.986 150.975 125.059 150.555C126.131 150.135 124.033 148.084 123.753 147.571C123.473 147.058 123.473 145.379 124.639 145.705C125.805 146.032 129.022 148.084 130.794 147.244C132.566 146.405 126.131 144.306 124.965 143.56C126.831 144.493 132.939 146.358 133.406 145.286C134.385 143.234 127.903 142.161 126.131 141.275C127.683 142.125 129.451 142.498 131.214 142.348C133.592 141.462 127.017 139.224 125.665 138.664Z" fill="#F88667"/>
<path d="M119.043 257.573C115.914 257.056 112.999 255.647 110.649 253.517C108.356 251.976 105.881 250.723 103.282 249.786C103.761 248.262 104.12 246.703 104.354 245.123C104.354 245.123 108.598 246.382 109.017 246.569C110.416 247.221 111.396 248.48 113.121 248.247C113.951 248.014 114.761 247.718 115.546 247.361C116.478 246.988 118.857 245.123 119.882 245.636C120.908 246.149 118.577 247.968 118.25 248.48C117.924 248.993 117.737 250.579 118.903 250.439C120.069 250.299 123.566 248.574 125.198 249.6C126.83 250.625 120.255 252.024 118.996 252.584C120.955 251.884 127.204 250.765 127.577 251.838C128.276 253.983 121.748 254.309 119.882 255.009C121.518 254.324 123.321 254.145 125.058 254.496C127.25 255.708 120.442 257.154 119.043 257.573Z" fill="#F88667"/>
<path d="M44.0133 192.985C46.2956 194.759 49.1348 195.663 52.0227 195.535C54.9106 195.406 57.6586 194.255 59.7747 192.285C67.0491 185.803 80.5255 173.633 84.9089 170.369C91.0175 165.705 118.437 148.499 118.437 148.499L114.286 140.758C114.286 140.758 80.1525 155.866 75.3495 159.643C70.5465 163.421 42.7077 180.301 41.3554 187.109C41.2117 188.239 41.3841 189.386 41.8533 190.423C42.3226 191.46 43.0703 192.347 44.0133 192.985Z" fill="#FD425F"/>
<path d="M44.0133 192.985C46.2956 194.759 49.1348 195.663 52.0227 195.535C54.9106 195.406 57.6586 194.255 59.7747 192.285C67.0491 185.803 80.5255 173.633 84.9089 170.369C91.0175 165.705 118.437 148.499 118.437 148.499L114.286 140.758C114.286 140.758 80.1525 155.866 75.3495 159.643C70.5465 163.421 42.7077 180.301 41.3554 187.109C41.2117 188.239 41.3841 189.386 41.8533 190.423C42.3226 191.46 43.0703 192.347 44.0133 192.985Z" fill="#9017A9"/>
<path d="M48.9561 159.457L49.5157 160.063C51.1831 161.786 53.0099 163.348 54.9715 164.726C56.2306 165.566 58.0958 166.079 59.1683 166.918C59.581 167.259 60.0173 167.571 60.474 167.851C59.4341 173.125 58.8105 178.473 58.6087 183.845C58.6087 183.845 47.6504 183.052 43.6401 178.622C45.9774 172.404 47.7564 165.991 48.9561 159.457Z" fill="#F88667"/>
<path d="M59.9144 171.354C59.9144 170.002 60.3341 168.79 60.474 167.95C60.0173 167.671 59.581 167.359 59.1683 167.018C58.0958 166.178 56.2306 165.665 54.9715 164.826C53.0099 163.447 51.1831 161.886 49.5157 160.163L48.9561 159.557C47.7618 166.122 45.9827 172.567 43.6401 178.815C45.387 180.475 47.5178 181.677 49.8421 182.313C50.1521 179.658 51.293 177.169 53.1019 175.201C54.9107 173.233 57.295 171.887 59.9144 171.354Z" fill="#E45940"/>
<path d="M55.0635 355.215C55.0635 355.215 55.3433 366.127 57.0686 367.619C58.794 369.111 80.3842 369.764 82.3893 367.619C84.3945 365.474 83.1821 362.256 78.519 360.951C73.8558 359.645 71.058 360.95 67.887 359.598C64.7161 358.246 65.6021 353.35 65.6021 353.35L55.0635 355.215Z" fill="#110239"/>
<path d="M1.11133 354.847C1.11133 354.847 -0.567389 365.479 1.11133 367.064C2.79006 368.65 24.9399 370.328 26.8517 368.416C28.7636 366.505 27.831 363.1 23.2145 361.608C18.598 360.116 15.8934 361.049 12.6759 359.883C10.2044 358.95 11.8831 353.914 11.8831 353.914L1.11133 354.847Z" fill="#110239"/>
<path d="M17.1532 293.523C16.8103 273.215 18.3715 252.92 21.8163 232.903C25.5408 232.881 29.233 233.594 32.6814 235.001C39.303 238.032 45.9712 240.924 52.6395 243.815C45.1891 261.858 38.9576 280.381 33.987 299.259C32.0752 308.632 12.1637 357.128 12.1637 357.128L0.132812 355.683C0.132812 347.802 17.1998 296.135 17.1532 293.523Z" fill="#D0D1DE"/>
<path d="M42.1014 239.156C45.6152 240.785 49.2106 242.233 52.8732 243.493C46.201 259.659 40.456 276.194 35.6663 293.015C33.9875 287.932 25.7805 275.575 22.6562 262.098C20.5695 253.076 20.2213 243.739 21.6303 234.586C28.6959 234.683 35.6653 236.239 42.1014 239.156Z" fill="#B8B9CD"/>
<path d="M32.7739 237.471C37.437 239.056 46.0172 241.341 52.4523 243.626C57.1154 255.004 70.2188 281.771 71.1048 293.895C71.8508 307.278 67.2344 357.919 67.2344 357.919H53.3849C53.3849 357.919 52.0792 300.843 50.1674 297.299C43.7789 285.221 36.7376 275.615 32.7739 268.108C28.0368 259.791 24.6081 250.795 22.6083 241.435C22.0954 238.823 19.8105 230.103 24.2404 227.445C28.1108 228.238 28.9502 236.165 32.7739 237.471Z" fill="#D0D1DE"/>
<path d="M57.5816 246.38C50.258 249.187 42.423 250.411 34.5924 249.971C28.4981 250.044 22.4579 248.82 16.8726 246.38C16.8726 246.38 22.1419 205.205 28.1107 192.242C29.5438 188.675 31.7195 185.454 34.4933 182.793C37.2671 180.131 40.5754 178.091 44.1984 176.807C48.5657 179.403 53.4556 180.996 58.5142 181.47C58.5142 181.47 58.5142 206.744 57.8614 216.816C57.2085 226.889 57.5816 246.38 57.5816 246.38Z" fill="#AA22C6"/>
<path d="M58.1424 212.944C58.1424 211.825 58.1424 210.659 58.1424 209.4V208.98C58.1424 207.768 58.1424 206.555 58.1424 205.296V204.644C58.1424 203.245 58.1424 201.846 58.1424 200.4H56.6036C52.6696 199.353 48.9464 197.633 45.5986 195.317L43.7334 194.385C43.7496 199.943 44.6953 205.459 46.5313 210.706C49.8631 223.235 50.5461 236.322 48.5364 249.13C51.5177 248.491 54.4479 247.634 57.3031 246.565C57.3031 246.565 57.3031 226.933 57.7227 216.814C57.7227 215.928 57.7227 214.902 57.7227 213.783L58.1424 212.944Z" fill="#9017A9"/>
<path d="M106.126 254.172L110.79 244.566C99.327 237.297 88.4167 229.193 78.1478 220.318C69.3811 211.504 59.8683 193.458 53.2001 192.339C46.5318 191.22 39.7703 194.904 43.6407 204.183C47.5111 213.463 66.9563 225.867 71.1531 229.97C82.3809 238.642 94.0546 246.72 106.126 254.172Z" fill="#AA22C6"/>
<path d="M45.6913 140.764C45.6913 140.764 63.4112 138.759 64.6236 141.696C65.836 144.634 66.1158 153.074 67.2816 154.846C68.4473 156.618 70.4991 158.763 69.7064 159.882C68.9137 161.002 68.0743 160.768 67.608 162.028C67.1417 163.287 67.2816 170.561 64.95 171.634C62.6184 172.706 50.6809 172.1 46.2975 165.292C41.9142 158.484 37.1112 141.417 45.6913 140.764Z" fill="#F88667"/>
<path d="M41.2144 142.631L52.9655 148.04C52.8654 152.518 53.9086 156.948 55.9965 160.911C55.9965 160.911 54.924 162.496 53.8515 161.61C53.2894 161.28 52.809 160.828 52.4457 160.287C52.0824 159.747 51.8456 159.131 51.753 158.486C51.4733 156.76 50.4474 152.191 47.3697 154.475C44.2921 156.76 47.3697 159.418 49.1417 160.071C49.1417 160.071 51.6132 168.978 46.9034 168.372C46.9034 168.372 42.5201 165.574 38.743 154.849C34.9658 144.123 38.3233 140.44 41.2144 142.631Z" fill="#110239"/>
<path d="M69.7526 138.521C69.7526 138.521 73.9494 144.583 64.2035 148.593C54.4576 152.604 40.375 142.018 40.375 142.018C40.375 142.018 40.748 136.702 48.5355 134.417C54.3644 132.739 59.8202 132.972 62.5248 136.376C67.8408 142.065 69.7526 138.521 69.7526 138.521Z" fill="#110239"/>
<path d="M487.381 163.475L486.915 164.034C485.345 165.753 483.611 167.315 481.739 168.697C480.619 169.537 478.801 170.096 477.775 170.936L476.562 171.868C477.721 176.899 478.485 182.013 478.847 187.163C478.847 187.163 489.339 186.091 492.837 181.707C490.488 175.801 488.662 169.7 487.381 163.475Z" fill="#F88667"/>
<path d="M487.616 165.014L487.15 165.573C485.58 167.292 483.847 168.854 481.974 170.236C480.808 171.029 479.036 171.589 478.01 172.475L476.798 173.407L477.357 176.205C480.211 176.089 483.018 176.95 485.316 178.646C487.614 180.342 489.264 182.771 489.994 185.531C491.193 184.947 492.269 184.14 493.165 183.153C490.79 177.28 488.933 171.211 487.616 165.014Z" fill="#E45940"/>
<path d="M471.341 353.633C471.341 353.633 471.901 364.125 470.362 365.71C468.823 367.296 448.026 369.534 446.067 367.762C444.109 365.99 444.948 362.679 449.331 361.094C453.715 359.508 456.466 360.487 459.357 358.995C462.248 357.503 461.129 352.84 461.129 352.84L471.341 353.633Z" fill="#110239"/>
<path d="M520.91 353.395C520.91 353.395 523.801 363.374 522.449 365.052C521.097 366.731 500.112 371.161 498.014 369.715C495.916 368.27 496.429 364.726 500.672 362.767C504.915 360.809 507.76 361.555 510.511 359.783C513.262 358.011 511.677 353.488 511.677 353.488L520.91 353.395Z" fill="#110239"/>
<path d="M519.277 292.689C520.153 273.104 519.201 253.481 516.432 234.073C512.852 233.955 509.283 234.557 505.94 235.845C499.459 238.597 492.977 241.208 486.495 243.819C493.258 261.354 498.805 279.334 503.096 297.632C504.588 306.958 510.976 357.18 510.976 357.18L522.867 356.807C522.867 349.252 519.184 295.207 519.277 292.689Z" fill="#AA22C6"/>
<path d="M496.895 239.762C493.482 241.245 489.996 242.553 486.449 243.679C493.134 261.193 498.679 279.121 503.05 297.351C504.822 292.688 511.677 275.201 515.034 262.331C517.275 253.705 517.829 244.728 516.666 235.891C509.881 235.821 503.153 237.138 496.895 239.762Z" fill="#9017A9"/>
<path d="M506.08 233.695C501.417 235.14 493.303 237.192 487.054 239.29C479.651 256.734 473.313 274.611 468.075 292.823C464.904 308.677 459.682 355.635 459.682 355.635L473.065 357.407C473.065 357.407 486.495 294.315 488.453 290.818C494.748 279.3 501.696 270.207 505.66 262.839C511.517 253.048 515.428 242.218 517.178 230.943C513.634 232.063 509.903 232.529 506.08 233.695Z" fill="#AA22C6"/>
<path d="M424.942 153.958C426.248 153.958 429.139 157.596 430.538 160.207C431.861 162.282 433.426 164.192 435.201 165.896C434.285 166.928 433.458 168.035 432.73 169.207C432.73 169.207 429.652 166.735 429.372 166.409C429.092 166.082 428.02 164.031 426.528 163.611C425.768 163.54 425.003 163.54 424.243 163.611C423.357 163.611 420.699 164.31 420.046 163.611C419.393 162.912 421.911 162.119 422.377 161.839C422.844 161.559 423.543 160.254 422.377 160.02C421.212 159.787 417.714 160.02 416.875 158.528C416.036 157.036 421.818 158.248 423.077 158.155C421.212 158.155 415.616 156.896 415.709 155.824C415.709 153.818 421.352 155.824 423.17 155.824C421.505 155.878 419.868 155.386 418.507 154.425C417.528 152.699 423.683 153.818 424.942 153.958Z" fill="#F88667"/>
<path d="M506.267 201.197C506.627 198.44 505.994 195.646 504.482 193.313C502.969 190.981 500.676 189.263 498.013 188.466C489.106 185.622 472.506 180.306 467.609 178.301C460.708 175.503 433.149 161.141 433.149 161.141L428.486 168.322C428.486 168.322 457.63 189.306 463.133 191.637C468.635 193.969 496.288 208.844 502.443 206.466C503.519 206.047 504.451 205.328 505.129 204.393C505.807 203.459 506.202 202.349 506.267 201.197Z" fill="#01C7E2"/>
<path d="M506.267 201.197C506.627 198.44 505.994 195.646 504.482 193.313C502.969 190.981 500.676 189.263 498.013 188.466C489.106 185.622 472.506 180.306 467.609 178.301C460.708 175.503 433.149 161.141 433.149 161.141L428.486 168.322C428.486 168.322 457.63 189.306 463.133 191.637C468.635 193.969 496.288 208.844 502.443 206.466C503.519 206.047 504.451 205.328 505.129 204.393C505.807 203.459 506.202 202.349 506.267 201.197Z" fill="#49E4DB"/>
<path d="M481.553 247.267C488.755 248.123 496.034 248.123 503.236 247.267C511.35 246.287 518.718 243.256 520.396 240.225C520.396 240.225 514.474 206.558 508.272 194.247C506.789 190.859 504.605 187.824 501.864 185.34C499.123 182.857 495.888 180.982 492.371 179.838C488.216 182.38 483.55 183.972 478.708 184.501C478.708 184.501 479.594 208.796 480.34 218.495C481.086 228.194 481.553 247.267 481.553 247.267Z" fill="#49E4DB"/>
<path d="M490.926 212.576C492.569 207.49 493.311 202.156 493.118 196.814L491.392 197.747C488.234 200.072 484.701 201.838 480.947 202.97C480.451 203.018 479.951 203.018 479.455 202.97C479.734 208.892 480.061 214.861 480.341 218.638C481.087 228.337 481.553 247.223 481.553 247.223C481.553 247.223 484.584 247.642 489.014 247.876C486.309 236.917 488.454 224 490.926 212.576Z" fill="#2FCBC2"/>
<path d="M492.183 152.369C492.183 152.369 487.52 143.042 481.318 143.789C475.116 144.535 469.521 146.12 468.821 148.452C468.122 150.783 468.821 155.913 467.562 158.337C466.303 160.762 463.225 164.073 464.158 165.052C465.114 165.798 466.017 166.609 466.863 167.477C467.704 170.577 468.942 173.555 470.547 176.337C476.032 175.416 481.053 172.692 484.816 168.596C486.448 165.146 492.93 158.431 492.183 152.369Z" fill="#F88667"/>
<path d="M483.092 144.07C483.092 144.07 478.429 157.406 466.398 156.287C465.613 154.791 465.204 153.127 465.204 151.437C465.204 149.748 465.613 148.084 466.398 146.588C468.448 144.283 471.24 142.77 474.289 142.31C477.339 141.85 480.453 142.472 483.092 144.07Z" fill="#110239"/>
<path d="M520.396 192.761C520.051 189.849 519.106 187.041 517.622 184.513C516.137 181.984 514.144 179.791 511.769 178.072C506.188 173.423 502.167 167.173 500.251 160.166C498.34 153.311 499.272 146.736 492.697 141.979C490.227 140.618 487.42 139.988 484.604 140.161C481.789 140.334 479.081 141.305 476.796 142.959C476.819 143.207 476.819 143.457 476.796 143.705C476.796 143.705 472.366 147.902 479.454 153.87C481.252 155.582 482.598 157.713 483.371 160.072C483.705 159.386 484.221 158.805 484.863 158.394C485.021 158.215 485.214 158.072 485.432 157.974C485.649 157.876 485.884 157.825 486.122 157.825C486.36 157.825 486.596 157.876 486.813 157.974C487.03 158.072 487.224 158.215 487.381 158.394C488.78 159.839 486.682 162.451 485.376 162.684C485.376 162.684 484.817 163.01 484.443 163.43C486.152 169.295 487.2 175.332 487.568 181.429C487.946 184.178 489.149 186.747 491.018 188.797C493.024 191.315 494.469 191.409 495.682 194.393C496.894 197.377 494.376 205.258 500.345 208.849C503.715 210.09 507.365 210.365 510.883 209.641C519.23 206.937 521.189 200.968 520.396 192.761Z" fill="#110239"/>
<path d="M424.149 234.631C422.675 235.24 421.074 235.48 419.486 235.33C418.73 235.194 417.957 235.194 417.201 235.33C416.319 235.448 415.425 235.448 414.543 235.33C413.679 235.164 412.786 235.262 411.978 235.61C410.999 236.17 411.978 236.869 413.097 237.196C414.217 237.522 417.154 236.822 417.761 237.755C418.367 238.688 414.45 239.434 413.704 239.574C411.885 239.854 410.999 238.828 409.414 238.315C407.828 237.802 407.968 238.315 408.341 239.201C408.714 240.087 409.507 240.366 410.206 240.646C411.671 241.291 413.273 241.564 414.869 241.439C413.312 241.668 411.725 241.573 410.206 241.159C409.367 240.926 405.963 239.387 405.543 240.693C404.657 243.258 413.004 244.283 414.496 243.771C412.953 244.038 411.376 244.038 409.833 243.771C408.901 243.771 406.802 243.351 407.548 244.796C408.294 246.242 413.331 245.636 415.569 245.449C414.202 245.94 412.774 246.239 411.325 246.335C409.414 246.662 410.3 247.921 412.305 247.967C413.275 247.932 414.242 247.823 415.196 247.641C418.411 247.147 421.368 245.587 423.589 243.211C424.569 242.325 427.367 241.719 427.506 240.553C427.786 238.175 425.315 236.123 424.149 234.631Z" fill="#F88667"/>
<path d="M424.477 243.49L420.653 234.677C420.653 234.677 445.461 220.361 455.254 212.714C465.046 205.066 476.751 188.419 483.512 188.139C490.274 187.859 496.476 192.383 491.486 201.103C486.497 209.823 465.466 219.755 460.989 223.113C449.185 230.542 436.998 237.344 424.477 243.49Z" fill="#49E4DB"/>
</svg>
