<svg width="362" height="311" viewBox="0 0 362 311" fill="none" xmlns="http://www.w3.org/2000/svg">
<g clip-path="url(#clip0)">
<path d="M221.985 303.473H165.949L170.574 235.799H217.399L221.985 303.473Z" fill="#110239"/>
<path d="M229.347 292.623C229 292.135 228.544 291.734 228.015 291.453C227.487 291.171 226.9 291.017 226.302 291.002H161.864C161.266 291.017 160.679 291.171 160.151 291.453C159.622 291.734 159.167 292.135 158.82 292.623L150.302 305.286C149.992 305.849 149.827 306.481 149.822 307.125C149.817 307.768 149.973 308.403 150.276 308.971C150.578 309.538 151.018 310.021 151.554 310.376C152.091 310.73 152.707 310.944 153.347 310.999H234.742C235.382 310.944 235.999 310.73 236.535 310.376C237.071 310.021 237.511 309.538 237.813 308.971C238.116 308.403 238.272 307.768 238.267 307.125C238.263 306.481 238.098 305.849 237.787 305.286L229.347 292.623Z" fill="#110239"/>
<path d="M331.17 48.3711H56.808C48.1026 48.3711 41.0454 55.4402 41.0454 64.1604V237.998C41.0454 246.718 48.1026 253.787 56.808 253.787H331.17C339.875 253.787 346.932 246.718 346.932 237.998V64.1604C346.932 55.4402 339.875 48.3711 331.17 48.3711Z" fill="#110239"/>
<path d="M332.825 62H55.1108V238.076H332.825V62Z" fill="#FEFEFE"/>
<path d="M325.887 81.1855H62.0469V238.075H325.887V81.1855Z" fill="#E5E6ED"/>
<path d="M325.887 81.1855H62.0469V94.1567H325.887V81.1855Z" fill="#21A59B"/>
<path d="M313.095 136.469H231.16V147.317H313.095V136.469Z" fill="#FEFEFE"/>
<path d="M313.095 155.615H231.16V166.463H313.095V155.615Z" fill="#FEFEFE"/>
<path d="M313.095 174.803H231.16V185.651H313.095V174.803Z" fill="#FEFEFE"/>
<path d="M168.339 107.166H86.4048V118.014H168.339V107.166Z" fill="#FEFEFE"/>
<path d="M168.339 126.314H86.4048V137.162H168.339V126.314Z" fill="#FEFEFE"/>
<path d="M164.524 129.674H9.82753C7.22111 129.674 4.72144 130.711 2.87842 132.557C1.0354 134.404 0 136.907 0 139.518L0 189.473C0.0101951 192.077 1.05009 194.571 2.89201 196.409C4.73392 198.247 7.22777 199.279 9.82753 199.279H106.715L143.636 230.741L126.101 199.279H164.64C167.236 199.279 169.726 198.245 171.562 196.407C173.398 194.568 174.429 192.074 174.429 189.473V139.518C174.429 138.219 174.172 136.933 173.674 135.733C173.175 134.534 172.444 133.445 171.523 132.53C170.603 131.615 169.51 130.891 168.309 130.401C167.108 129.911 165.821 129.664 164.524 129.674Z" fill="#AA22C6"/>
<path d="M162.558 143.146H58.3096V149.169H162.558V143.146Z" fill="white"/>
<path d="M162.558 155.422H58.3096V161.444H162.558V155.422Z" fill="white"/>
<path d="M162.558 167.699H58.3096V173.722H162.558V167.699Z" fill="white"/>
<path d="M127.488 179.938H58.3096V185.96H127.488V179.938Z" fill="white"/>
<path d="M50.0998 163.413C50.0998 167.399 48.92 171.295 46.7094 174.609C44.4989 177.923 41.3569 180.506 37.6809 182.031C34.0049 183.556 29.96 183.955 26.0576 183.178C22.1551 182.4 18.5705 180.481 15.757 177.663C12.9436 174.845 11.0275 171.254 10.2513 167.345C9.47507 163.436 9.87346 159.384 11.3961 155.702C12.9188 152.019 15.4973 148.872 18.8056 146.658C22.1139 144.444 26.0034 143.262 29.9823 143.262C35.3178 143.262 40.4348 145.385 44.2075 149.164C47.9803 152.943 50.0998 158.069 50.0998 163.413Z" fill="#110239"/>
<path d="M29.9065 163.298C33.0353 163.298 35.5718 160.671 35.5718 157.43C35.5718 154.19 33.0353 151.562 29.9065 151.562C26.7776 151.562 24.2412 154.19 24.2412 157.43C24.2412 160.671 26.7776 163.298 29.9065 163.298Z" fill="white"/>
<path d="M30.0216 164.148C27.3436 164.148 24.7754 165.214 22.8817 167.111C20.9881 169.008 19.9243 171.58 19.9243 174.263V180.71C22.9977 182.577 26.5234 183.565 30.118 183.565C33.7125 183.565 37.2383 182.577 40.3116 180.71V174.263C40.3119 172.918 40.0445 171.587 39.525 170.347C39.0056 169.107 38.2445 167.983 37.2864 167.042C36.3283 166.1 35.1923 165.359 33.9449 164.862C32.6975 164.365 31.3637 164.123 30.0216 164.148Z" fill="white"/>
<path d="M352.211 0H197.515C194.908 0 192.408 1.03716 190.565 2.8833C188.722 4.72945 187.687 7.23337 187.687 9.84421V59.7988C187.727 62.3828 188.781 64.8472 190.619 66.6601C192.458 68.473 194.935 69.4889 197.515 69.4886H242.297L230.273 100.951L261.683 69.4886H352.211C354.808 69.4886 357.298 68.4555 359.133 66.6166C360.969 64.7777 362 62.2836 362 59.683V9.84421C362 7.24004 360.97 4.74196 359.136 2.89692C357.301 1.05187 354.811 0.0102124 352.211 0V0Z" fill="#D0D1DE"/>
<path d="M350.246 13.4727H245.997V19.495H350.246V13.4727Z" fill="white"/>
<path d="M350.246 25.75H245.997V31.7723H350.246V25.75Z" fill="white"/>
<path d="M350.246 38.0254H245.997V44.0477H350.246V38.0254Z" fill="white"/>
<path d="M315.175 50.2637H245.997V56.286H315.175V50.2637Z" fill="white"/>
<path d="M237.711 33.7416C237.711 37.7288 236.53 41.6265 234.318 44.9413C232.106 48.256 228.962 50.8389 225.283 52.363C221.605 53.8871 217.558 54.2839 213.655 53.5032C209.751 52.7225 206.167 50.7994 203.355 47.9773C200.543 45.1551 198.63 41.5608 197.858 37.6493C197.086 33.7377 197.49 29.6846 199.019 26.0031C200.547 22.3215 203.132 19.1769 206.445 16.9673C209.758 14.7576 213.652 13.5822 217.632 13.5899C222.961 13.6001 228.068 15.7277 231.832 19.5058C235.597 23.2839 237.711 28.4037 237.711 33.7416Z" fill="#110239"/>
<path d="M223.297 27.7567C223.266 28.8813 222.905 29.9719 222.259 30.8917C221.612 31.8115 220.709 32.5197 219.662 32.9274C218.615 33.335 217.471 33.4241 216.374 33.1833C215.277 32.9426 214.276 32.3828 213.495 31.5741C212.714 30.7654 212.189 29.7439 211.986 28.6375C211.782 27.5311 211.909 26.3892 212.351 25.3549C212.793 24.3205 213.529 23.4399 214.469 22.8233C215.408 22.2067 216.508 21.8816 217.631 21.8888C219.158 21.9192 220.61 22.5534 221.672 23.6527C222.733 24.7521 223.317 26.2275 223.297 27.7567Z" fill="white"/>
<path d="M217.709 34.5118H217.516C214.849 34.5118 212.29 35.5734 210.404 37.4629C208.517 39.3525 207.458 41.9154 207.458 44.5876V51.0346C210.527 52.8939 214.045 53.8814 217.632 53.8914C221.218 53.8699 224.732 52.8832 227.806 51.0346V44.5876C227.806 43.2612 227.545 41.9478 227.037 40.7228C226.529 39.4979 225.785 38.3854 224.847 37.4493C223.908 36.5131 222.795 35.7717 221.57 35.2677C220.345 34.7636 219.033 34.5067 217.709 34.5118Z" fill="white"/>
<path d="M308.855 203.215H247.462C242.481 203.215 238.443 207.259 238.443 212.248V219.429C238.443 224.418 242.481 228.462 247.462 228.462H308.855C313.835 228.462 317.873 224.418 317.873 219.429V212.248C317.873 207.259 313.835 203.215 308.855 203.215Z" fill="#AA22C6"/>
<path d="M270.2 212.75C270.198 213.368 269.988 213.968 269.603 214.452C269.218 214.935 268.681 215.274 268.08 215.414C268.801 215.535 269.453 215.916 269.914 216.484C270.375 217.053 270.614 217.77 270.585 218.502C270.585 220.625 268.735 221.938 265.845 221.938H259.794V209.623H265.652C268.427 209.623 270.2 210.858 270.2 212.75ZM266.885 213.29C266.885 212.557 266.346 212.132 265.459 212.132H262.993V214.526H265.459C266.346 214.526 266.885 214.063 266.885 213.29ZM267.271 218.116C267.271 217.344 266.577 216.842 265.459 216.881H262.993V219.429H265.459C266.577 219.429 267.271 218.965 267.271 218.116Z" fill="white"/>
<path d="M277.831 219.351C278.165 219.365 278.499 219.306 278.808 219.178C279.117 219.05 279.394 218.856 279.622 218.61C279.849 218.364 280.02 218.072 280.123 217.753C280.227 217.435 280.26 217.098 280.221 216.765V209.623H283.458V216.765C283.458 218.27 282.861 219.713 281.799 220.778C280.736 221.842 279.295 222.44 277.793 222.44C276.29 222.44 274.849 221.842 273.787 220.778C272.724 219.713 272.127 218.27 272.127 216.765V209.623H275.326V216.765C275.298 217.105 275.343 217.447 275.458 217.769C275.573 218.09 275.755 218.383 275.993 218.628C276.23 218.873 276.517 219.064 276.834 219.189C277.151 219.314 277.491 219.369 277.831 219.351Z" fill="white"/>
<path d="M292.05 218V221.861H289.044V218L284.303 209.623H287.541L290.431 214.912L293.283 209.623H296.482L292.05 218Z" fill="white"/>
<path d="M203.332 123.11C199.238 123.845 195.065 124.027 190.923 123.651C189.436 123.514 187.973 123.19 186.568 122.686C186.76 127.859 186.799 140.019 183.138 145.038C183.138 145.038 184.448 150.983 195.201 151.176C205.953 151.369 207.186 143.223 207.186 143.223C205.265 136.657 203.974 129.922 203.332 123.11Z" fill="#F88667"/>
<path d="M183.177 145.232V145.656C183.271 145.874 183.388 146.081 183.524 146.274C183.701 146.543 183.894 146.8 184.102 147.046C184.672 147.704 185.334 148.276 186.068 148.745C186.535 149.041 187.024 149.299 187.532 149.517H187.764C188.376 149.782 189.007 150.002 189.652 150.173C189.939 147.348 191.037 144.666 192.812 142.452C195.803 138.642 200.13 136.116 204.914 135.387C203.885 131.22 203.227 126.97 202.948 122.686C198.854 123.421 194.68 123.603 190.538 123.227C189.052 123.09 187.589 122.766 186.183 122.262C186.376 127.435 186.415 139.595 182.753 144.614L183.177 145.232Z" fill="#E45940"/>
<path d="M188.457 94.0411C188.457 94.0411 206.069 88.8295 208.882 93.1146C211.696 97.3997 211.156 104.271 212.351 107.321C213.546 110.371 217.862 113.575 218.363 114.772C218.864 115.969 215.434 118.324 214.933 119.289C214.432 120.254 212.698 130.214 209.653 132.414C206.609 134.615 190.152 128.785 186.106 121.026C182.059 113.266 183.716 96.5118 188.457 94.0411Z" fill="#F88667"/>
<path d="M196.551 97.1298C196.766 100.278 196.127 103.426 194.701 106.24C193.622 108.364 198.902 113.961 197.437 116.548C196.474 118.247 195.048 117.783 193.583 114.463C192.977 113.309 191.959 112.427 190.731 111.993C186.415 110.14 185.413 116.741 189.267 118.671C192.003 120.061 190.384 126.894 190.384 126.894C187.455 129.172 177.859 126.469 178.823 119.443C179.516 114.965 179.825 113.267 178.244 112.147C177.213 111.576 176.326 110.775 175.652 109.807C174.978 108.838 174.534 107.728 174.356 106.561C174.177 105.394 174.268 104.201 174.621 103.075C174.975 101.949 175.581 100.918 176.395 100.064C182.792 93.6553 176.934 91.6479 184.372 89.7949C191.81 87.9418 198.092 92.6516 196.551 97.1298Z" fill="#110239"/>
<path d="M183.333 93.3839C183.756 91.7625 186.685 89.5235 188.111 88.5583C190.438 86.9309 193.055 85.7646 195.819 85.1225C198.586 84.4478 201.465 84.3819 204.259 84.9295C206.687 85.3927 208.691 86.4737 211.158 86.7439C212.213 86.9728 213.304 86.9847 214.364 86.779C215.424 86.5733 216.431 86.1542 217.324 85.5472C217.75 87.3816 217.841 89.2779 217.594 91.1449C216.964 93.3833 215.889 95.4712 214.434 97.283C212.033 100.146 208.815 102.206 205.213 103.186C201.61 104.166 197.795 104.019 194.278 102.765C191.169 101.873 188.453 99.9548 186.57 97.3216C185.696 95.8526 184.604 94.525 183.333 93.3839Z" fill="#110239"/>
<path d="M277.483 104.889L294.402 142.837C294.402 142.837 289.43 148.473 287.773 147.199C286.116 145.926 260.564 115.235 258.059 113.613C255.554 111.992 277.483 104.889 277.483 104.889Z" fill="#110239"/>
<path d="M235.09 109.599C235.09 109.599 235.09 120.486 241.796 122.995C241.796 122.995 275.903 108.866 282.724 107.553C289.546 106.24 314.519 106.009 314.519 106.009L289.43 60.957C289.43 60.957 277.367 85.1236 266.307 93.0376C256.375 99.4117 245.934 104.951 235.09 109.599Z" fill="#AA22C6"/>
<path d="M257.251 116.741L265.498 113.499C261.879 109.019 259.417 103.715 258.33 98.0566C255.748 99.5236 253.089 100.952 250.622 102.303C251.564 107.604 253.846 112.575 257.251 116.741Z" fill="#110239"/>
<path d="M323.732 72.5381C330.823 89.6786 328.318 107.012 318.143 111.143C307.969 115.274 293.941 104.889 286.811 87.7484C279.681 70.6079 282.225 53.2743 292.438 49.1436C302.651 45.0129 316.756 55.3976 323.732 72.5381Z" fill="#AA22C6"/>
<path d="M322.46 73.1176C328.51 87.7102 326.314 102.419 317.719 106.047C309.125 109.676 297.101 100.72 291.089 86.1274C285.076 71.5348 287.235 56.8264 295.829 53.1976C304.423 49.5687 316.447 58.525 322.46 73.1176Z" fill="#110239"/>
<path d="M275.131 132.144C274.322 131.681 274.553 128.631 274.707 127.82C274.862 127.009 275.825 124.963 274.977 123.96C273.474 121.875 271.316 127.511 271.123 128.322C270.562 129.528 270.426 130.889 270.738 132.182C271.489 134.023 272.588 135.701 273.975 137.124C273.975 137.664 273.667 138.243 273.436 138.861C274.844 139.486 276.221 140.182 277.559 140.946C279.178 141.911 279.101 143.069 280.642 144.15L282.184 140.598C280.038 137.614 277.681 134.789 275.131 132.144Z" fill="#F88667"/>
<path d="M286.04 119.676C284.575 118.093 282.186 118.711 280.49 120.023C278.794 121.336 275.441 123.884 276.636 126.2C277.831 128.516 282.301 123.961 282.301 123.961C280.49 125.505 277.214 126.74 278.023 128.246C278.833 129.752 283.149 127.551 284.074 126.856C283.149 127.088 278.447 129.945 280.22 131.45C281.492 132.493 284.961 130.331 286.001 129.597C284.614 130.022 282.725 131.257 283.072 133.187C283.689 134.23 285.77 133.535 286.926 133.187C288.082 132.84 290.318 132.184 290.472 129.983C290.492 129.585 290.492 129.185 290.472 128.786C290.35 127.106 289.863 125.472 289.046 123.999C288.246 122.427 287.234 120.973 286.04 119.676Z" fill="#F88667"/>
<path d="M106.677 132.338C105.861 131.017 105.201 129.605 104.712 128.13C104.288 126.895 103.979 125.582 103.555 124.27C103.014 123.054 102.726 121.74 102.707 120.409C102.765 119.646 102.92 118.893 103.17 118.17C103.401 117.205 103.748 116.24 103.941 115.275C104.133 114.31 103.941 113.537 104.211 112.688C104.478 111.09 104.985 109.541 105.714 108.094C106.345 107.02 107.08 106.012 107.91 105.083C108.317 104.592 108.754 104.128 109.221 103.693C109.737 103.324 110.138 102.815 110.377 102.226C110.455 102.04 110.491 101.838 110.481 101.636C110.471 101.434 110.416 101.237 110.319 101.059C110.223 100.881 110.088 100.727 109.925 100.609C109.761 100.49 109.573 100.409 109.375 100.373C108.504 100.204 107.604 100.26 106.761 100.537C105.917 100.814 105.159 101.303 104.557 101.956C103.247 103.693 102.669 105.817 101.243 107.592C96.8495 112.804 92.7643 106.666 87.6386 104.465C85.9112 103.552 84.2726 102.479 82.7441 101.261C81.8191 100.566 77.8881 96.8602 76.0382 97.8253C74.1884 98.7905 77.3486 101.686 78.6589 102.419C79.1599 102.728 83.5149 106.28 84.093 106.28C81.4333 105.147 78.9636 103.61 76.7705 101.724C74.8435 100.219 72.9166 98.7133 71.9145 99.5626C68.6387 102.226 81.3952 108.326 82.3972 108.905C81.3181 108.905 71.3365 101.917 70.4115 104.504C69.9105 105.932 71.9531 107.361 73.6488 108.364C75.3445 109.368 79.3526 110.333 80.1234 110.951C78.6204 111.491 72.0302 107.09 72.0302 109.716C72.0302 111.53 76.1153 112.881 77.6569 113.344C79.1985 113.808 83.9388 117.012 85.3648 117.707C90.2978 120.062 92.3404 119.791 94.2674 122.725C95.5006 124.617 97.6974 134.577 99.5087 138.167L106.677 132.338Z" fill="#F88667"/>
<path d="M272.396 137.24C268.003 150.057 258.599 172.718 255.516 171.135C249.696 168.163 237.171 157.894 227.806 151.833C224.39 149.396 220.751 147.29 216.938 145.54L223.451 176.424C223.451 176.424 254.283 199.896 260.796 196.306C265.883 193.487 278.37 157.701 282.802 142.992L272.396 137.24Z" fill="#49E4DB"/>
<path d="M241.834 181.443C235.521 174.217 228.723 167.432 221.485 161.137L222.525 175.807C222.525 175.807 253.627 199.24 260.525 196.306C253.582 192.324 247.281 187.313 241.834 181.443Z" fill="#21A59B"/>
<path d="M164.563 146.969C164.563 146.969 126.601 162.411 122.478 161.253C118.354 160.095 104.557 120.988 104.557 120.988L92.9951 125.659C92.9951 125.659 105.289 182.177 113.19 184.841C121.09 187.504 168.262 173.722 168.262 173.722C168.545 164.659 167.294 155.614 164.563 146.969Z" fill="#49E4DB"/>
<path d="M132.19 181.442C128.838 182.639 125.408 183.797 122.016 184.839C137.615 182.039 153.052 178.405 168.263 173.953C168.419 169.151 168.148 164.345 167.454 159.592C157.564 169.533 145.487 177.017 132.19 181.442Z" fill="#21A59B"/>
<path d="M304.461 83.5415C303.815 81.1039 302.246 79.0144 300.088 77.7168C297.929 76.4193 295.35 76.016 292.899 76.5926C291.358 77.1374 290.015 78.1325 289.045 79.4494C289.608 81.7279 290.342 83.9605 291.242 86.128C292.676 89.8273 294.594 93.3193 296.946 96.5127C297.679 96.4781 298.404 96.3484 299.104 96.1267C300.282 95.6551 301.356 94.955 302.264 94.0665C303.172 93.178 303.895 92.1186 304.393 90.9492C304.891 89.7798 305.153 88.5233 305.165 87.2521C305.176 85.9809 304.937 84.7199 304.461 83.5415Z" fill="#D0D1DE"/>
<path d="M164.639 193.255C163.29 206.419 162.249 234.176 161.44 238.037H223.72C224.726 217.457 224.636 196.839 223.45 176.269C222.658 165.73 220.468 155.344 216.937 145.385C216.937 145.385 212.273 143.918 206.762 141.795C206.762 141.795 195.2 148.821 184.641 141.795C184.641 141.795 165.371 146.389 163.02 147.47C160.669 148.551 166.065 179.164 164.639 193.255Z" fill="#49E4DB"/>
<path d="M181.135 211.322C181.084 205.144 179.881 199.03 177.59 193.294C177.048 192.06 176.66 190.763 176.434 189.434C176.125 186.22 175.223 183.091 173.774 180.207L169.574 173.721C168.803 172.679 167.994 171.598 167.107 170.286C165.671 168.137 164.384 165.893 163.253 163.568C164.346 173.424 164.783 183.342 164.564 193.255C163.215 206.42 162.174 234.176 161.365 238.037H190.346C186.588 232.658 183.833 226.641 182.215 220.279C181.431 217.36 181.067 214.344 181.135 211.322Z" fill="#21A59B"/>
</g>
<defs>
<clipPath id="clip0">
<rect width="362" height="311" fill="white"/>
</clipPath>
</defs>
</svg>
