<svg width="319" height="344" viewBox="0 0 319 344" fill="none" xmlns="http://www.w3.org/2000/svg">
<path d="M311.6 130.242H7.40032C3.31324 130.242 0 133.553 0 137.637V336.559C0 340.643 3.31324 343.954 7.40032 343.954H311.6C315.687 343.954 319 340.643 319 336.559V137.637C319 133.553 315.687 130.242 311.6 130.242Z" fill="#110239"/>
<path d="M289.721 144.432H14.707V327.64H289.721V144.432Z" fill="white"/>
<path d="M309.057 237.145C309.057 238.289 308.717 239.408 308.079 240.359C307.442 241.31 306.536 242.051 305.477 242.486C304.418 242.922 303.253 243.034 302.131 242.807C301.008 242.581 299.978 242.026 299.171 241.213C298.364 240.401 297.817 239.367 297.6 238.243C297.382 237.119 297.503 235.956 297.948 234.902C298.392 233.847 299.141 232.948 300.097 232.318C301.054 231.689 302.177 231.358 303.322 231.367C304.079 231.367 304.829 231.517 305.527 231.808C306.226 232.099 306.861 232.525 307.394 233.062C307.927 233.599 308.348 234.237 308.634 234.937C308.919 235.638 309.063 236.388 309.057 237.145Z" fill="white"/>
<path d="M227.931 180.805H76.5023C72.3131 180.805 68.917 184.198 68.917 188.384V285.812C68.917 289.998 72.3131 293.392 76.5023 293.392H227.931C232.121 293.392 235.517 289.998 235.517 285.812V188.384C235.517 184.198 232.121 180.805 227.931 180.805Z" fill="#E5E6ED"/>
<path d="M227.93 189.771H76.501V284.426H227.93V189.771Z" fill="#21A59B"/>
<path d="M124.094 207.287V269.543L184.777 238.392L124.094 207.287Z" fill="#AA22C6"/>
<path d="M154.622 129.087C154.622 129.087 116.14 128.856 102.634 119.843C89.1288 110.831 86.77 75.0579 106.381 60.4068C125.992 45.7557 130.062 41.2726 130.941 31.6131C131.819 21.9535 131.588 0 157.258 0C182.928 0 180.06 20.3359 181.957 33.3231C183.252 42.5667 195.832 55.6926 206.609 64.0118C220.392 74.7344 235.886 138.053 154.622 129.087Z" fill="#110239"/>
<path d="M150.182 25.1895L158.553 25.4668L166.925 25.7441C166.925 25.7441 168.636 48.5757 172.891 51.4412C172.891 51.4412 177.517 78.5249 156.934 77.8779C132.051 77.0922 142.596 50.4707 142.596 50.4707C147.083 47.8825 150.182 25.1895 150.182 25.1895Z" fill="#E45940"/>
<path d="M122.199 130.104H189.634L195.323 108.243C196.202 86.0585 196.526 63.4579 196.526 63.4579C188.795 57.8568 180.328 53.3466 171.365 50.0547C167.313 53.1878 162.335 54.8877 157.212 54.8877C152.089 54.8877 147.11 53.1878 143.059 50.0547C134.183 53.7267 125.667 58.2136 117.62 63.4579C116.258 71.5026 115.947 79.69 116.695 87.8147C117.701 102.007 119.538 116.127 122.199 130.104Z" fill="#49E4DB"/>
<path d="M220.621 130.103C217.604 112.273 212.848 94.7815 206.422 77.877C200.872 65.1208 196.617 63.457 196.617 63.457C191.668 62.9948 187.921 104.314 179.457 130.103H220.621Z" fill="#49E4DB"/>
<path d="M189.634 92.4359C188.076 95.9834 186.054 99.3092 183.622 102.327C181.54 105.284 175.805 121.692 153.327 120.167C144.076 119.52 135.473 110.322 131.634 101.032C130.215 97.2916 129.161 93.422 128.489 89.478C128.2 86.301 127.436 83.1852 126.223 80.2344C123.402 80.9276 123.078 85.1335 122.107 87.583C121.505 89.062 117.481 94.7006 117.111 90.4948C118.135 103.721 119.88 116.882 122.338 129.919H194.768C193.381 114.898 189.357 97.0577 189.634 92.4359Z" fill="#21A59B"/>
<path d="M177.145 29.2563C174.74 26.6219 172.103 30.7815 172.103 30.7815C172.77 27.5366 173.188 24.2456 173.352 20.9371C168.173 17.6613 162.69 14.8908 156.979 12.6641C151.268 14.8908 145.786 17.6613 140.606 20.9371C140.77 24.2456 141.188 27.5366 141.855 30.7815C141.855 30.7815 139.218 26.6219 136.813 29.2563C134.408 31.8907 140.328 38.731 141.67 39.6091C141.67 39.6091 146.572 51.4871 152.724 55.4619C154.102 56.0665 155.59 56.3787 157.095 56.3787C158.599 56.3787 160.088 56.0665 161.465 55.4619C167.617 51.4871 172.242 39.8402 172.242 39.8402C173.63 38.731 179.55 31.8445 177.145 29.2563Z" fill="#F88667"/>
<path d="M173.307 16.6853C170.137 21.4018 165.727 25.153 160.561 27.526C155.396 29.899 149.675 30.8017 144.029 30.1347C144.345 30.9359 144.488 31.7949 144.448 32.6552C144.408 33.5156 144.187 34.3577 143.798 35.1263C143.798 35.1263 142.271 29.2566 139.173 31.0591C137.461 32.0297 137.415 34.4792 139.173 37.0674C139.959 38.2229 134.085 36.0506 134.085 36.0506C134.085 36.0506 131.633 13.4038 146.665 8.31986C161.697 3.23589 173.307 16.6853 173.307 16.6853Z" fill="#110239"/>
<path d="M166.508 8.87455C166.311 9.94221 166.202 11.0243 166.184 12.1098C166.184 14.4669 162.9 16.0845 162.808 18.3954C163.291 18.9039 163.739 19.4443 164.149 20.0131C166.693 22.794 168.435 26.2121 169.19 29.9037C169.132 31.8135 169.648 33.6968 170.67 35.3112C170.67 35.3112 172.151 29.3953 175.758 30.2735C176.452 30.2735 177.886 31.5213 176.637 34.4793C176.174 35.5423 180.383 29.8575 180.383 29.8575C180.383 29.8575 180.06 8.41237 166.508 8.87455Z" fill="#110239"/>
<path d="M137.182 229.981C137.968 231.784 142.131 234.603 140.651 237.053C139.911 238.301 136.026 235.666 135.332 234.603C131.444 228.966 127.951 223.067 124.879 216.948C123.908 214.129 122.983 211.356 121.873 208.767C124.816 206.956 127.52 204.782 129.92 202.297C134.083 204.192 138.431 206.919 142.501 208.629C144.675 209.553 147.126 210.246 149.3 211.032C150.688 211.587 153.648 212.326 153.925 214.221C154.203 216.116 151.058 215.654 149.901 215.423C148.745 215.192 145.045 213.435 143.842 215.423C142.085 218.288 147.404 221.57 149.207 223.511C151.011 225.452 156.932 230.86 152.491 231.276C149.555 229.532 146.797 227.505 144.259 225.221C144.259 225.498 148.514 229.427 148.884 229.843C149.901 231.229 152.954 234.141 152.029 235.62C150.133 238.717 143.472 230.536 142.455 229.427L144.952 232.662C147.126 235.112 148.467 237.284 146.664 237.931C144.86 238.578 139.171 232.015 137.182 229.981Z" fill="#F88667"/>
<path d="M136.26 204.931L122.384 214.174C122.384 214.174 78.9073 157.927 83.625 136.667C89.7315 113.299 99.2374 90.9532 111.839 70.3442C113.321 67.723 115.282 65.4028 117.62 63.5039C121.617 67.1496 124.756 71.635 126.812 76.6377C128.867 81.6403 129.787 87.0358 129.507 92.4363C128.792 96.6981 127.218 100.77 124.882 104.407C117.574 118.272 108.601 142.444 108.879 144.894C109.11 148.822 136.26 204.931 136.26 204.931Z" fill="#49E4DB"/>
</svg>
