<svg width="397" height="327" viewBox="0 0 397 327" fill="none" xmlns="http://www.w3.org/2000/svg">
<g clip-path="url(#clip0)">
<g style="mix-blend-mode:multiply" opacity="0.32">
<path d="M186.816 327C284.327 327 363.375 318.852 363.375 308.801C363.375 298.75 284.327 290.602 186.816 290.602C89.305 290.602 10.2568 298.75 10.2568 308.801C10.2568 318.852 89.305 327 186.816 327Z" fill="#C9CAD9"/>
</g>
<path d="M267.094 96.2472C291.085 96.2472 310.534 76.7814 310.534 52.7691C310.534 28.7568 291.085 9.29102 267.094 9.29102C243.103 9.29102 223.654 28.7568 223.654 52.7691C223.654 76.7814 243.103 96.2472 267.094 96.2472Z" fill="#AA22C6"/>
<path d="M303.339 60.4634C307.589 40.4162 294.798 20.7163 274.768 16.4625C254.738 12.2086 235.056 25.0116 230.806 45.0588C226.556 65.106 239.347 84.8058 259.377 89.0597C279.407 93.3135 299.089 80.5105 303.339 60.4634Z" fill="#E5E6ED"/>
<path d="M267.123 22.5059H267.094C266.703 22.5059 266.387 22.8228 266.387 23.2138V53.0054C266.387 53.3964 266.703 53.7133 267.094 53.7133H267.123C267.514 53.7133 267.831 53.3964 267.831 53.0054V23.2138C267.831 22.8228 267.514 22.5059 267.123 22.5059Z" fill="#110239"/>
<path d="M267.772 53.3886C267.729 53.4729 267.669 53.5477 267.596 53.6085C267.523 53.6692 267.439 53.7147 267.348 53.7422C267.258 53.7698 267.162 53.7787 267.068 53.7687C266.974 53.7586 266.882 53.7296 266.8 53.6835L249.117 44.1856C249.033 44.1422 248.958 44.0823 248.897 44.0094C248.837 43.9365 248.791 43.8522 248.764 43.7614C248.736 43.6706 248.727 43.5752 248.737 43.4808C248.747 43.3865 248.776 43.2952 248.822 43.2122C248.866 43.1278 248.926 43.0531 248.998 42.9923C249.071 42.9315 249.156 42.8861 249.246 42.8585C249.337 42.831 249.432 42.8221 249.527 42.8321C249.621 42.8422 249.712 42.8712 249.795 42.9173L267.477 52.4152C267.562 52.4586 267.636 52.5185 267.697 52.5914C267.758 52.6642 267.803 52.7486 267.831 52.8394C267.858 52.9302 267.867 53.0256 267.857 53.1199C267.847 53.2143 267.818 53.3056 267.772 53.3886Z" fill="#110239"/>
<path d="M366.026 53.0938C366.026 53.0938 380.408 56.2794 397 70.7917L377.225 107.073C371.509 101.562 364.36 97.7704 356.595 96.1294L366.026 53.0938Z" fill="#AA22C6"/>
<path d="M369.592 76.0716C371.36 69.5529 372.775 62.9456 374.454 56.4269C371.735 55.101 368.917 53.9866 366.026 53.0938L356.595 96.1294C361.812 91.5869 363.197 93.1797 364.11 92.8257C365.761 87.2214 368.118 81.6465 369.592 76.0716Z" fill="#AA22C6"/>
<path d="M288.076 33.1252C288.076 33.1252 344.395 27.5208 375.693 43.7145L364.199 92.8264C364.199 92.8264 336.556 78.0781 290.729 84.3314L288.076 33.1252Z" fill="#AA22C6"/>
<path d="M292.527 28.7305H288.018V157.188H292.527V28.7305Z" fill="#110239"/>
<path d="M71.5553 311.721C53.0084 311.721 39.3635 307.051 30.6205 297.71C21.8775 288.37 17.2211 272.776 16.6514 250.928L55.4938 245.826C55.4313 251.046 55.7762 256.263 56.5252 261.429C56.9276 264.803 57.9255 268.079 59.4723 271.104C60.443 272.973 61.8478 274.582 63.5687 275.794C65.1298 276.714 66.9148 277.184 68.7261 277.151C73.8147 277.151 76.3689 273.454 76.3885 266.06C76.5746 259.506 74.8766 253.035 71.4964 247.418C67.0999 240.996 61.788 235.252 55.7295 230.369L43.9412 220.311C39.6385 216.594 36.1217 213.31 33.3907 210.459C30.3002 207.189 27.4998 203.655 25.021 199.899C22.1714 195.671 20.0496 190.995 18.7438 186.065C17.3325 180.564 16.6488 174.902 16.7103 169.223C16.7103 153.039 21.6221 140.552 31.4457 131.762C41.2692 122.972 54.7177 118.538 71.7911 118.459C102.539 118.459 118.011 136.698 118.207 173.175L78.3041 177.128C78.3041 172.231 78.3041 168.544 78.1567 166.096C78.0268 163.558 77.7016 161.033 77.1842 158.545C76.9324 156.514 76.0453 154.614 74.6497 153.118C73.3313 152.043 71.6617 151.497 69.9639 151.584C68.5952 151.621 67.267 152.056 66.1417 152.837C65.0164 153.617 64.1428 154.709 63.6277 155.979C62.2583 158.676 61.5321 161.655 61.5058 164.68C61.4991 166.242 61.6273 167.801 61.8889 169.341C62.1541 170.845 62.3899 172.29 62.6257 173.352C62.9213 174.697 63.4181 175.99 64.0992 177.187C64.836 178.573 65.3959 179.694 65.779 180.52C66.3942 181.703 67.1567 182.803 68.0483 183.794C69.1682 185.151 69.9344 186.095 70.2881 186.744C71.1194 187.791 72.0255 188.777 72.9994 189.693C74.4434 191.05 75.2981 191.847 75.6223 192.112L78.5693 194.708L81.2806 197.127L92.0964 206.477C96.2447 210.132 100.181 214.023 103.885 218.128C107.307 222.018 110.393 226.192 113.109 230.605C116.051 235.376 118.276 240.554 119.71 245.973C121.224 251.829 121.967 257.858 121.921 263.907C122.046 270.232 120.871 276.514 118.468 282.365C116.065 288.216 112.485 293.509 107.952 297.917C98.7371 307.139 86.605 311.741 71.5553 311.721Z" fill="#D0D1DE"/>
<path d="M141.784 308.8V121.408H229.401V152.144H187.611V193.97H218.791V225.826H187.611V278.153H229.872V308.8H141.784Z" fill="#D0D1DE"/>
<path d="M330.987 307.591C322.16 310.551 312.885 311.949 303.579 311.721C294.302 311.949 285.056 310.552 276.26 307.591C269.267 305.209 263.06 300.955 258.312 295.291C253.766 289.613 250.49 283.025 248.705 275.971C246.614 267.371 245.624 258.54 245.757 249.689V180.52C245.624 171.67 246.614 162.839 248.705 154.238C250.49 147.185 253.766 140.596 258.312 134.918C263.058 129.245 269.265 124.982 276.26 122.588C285.059 119.642 294.303 118.245 303.579 118.459C312.884 118.245 322.157 119.642 330.987 122.588C338.007 124.981 344.242 129.243 349.023 134.918C353.617 140.582 356.935 147.172 358.748 154.238C360.87 162.833 361.861 171.668 361.695 180.52V249.689C361.861 258.541 360.87 267.376 358.748 275.971C356.935 283.037 353.617 289.627 349.023 295.291C344.241 300.957 338.005 305.21 330.987 307.591ZM303.55 279.983C305.705 280.076 307.836 279.499 309.65 278.331C311.295 277.162 312.49 275.465 313.039 273.523C313.681 271.609 314.116 269.631 314.336 267.623C314.557 265.478 314.655 263.321 314.631 261.164V168.751C314.655 166.603 314.556 164.456 314.336 162.32C314.109 160.382 313.674 158.473 313.039 156.628C312.478 154.706 311.284 153.032 309.65 151.879C307.836 150.71 305.705 150.133 303.55 150.227C301.742 150.173 299.952 150.601 298.363 151.466C297.069 152.174 295.967 153.186 295.15 154.415C294.326 155.805 293.767 157.335 293.5 158.928C293.177 160.494 292.97 162.081 292.881 163.677C292.881 164.916 292.881 166.627 292.881 168.81V261.311C292.881 263.435 292.881 265.116 292.881 266.414C292.97 268.08 293.186 269.737 293.529 271.37C293.796 272.963 294.356 274.493 295.18 275.883C296.016 277.094 297.114 278.102 298.392 278.832C299.976 279.673 301.758 280.071 303.55 279.983Z" fill="#D0D1DE"/>
<path d="M193.831 62.2965C193.831 62.2965 199.725 83.1212 202.466 86.5428C206.138 89.8462 210.207 92.68 214.578 94.9788L212.191 99.3148C212.191 99.3148 195.334 90.7313 192.416 83.6816C190.895 80.2153 189.749 76.5961 188.998 72.8858C188.555 70.3196 186.64 63.8893 187.583 61.3231C187.985 60.8247 188.512 60.4409 189.109 60.2101C189.707 59.9794 190.354 59.9098 190.987 60.0084C191.62 60.1069 192.215 60.3702 192.715 60.7718C193.214 61.1734 193.599 61.6992 193.831 62.2965Z" fill="#3078CD"/>
<path d="M193.831 62.2965C193.831 62.2965 199.725 83.1212 202.466 86.5428C206.138 89.8462 210.207 92.68 214.578 94.9788L212.191 99.3148C212.191 99.3148 195.334 90.7313 192.416 83.6816C190.895 80.2153 189.749 76.5961 188.998 72.8858C188.555 70.3196 186.64 63.8893 187.583 61.3231C187.985 60.8247 188.512 60.4409 189.109 60.2101C189.707 59.9794 190.354 59.9098 190.987 60.0084C191.62 60.1069 192.215 60.3702 192.715 60.7718C193.214 61.1734 193.599 61.6992 193.831 62.2965Z" fill="#32B3B6"/>
<path d="M251.681 161.76L255.954 157.778C255.954 157.778 272.959 156.539 273.961 158.014C274.963 159.489 257.811 167.6 255.63 167.453C253.449 167.305 251.975 163.412 251.681 161.76Z" fill="#110239"/>
<path d="M220.501 104.152C220.501 104.152 236.592 100.052 237.918 102.707C239.244 105.362 255.954 157.777 255.954 157.777L251.681 161.759C251.681 161.759 233.762 117.514 228.575 112.883C223.389 108.252 218.084 105.981 220.501 104.152Z" fill="#F88667"/>
<path d="M220.501 104.152C220.501 104.152 236.592 100.052 237.918 102.707C239.244 105.362 255.954 157.777 255.954 157.777L251.681 161.759C251.681 161.759 233.762 117.514 228.575 112.883C223.389 108.252 218.084 105.981 220.501 104.152Z" fill="#E45940"/>
<path d="M212.19 94.3892C213.36 94.073 214.488 93.6175 215.549 93.0323C216.399 92.4102 217.449 92.1264 218.496 92.2359C219.263 92.2359 225.452 94.9201 223.801 96.0705C223.271 96.4244 221.945 95.7755 221.414 95.5985C220.884 95.4216 219.882 94.9496 219.145 94.6252C219.823 94.6252 223.153 96.0115 222.799 96.7784C222.18 98.1647 218.821 96.336 218.025 95.8935C218.614 95.8935 220.707 96.7784 220.707 97.5158C220.707 98.7252 218.231 97.7223 217.76 97.5158C217.425 97.2598 217.045 97.0696 216.64 96.9554C216.119 96.9693 215.603 97.0587 215.107 97.2209C214.148 97.4251 213.162 97.465 212.19 97.3388C211.689 97.3388 210.48 97.3388 210.215 96.9554C210.105 96.639 210.077 96.2998 210.134 95.9696C210.19 95.6393 210.33 95.329 210.539 95.0676C211.033 94.7237 211.597 94.4921 212.19 94.3892Z" fill="#F88667"/>
<path d="M212.19 94.3892C213.36 94.073 214.488 93.6175 215.549 93.0323C216.399 92.4102 217.449 92.1264 218.496 92.2359C219.263 92.2359 225.452 94.9201 223.801 96.0705C223.271 96.4244 221.945 95.7755 221.414 95.5985C220.884 95.4216 219.882 94.9496 219.145 94.6252C219.823 94.6252 223.153 96.0115 222.799 96.7784C222.18 98.1647 218.821 96.336 218.025 95.8935C218.614 95.8935 220.707 96.7784 220.707 97.5158C220.707 98.7252 218.231 97.7223 217.76 97.5158C217.425 97.2598 217.045 97.0696 216.64 96.9554C216.119 96.9693 215.603 97.0587 215.107 97.2209C214.148 97.4251 213.162 97.465 212.19 97.3388C211.689 97.3388 210.48 97.3388 210.215 96.9554C210.105 96.639 210.077 96.2998 210.134 95.9696C210.19 95.6393 210.33 95.329 210.539 95.0676C211.033 94.7237 211.597 94.4921 212.19 94.3892Z" fill="#E45940"/>
<path d="M240.069 66.6621L243.87 68.2254L230.844 99.6099L227.042 97.5451L240.069 66.6621Z" fill="#110239"/>
<path d="M228.428 96.9844H203.672V100.819H228.428V96.9844Z" fill="#110239"/>
<path d="M159.909 79.1095C163.21 77.1922 163.77 75.098 161.913 68.1663C161.244 65.0312 161.626 61.7627 163.001 58.867C164.375 55.9714 166.666 53.6103 169.517 52.1496C172.906 50.7632 175.882 50.1438 177.945 46.5157C180.008 42.8876 176.089 35.189 182.72 29.4961C187.464 25.3371 194.302 28.6702 194.302 28.6702C195.775 27.8443 196.365 36.4278 196.483 42.8876C188.201 55.5417 190.588 72.0893 193.535 86.2772C193.621 86.5991 193.729 86.9145 193.86 87.2211C193.211 98.2233 192.681 107.308 192.681 107.308C192.681 107.308 172.788 118.576 159.29 108.931C145.793 99.2852 153.249 82.8851 159.909 79.1095Z" fill="#110239"/>
<path d="M218.349 159.281L223.389 162.231C223.389 162.231 229.578 178.159 228.458 179.545C227.338 180.932 214.577 166.921 214.076 164.797C213.575 162.673 216.876 159.93 218.349 159.281Z" fill="#110239"/>
<path d="M211.925 103.239C211.925 103.239 244.343 105.51 247.29 108.43C250.237 111.351 222.77 161.79 222.77 161.79L218.35 159.283C218.35 159.283 225.157 135.272 226.926 129.786C228.694 124.3 232.112 117.545 231.464 116.66C230.816 115.775 198.162 120.701 198.427 111.469C198.693 102.236 211.925 103.239 211.925 103.239Z" fill="#F88667"/>
<path d="M195.922 48.464C195.922 48.464 192.504 57.7259 194.596 64.6576L183.25 61.944C183.25 61.944 187.877 46.3992 189.881 43.7445C191.885 41.0898 195.922 48.464 195.922 48.464Z" fill="#F88667"/>
<path d="M191.178 56.7802C190.417 56.7485 189.659 56.8705 188.947 57.139C188.235 57.4075 187.584 57.817 187.034 58.3429C186.484 58.8689 186.045 59.5005 185.744 60.2C185.443 60.8995 185.287 61.6525 185.283 62.4141L183.25 61.9421C183.25 61.9421 187.877 46.3974 189.881 43.7427C191.885 41.088 195.775 48.4916 195.775 48.4916C194.773 51.4013 194.13 54.4225 193.859 57.4881C193.035 57.042 192.115 56.7993 191.178 56.7802Z" fill="#E45940"/>
<path d="M197.101 36.3406C199.156 37.2679 201.009 38.5909 202.553 40.2341C203.614 42.0334 202.553 44.4817 202.789 46.1335C203.014 47.607 203.113 49.0971 203.084 50.5875C202.819 50.9709 201.198 50.5875 200.932 50.9414C200.667 51.2954 198.575 52.5932 197.985 54.0976C197.396 55.6019 196.453 55.7199 195.038 54.9825C193.624 54.245 187.612 46.4579 187.553 42.8003C187.739 41.7404 188.137 40.7287 188.722 39.8257C189.307 38.9227 190.068 38.1467 190.958 37.544C191.849 36.9413 192.852 36.5241 193.908 36.3174C194.963 36.1106 196.049 36.1185 197.101 36.3406Z" fill="#F88667"/>
<path d="M193.357 31.414C194.312 33.2468 195.073 35.1746 195.626 37.1658C195.53 39.6886 194.745 42.1367 193.357 44.245C192.444 44.8644 193.357 38.8471 190.882 40.6759C188.406 42.5047 190.882 46.0148 190.882 46.5752C190.661 47.4061 190.199 48.1525 189.553 48.7198C188.908 49.287 188.108 49.6494 187.257 49.7609C184.84 49.9969 180.862 37.9622 183.485 35.0126C184.809 33.7867 186.364 32.8372 188.059 32.2194C189.754 31.6015 191.555 31.3277 193.357 31.414Z" fill="#110239"/>
<path d="M192.945 28.9958C194.121 28.1725 195.536 27.7608 196.969 27.8248C198.403 27.8888 199.775 28.4249 200.873 29.3498C204.94 32.6239 204.793 37.5203 208.123 37.0779C208.123 37.0779 205.912 42.7707 201.109 41.4139C196.305 40.0571 191.265 32.4469 192.945 28.9958Z" fill="#110239"/>
<path d="M179.773 93.2383L194.803 92.0879C194.803 92.0879 202.642 100.937 210.364 100.937H236.887C235.879 108.363 233.22 115.469 229.107 121.732C229.107 121.732 203.998 122.528 191.738 121.526C179.478 120.523 167.749 106.925 179.773 93.2383Z" fill="#AA22C6"/>
<path d="M178.329 95.0081C178.771 94.4181 179.213 93.8282 179.743 93.2383L194.773 92.0879C194.773 92.0879 202.406 100.583 210.039 100.937C200.815 101.763 183.221 103.798 178.329 95.0081Z" fill="#77118C"/>
<path d="M229.872 102.619C226.041 102.236 222.327 101.322 218.555 100.85H235.147C233.408 101.676 232.613 102.885 229.872 102.619Z" fill="#77118C"/>
<path d="M184.694 56.6621C187.692 57.8712 190.775 58.8571 193.918 59.6118C193.918 59.6118 198.781 70.3486 200.697 73.2392C202.612 76.1299 195.893 87.2502 195.51 92.0581C195.51 92.0581 191.502 95.8927 179.301 93.5329C179.301 93.5624 176.118 63.4168 184.694 56.6621Z" fill="#49E4DB"/>
<path d="M182.72 63.0634C183.934 62.6275 185.257 62.6021 186.487 62.991C187.716 63.3799 188.784 64.1618 189.528 65.2167C190.795 67.8419 189.528 72.5023 189.528 75.334C189.604 78.645 189.979 81.9423 190.648 85.1859C191.451 87.8864 192.795 90.3952 194.597 92.5601C193.035 93.504 188.526 95.5097 179.066 93.563C179.066 93.563 177.12 75.1865 180.362 64.0663C181.482 63.5943 182.278 63.3289 182.72 63.0634Z" fill="#32B3B6"/>
<path d="M209.832 94.3893C211 94.068 212.127 93.6127 213.191 93.0325C214.038 92.4051 215.091 92.1207 216.138 92.2361C216.905 92.2361 223.093 94.9203 221.443 96.0707C220.913 96.4246 219.557 95.7757 219.026 95.5987C218.496 95.4217 217.523 94.9498 216.787 94.6253C217.464 94.6253 220.795 96.0117 220.441 96.7786C219.822 98.1649 216.433 96.3361 215.667 95.8937C216.256 95.8937 218.349 96.7786 218.349 97.516C218.349 98.7254 215.844 97.7225 215.402 97.516C215.064 97.2656 214.685 97.0759 214.282 96.9556C213.761 96.9695 213.244 97.0589 212.749 97.221C211.88 97.3515 210.996 97.3515 210.126 97.221C209.596 97.221 208.417 97.221 208.152 96.8376C208.041 96.5212 208.013 96.182 208.07 95.8517C208.127 95.5215 208.266 95.2111 208.476 94.9498C208.889 94.6805 209.349 94.4905 209.832 94.3893Z" fill="#F88667"/>
<path d="M210.863 94.3885L209.537 99.3734C209.537 99.3734 177.119 95.5978 176.235 89.8165C175.351 84.0352 177.561 57.1342 185.43 59.9364C193.299 62.7386 185.43 82.2359 186.727 83.7402C188.024 85.2445 210.863 94.3885 210.863 94.3885Z" fill="#49E4DB"/>
<path d="M360.014 211.551H312.389C303.548 211.551 297.124 204.029 299.953 196.803V196.419C304.462 186.567 317.635 189.163 321.201 193.735C321.201 193.735 312.36 177.512 331.369 177.512C347.401 177.512 342.42 193.292 342.42 193.292C342.42 193.292 345.367 181.14 354.857 182.054C370.093 183.559 361.046 198.749 361.046 198.749C361.046 198.749 376.311 195.298 376.164 203.528C376.017 211.757 360.014 211.551 360.014 211.551Z" fill="#AA22C6"/>
<path d="M53.7266 216.565H21.0436C14.9431 216.565 10.5815 211.403 12.4971 206.388C12.4917 206.31 12.4917 206.231 12.4971 206.152C15.4441 199.368 24.639 201.167 27.0556 204.324C27.0556 204.324 20.9257 193.174 34.0107 193.174C45.0327 193.174 41.6141 203.999 41.6141 203.999C41.6141 203.999 43.6771 195.652 50.1312 196.3C60.5933 197.303 54.375 207.745 54.375 207.745C54.375 207.745 64.8665 205.385 64.7486 211.019C64.6308 216.653 53.7266 216.565 53.7266 216.565Z" fill="#AA22C6"/>
<path d="M186.609 273.493H120.33C107.952 273.493 99.1107 263.022 103.03 252.846C103.03 252.846 103.03 252.521 103.237 252.344C109.484 238.628 127.904 242.256 132.707 248.628C132.707 248.628 120.271 226.033 146.853 226.033C169.163 226.033 162.266 247.979 162.266 247.979C162.266 247.979 166.451 231.077 179.536 232.345C200.755 234.44 188.142 255.559 188.142 255.559C188.142 255.559 209.449 250.722 209.243 262.226C209.037 273.729 186.609 273.493 186.609 273.493Z" fill="#AA22C6"/>
<path d="M90.5941 272.284C90.7469 271.18 90.8256 270.066 90.8298 268.951C90.8267 267.836 90.7479 266.722 90.5941 265.618L85.4662 264.792C85.2911 264.014 85.0747 263.246 84.8178 262.491L88.9142 259.217C88.0545 257.113 86.9252 255.13 85.5546 253.318L80.6624 255.206C80.1424 254.616 79.5915 254.055 79.0121 253.524L80.8687 248.657C79.0665 247.273 77.0834 246.141 74.9746 245.295L71.6739 249.365C70.9469 249.129 70.1807 248.923 69.3751 248.746L68.5794 243.614C66.3705 243.298 64.128 243.298 61.9191 243.614L61.1233 248.746C60.3178 248.923 59.5516 249.129 58.8246 249.365L55.6713 245.413C53.6139 246.271 51.6811 247.402 49.9245 248.775L51.7811 253.672C51.1943 254.195 50.643 254.757 50.1308 255.353L45.2386 253.465C43.868 255.278 42.7387 257.261 41.879 259.365L45.9754 262.521C45.7185 263.276 45.5021 264.044 45.327 264.822L40.1991 265.648C40.0453 266.752 39.9665 267.866 39.9634 268.981C39.9676 270.096 40.0463 271.209 40.1991 272.314L45.327 273.11C45.4943 273.89 45.7109 274.659 45.9754 275.411L41.879 278.715C42.7434 280.816 43.8724 282.799 45.2386 284.614L50.1013 282.549C50.6135 283.146 51.1648 283.707 51.7517 284.23L49.9245 289.068C51.6811 290.441 53.6139 291.572 55.6713 292.431L58.9425 288.389C59.6949 288.644 60.4627 288.851 61.2412 289.009L62.0369 294.171C63.142 294.309 64.2536 294.388 65.3671 294.407C66.4806 294.388 67.5923 294.309 68.6973 294.171L69.5225 289.068C70.3011 288.91 71.0688 288.703 71.8212 288.448L75.1219 292.519C77.2307 291.672 79.2138 290.541 81.0161 289.156L79.1594 284.289C79.7389 283.759 80.2898 283.197 80.8098 282.608L85.7019 284.496C87.0681 282.681 88.1972 280.698 89.0616 278.597L84.9652 275.293C85.2297 274.541 85.4462 273.772 85.6135 272.992L90.5941 272.284ZM65.3966 282.284C62.762 282.284 60.1866 281.502 57.996 280.037C55.8054 278.572 54.098 276.489 53.0898 274.053C52.0816 271.617 51.8178 268.936 52.3318 266.35C52.8458 263.764 54.1145 261.388 55.9774 259.524C57.8403 257.659 60.2139 256.389 62.7978 255.875C65.3818 255.36 68.0602 255.624 70.4942 256.634C72.9283 257.643 75.0087 259.352 76.4724 261.544C77.9361 263.737 78.7174 266.314 78.7174 268.951C78.7174 272.487 77.3139 275.878 74.8158 278.379C72.3177 280.879 68.9295 282.284 65.3966 282.284Z" fill="#AA22C6"/>
<path d="M65.3959 253.967C62.4349 253.967 59.5404 254.846 57.0784 256.492C54.6164 258.139 52.6976 260.479 51.5644 263.217C50.4313 265.955 50.1348 268.968 50.7125 271.874C51.2901 274.781 52.716 277.451 54.8098 279.547C56.9035 281.642 59.5711 283.069 62.4752 283.647C65.3793 284.226 68.3895 283.929 71.1251 282.795C73.8608 281.661 76.1989 279.74 77.844 277.276C79.489 274.812 80.3671 271.915 80.3671 268.951C80.3709 266.982 79.9864 265.032 79.2354 263.212C78.4844 261.393 77.3818 259.739 75.9908 258.347C74.5998 256.955 72.9479 255.851 71.1297 255.1C69.3116 254.348 67.3631 253.963 65.3959 253.967ZM65.3959 278.272C63.554 278.272 61.7535 277.725 60.2221 276.701C58.6906 275.677 57.4969 274.221 56.7921 272.518C56.0872 270.815 55.9028 268.941 56.2621 267.133C56.6215 265.325 57.5084 263.664 58.8108 262.36C60.1132 261.057 61.7726 260.169 63.5791 259.809C65.3856 259.45 67.2581 259.634 68.9598 260.34C70.6615 261.045 72.1159 262.24 73.1392 263.773C74.1625 265.306 74.7087 267.108 74.7087 268.951C74.7009 271.421 73.7173 273.787 71.9725 275.533C70.2277 277.28 67.8634 278.264 65.3959 278.272Z" fill="#110239"/>
<path d="M179.094 171.346C179.443 170.766 179.758 170.165 180.037 169.547C180.316 168.935 180.553 168.304 180.744 167.659L178.092 165.948C178.202 165.472 178.28 164.989 178.328 164.503L181.275 163.707C181.306 162.356 181.157 161.007 180.833 159.695L177.679 159.518C177.538 159.066 177.371 158.623 177.178 158.191L179.418 155.979C178.792 154.788 178.009 153.686 177.09 152.704L174.143 154.12C173.789 153.792 173.415 153.487 173.023 153.206L173.848 150.256C173.285 149.895 172.693 149.58 172.08 149.312C171.466 149.038 170.836 148.801 170.194 148.604L168.455 151.23L167.04 151.023L166.245 148.073C164.897 148.047 163.551 148.186 162.237 148.486L162.06 151.643C161.608 151.794 161.165 151.971 160.734 152.174L158.494 149.902C157.308 150.547 156.209 151.34 155.223 152.262L156.667 155.212C156.338 155.554 156.033 155.919 155.753 156.303L152.806 155.477C152.441 156.054 152.116 156.655 151.834 157.276C151.564 157.889 151.338 158.52 151.156 159.164L153.779 160.875C153.679 161.352 153.61 161.835 153.572 162.32L150.625 163.117C150.571 164.467 150.71 165.818 151.038 167.128L154.191 167.305C154.339 167.748 154.515 168.19 154.692 168.633L152.452 170.845C153.089 172.037 153.882 173.138 154.81 174.119L157.757 172.703C158.111 173.028 158.494 173.323 158.877 173.618L158.052 176.567C158.615 176.928 159.207 177.244 159.82 177.511C160.442 177.791 161.082 178.027 161.736 178.219L163.445 175.594L164.86 175.8L165.655 178.75C167.003 178.778 168.349 178.639 169.663 178.337L169.84 175.181C170.303 175.035 170.756 174.857 171.196 174.65L173.406 176.921C174.597 176.284 175.697 175.49 176.677 174.561L175.263 171.612C175.558 171.258 175.882 170.904 176.176 170.52L179.094 171.346ZM162.708 170.609C161.257 169.958 160.031 168.891 159.185 167.543C158.339 166.195 157.911 164.626 157.956 163.034C158.001 161.443 158.516 159.901 159.436 158.602C160.356 157.304 161.64 156.307 163.126 155.739C164.611 155.17 166.232 155.055 167.783 155.408C169.334 155.762 170.745 156.567 171.839 157.723C172.933 158.878 173.66 160.333 173.929 161.902C174.197 163.471 173.995 165.084 173.347 166.538C172.471 168.486 170.86 170.008 168.867 170.771C166.873 171.534 164.659 171.475 162.708 170.609Z" fill="#AA22C6"/>
<path d="M169.723 154.976C168.086 154.232 166.266 153.992 164.492 154.286C162.719 154.579 161.072 155.393 159.761 156.625C158.45 157.856 157.534 159.449 157.129 161.202C156.724 162.955 156.848 164.789 157.486 166.471C158.124 168.153 159.246 169.608 160.711 170.651C162.175 171.695 163.916 172.279 165.713 172.33C167.51 172.382 169.282 171.898 170.804 170.94C172.326 169.983 173.529 168.595 174.262 166.952C175.239 164.76 175.31 162.271 174.46 160.027C173.61 157.783 171.907 155.967 169.723 154.976ZM163.829 168.397C162.811 167.952 161.946 167.215 161.345 166.279C160.744 165.344 160.433 164.251 160.452 163.138C160.471 162.026 160.818 160.944 161.45 160.029C162.082 159.114 162.971 158.407 164.004 157.996C165.037 157.586 166.168 157.491 167.255 157.723C168.342 157.956 169.336 158.505 170.112 159.302C170.888 160.098 171.41 161.107 171.614 162.201C171.817 163.295 171.693 164.424 171.256 165.447C170.962 166.143 170.531 166.772 169.99 167.299C169.449 167.825 168.808 168.238 168.105 168.513C167.402 168.788 166.651 168.919 165.896 168.899C165.142 168.879 164.399 168.709 163.711 168.397H163.829Z" fill="#110239"/>
<path d="M298.333 240.043C298.66 239.424 298.946 238.783 299.188 238.126C299.419 237.451 299.606 236.761 299.748 236.061L296.801 234.498C296.845 233.998 296.845 233.494 296.801 232.994L299.925 231.902C299.864 230.487 299.606 229.087 299.159 227.743H295.858C295.672 227.277 295.455 226.824 295.209 226.386L297.39 223.879C296.617 222.686 295.696 221.596 294.65 220.635L291.702 222.375C291.314 222.047 290.9 221.751 290.465 221.49L291.378 218.275C290.759 217.948 290.119 217.662 289.463 217.419C288.793 217.165 288.103 216.967 287.4 216.83L285.838 219.779C285.337 219.75 284.835 219.75 284.335 219.779L283.244 216.623C281.834 216.713 280.439 216.97 279.089 217.39V220.723C278.624 220.899 278.171 221.106 277.733 221.343L275.228 219.189C274.043 219.961 272.955 220.872 271.987 221.903L273.725 224.853C273.411 225.266 273.116 225.679 272.841 226.091L269.629 225.472C269.296 226.099 269.011 226.75 268.774 227.419C268.524 228.08 268.327 228.761 268.185 229.454L271.132 231.047C271.103 231.548 271.103 232.05 271.132 232.551L267.979 233.643C268.071 235.054 268.328 236.45 268.745 237.802H272.075C272.251 238.267 272.458 238.72 272.694 239.158L270.542 241.666C271.298 242.854 272.21 243.936 273.254 244.881L276.201 243.17L277.439 244.025L276.82 247.27C277.446 247.603 278.096 247.889 278.765 248.125C279.431 248.353 280.11 248.54 280.798 248.686L282.39 245.736C282.89 245.78 283.393 245.78 283.893 245.736L284.983 248.863C286.397 248.799 287.795 248.541 289.138 248.096L288.814 244.822C289.28 244.636 289.733 244.419 290.17 244.173L292.675 246.356C293.863 245.589 294.944 244.666 295.887 243.612L294.178 240.663C294.486 240.267 294.772 239.853 295.033 239.424L298.333 240.043ZM281.181 240.633C279.613 240.07 278.247 239.053 277.255 237.713C276.264 236.372 275.692 234.768 275.611 233.102C275.531 231.436 275.945 229.783 276.802 228.353C277.66 226.923 278.921 225.779 280.428 225.067C281.935 224.354 283.618 224.104 285.267 224.349C286.915 224.594 288.454 225.322 289.689 226.442C290.924 227.562 291.799 229.023 292.205 230.64C292.611 232.258 292.528 233.96 291.968 235.53C291.209 237.635 289.648 239.353 287.627 240.31C285.605 241.266 283.288 241.382 281.181 240.633Z" fill="#AA22C6"/>
<path d="M287.222 223.732C285.458 223.103 283.548 223.011 281.733 223.466C279.917 223.922 278.276 224.904 277.017 226.291C275.757 227.677 274.936 229.405 274.656 231.258C274.376 233.11 274.649 235.004 275.442 236.702C276.235 238.399 277.511 239.824 279.111 240.797C280.711 241.77 282.563 242.247 284.433 242.169C286.303 242.091 288.109 241.462 289.622 240.359C291.136 239.257 292.29 237.731 292.939 235.973C293.371 234.794 293.565 233.541 293.511 232.286C293.457 231.032 293.155 229.8 292.624 228.663C292.093 227.525 291.342 226.504 290.415 225.658C289.488 224.811 288.403 224.157 287.222 223.732ZM282.035 238.244C280.938 237.85 279.983 237.139 279.29 236.202C278.597 235.264 278.197 234.142 278.141 232.977C278.085 231.812 278.375 230.657 278.974 229.657C279.574 228.657 280.456 227.857 281.509 227.359C282.563 226.861 283.74 226.686 284.893 226.857C286.046 227.028 287.122 227.537 287.985 228.32C288.849 229.103 289.461 230.125 289.745 231.256C290.029 232.387 289.971 233.577 289.58 234.675C289.319 235.406 288.917 236.078 288.397 236.653C287.876 237.228 287.248 237.695 286.547 238.026C285.846 238.358 285.087 238.548 284.313 238.585C283.538 238.623 282.764 238.507 282.035 238.244Z" fill="#110239"/>
<path d="M74.1797 236.445H76.331V239.394H74.1797V236.445ZM74.1797 230.545H76.331V233.495H74.1797V230.545ZM74.1797 224.646H76.331V227.596H74.1797V224.646ZM74.1797 218.747H76.331V221.696H74.1797V218.747ZM74.1797 213.172H76.331V216.122H74.1797V213.172Z" fill="#110239"/>
<path d="M114.938 210.134H111.755V207.98H114.938V210.134ZM108.66 210.134H105.478V207.98H108.601L108.66 210.134ZM102.413 210.134H99.2298V207.98H102.354L102.413 210.134ZM96.1648 210.134H92.9525V207.98H96.1059L96.1648 210.134ZM89.8876 210.134H86.7047V207.98H89.8286L89.8876 210.134ZM83.6398 210.134H80.4569V207.98H83.5808L83.6398 210.134ZM77.3625 210.134H74.1797V207.98H77.3036L77.3625 210.134Z" fill="#110239"/>
<path d="M120.594 210.606H118.472V210.134H118V207.98H120.594V210.606Z" fill="#110239"/>
<path d="M120.624 255.617H118.473V252.402H120.624V255.617ZM120.624 249.187H118.473V245.972H120.624V249.187ZM120.624 242.757H118.473V239.541H120.624V242.757ZM120.624 236.326H118.473V233.023H120.624V236.326ZM120.624 229.896H118.473V226.681H120.624V229.896ZM120.624 223.466H118.473V220.251H120.624V223.466ZM120.624 217.035H118.473V213.82H120.624V217.035Z" fill="#110239"/>
<path d="M121.066 261.459H118.473V258.834H120.595V259.306H121.066V261.459Z" fill="#110239"/>
<path d="M192.857 261.458H189.91V259.305H192.857V261.458ZM186.963 261.458H184.016V259.305H186.963V261.458ZM181.069 261.458H178.122V259.305H181.069V261.458ZM175.174 261.458H172.227V259.305H175.174V261.458ZM169.28 261.458H166.333V259.305H169.28V261.458ZM163.386 261.458H160.439V259.305H163.386V261.458ZM157.492 261.458H154.545V259.305H157.492V261.458ZM151.598 261.458H148.651V259.305H151.598V261.458ZM145.704 261.458H142.757V259.305H145.704V261.458ZM139.81 261.458H136.863V259.305H139.81V261.458ZM133.915 261.458H130.968V259.305H133.915V261.458ZM128.021 261.458H125.074V259.305H128.021V261.458Z" fill="#110239"/>
<path d="M198.458 261.459H195.864V259.306H196.306V258.834H198.458V261.459Z" fill="#110239"/>
<path d="M198.485 255.794H196.334V252.845H198.485V255.794ZM198.485 249.659H196.334V246.71H198.485V249.659ZM198.485 243.524H196.334V240.574H198.485V243.524ZM198.485 237.389H196.334V234.439H198.485V237.389ZM198.485 231.283H196.334V228.333H198.485V231.283ZM198.485 225.147H196.334V222.198H198.485V225.147ZM198.485 219.012H196.334V216.062H198.485V219.012ZM198.485 212.906H196.334V209.957H198.485V212.906ZM198.485 206.771H196.334V203.821H198.485V206.771ZM198.485 200.636H196.334V197.627H198.485V200.636ZM198.485 194.5H196.334V191.551H198.485V194.5Z" fill="#110239"/>
<path d="M198.456 188.395H196.305V185.77H198.928V187.923H198.456V188.395Z" fill="#110239"/>
<path d="M278.145 187.922H275.198V185.828H278.145V187.922ZM272.045 187.922H269.097V185.828H272.045V187.922ZM265.974 187.922H263.026V185.828H265.974V187.922ZM259.873 187.922H256.926V185.828H259.873V187.922ZM253.773 187.922H250.826V185.828H253.773V187.922ZM247.672 187.922H244.607V185.828H247.554L247.672 187.922ZM241.601 187.922H238.654V185.828H241.601V187.922ZM235.501 187.922H232.554V185.828H235.501V187.922ZM229.4 187.922H226.453V185.828H229.4V187.922ZM223.3 187.922H220.353V185.828H223.3V187.922ZM217.2 187.922H214.252V185.828H217.2V187.922ZM211.129 187.922H208.181V185.828H211.129V187.922ZM205.028 187.922H202.081V185.828H205.028V187.922Z" fill="#110239"/>
<path d="M283.805 188.395H281.653V187.923H281.211V185.77H283.805V188.395Z" fill="#110239"/>
<path d="M283.804 206.27H281.652V203.32H283.804V206.27ZM283.804 200.37H281.652V197.421H283.804V200.37ZM283.804 194.471H281.652V191.521H283.804V194.471Z" fill="#110239"/>
<path d="M283.804 209.25H281.652V212.17H283.804V209.25Z" fill="#110239"/>
<path d="M73.8845 37.6074H65.2791C65.2791 37.6074 64.0413 49.4061 61.7721 50.7629C61.7721 50.7629 59.0018 64.6559 69.5818 64.6559C82.3721 64.6559 77.3915 50.7629 77.3915 50.7629C75.1518 49.3766 73.8845 37.6074 73.8845 37.6074Z" fill="#F88667"/>
<path d="M73.8845 37.6074H65.2791C65.2791 37.6074 64.0413 49.4061 61.7721 50.7629C61.7721 50.7629 59.0018 64.6559 69.5818 64.6559C82.3721 64.6559 77.3915 50.7629 77.3915 50.7629C75.1518 49.3766 73.8845 37.6074 73.8845 37.6074Z" fill="#E45940"/>
<path d="M80.8092 39.91C79.6009 38.5531 78.1568 40.6474 78.1568 40.6474C78.1568 40.6474 80.1313 32.8603 78.1568 29.4682C76.1823 26.076 69.8166 27.8458 69.8166 27.8458C69.8166 27.8458 63.4214 26.0465 61.4469 29.4682C59.4724 32.8898 61.4469 40.6474 61.4469 40.6474C61.4469 40.6474 60.0028 38.5531 58.824 39.91C57.6452 41.2668 60.7691 44.7769 61.5058 45.1899C61.5058 45.1899 66.1033 53.8029 69.8166 53.8029C73.5299 53.8029 78.0978 45.1899 78.0978 45.1899C78.8346 44.7769 81.988 41.2963 80.8092 39.91Z" fill="#F88667"/>
<path d="M68.1962 30.9116C68.1962 30.9116 63.363 31.767 62.8325 34.3628C62.6486 35.6927 62.7288 37.0459 63.0683 38.3448C63.326 39.7563 63.464 41.1871 63.4809 42.6218C63.3851 42.671 63.279 42.6966 63.1714 42.6966C63.0638 42.6966 62.9577 42.671 62.862 42.6218C62.2134 42.0601 61.6652 41.3917 61.2411 40.6455C60.298 39.3182 59.0013 39.5247 58.6182 40.3801C58.6182 40.3801 57.5278 27.6375 62.862 27.1951C68.1962 26.7526 68.1962 30.9116 68.1962 30.9116Z" fill="#110239"/>
<path d="M71.3506 30.9116C71.3506 30.9116 76.1838 31.767 76.7143 34.3628C76.9311 35.6841 76.9011 37.0343 76.6258 38.3448C76.3534 39.7542 76.2153 41.1863 76.2133 42.6218C76.309 42.671 76.4151 42.6966 76.5227 42.6966C76.6303 42.6966 76.7364 42.671 76.8321 42.6218C77.4724 42.0519 78.0193 41.3851 78.453 40.6455C79.3961 39.3182 80.6928 39.5247 81.0759 40.3801C81.0759 40.3801 82.1663 27.6375 76.8321 27.1951C71.4979 26.7526 71.3506 30.9116 71.3506 30.9116Z" fill="#110239"/>
<path d="M79.3359 28.7598C79.1365 27.8249 78.7131 26.9525 78.1022 26.2178C77.4913 25.483 76.7111 24.9078 75.8289 24.5417C72.5722 23.2082 68.9663 22.9904 65.5731 23.9223C58.7948 25.6331 58.7064 32.7713 61.2703 34.7476C62.0841 35.5564 63.0573 36.1867 64.1279 36.5981C65.1986 37.0094 66.3432 37.1929 67.4887 37.1368C76.8604 37.1368 80.78 31.6209 79.3359 28.7598Z" fill="#110239"/>
<path d="M77.3901 50.7637C76.948 62.5623 69.5803 61.353 69.5803 61.353C69.5803 61.353 62.2421 62.5918 61.7706 50.7637C55.6476 52.4063 49.7488 54.7936 44.2061 57.8724C45.8179 65.0225 46.726 72.3135 46.9174 79.6409L53.6367 105.657L69.5803 106.453L85.4651 105.627L92.2433 79.6409C92.4153 72.3285 93.2837 65.0492 94.8367 57.9019C89.3326 54.8218 83.4738 52.4247 77.3901 50.7637Z" fill="#49E4DB"/>
<g style="mix-blend-mode:multiply" opacity="0.32">
<path d="M91.0939 64.6862C83.8146 68.5797 80.2487 77.5172 73.1757 81.9122C66.1027 86.3072 60.6506 77.2812 57.0847 72.5028C54.0821 68.367 50.0052 65.1333 45.2964 63.1523C46.239 68.6015 46.7807 74.1125 46.9173 79.641L53.6366 105.657L69.5803 106.453L85.465 105.628L92.2432 79.641C92.3566 74.2128 92.8688 68.8003 93.7757 63.4473C92.8327 63.8308 91.9485 64.2437 91.0939 64.6862Z" fill="#00547A"/>
</g>
<path d="M99.1691 116.157C99.1691 107.043 87.8523 101.025 87.8523 101.025H49.8646C49.8646 101.025 38.5479 106.925 38.5479 116.157C38.6749 118.527 38.9803 120.883 39.4614 123.207H52.0749C51.5739 124.121 51.1024 125.006 50.7487 125.744L50.3951 126.363H59.5605C60.2678 126.363 60.032 126.658 59.8552 125.626C59.6784 124.593 58.6763 123.354 59.5605 121.821C61.0685 120.499 62.9806 119.729 64.9831 119.638C65.2869 119.608 65.5929 119.608 65.8967 119.638H71.7908C72.5388 119.669 73.2806 119.788 74.0011 119.992C74.6495 119.992 76.5356 119.992 77.3608 121.024C77.7815 121.674 78.0065 122.432 78.0091 123.207C77.9792 124.267 77.8609 125.323 77.6555 126.363H89.1785C88.381 125.355 87.643 124.301 86.9682 123.207H98.1966C98.7129 120.888 99.0382 118.53 99.1691 116.157Z" fill="#F92961"/>
<path d="M99.1691 116.157C99.1691 107.043 87.8523 101.025 87.8523 101.025H49.8646C49.8646 101.025 38.5479 106.925 38.5479 116.157C38.6749 118.527 38.9803 120.883 39.4614 123.207H52.0749C51.5739 124.121 51.1024 125.006 50.7487 125.744L50.3951 126.363H59.5605C60.2678 126.363 60.032 126.658 59.8552 125.626C59.6784 124.593 58.6763 123.354 59.5605 121.821C61.0685 120.499 62.9806 119.729 64.9831 119.638C65.2869 119.608 65.5929 119.608 65.8967 119.638H71.7908C72.5388 119.669 73.2806 119.788 74.0011 119.992C74.6495 119.992 76.5356 119.992 77.3608 121.024C77.7815 121.674 78.0065 122.432 78.0091 123.207C77.9792 124.267 77.8609 125.323 77.6555 126.363H89.1785C88.381 125.355 87.643 124.301 86.9682 123.207H98.1966C98.7129 120.888 99.0382 118.53 99.1691 116.157Z" fill="#77118C"/>
<path d="M44.2082 57.872C44.2082 57.872 29.7086 89.2565 30.74 93.4155C31.0053 94.4774 48.6582 105.214 56.969 103.621L60.3581 103.002C60.3581 103.002 48.1572 57.636 44.2082 57.872Z" fill="#49E4DB"/>
<path d="M94.8081 57.872C94.8081 57.872 109.337 89.2565 108.276 93.4155C108.011 94.4774 90.3581 105.214 82.0473 103.621L78.6582 103.002C78.6582 103.002 91.0064 57.636 94.8081 57.872Z" fill="#49E4DB"/>
<g style="mix-blend-mode:multiply" opacity="0.32">
<path d="M50.1013 68.8457C50.079 70.3854 49.8912 71.9182 49.5413 73.4177C48.2741 79.1105 46.2406 85.0099 48.3625 90.7912C50.2052 95.2705 52.3927 99.5999 54.905 103.74C55.6693 103.817 56.4394 103.817 57.2037 103.74L60.5929 103.121C60.5929 103.121 54.8166 82.2077 50.1013 68.8457Z" fill="#00547A"/>
</g>
<g style="mix-blend-mode:multiply" opacity="0.32">
<path d="M86.8796 103.445C87.9675 100.8 88.4895 97.9562 88.4121 95.0971C88.2058 89.1978 88.1763 83.5049 88.2647 77.6941C88.2647 75.1869 88.2647 72.7681 88.53 70.3789C83.8146 83.7409 78.5688 103.002 78.5688 103.002L81.958 103.622C83.5964 103.847 85.2615 103.787 86.8796 103.445Z" fill="#00547A"/>
</g>
<path d="M55.1116 170.49C51.451 174.74 48.0178 179.18 44.8263 183.793C43.7359 186.123 46.3588 189.044 49.9542 187.864C53.5496 186.684 55.642 184.206 55.701 182.643C55.7599 181.079 57.6755 180.254 58.648 180.136C59.6206 180.018 64.2769 174.561 63.8054 173.086C63.0986 171.806 62.0861 170.722 60.8583 169.93L55.1116 170.49Z" fill="#110239"/>
<path d="M82.518 170.49C86.1695 174.747 89.6024 179.187 92.8033 183.793C93.8643 186.123 91.2414 189.044 87.646 187.864C84.0505 186.684 81.9581 184.206 81.7518 182.643C81.5455 181.079 79.7773 180.254 78.9521 180.136C78.1269 180.018 73.6768 174.561 74.06 173.086C74.7667 171.806 75.7792 170.722 77.007 169.93L82.518 170.49Z" fill="#110239"/>
<path d="M58.3229 115.686C57.2324 113.061 56.9967 107.545 49.629 107.545C35.3946 107.545 38.7248 118.96 38.9606 120.671C41.112 137.632 51.4267 171.523 51.4267 171.523H65.6611C65.6611 171.523 60.4742 130.021 59.7669 123.591C59.5261 120.918 59.0428 118.272 58.3229 115.686Z" fill="#AA22C6"/>
<path d="M79.5725 115.686C80.6629 113.061 80.8987 107.545 88.4137 107.545C102.619 107.545 99.2884 118.96 99.0821 120.671C96.9307 137.632 86.616 171.523 86.616 171.523H72.0869C72.0869 171.523 77.2738 130.021 77.9811 123.591C78.2852 120.915 78.8176 118.271 79.5725 115.686Z" fill="#AA22C6"/>
<path d="M90.5055 103.355H48.6865V105.833H90.5055V103.355Z" fill="#110239"/>
<path d="M96.6656 74.3321H42.5279C42.134 74.3286 41.7448 74.4181 41.392 74.5933C41.0391 74.7686 40.7325 75.0247 40.4971 75.3408C40.2617 75.6569 40.1041 76.0241 40.037 76.4126C39.97 76.8011 39.9954 77.1999 40.1113 77.5768C40.6123 80.8509 47.4201 103.681 48.8052 103.681H90.3589C91.5672 103.681 98.5812 80.8509 99.2001 77.5768C99.3197 77.1902 99.344 76.7804 99.2709 76.3823C99.1979 75.9843 99.0296 75.6099 98.7806 75.2911C98.5316 74.9723 98.2091 74.7185 97.8408 74.5515C97.4725 74.3846 97.0693 74.3093 96.6656 74.3321Z" fill="#110239"/>
<path d="M71.8213 90.1128C71.8213 90.5562 71.69 90.9896 71.4439 91.3583C71.1978 91.7269 70.848 92.0143 70.4387 92.1839C70.0294 92.3536 69.5791 92.398 69.1446 92.3115C68.7101 92.225 68.3111 92.0115 67.9978 91.698C67.6846 91.3845 67.4713 90.985 67.3848 90.5502C67.2984 90.1153 67.3428 89.6646 67.5123 89.255C67.6818 88.8453 67.9689 88.4952 68.3372 88.2489C68.7055 88.0026 69.1386 87.8711 69.5816 87.8711C69.8757 87.8711 70.1669 87.9291 70.4387 88.0417C70.7104 88.1544 70.9573 88.3195 71.1653 88.5277C71.3733 88.7358 71.5383 88.983 71.6508 89.255C71.7634 89.5269 71.8213 89.8184 71.8213 90.1128Z" fill="#D0D1DE"/>
<path d="M136.303 54.5385H130.409V48.7867C130.409 48.1921 130.173 47.6219 129.753 47.2015C129.333 46.7811 128.764 46.5449 128.17 46.5449C127.576 46.5449 127.006 46.7811 126.586 47.2015C126.166 47.6219 125.93 48.1921 125.93 48.7867V54.5385H120.036C119.442 54.5385 118.872 54.7747 118.452 55.1951C118.032 55.6155 117.796 56.1857 117.796 56.7803C117.796 57.3748 118.032 57.945 118.452 58.3654C118.872 58.7858 119.442 59.022 120.036 59.022H125.93V64.8918C125.93 65.1862 125.988 65.4778 126.1 65.7497C126.213 66.0217 126.378 66.2688 126.586 66.477C126.794 66.6852 127.041 66.8503 127.312 66.963C127.584 67.0756 127.875 67.1336 128.17 67.1336C128.476 67.1538 128.783 67.1108 129.072 67.0072C129.361 66.9036 129.626 66.7417 129.849 66.5315C130.073 66.3213 130.252 66.0673 130.373 65.7852C130.495 65.5032 130.557 65.1991 130.557 64.8918V58.9925H136.451C136.745 58.9925 137.036 58.9345 137.308 58.8219C137.58 58.7092 137.827 58.5441 138.035 58.3359C138.243 58.1278 138.408 57.8806 138.52 57.6087C138.633 57.3367 138.691 57.0452 138.691 56.7508C138.687 56.446 138.622 56.1452 138.498 55.8666C138.375 55.588 138.196 55.3375 137.973 55.1305C137.749 54.9234 137.486 54.7642 137.199 54.6624C136.912 54.5606 136.607 54.5185 136.303 54.5385Z" fill="#E5E6ED"/>
<path d="M223.978 7.9936H218.084V2.09426C218.052 1.56417 217.833 1.06268 217.466 0.679141C217.099 0.295604 216.608 0.0549314 216.08 0V0C215.494 0 214.932 0.233076 214.517 0.647953C214.103 1.06283 213.87 1.62552 213.87 2.21225V8.11158H207.976C207.389 8.11158 206.827 8.34466 206.413 8.75953C205.998 9.17441 205.765 9.73711 205.765 10.3238C205.761 10.6154 205.816 10.9049 205.926 11.1751C206.035 11.4453 206.198 11.6907 206.404 11.897C206.61 12.1032 206.855 12.266 207.125 12.3758C207.395 12.4855 207.684 12.54 207.976 12.5361H213.87V18.4354C213.87 19.0221 214.103 19.5848 214.517 19.9997C214.932 20.4146 215.494 20.6477 216.08 20.6477C216.664 20.64 217.222 20.4045 217.635 19.9913C218.047 19.578 218.283 19.0198 218.29 18.4354V12.5361H224.185C224.477 12.54 224.768 12.4857 225.039 12.3762C225.311 12.2668 225.558 12.1045 225.767 11.8987C225.975 11.6928 226.14 11.4476 226.253 11.1773C226.366 10.9069 226.424 10.6168 226.424 10.3238C226.438 10.0039 226.384 9.68464 226.264 9.38759C226.144 9.09055 225.963 8.82261 225.731 8.60181C225.499 8.38101 225.223 8.21248 224.92 8.10757C224.618 8.00265 224.297 7.96379 223.978 7.9936Z" fill="#E5E6ED"/>
<path d="M350.525 106.189H344.631V100.466C344.635 100.173 344.581 99.8825 344.472 99.6107C344.362 99.3389 344.2 99.0915 343.994 98.883C343.789 98.6744 343.544 98.5088 343.274 98.3958C343.004 98.2828 342.714 98.2246 342.421 98.2246C341.832 98.2324 341.27 98.472 340.856 98.8915C340.443 99.3111 340.211 99.8769 340.211 100.466V106.189H334.464C333.875 106.189 333.31 106.421 332.89 106.835C332.471 107.249 332.232 107.812 332.224 108.401C332.224 108.694 332.282 108.984 332.395 109.254C332.508 109.525 332.674 109.77 332.882 109.976C333.09 110.182 333.337 110.344 333.609 110.453C333.881 110.563 334.171 110.617 334.464 110.613H340.211V116.513C340.218 117.097 340.454 117.655 340.867 118.068C341.279 118.482 341.837 118.717 342.421 118.725C343.007 118.725 343.569 118.492 343.984 118.077C344.398 117.662 344.631 117.099 344.631 116.513V110.613H350.525C350.817 110.617 351.106 110.563 351.376 110.453C351.646 110.343 351.891 110.18 352.097 109.974C352.303 109.768 352.466 109.522 352.576 109.252C352.685 108.982 352.74 108.693 352.736 108.401C352.736 107.814 352.503 107.252 352.088 106.837C351.674 106.422 351.112 106.189 350.525 106.189Z" fill="#E5E6ED"/>
<path d="M18.2432 111.084H12.3491V105.333C12.3207 104.786 12.0911 104.27 11.7047 103.883C11.3183 103.496 10.8024 103.267 10.2566 103.238C9.66774 103.246 9.10559 103.486 8.6919 103.905C8.27822 104.325 8.04629 104.891 8.04634 105.48V111.232H2.1522C1.56836 111.24 1.01059 111.475 0.597718 111.888C0.184848 112.302 -0.0504727 112.86 -0.0581055 113.444C-0.0581055 114.031 0.174765 114.594 0.589277 115.008C1.00379 115.423 1.56599 115.656 2.1522 115.656H8.04634V121.556C8.05397 122.14 8.28929 122.698 8.70216 123.112C9.11503 123.525 9.67281 123.76 10.2566 123.768C10.5469 123.768 10.8343 123.711 11.1025 123.6C11.3707 123.488 11.6143 123.325 11.8196 123.12C12.0248 122.915 12.1876 122.671 12.2987 122.402C12.4098 122.134 12.4669 121.846 12.4669 121.556V115.656H18.3611C18.9473 115.656 19.5095 115.423 19.924 115.008C20.3385 114.594 20.5714 114.031 20.5714 113.444C20.5881 113.132 20.5395 112.821 20.4288 112.529C20.3181 112.237 20.1477 111.971 19.9285 111.749C19.7093 111.527 19.4462 111.353 19.156 111.239C18.8658 111.124 18.5549 111.072 18.2432 111.084Z" fill="#E5E6ED"/>
<path d="M246.7 251.607V262.757H249.47V254.911C249.47 254.528 249.622 254.16 249.893 253.889C250.164 253.618 250.531 253.466 250.914 253.466H262.879C263.067 253.466 263.254 253.503 263.427 253.576C263.601 253.649 263.758 253.756 263.89 253.891C264.022 254.025 264.125 254.185 264.195 254.36C264.264 254.535 264.298 254.723 264.294 254.911V262.757H267.093V251.607C267.093 251.224 266.941 250.856 266.67 250.585C266.4 250.314 266.032 250.162 265.649 250.162H247.967C247.613 250.199 247.285 250.369 247.051 250.636C246.816 250.904 246.69 251.251 246.7 251.607Z" fill="#110239"/>
<path d="M297.626 258.98H216.168C213.467 258.98 211.276 261.173 211.276 263.877V312.812C211.276 315.516 213.467 317.708 216.168 317.708H297.626C300.327 317.708 302.518 315.516 302.518 312.812V263.877C302.518 261.173 300.327 258.98 297.626 258.98Z" fill="#49E4DB"/>
<path d="M302.518 275.351V263.877C302.518 262.583 302.006 261.342 301.095 260.425C300.184 259.508 298.947 258.988 297.655 258.98H216.139C215.498 258.98 214.863 259.107 214.271 259.354C213.68 259.6 213.142 259.961 212.69 260.416C212.238 260.871 211.881 261.411 211.638 262.005C211.395 262.599 211.273 263.235 211.276 263.877V275.351C211.276 277.015 211.606 278.663 212.246 280.198C212.885 281.734 213.823 283.128 215.004 284.299C216.185 285.47 217.586 286.396 219.126 287.022C220.667 287.647 222.316 287.962 223.978 287.946H289.934C293.271 287.946 296.472 286.619 298.832 284.257C301.192 281.895 302.518 278.692 302.518 275.351Z" fill="#21A59B"/>
<path d="M259.786 285.291H253.98V291.898H259.786V285.291Z" fill="#D0D1DE"/>
<path d="M257.84 288.477H255.954V290.099H257.84V288.477Z" fill="#110239"/>
</g>
<defs>
<clipPath id="clip0">
<rect width="397" height="327" fill="white"/>
</clipPath>
</defs>
</svg>
