<svg width="340" height="365" viewBox="0 0 340 365" fill="none" xmlns="http://www.w3.org/2000/svg">
<g clip-path="url(#clip0)">
<path d="M241.923 46.5469H92.9651C89.2481 46.5469 86.2349 49.4638 86.2349 53.0619V301.066C86.2349 304.664 89.2481 307.581 92.9651 307.581H241.923C245.64 307.581 248.653 304.664 248.653 301.066V53.0619C248.653 49.4638 245.64 46.5469 241.923 46.5469Z" fill="#110239"/>
<path d="M237.87 57.3398H98.6831V286.073H237.87V57.3398Z" fill="#D0D1DE"/>
<path d="M167.445 300.282C166.283 300.282 165.17 299.836 164.348 299.041C163.527 298.246 163.066 297.168 163.066 296.043C163.066 294.919 163.527 293.841 164.348 293.046C165.17 292.251 166.283 291.805 167.445 291.805C168.606 291.805 169.72 292.251 170.541 293.046C171.362 293.841 171.823 294.919 171.823 296.043C171.823 297.168 171.362 298.246 170.541 299.041C169.72 299.836 168.606 300.282 167.445 300.282Z" fill="white"/>
<path d="M109.225 64.4434H105.657C104.762 64.4434 104.036 65.1462 104.036 66.0132V68.2111C104.036 69.0781 104.762 69.781 105.657 69.781H109.225C110.121 69.781 110.847 69.0781 110.847 68.2111V66.0132C110.847 65.1462 110.121 64.4434 109.225 64.4434Z" fill="white"/>
<path d="M127.834 64.4434H124.266C123.371 64.4434 122.645 65.1462 122.645 66.0132V68.2111C122.645 69.0781 123.371 69.781 124.266 69.781H127.834C128.73 69.781 129.456 69.0781 129.456 68.2111V66.0132C129.456 65.1462 128.73 64.4434 127.834 64.4434Z" fill="white"/>
<path d="M217.802 64.4434H214.235C213.339 64.4434 212.613 65.1462 212.613 66.0132V68.2111C212.613 69.0781 213.339 69.781 214.235 69.781H217.802C218.698 69.781 219.424 69.0781 219.424 68.2111V66.0132C219.424 65.1462 218.698 64.4434 217.802 64.4434Z" fill="white"/>
<path d="M196.921 64.4434H193.353C192.458 64.4434 191.731 65.1462 191.731 66.0132V68.2111C191.731 69.0781 192.458 69.781 193.353 69.781H196.921C197.817 69.781 198.543 69.0781 198.543 68.2111V66.0132C198.543 65.1462 197.817 64.4434 196.921 64.4434Z" fill="white"/>
<path d="M230.857 64.4434H227.289C226.393 64.4434 225.667 65.1462 225.667 66.0132V68.2111C225.667 69.0781 226.393 69.781 227.289 69.781H230.857C231.752 69.781 232.478 69.0781 232.478 68.2111V66.0132C232.478 65.1462 231.752 64.4434 230.857 64.4434Z" fill="white"/>
<path d="M139.229 165.703C138.985 165.114 138.742 164.525 138.539 163.897C136.472 157.421 138.175 151.181 142.351 149.964C146.527 148.748 151.554 152.947 153.622 159.384C153.822 160.015 153.984 160.657 154.108 161.307L155.446 160.875C155.322 160.239 155.16 159.61 154.96 158.991C152.527 151.417 146.608 146.432 141.702 147.884C136.796 149.336 134.809 156.676 137.202 164.29C137.202 164.918 137.648 165.546 137.891 166.134L139.229 165.703Z" fill="#110239"/>
<path d="M179.243 196.041L138.659 208.129L129.253 166.723L162.945 156.676L179.243 196.041Z" fill="white"/>
<path d="M182.123 149.571C182.205 148.924 182.327 148.282 182.488 147.648C184.069 141.055 188.812 136.541 193.069 137.483C197.327 138.425 199.435 144.587 197.854 151.18C197.694 151.808 197.491 152.424 197.245 153.025L198.624 153.339C198.624 152.75 199.029 152.122 199.192 151.455C201.097 143.606 198.583 136.541 193.597 135.403C188.61 134.265 183.015 139.603 181.109 147.177L180.744 149.1L182.123 149.571Z" fill="#110239"/>
<path d="M200.733 195.334L159.419 185.876L172.961 145.529L207.301 153.418L200.733 195.334Z" fill="#21A59B"/>
<path d="M190.557 103.614C190.557 107.907 189.242 112.103 186.779 115.672C184.315 119.241 180.813 122.023 176.717 123.666C172.62 125.308 168.112 125.738 163.762 124.901C159.413 124.063 155.418 121.996 152.283 118.961C149.147 115.925 147.012 112.058 146.147 107.848C145.282 103.638 145.726 99.2741 147.423 95.3082C149.119 91.3424 151.993 87.9527 155.68 85.5679C159.367 83.1831 163.702 81.9102 168.137 81.9102C174.083 81.9102 179.786 84.1968 183.99 88.267C188.195 92.3373 190.557 97.8577 190.557 103.614Z" fill="white"/>
<path d="M167.161 103.81C166.796 103.81 163.634 95.0184 162.58 95.3716C161.526 95.7249 156.985 97.7657 156.863 99.2964C156.742 100.827 164.972 114.995 166.513 114.995C169.472 114.995 181.798 99.2964 180.825 97.4518C179.851 95.6071 175.148 93.4485 174.338 94.1942C173.527 94.9399 167.486 103.81 167.161 103.81Z" fill="#49E4DB"/>
<path d="M190.273 255.697H147.499C144.006 255.697 141.174 258.438 141.174 261.82V266.608C141.174 269.989 144.006 272.731 147.499 272.731H190.273C193.766 272.731 196.598 269.989 196.598 266.608V261.82C196.598 258.438 193.766 255.697 190.273 255.697Z" fill="#AA22C6"/>
<path d="M163.31 262.133C163.311 262.544 163.167 262.944 162.902 263.265C162.636 263.586 162.266 263.81 161.851 263.899C162.355 263.993 162.808 264.258 163.128 264.646C163.448 265.035 163.613 265.522 163.594 266.019C163.594 267.431 162.337 268.334 160.31 268.334H156.256V260.014H160.31C162.175 260.014 163.31 260.838 163.31 262.133ZM161.04 262.486C161.04 262.015 160.635 261.701 160.026 261.701H158.324V263.31H160.026C160.635 263.31 161.04 262.957 161.04 262.486ZM161.283 265.744C161.283 265.234 160.797 264.88 160.026 264.88H158.324V266.646H160.026C160.797 266.646 161.283 266.293 161.283 265.744Z" fill="white"/>
<path d="M168.663 266.568C168.894 266.575 169.124 266.534 169.337 266.448C169.55 266.362 169.741 266.232 169.899 266.069C170.056 265.906 170.175 265.711 170.249 265.5C170.323 265.288 170.349 265.063 170.326 264.841V260.014H172.555V264.841C172.586 265.349 172.498 265.857 172.3 266.328C172.101 266.798 171.797 267.22 171.408 267.563C171.019 267.905 170.557 268.159 170.054 268.306C169.551 268.453 169.02 268.489 168.501 268.413C167.983 268.482 167.456 268.441 166.956 268.291C166.456 268.141 165.997 267.887 165.61 267.546C165.223 267.205 164.918 266.786 164.717 266.319C164.516 265.851 164.424 265.347 164.447 264.841V260.014H166.677V264.841C166.652 265.091 166.689 265.343 166.784 265.577C166.878 265.811 167.028 266.021 167.221 266.188C167.414 266.356 167.645 266.478 167.896 266.544C168.146 266.61 168.409 266.618 168.663 266.568Z" fill="white"/>
<path d="M178.594 265.665V268.334H176.324V265.744L173.202 260.014H175.432L177.459 263.585L179.446 260.014H181.676L178.594 265.665Z" fill="white"/>
<path d="M50.2341 151.574C49.962 151.32 49.5986 151.178 49.2205 151.178C48.8424 151.178 48.479 151.32 48.2069 151.574C47.9469 151.831 47.8013 152.176 47.8013 152.536C47.8013 152.895 47.9469 153.24 48.2069 153.497C51.6531 156.441 55.2615 159.463 59.0321 162.446C59.2778 162.655 59.5964 162.768 59.9241 162.759C60.1306 162.76 60.3349 162.719 60.5236 162.638C60.7123 162.557 60.8811 162.438 61.0187 162.289C61.1536 162.161 61.2607 162.008 61.3338 161.839C61.407 161.671 61.4447 161.49 61.4447 161.307C61.4447 161.125 61.407 160.944 61.3338 160.775C61.2607 160.607 61.1536 160.454 61.0187 160.326C57.2482 157.5 53.6803 154.518 50.2341 151.574Z" fill="#110239"/>
<path d="M80.2372 89.2098C80.5304 89.2167 80.8182 89.1329 81.0588 88.9705C81.2995 88.8082 81.4803 88.5758 81.5751 88.3071C81.6397 88.1371 81.6688 87.9564 81.6609 87.7754C81.653 87.5944 81.6082 87.4167 81.529 87.2526C81.4499 87.0884 81.338 86.941 81.1998 86.8189C81.0616 86.6968 80.8998 86.6023 80.7237 86.541C76.0612 84.9318 71.5203 83.4404 67.1821 82.106C66.8219 81.9967 66.4316 82.0304 66.097 82.1997C65.7625 82.369 65.5111 82.66 65.3982 83.0087C65.2853 83.3574 65.3201 83.7353 65.495 84.0591C65.6698 84.383 65.9705 84.6263 66.3307 84.7356C70.6283 86.0308 75.1287 87.5222 79.7507 89.1313C79.9037 89.1959 80.0708 89.2228 80.2372 89.2098Z" fill="#110239"/>
<path d="M29.7591 132.656C29.6404 132.497 29.4876 132.364 29.3111 132.266C29.1347 132.169 28.9387 132.109 28.7364 132.092C28.5341 132.074 28.3302 132.098 28.1385 132.163C27.9468 132.228 27.7718 132.332 27.6253 132.469C27.4787 132.605 27.3641 132.77 27.2891 132.953C27.2142 133.135 27.1806 133.332 27.1907 133.528C27.2008 133.724 27.2544 133.916 27.3478 134.091C27.4411 134.266 27.5722 134.419 27.732 134.54C30.8538 137.719 34.2595 141.016 37.8274 144.313C37.9536 144.439 38.105 144.538 38.2723 144.606C38.4395 144.673 38.6192 144.707 38.8004 144.705C39.196 144.698 39.5735 144.543 39.8545 144.274C40.1171 144.01 40.2639 143.658 40.2639 143.292C40.2639 142.926 40.1171 142.575 39.8545 142.311C36.2461 139.054 32.881 135.796 29.7591 132.656Z" fill="#110239"/>
<path d="M94.8322 185.444C94.5178 185.244 94.1357 185.168 93.7655 185.234C93.3953 185.3 93.0657 185.502 92.8455 185.797C92.7378 185.946 92.6618 186.115 92.6218 186.292C92.5819 186.47 92.5788 186.654 92.6127 186.833C92.6466 187.011 92.717 187.182 92.8196 187.334C92.9222 187.487 93.055 187.618 93.2104 187.72C97.0215 190.311 100.914 192.94 104.928 195.57C105.148 195.734 105.42 195.817 105.698 195.805C105.93 195.814 106.16 195.765 106.366 195.661C106.572 195.558 106.747 195.405 106.874 195.217C106.981 195.067 107.057 194.899 107.097 194.721C107.137 194.544 107.14 194.36 107.106 194.181C107.073 194.002 107.002 193.832 106.9 193.679C106.797 193.527 106.664 193.396 106.509 193.293C102.535 190.664 98.6433 188.074 94.8322 185.444Z" fill="#110239"/>
<path d="M72.0457 169.076C71.8988 168.963 71.7294 168.88 71.5481 168.832C71.3667 168.784 71.1772 168.773 70.9911 168.799C70.805 168.824 70.6264 168.887 70.4661 168.982C70.3058 169.077 70.1673 169.202 70.0591 169.351C69.8288 169.638 69.7252 170.001 69.7708 170.361C69.8164 170.722 70.0075 171.05 70.3023 171.274C73.9918 174.022 77.7624 176.808 81.6546 179.634C81.906 179.801 82.2011 179.896 82.506 179.909C82.7311 179.911 82.9531 179.858 83.1516 179.755C83.35 179.652 83.5184 179.503 83.6412 179.32C83.8569 179.025 83.9477 178.661 83.8949 178.304C83.8421 177.946 83.6498 177.621 83.3574 177.397C79.4652 174.61 75.6946 171.863 72.0457 169.076Z" fill="#110239"/>
<path d="M38.964 78.2196C43.2616 78.8868 47.8836 79.8287 52.7489 81.0061H53.1138C53.4278 81.0077 53.7335 80.9083 53.9829 80.7237C54.2324 80.539 54.4115 80.2795 54.4923 79.9857C54.5785 79.6269 54.5166 79.2496 54.3197 78.9344C54.1228 78.6191 53.8064 78.3908 53.4381 78.2981C48.4918 77.0814 43.7887 76.1394 39.41 75.4722C39.2257 75.4387 39.0363 75.4418 38.8534 75.4816C38.6704 75.5213 38.4977 75.5967 38.3459 75.7033C38.1941 75.8098 38.0664 75.9452 37.9705 76.1012C37.8746 76.2572 37.8126 76.4304 37.7882 76.6104C37.7534 76.7911 37.7564 76.9767 37.797 77.1562C37.8376 77.3357 37.915 77.5056 38.0247 77.6556C38.1343 77.8057 38.2739 77.9329 38.4353 78.0298C38.5966 78.1266 38.7764 78.1912 38.964 78.2196Z" fill="#110239"/>
<path d="M308.377 244.588C308.492 244.815 308.672 245.006 308.894 245.138C309.117 245.27 309.373 245.338 309.634 245.334C309.847 245.387 310.07 245.387 310.283 245.334C310.615 245.167 310.866 244.879 310.98 244.533C311.094 244.188 311.062 243.812 310.891 243.489C308.677 239.375 306.129 235.438 303.269 231.715C303.172 231.544 303.038 231.394 302.877 231.277C302.715 231.16 302.53 231.077 302.332 231.035C302.135 230.992 301.931 230.991 301.733 231.031C301.536 231.071 301.349 231.152 301.186 231.267C301.023 231.383 300.888 231.531 300.789 231.701C300.689 231.871 300.629 232.06 300.611 232.255C300.593 232.449 300.619 232.646 300.685 232.83C300.752 233.015 300.859 233.183 300.998 233.324C303.742 236.898 306.208 240.663 308.377 244.588Z" fill="#110239"/>
<path d="M2.83806 89.9941C2.82608 89.058 2.92126 88.1234 3.12187 87.2076C3.16322 87.0321 3.16746 86.8503 3.13435 86.6732C3.10123 86.496 3.03144 86.3272 2.92917 86.1769C2.8269 86.0266 2.69427 85.8978 2.53926 85.7984C2.38425 85.699 2.21007 85.631 2.02719 85.5984C1.8434 85.5581 1.65316 85.5536 1.46757 85.5853C1.28198 85.6169 1.10475 85.684 0.946234 85.7826C0.787718 85.8813 0.651086 86.0095 0.544313 86.1598C0.43754 86.3101 0.362764 86.4795 0.32435 86.6581C0.112129 87.7583 0.00356612 88.8749 0 89.9941C0.114109 93.7315 0.981797 97.4112 2.55426 100.826C2.65359 101.081 2.83116 101.301 3.06309 101.455C3.29502 101.609 3.5702 101.691 3.85166 101.69H4.41927C4.76312 101.543 5.03512 101.273 5.17863 100.937C5.32213 100.6 5.32606 100.223 5.1896 99.8844C3.74175 96.7694 2.94266 93.4085 2.83806 89.9941Z" fill="#110239"/>
<path d="M25.0564 74.1775H24.3267C19.6918 74.0513 15.0693 74.702 10.6634 76.1006C10.3144 76.2329 10.0313 76.49 9.87277 76.8188C9.71427 77.1476 9.6925 77.5228 9.81199 77.8667C9.91205 78.1321 10.0942 78.3612 10.3336 78.5227C10.5731 78.6843 10.8581 78.7704 11.1499 78.7694C11.3097 78.8077 11.4767 78.8077 11.6365 78.7694C15.7266 77.4571 20.0188 76.8332 24.3267 76.9248H25.1781C25.5544 76.9248 25.9154 76.7801 26.1815 76.5225C26.4476 76.2649 26.5971 75.9155 26.5971 75.5511C26.5971 75.1868 26.4476 74.8374 26.1815 74.5798C25.9154 74.3222 25.5544 74.1775 25.1781 74.1775H25.0564Z" fill="#110239"/>
<path d="M11.8791 111.58C11.6604 111.3 11.3391 111.112 10.9813 111.054C10.6235 110.996 10.2564 111.073 9.95534 111.269C9.65431 111.465 9.44223 111.765 9.36267 112.108C9.28312 112.45 9.34213 112.809 9.52758 113.111C12.2102 116.952 15.0925 120.66 18.1634 124.218C18.299 124.372 18.4665 124.497 18.655 124.585C18.8435 124.673 19.0489 124.722 19.2581 124.728C19.6308 124.744 19.9949 124.617 20.2717 124.375C20.4053 124.251 20.5117 124.101 20.5843 123.936C20.6569 123.771 20.6944 123.593 20.6944 123.413C20.6944 123.234 20.6569 123.056 20.5843 122.891C20.5117 122.726 20.4053 122.576 20.2717 122.452C17.2831 118.97 14.4818 115.341 11.8791 111.58Z" fill="#110239"/>
<path d="M258.427 265.978C254.169 264.84 249.588 263.506 244.885 262.053C244.525 261.939 244.132 261.968 243.794 262.133C243.455 262.299 243.199 262.588 243.081 262.937C242.962 263.285 242.992 263.665 243.163 263.993C243.334 264.32 243.633 264.569 243.993 264.683C248.737 266.174 253.359 267.548 257.697 268.608H258.062C258.373 268.63 258.684 268.549 258.942 268.377C259.199 268.206 259.39 267.955 259.481 267.666C259.529 267.488 259.54 267.302 259.513 267.12C259.485 266.938 259.421 266.763 259.322 266.606C259.224 266.449 259.094 266.312 258.94 266.204C258.786 266.096 258.612 266.019 258.427 265.978Z" fill="#110239"/>
<path d="M130.349 208.012C126.295 205.578 122.241 203.145 118.186 200.672C117.869 200.475 117.484 200.407 117.115 200.484C116.746 200.562 116.424 200.778 116.22 201.085C116.015 201.392 115.946 201.765 116.025 202.122C116.105 202.479 116.328 202.79 116.645 202.988C120.7 205.461 124.754 207.894 128.809 210.367C129.062 210.425 129.326 210.425 129.579 210.367C129.823 210.363 130.062 210.3 130.275 210.183C130.487 210.067 130.666 209.9 130.795 209.699C130.934 209.412 130.965 209.086 130.884 208.778C130.803 208.471 130.614 208.2 130.349 208.012Z" fill="#110239"/>
<path d="M286.077 270.806C281.407 270.465 276.763 269.849 272.171 268.962C271.801 268.903 271.422 268.985 271.112 269.189C270.803 269.394 270.587 269.706 270.508 270.061C270.473 270.239 270.475 270.421 270.513 270.599C270.551 270.776 270.625 270.944 270.73 271.094C270.836 271.243 270.971 271.371 271.127 271.47C271.284 271.569 271.46 271.637 271.643 271.67C276.341 272.589 281.094 273.219 285.874 273.554C286.251 273.554 286.612 273.409 286.878 273.151C287.144 272.894 287.293 272.544 287.293 272.18C287.293 271.816 287.144 271.466 286.878 271.209C286.612 270.951 286.251 270.806 285.874 270.806H286.077Z" fill="#110239"/>
<path d="M315.228 256.913C315.197 256.552 315.024 256.217 314.745 255.976C314.466 255.735 314.102 255.607 313.728 255.618C313.542 255.628 313.359 255.673 313.191 255.752C313.023 255.83 312.872 255.94 312.748 256.075C312.623 256.21 312.528 256.367 312.466 256.538C312.405 256.709 312.379 256.89 312.39 257.07C312.41 257.384 312.41 257.698 312.39 258.012C312.433 260.17 311.873 262.299 310.768 264.174C309.506 265.859 307.902 267.277 306.055 268.344C304.208 269.41 302.156 270.101 300.024 270.375C299.841 270.407 299.667 270.475 299.512 270.575C299.357 270.674 299.224 270.803 299.122 270.953C299.02 271.104 298.95 271.273 298.917 271.45C298.884 271.627 298.888 271.809 298.93 271.984C298.987 272.296 299.158 272.577 299.41 272.779C299.663 272.98 299.981 273.088 300.308 273.083H300.592C303.145 272.786 305.603 271.967 307.805 270.682C310.006 269.396 311.901 267.673 313.363 265.626C314.774 263.339 315.491 260.714 315.431 258.051C315.385 257.669 315.317 257.289 315.228 256.913Z" fill="#110239"/>
<path d="M284.575 210.522C284.31 210.27 283.953 210.129 283.582 210.129C283.21 210.129 282.854 210.27 282.589 210.522C282.326 210.785 282.179 211.137 282.179 211.503C282.179 211.869 282.326 212.221 282.589 212.484C286.035 215.898 289.278 219.274 292.197 222.492C292.335 222.641 292.504 222.76 292.693 222.841C292.881 222.922 293.086 222.964 293.292 222.963C293.629 222.955 293.955 222.845 294.225 222.649C294.487 222.386 294.634 222.034 294.634 221.668C294.634 221.302 294.487 220.95 294.225 220.687C291.346 217.351 288.103 213.936 284.575 210.522Z" fill="#110239"/>
<path d="M273.388 203.262C273.771 203.252 274.135 203.097 274.402 202.83C274.536 202.702 274.643 202.55 274.717 202.381C274.79 202.213 274.827 202.032 274.827 201.849C274.827 201.666 274.79 201.485 274.717 201.317C274.643 201.148 274.536 200.996 274.402 200.868C271.036 197.846 267.469 194.745 263.738 191.645C263.473 191.393 263.117 191.252 262.745 191.252C262.374 191.252 262.017 191.393 261.752 191.645C261.618 191.769 261.512 191.918 261.439 192.084C261.367 192.249 261.329 192.427 261.329 192.606C261.329 192.786 261.367 192.963 261.439 193.129C261.512 193.294 261.618 193.443 261.752 193.568C265.401 196.668 268.969 199.73 272.293 202.752C272.427 202.908 272.594 203.034 272.783 203.122C272.972 203.21 273.178 203.258 273.388 203.262Z" fill="#110239"/>
<path d="M154.797 222.14C150.742 219.903 146.688 217.626 142.634 215.272C142.311 215.084 141.925 215.029 141.56 215.117C141.195 215.206 140.881 215.43 140.688 215.743C140.586 215.896 140.518 216.067 140.488 216.247C140.457 216.426 140.465 216.61 140.511 216.786C140.556 216.963 140.639 217.128 140.753 217.273C140.867 217.417 141.01 217.538 141.174 217.626C145.228 219.981 149.283 222.297 153.337 224.534C153.564 224.584 153.8 224.584 154.026 224.534C154.337 224.534 154.638 224.435 154.885 224.253C155.132 224.071 155.31 223.816 155.393 223.527C155.476 223.238 155.458 222.93 155.343 222.651C155.228 222.372 155.022 222.138 154.756 221.983L154.797 222.14Z" fill="#110239"/>
<path d="M231.545 257.463C227.247 255.893 222.828 254.206 218.368 252.44C218.194 252.342 218 252.282 217.8 252.263C217.6 252.243 217.398 252.265 217.207 252.327C217.017 252.389 216.842 252.49 216.694 252.622C216.547 252.755 216.43 252.916 216.352 253.096C216.274 253.275 216.236 253.468 216.241 253.663C216.246 253.858 216.293 254.049 216.38 254.225C216.468 254.4 216.592 254.556 216.746 254.681C216.9 254.806 217.08 254.899 217.274 254.951C221.774 256.757 226.234 258.484 230.532 260.054H231.059C231.348 260.044 231.628 259.954 231.865 259.794C232.103 259.634 232.287 259.41 232.397 259.151C232.493 258.818 232.459 258.461 232.302 258.15C232.145 257.839 231.876 257.595 231.545 257.463Z" fill="#110239"/>
<path d="M179.771 235.131C175.717 233.091 171.419 230.971 167.203 228.773C167.041 228.685 166.863 228.628 166.678 228.608C166.494 228.588 166.307 228.604 166.129 228.655C165.951 228.706 165.786 228.792 165.643 228.907C165.5 229.022 165.382 229.163 165.297 229.323C165.123 229.641 165.085 230.012 165.191 230.357C165.298 230.702 165.539 230.993 165.865 231.167C170.284 233.405 174.338 235.485 178.393 237.565C178.606 237.615 178.828 237.615 179.041 237.565C179.306 237.562 179.566 237.492 179.794 237.361C180.022 237.23 180.21 237.043 180.339 236.819C180.466 236.518 180.478 236.184 180.374 235.875C180.27 235.566 180.057 235.302 179.771 235.131Z" fill="#110239"/>
<path d="M205.353 246.983C201.299 245.138 196.839 243.058 192.501 241.213C192.333 241.133 192.151 241.085 191.964 241.073C191.778 241.061 191.59 241.085 191.413 241.144C191.236 241.202 191.073 241.294 190.932 241.413C190.792 241.533 190.678 241.679 190.595 241.841C190.438 242.171 190.418 242.546 190.539 242.889C190.66 243.233 190.912 243.518 191.244 243.686C195.623 245.727 199.961 247.611 204.178 249.494C204.379 249.532 204.585 249.532 204.786 249.494C205.06 249.489 205.328 249.409 205.557 249.263C205.787 249.117 205.969 248.912 206.083 248.67C206.197 248.351 206.185 248.003 206.051 247.692C205.916 247.38 205.668 247.128 205.353 246.983Z" fill="#110239"/>
<path d="M206.772 76.4151C206.719 76.0382 206.809 75.6554 207.025 75.3377C207.241 75.0201 207.569 74.7893 207.948 74.6882C208.132 74.6485 208.323 74.6458 208.508 74.6802C208.694 74.7147 208.87 74.7857 209.025 74.8887C209.181 74.9917 209.314 75.1246 209.414 75.2792C209.515 75.4337 209.582 75.6066 209.61 75.7871C210.462 80.3006 211.232 84.971 211.962 89.7984C212.084 90.1013 212.084 90.4375 211.962 90.7404C211.854 90.9244 211.708 91.0854 211.534 91.2135C211.36 91.3417 211.161 91.4344 210.948 91.4861C210.762 91.5198 210.57 91.5169 210.385 91.4776C210.199 91.4383 210.024 91.3633 209.869 91.2572C209.714 91.1511 209.582 91.0159 209.482 90.8597C209.382 90.7035 209.315 90.5295 209.286 90.3479C208.191 85.5597 207.421 80.8893 206.772 76.4151Z" fill="#110239"/>
<path d="M200.328 48.9416C200.224 48.5773 200.266 48.1882 200.447 47.8531C200.627 47.5179 200.933 47.2617 201.301 47.1362C201.482 47.0764 201.674 47.0536 201.864 47.0693C202.054 47.085 202.239 47.1388 202.407 47.2274C202.575 47.316 202.722 47.4373 202.838 47.5838C202.955 47.7302 203.039 47.8986 203.085 48.0781C204.301 52.4346 205.477 57.0658 206.572 61.8539C206.692 62.1975 206.692 62.57 206.572 62.9136C206.472 63.0806 206.337 63.2259 206.177 63.3407C206.017 63.4554 205.834 63.5372 205.639 63.5808C205.455 63.6275 205.264 63.6381 205.076 63.6118C204.888 63.5855 204.707 63.5229 204.544 63.4277C204.382 63.3325 204.241 63.2067 204.129 63.0577C204.018 62.9087 203.938 62.7396 203.896 62.5604C202.72 57.8507 201.504 53.2588 200.328 48.9416Z" fill="#110239"/>
<path d="M213.585 132.577C213.57 132.202 213.698 131.835 213.945 131.546C214.192 131.257 214.54 131.065 214.923 131.008C215.11 130.986 215.3 131.002 215.481 131.054C215.662 131.106 215.83 131.194 215.975 131.312C216.119 131.43 216.237 131.575 216.321 131.738C216.405 131.902 216.453 132.081 216.463 132.263C216.828 136.934 217.112 141.683 217.355 146.51C217.454 146.777 217.454 147.068 217.355 147.334C217.234 147.531 217.069 147.7 216.873 147.829C216.677 147.958 216.454 148.044 216.22 148.08C216.03 148.096 215.839 148.075 215.658 148.018C215.477 147.961 215.31 147.87 215.166 147.749C215.022 147.628 214.905 147.48 214.821 147.315C214.738 147.149 214.689 146.969 214.679 146.785C214.233 141.958 213.95 137.366 213.585 132.577Z" fill="#110239"/>
<path d="M210.827 104.359C210.78 103.981 210.883 103.6 211.117 103.293C211.351 102.987 211.697 102.778 212.084 102.711C212.268 102.683 212.457 102.692 212.637 102.737C212.818 102.782 212.987 102.862 213.135 102.972C213.283 103.082 213.406 103.22 213.497 103.378C213.588 103.535 213.646 103.709 213.665 103.888C214.233 108.52 214.76 113.229 215.206 118.057C215.287 118.352 215.287 118.664 215.206 118.959C215.082 119.151 214.916 119.314 214.72 119.436C214.524 119.558 214.302 119.636 214.071 119.666C213.885 119.694 213.696 119.683 213.515 119.636C213.334 119.588 213.166 119.504 213.021 119.389C212.875 119.275 212.757 119.132 212.672 118.97C212.588 118.808 212.539 118.63 212.53 118.449C211.922 113.818 211.395 108.951 210.827 104.359Z" fill="#110239"/>
<path d="M146.728 29.8674C145.106 33.7922 143.525 38.5411 142.025 43.4078C142.04 43.525 142.04 43.6437 142.025 43.761C141.852 44.0511 141.576 44.27 141.248 44.3767C140.92 44.4833 140.563 44.4704 140.244 44.3402C139.926 44.21 139.667 43.9716 139.517 43.6698C139.367 43.368 139.336 43.0236 139.43 42.7013C140.93 37.7561 142.552 33.125 144.214 28.9255C144.343 28.598 144.592 28.3283 144.914 28.1687C145.237 28.0092 145.608 27.9712 145.958 28.0621C146.135 28.1263 146.297 28.2251 146.433 28.3525C146.569 28.4799 146.677 28.6331 146.749 28.8024C146.821 28.9718 146.857 29.1538 146.853 29.337C146.85 29.5203 146.807 29.7008 146.728 29.8674Z" fill="#110239"/>
<path d="M154.838 350.203C154.977 350.429 155.051 350.686 155.051 350.949C155.051 351.212 154.977 351.469 154.838 351.695C154.738 351.9 154.584 352.076 154.392 352.205C154.237 352.313 154.062 352.389 153.875 352.427C153.689 352.466 153.496 352.467 153.31 352.43C153.123 352.393 152.946 352.319 152.791 352.213C152.635 352.107 152.504 351.97 152.405 351.813C149.925 347.78 147.77 343.568 145.959 339.214C145.826 338.858 145.83 338.466 145.972 338.113C146.114 337.759 146.383 337.467 146.729 337.291C146.902 337.213 147.089 337.169 147.279 337.163C147.469 337.156 147.659 337.187 147.837 337.253C148.015 337.319 148.177 337.419 148.314 337.547C148.451 337.675 148.56 337.828 148.635 337.997C150.374 342.215 152.448 346.296 154.838 350.203Z" fill="#110239"/>
<path d="M176.203 3.9248C175.36 3.47145 174.479 3.0906 173.567 2.78662C173.384 2.73412 173.215 2.64538 173.069 2.52603C172.923 2.40668 172.804 2.25931 172.721 2.09327C172.637 1.92723 172.589 1.74614 172.582 1.56147C172.574 1.3768 172.606 1.19258 172.676 1.02049C172.771 0.680311 172.995 0.387019 173.302 0.198214C173.61 0.00940911 173.979 -0.0612673 174.338 6.39092e-05C175.447 0.344402 176.52 0.791264 177.541 1.33447C180.834 3.38995 183.673 6.05804 185.893 9.18394C186.052 9.42408 186.136 9.7033 186.136 9.98851C186.136 10.2737 186.052 10.5529 185.893 10.7931C185.807 10.9624 185.682 11.1102 185.528 11.2248C185.38 11.3413 185.21 11.4278 185.027 11.4791C184.844 11.5304 184.652 11.5456 184.463 11.5236C184.274 11.5016 184.091 11.443 183.926 11.3512C183.76 11.2594 183.616 11.1363 183.501 10.9893C181.575 8.19055 179.094 5.78939 176.203 3.9248Z" fill="#110239"/>
<path d="M150.375 15.6982L150.821 14.9525C153.137 10.8302 156.137 7.1044 159.7 3.92402C159.833 3.79348 159.99 3.68978 160.164 3.61898C160.338 3.54818 160.525 3.51172 160.714 3.51172C160.903 3.51172 161.09 3.54818 161.264 3.61898C161.438 3.68978 161.596 3.79348 161.728 3.92402C161.895 4.16836 161.984 4.45503 161.984 4.74821C161.984 5.04139 161.895 5.32806 161.728 5.5724L161.403 5.96488C158.131 8.9347 155.391 12.4095 153.295 16.2477L152.849 16.9541C152.786 17.146 152.681 17.3222 152.541 17.4705C152.401 17.6188 152.228 17.7354 152.036 17.8121C151.844 17.8889 151.637 17.9239 151.43 17.9147C151.222 17.9055 151.019 17.8524 150.836 17.759C150.652 17.6655 150.491 17.5342 150.365 17.3741C150.24 17.2141 150.152 17.0293 150.108 16.8327C150.064 16.6362 150.065 16.4327 150.111 16.2367C150.158 16.0406 150.248 15.8568 150.375 15.6982Z" fill="#110239"/>
<path d="M190.799 22.6844C190.64 22.339 190.624 21.9483 190.752 21.5913C190.88 21.2344 191.143 20.9377 191.488 20.7613C191.65 20.668 191.831 20.609 192.019 20.5884C192.207 20.5677 192.397 20.5858 192.577 20.6414C192.757 20.697 192.923 20.7889 193.064 20.9111C193.204 21.0332 193.317 21.1828 193.393 21.35C195.386 25.6405 197.146 30.0292 198.664 34.4979C198.755 34.6886 198.802 34.8961 198.802 35.1062C198.802 35.3162 198.755 35.5238 198.664 35.7145C198.479 36.0042 198.212 36.2359 197.894 36.3817C197.719 36.4499 197.531 36.4824 197.342 36.4775C197.154 36.4725 196.968 36.43 196.797 36.3528C196.626 36.2755 196.473 36.165 196.348 36.0283C196.223 35.8915 196.128 35.7312 196.069 35.5575C194.541 31.1821 192.782 26.8854 190.799 22.6844Z" fill="#110239"/>
<path d="M200.163 316.884C201.38 312.566 202.555 307.896 203.691 302.99C203.725 302.807 203.796 302.632 203.9 302.476C204.004 302.319 204.14 302.184 204.298 302.078C204.456 301.973 204.634 301.898 204.822 301.859C205.01 301.82 205.204 301.818 205.394 301.852C205.581 301.884 205.759 301.953 205.917 302.055C206.076 302.157 206.21 302.29 206.313 302.444C206.416 302.599 206.485 302.773 206.515 302.955C206.545 303.136 206.536 303.322 206.488 303.5C205.353 308.445 204.177 313.155 202.92 317.551C202.879 317.681 202.81 317.801 202.718 317.904C202.565 318.178 202.324 318.396 202.031 318.524C201.737 318.652 201.409 318.682 201.096 318.61C200.914 318.562 200.745 318.477 200.598 318.362C200.451 318.247 200.33 318.105 200.243 317.943C200.155 317.781 200.103 317.603 200.09 317.421C200.076 317.239 200.101 317.056 200.163 316.884Z" fill="#110239"/>
<path d="M215.37 175.2C215.37 170.412 215.37 165.663 215.086 160.993C215.064 160.614 215.195 160.242 215.453 159.956C215.711 159.669 216.074 159.492 216.464 159.462C216.652 159.446 216.841 159.467 217.02 159.525C217.199 159.582 217.363 159.674 217.504 159.796C217.645 159.917 217.758 160.065 217.837 160.23C217.916 160.396 217.96 160.575 217.965 160.757C217.965 165.467 218.208 170.255 218.248 175.043C218.308 175.302 218.308 175.57 218.248 175.828C218.121 176.037 217.944 176.213 217.733 176.343C217.521 176.473 217.281 176.552 217.032 176.574C216.825 176.616 216.611 176.612 216.407 176.562C216.202 176.512 216.012 176.416 215.851 176.284C215.691 176.151 215.564 175.984 215.48 175.796C215.397 175.609 215.359 175.405 215.37 175.2Z" fill="#110239"/>
<path d="M190.109 343.728C192.249 339.441 194.131 335.038 195.744 330.54C195.804 330.361 195.9 330.196 196.026 330.053C196.153 329.911 196.307 329.794 196.481 329.71C196.655 329.626 196.844 329.576 197.038 329.564C197.231 329.551 197.426 329.576 197.609 329.638C197.789 329.694 197.954 329.786 198.096 329.907C198.237 330.028 198.351 330.176 198.431 330.342C198.511 330.508 198.555 330.687 198.56 330.87C198.565 331.053 198.531 331.234 198.461 331.404C196.818 336.016 194.882 340.525 192.663 344.905C192.588 345.08 192.475 345.238 192.334 345.369C192.192 345.5 192.024 345.601 191.839 345.666C191.655 345.731 191.459 345.759 191.263 345.746C191.068 345.734 190.877 345.683 190.703 345.596C190.529 345.509 190.375 345.388 190.251 345.241C190.128 345.093 190.037 344.923 189.985 344.74C189.933 344.557 189.921 344.366 189.949 344.178C189.978 343.99 190.046 343.81 190.149 343.649L190.109 343.728Z" fill="#110239"/>
<path d="M162.175 362.409C161.866 362.189 161.657 361.863 161.589 361.498C161.521 361.133 161.6 360.757 161.81 360.447C162.011 360.132 162.332 359.906 162.703 359.818C163.075 359.73 163.467 359.787 163.796 359.976L164.648 360.486C166.564 361.612 168.772 362.184 171.013 362.135C173.279 361.853 175.462 361.126 177.428 359.999C179.394 358.872 181.102 357.369 182.446 355.58C182.579 355.45 182.736 355.346 182.91 355.275C183.084 355.204 183.271 355.168 183.46 355.168C183.649 355.168 183.836 355.204 184.01 355.275C184.184 355.346 184.341 355.45 184.474 355.58C184.727 355.805 184.891 356.11 184.936 356.44C184.98 356.77 184.903 357.105 184.717 357.386C184.728 357.464 184.728 357.543 184.717 357.621C183.108 359.699 181.07 361.428 178.731 362.699C176.392 363.969 173.805 364.753 171.135 365C168.373 365.086 165.644 364.405 163.269 363.037L162.175 362.409Z" fill="#110239"/>
<path d="M136.753 312.252C136.664 311.883 136.723 311.495 136.919 311.167C137.115 310.839 137.432 310.595 137.807 310.486C137.985 310.432 138.173 310.414 138.358 310.433C138.544 310.452 138.724 310.507 138.887 310.595C139.05 310.683 139.193 310.802 139.307 310.945C139.421 311.089 139.504 311.253 139.55 311.428C140.807 316.177 142.104 320.729 143.605 324.929C143.695 325.113 143.741 325.314 143.741 325.517C143.741 325.721 143.695 325.922 143.605 326.106C143.423 326.405 143.134 326.628 142.794 326.734C142.621 326.802 142.436 326.834 142.25 326.829C142.064 326.823 141.882 326.781 141.714 326.703C141.546 326.625 141.397 326.515 141.275 326.378C141.154 326.242 141.064 326.082 141.01 325.91C139.347 321.828 137.847 317.079 136.753 312.252Z" fill="#110239"/>
<path d="M215.085 203.694C215.085 198.984 215.328 194.235 215.368 189.447C215.368 189.068 215.521 188.705 215.793 188.434C216.066 188.162 216.437 188.005 216.828 187.995C217.016 187.989 217.203 188.021 217.378 188.088C217.552 188.155 217.711 188.256 217.844 188.385C217.977 188.514 218.081 188.667 218.15 188.836C218.22 189.005 218.253 189.187 218.247 189.368C218.247 194.157 218.247 198.945 217.963 203.654C218.027 203.886 218.027 204.129 217.963 204.361C217.841 204.582 217.66 204.768 217.439 204.899C217.218 205.03 216.965 205.101 216.706 205.107C216.5 205.135 216.29 205.12 216.091 205.062C215.892 205.003 215.708 204.903 215.553 204.768C215.398 204.633 215.276 204.467 215.195 204.281C215.114 204.096 215.076 203.895 215.085 203.694Z" fill="#110239"/>
<path d="M206.774 288.939C207.625 284.386 208.436 279.637 209.166 274.849C209.217 274.474 209.412 274.132 209.713 273.892C210.014 273.651 210.398 273.53 210.788 273.554C210.977 273.572 211.161 273.629 211.327 273.719C211.492 273.81 211.637 273.933 211.751 274.081C211.866 274.228 211.947 274.397 211.991 274.576C212.034 274.756 212.039 274.942 212.004 275.123C211.274 279.99 210.463 284.778 209.612 289.37C209.629 289.527 209.629 289.685 209.612 289.841C209.464 290.093 209.243 290.298 208.977 290.43C208.71 290.563 208.41 290.617 208.112 290.587C207.908 290.573 207.71 290.518 207.53 290.426C207.349 290.334 207.191 290.206 207.065 290.05C206.939 289.895 206.848 289.716 206.798 289.524C206.747 289.333 206.739 289.133 206.774 288.939Z" fill="#110239"/>
<path d="M213.666 232.187C213.99 227.53 214.274 222.781 214.517 217.94C214.537 217.565 214.703 217.211 214.981 216.949C215.259 216.687 215.629 216.537 216.017 216.527C216.209 216.527 216.399 216.565 216.574 216.639C216.75 216.713 216.908 216.822 217.038 216.959C217.167 217.096 217.266 217.257 217.328 217.433C217.39 217.608 217.413 217.795 217.396 217.98C217.152 222.807 216.869 227.595 216.544 232.305C216.562 232.514 216.562 232.724 216.544 232.933C216.406 233.157 216.21 233.344 215.976 233.474C215.742 233.605 215.477 233.675 215.206 233.678C214.998 233.704 214.786 233.683 214.587 233.617C214.388 233.551 214.207 233.442 214.059 233.298C213.91 233.154 213.797 232.979 213.729 232.787C213.661 232.594 213.639 232.389 213.666 232.187Z" fill="#110239"/>
<path d="M210.827 260.642C211.395 256.011 211.922 251.262 212.368 246.434C212.399 246.056 212.582 245.705 212.877 245.455C213.173 245.206 213.558 245.078 213.949 245.1C214.138 245.109 214.322 245.156 214.491 245.238C214.66 245.319 214.811 245.433 214.932 245.573C215.054 245.713 215.144 245.876 215.199 246.051C215.253 246.226 215.269 246.41 215.246 246.591C214.76 251.458 214.233 256.207 213.665 260.877C213.702 261.072 213.702 261.272 213.665 261.466C213.525 261.705 213.316 261.898 213.064 262.024C212.812 262.149 212.528 262.201 212.246 262.173C212.043 262.181 211.841 262.145 211.654 262.069C211.467 261.992 211.3 261.877 211.165 261.731C211.029 261.584 210.928 261.411 210.87 261.223C210.812 261.035 210.797 260.836 210.827 260.642Z" fill="#110239"/>
<path d="M89.8044 265.979C85.0202 267.47 80.3172 268.765 75.8573 269.903C75.4859 270.005 75.1691 270.241 74.9728 270.562C74.7765 270.884 74.7157 271.266 74.8032 271.63C74.9005 271.915 75.084 272.164 75.3299 272.346C75.5758 272.528 75.8726 272.634 76.1817 272.651H76.6277C81.128 271.513 85.8717 270.178 90.6964 268.726C90.8802 268.672 91.0513 268.584 91.1998 268.466C91.3483 268.348 91.4713 268.203 91.5617 268.038C91.6521 267.874 91.7081 267.695 91.7266 267.51C91.7451 267.324 91.7257 267.138 91.6694 266.96C91.5478 266.596 91.2864 266.291 90.9393 266.109C90.5922 265.926 90.1859 265.88 89.8044 265.979Z" fill="#110239"/>
<path d="M61.7069 273.004C56.5578 273.946 51.7736 274.574 47.3949 274.967C47.2028 274.971 47.0138 275.014 46.8399 275.093C46.6659 275.172 46.511 275.285 46.385 275.426C46.2591 275.566 46.1648 275.73 46.1083 275.908C46.0518 276.086 46.0343 276.273 46.057 276.458C46.0951 276.792 46.2548 277.101 46.5074 277.332C46.76 277.562 47.089 277.697 47.4355 277.714H47.6382C52.5508 277.304 57.4368 276.636 62.2745 275.712C62.4582 275.676 62.6327 275.605 62.7882 275.504C62.9436 275.403 63.0769 275.273 63.1804 275.121C63.284 274.97 63.3557 274.801 63.3916 274.623C63.4274 274.444 63.4267 274.261 63.3894 274.083C63.3522 273.906 63.2791 273.737 63.1744 273.586C63.0696 273.436 62.9353 273.307 62.7791 273.206C62.6228 273.106 62.4477 273.037 62.2638 273.002C62.0798 272.967 61.8906 272.968 61.7069 273.004Z" fill="#110239"/>
<path d="M143.97 245.611C139.469 247.573 135.01 249.535 130.671 251.262C130.318 251.409 130.038 251.685 129.894 252.031C129.75 252.376 129.752 252.763 129.901 253.107C130.023 253.343 130.207 253.544 130.435 253.689C130.663 253.833 130.926 253.917 131.199 253.931H131.847C136.226 252.126 140.686 250.006 145.186 248.24C145.533 248.086 145.803 247.806 145.939 247.462C146.076 247.117 146.067 246.734 145.916 246.395C145.845 246.218 145.737 246.056 145.6 245.919C145.462 245.782 145.298 245.674 145.116 245.601C144.934 245.528 144.739 245.491 144.542 245.492C144.345 245.494 144.15 245.534 143.97 245.611Z" fill="#110239"/>
<path d="M117.212 256.599C112.59 258.378 108.049 260.026 103.589 261.544C103.41 261.601 103.244 261.692 103.103 261.814C102.961 261.935 102.847 262.083 102.768 262.248C102.688 262.414 102.644 262.594 102.639 262.776C102.634 262.959 102.667 263.141 102.738 263.31C102.84 263.566 103.017 263.788 103.247 263.949C103.478 264.109 103.751 264.201 104.035 264.213C104.222 264.251 104.415 264.251 104.603 264.213C109.062 262.682 113.644 261.034 118.306 259.228C118.484 259.164 118.646 259.065 118.783 258.938C118.92 258.812 119.03 258.66 119.105 258.491C119.181 258.323 119.221 258.142 119.223 257.958C119.225 257.775 119.189 257.593 119.117 257.423C119.05 257.247 118.947 257.085 118.814 256.947C118.681 256.81 118.521 256.7 118.344 256.623C118.166 256.546 117.975 256.504 117.78 256.5C117.586 256.496 117.393 256.53 117.212 256.599Z" fill="#110239"/>
<path d="M272.901 90.5438H273.347C278.253 89.2094 282.997 88.0712 287.456 87.1685C287.641 87.1313 287.816 87.059 287.971 86.9556C288.126 86.8522 288.259 86.72 288.361 86.5665C288.463 86.4131 288.532 86.2415 288.565 86.0619C288.597 85.8822 288.593 85.6981 288.551 85.5201C288.464 85.1564 288.232 84.8407 287.905 84.6421C287.579 84.4436 287.184 84.3782 286.808 84.4605C282.307 85.4024 277.523 86.5406 272.536 87.875C272.354 87.9245 272.184 88.0088 272.036 88.123C271.887 88.2372 271.764 88.3789 271.674 88.5398C271.583 88.7008 271.527 88.8776 271.508 89.06C271.489 89.2424 271.508 89.4267 271.563 89.6019C271.651 89.8779 271.829 90.1189 272.07 90.2887C272.311 90.4586 272.603 90.5481 272.901 90.5438Z" fill="#110239"/>
<path d="M251.979 96.1561C254.899 95.4496 257.777 94.7824 260.534 94.233C260.719 94.1958 260.894 94.1234 261.049 94.0201C261.204 93.9167 261.337 93.7844 261.439 93.631C261.541 93.4775 261.61 93.306 261.643 93.1263C261.675 92.9467 261.671 92.7625 261.629 92.5846C261.542 92.2208 261.31 91.9051 260.983 91.7066C260.656 91.508 260.262 91.4427 259.886 91.5249C257.25 92.0744 254.534 92.6631 251.777 93.3695C249.75 93.8405 250.155 96.6271 251.979 96.1561Z" fill="#110239"/>
<path d="M170.283 233.364C165.904 235.51 161.566 237.59 157.269 239.605C157.097 239.68 156.942 239.788 156.816 239.924C156.689 240.059 156.592 240.218 156.531 240.391C156.47 240.564 156.447 240.747 156.462 240.929C156.477 241.111 156.531 241.288 156.62 241.449C156.74 241.675 156.92 241.866 157.14 242.004C157.361 242.142 157.615 242.221 157.877 242.234C158.103 242.292 158.34 242.292 158.566 242.234C162.904 240.233 167.242 238.309 171.621 235.955C171.793 235.879 171.947 235.771 172.074 235.636C172.201 235.5 172.298 235.341 172.359 235.168C172.42 234.996 172.443 234.812 172.428 234.63C172.412 234.448 172.359 234.271 172.27 234.11C172.195 233.931 172.083 233.768 171.941 233.632C171.799 233.496 171.63 233.39 171.444 233.32C171.257 233.25 171.058 233.218 170.859 233.226C170.659 233.233 170.463 233.28 170.283 233.364Z" fill="#110239"/>
<path d="M59.1533 203.341C58.8744 203.085 58.5043 202.941 58.1194 202.941C57.7345 202.941 57.3644 203.085 57.0855 203.341C53.315 206.52 49.7471 209.739 46.382 212.839C46.2471 212.967 46.14 213.12 46.0669 213.288C45.9937 213.457 45.9561 213.638 45.9561 213.82C45.9561 214.003 45.9937 214.184 46.0669 214.353C46.14 214.521 46.2471 214.674 46.382 214.802C46.6381 215.06 46.9859 215.214 47.355 215.233C47.7569 215.235 48.1458 215.095 48.4497 214.841C51.7337 211.74 55.3421 208.561 59.0316 205.382C59.1873 205.262 59.315 205.111 59.4065 204.94C59.498 204.769 59.5512 204.581 59.5627 204.388C59.5741 204.196 59.5436 204.003 59.4731 203.823C59.4025 203.642 59.2936 203.478 59.1533 203.341Z" fill="#110239"/>
<path d="M81.088 184.462C80.9524 184.331 80.7912 184.226 80.6138 184.155C80.4364 184.084 80.2462 184.047 80.0541 184.047C79.862 184.047 79.6718 184.084 79.4944 184.155C79.317 184.226 79.1558 184.331 79.0202 184.462C75.2497 187.681 71.6413 190.86 68.3167 194C68.1165 194.189 67.9789 194.432 67.9211 194.698C67.8633 194.963 67.8881 195.239 67.9921 195.491C68.0962 195.743 68.275 195.959 68.5059 196.113C68.7368 196.267 69.0096 196.351 69.2897 196.354C69.49 196.363 69.6901 196.333 69.8781 196.265C70.0662 196.198 70.2383 196.095 70.3844 195.962C73.6685 192.861 77.2363 189.682 80.9663 186.543C81.1286 186.422 81.2621 186.269 81.3577 186.095C81.4534 185.92 81.5089 185.727 81.5204 185.53C81.532 185.332 81.4993 185.134 81.4247 184.95C81.35 184.766 81.2352 184.6 81.088 184.462Z" fill="#110239"/>
<path d="M20.6384 244.747C20.2976 244.575 19.9015 244.536 19.5318 244.638C19.1621 244.74 18.8471 244.976 18.6517 245.296C16.1213 249.433 14.3903 253.982 13.5432 258.719C13.4972 259.088 13.6033 259.46 13.8386 259.754C14.0739 260.048 14.4194 260.24 14.8001 260.289C14.9951 260.316 15.1938 260.305 15.3842 260.257C15.5747 260.208 15.7529 260.122 15.9083 260.005C16.0636 259.887 16.1928 259.741 16.288 259.574C16.3832 259.407 16.4425 259.223 16.4624 259.033C17.2301 254.636 18.8389 250.417 21.206 246.592C21.3799 246.274 21.4179 245.902 21.3117 245.557C21.2056 245.212 20.9638 244.921 20.6384 244.747Z" fill="#110239"/>
<path d="M33.0833 274.731C28.4742 274.539 24.0225 273.053 20.2715 270.453C19.9926 270.196 19.6225 270.053 19.2376 270.053C18.8528 270.053 18.4826 270.196 18.2037 270.453C18.0689 270.581 17.9618 270.733 17.8886 270.902C17.8155 271.07 17.7778 271.251 17.7778 271.434C17.7778 271.617 17.8155 271.798 17.8886 271.966C17.9618 272.134 18.0689 272.287 18.2037 272.415C22.3473 275.423 27.3068 277.196 32.4751 277.517C32.8569 277.595 33.255 277.523 33.582 277.317C33.9089 277.111 34.1379 276.788 34.2185 276.418C34.2992 276.049 34.2249 275.663 34.012 275.347C33.7991 275.03 33.465 274.809 33.0833 274.731Z" fill="#110239"/>
<path d="M36.2041 222.808C32.6768 226.497 29.5144 230.108 26.7574 233.561C26.6402 233.704 26.5543 233.868 26.5049 234.043C26.4556 234.219 26.4438 234.402 26.4704 234.582C26.497 234.762 26.5613 234.935 26.6595 235.09C26.7577 235.246 26.8876 235.38 27.0412 235.484C27.2698 235.665 27.5569 235.763 27.8521 235.759C28.0926 235.779 28.3342 235.738 28.5541 235.642C28.7741 235.546 28.965 235.397 29.109 235.21C31.7849 231.874 34.9067 228.302 38.3529 224.691C38.493 224.566 38.6048 224.415 38.6812 224.246C38.7577 224.077 38.7972 223.895 38.7972 223.71C38.7972 223.526 38.7577 223.343 38.6812 223.175C38.6048 223.006 38.493 222.854 38.3529 222.729C38.2078 222.595 38.0365 222.491 37.849 222.422C37.6615 222.353 37.4617 222.322 37.2614 222.329C37.0611 222.336 36.8643 222.383 36.6827 222.465C36.5011 222.547 36.3384 222.663 36.2041 222.808Z" fill="#110239"/>
<path d="M245.005 190.507C240.951 193.098 236.896 195.688 232.842 198.357C232.683 198.456 232.547 198.585 232.44 198.736C232.334 198.887 232.259 199.057 232.222 199.236C232.184 199.415 232.183 199.599 232.22 199.779C232.257 199.958 232.331 200.128 232.436 200.28C232.575 200.456 232.752 200.601 232.956 200.703C233.159 200.804 233.383 200.861 233.612 200.868C233.887 200.964 234.188 200.964 234.464 200.868C238.518 198.278 242.572 195.649 246.627 193.019C246.782 192.917 246.915 192.786 247.018 192.633C247.12 192.481 247.19 192.31 247.224 192.131C247.258 191.952 247.255 191.769 247.215 191.591C247.175 191.413 247.099 191.245 246.992 191.096C246.796 190.776 246.484 190.538 246.116 190.429C245.749 190.32 245.352 190.348 245.005 190.507Z" fill="#110239"/>
<path d="M316.242 81.3202C311.284 81.1893 306.323 81.4254 301.403 82.0266C301.212 82.0458 301.027 82.1022 300.86 82.1924C300.692 82.2826 300.545 82.4048 300.428 82.5515C300.31 82.6982 300.225 82.8665 300.176 83.0461C300.128 83.2257 300.118 83.413 300.146 83.5965C300.193 83.9232 300.357 84.2237 300.608 84.4459C300.86 84.6681 301.184 84.798 301.525 84.8132H301.768C306.563 84.1844 311.405 83.9481 316.242 84.1068C316.627 84.118 317.001 83.9858 317.288 83.7375C317.574 83.4891 317.752 83.1436 317.783 82.7723C317.772 82.3836 317.605 82.0143 317.317 81.7431C317.029 81.4718 316.644 81.3201 316.242 81.3202Z" fill="#110239"/>
<path d="M312.188 137.602C309.025 140.781 305.579 144.077 301.93 147.374C301.795 147.502 301.688 147.655 301.615 147.823C301.542 147.992 301.504 148.173 301.504 148.355C301.504 148.538 301.542 148.719 301.615 148.887C301.688 149.056 301.795 149.209 301.93 149.336C302.207 149.588 302.565 149.741 302.944 149.768C303.335 149.775 303.713 149.635 303.998 149.376C307.688 146.04 311.174 142.743 314.377 139.485C314.512 139.358 314.619 139.205 314.692 139.036C314.766 138.868 314.803 138.687 314.803 138.504C314.803 138.321 314.766 138.141 314.692 137.972C314.619 137.804 314.512 137.651 314.377 137.523C314.231 137.383 314.058 137.273 313.866 137.201C313.675 137.129 313.47 137.095 313.265 137.103C313.06 137.11 312.858 137.158 312.673 137.244C312.488 137.33 312.323 137.451 312.188 137.602Z" fill="#110239"/>
<path d="M332.012 115.701C331.688 115.509 331.299 115.446 330.928 115.527C330.557 115.607 330.233 115.825 330.025 116.133C327.463 120.007 324.646 123.717 321.592 127.24C321.359 127.533 321.254 127.902 321.3 128.269C321.345 128.636 321.537 128.971 321.835 129.202C322.074 129.397 322.374 129.508 322.686 129.516C322.915 129.522 323.143 129.479 323.353 129.391C323.563 129.303 323.75 129.171 323.903 129.006C326.994 125.428 329.851 121.666 332.458 117.742C332.582 117.585 332.67 117.403 332.715 117.21C332.76 117.017 332.762 116.816 332.719 116.622C332.677 116.429 332.592 116.246 332.47 116.087C332.347 115.928 332.191 115.796 332.012 115.701Z" fill="#110239"/>
<path d="M337.933 90.2688C336.259 87.6983 333.851 85.6532 331 84.3817C330.648 84.2255 330.248 84.2034 329.88 84.3198C329.512 84.4361 329.202 84.6824 329.013 85.0097C328.857 85.3494 328.842 85.7341 328.97 86.0846C329.098 86.4351 329.36 86.7246 329.703 86.8935C332.062 87.8967 334.054 89.5654 335.419 91.6817C336.668 93.7871 337.233 96.2078 337.041 98.6285C336.935 100.455 336.595 102.261 336.027 104.005C335.928 104.364 335.978 104.747 336.168 105.07C336.358 105.394 336.671 105.631 337.041 105.732H337.365C337.695 105.74 338.019 105.645 338.289 105.462C338.559 105.278 338.761 105.015 338.865 104.712C339.484 102.748 339.852 100.718 339.96 98.6677C340.161 95.7353 339.455 92.8114 337.933 90.2688Z" fill="#110239"/>
<path d="M220.68 205.773C216.625 208.206 212.571 210.639 208.273 213.034C208.109 213.122 207.966 213.243 207.852 213.387C207.738 213.532 207.656 213.697 207.61 213.874C207.564 214.05 207.557 214.234 207.587 214.413C207.617 214.593 207.685 214.764 207.787 214.917C207.899 215.123 208.069 215.295 208.277 215.413C208.484 215.53 208.722 215.59 208.962 215.585C209.224 215.678 209.512 215.678 209.773 215.585C213.828 213.191 218.166 210.757 222.261 208.324C222.423 208.228 222.563 208.101 222.673 207.952C222.784 207.802 222.862 207.633 222.904 207.454C222.945 207.274 222.949 207.089 222.916 206.908C222.882 206.727 222.811 206.555 222.707 206.401C222.617 206.23 222.493 206.079 222.342 205.955C222.191 205.831 222.017 205.737 221.828 205.678C221.64 205.62 221.441 205.598 221.244 205.615C221.047 205.631 220.855 205.685 220.68 205.773Z" fill="#110239"/>
<path d="M291.064 156.675C287.577 159.618 283.847 162.601 279.955 165.623C279.73 165.802 279.568 166.044 279.49 166.316C279.413 166.588 279.423 166.876 279.521 167.142C279.618 167.408 279.798 167.638 280.035 167.802C280.272 167.965 280.556 168.054 280.847 168.056C281.023 168.071 281.2 168.05 281.367 167.996C281.534 167.942 281.688 167.856 281.82 167.742C285.874 164.76 289.483 161.737 293.01 158.755C293.149 158.633 293.26 158.485 293.336 158.319C293.412 158.154 293.452 157.974 293.452 157.793C293.452 157.612 293.412 157.433 293.336 157.267C293.26 157.101 293.149 156.953 293.01 156.832C292.763 156.577 292.428 156.421 292.068 156.392C291.709 156.363 291.351 156.463 291.064 156.675Z" fill="#110239"/>
<path d="M195.705 220.059C191.448 222.375 187.191 224.612 182.975 226.81C182.808 226.896 182.661 227.013 182.542 227.155C182.423 227.297 182.335 227.461 182.282 227.636C182.229 227.812 182.213 227.995 182.234 228.177C182.256 228.359 182.314 228.534 182.407 228.694C182.532 228.904 182.708 229.082 182.92 229.212C183.132 229.342 183.373 229.42 183.623 229.439C183.892 229.43 184.155 229.363 184.394 229.243C188.448 227.045 192.867 224.769 197.165 222.453C197.328 222.364 197.471 222.244 197.586 222.1C197.701 221.957 197.785 221.793 197.834 221.618C197.883 221.442 197.896 221.26 197.871 221.08C197.847 220.9 197.786 220.726 197.692 220.569C197.497 220.248 197.179 220.014 196.807 219.918C196.435 219.823 196.039 219.873 195.705 220.059Z" fill="#110239"/>
<path d="M268.562 174.22C264.791 176.967 260.899 179.714 256.885 182.501C256.732 182.606 256.602 182.74 256.504 182.895C256.406 183.05 256.341 183.223 256.315 183.403C256.288 183.583 256.3 183.767 256.349 183.942C256.399 184.118 256.484 184.282 256.602 184.424C256.73 184.593 256.894 184.733 257.083 184.834C257.271 184.936 257.481 184.997 257.696 185.013C258.029 185.019 258.356 184.922 258.629 184.738C262.683 181.952 266.738 179.165 270.346 176.418C270.501 176.309 270.632 176.172 270.73 176.013C270.829 175.854 270.893 175.678 270.92 175.495C270.946 175.312 270.934 175.125 270.884 174.946C270.835 174.768 270.748 174.601 270.63 174.455C270.384 174.165 270.031 173.978 269.645 173.934C269.259 173.89 268.871 173.992 268.562 174.22Z" fill="#110239"/>
<path d="M37.9088 275.32C37.9329 277.793 37.1973 280.218 35.7953 282.286C34.3934 284.353 32.3883 285.971 30.0347 286.934C27.681 287.897 25.0849 288.161 22.576 287.693C20.067 287.225 17.7584 286.045 15.9431 284.305C14.1278 282.564 12.8877 280.34 12.3803 277.916C11.8729 275.492 12.121 272.977 13.0932 270.689C14.0653 268.402 15.7177 266.446 17.8405 265.069C19.9633 263.692 22.4608 262.957 25.0159 262.957C28.4143 262.957 31.6754 264.256 34.0898 266.571C36.5042 268.886 37.8767 272.03 37.9088 275.32Z" fill="#110239"/>
<path d="M301.281 217.273C301.289 219.745 300.539 222.164 299.125 224.222C297.712 226.281 295.699 227.886 293.341 228.836C290.984 229.785 288.388 230.036 285.883 229.555C283.378 229.075 281.077 227.886 279.272 226.138C277.466 224.39 276.238 222.163 275.741 219.738C275.245 217.313 275.504 214.801 276.485 212.518C277.466 210.236 279.124 208.288 281.251 206.919C283.377 205.551 285.876 204.824 288.429 204.832C291.834 204.842 295.097 206.157 297.505 208.488C299.913 210.819 301.271 213.977 301.281 217.273Z" fill="#110239"/>
<path d="M225.462 110.561C225.462 113.021 224.708 115.427 223.296 117.473C221.884 119.519 219.877 121.113 217.528 122.055C215.18 122.997 212.595 123.243 210.102 122.763C207.609 122.283 205.319 121.098 203.522 119.358C201.724 117.618 200.5 115.401 200.004 112.988C199.508 110.574 199.763 108.073 200.736 105.799C201.708 103.526 203.356 101.583 205.469 100.216C207.583 98.8488 210.068 98.1191 212.61 98.1191C214.297 98.1191 215.969 98.4409 217.528 99.0662C219.087 99.6914 220.504 100.608 221.698 101.763C222.891 102.918 223.838 104.29 224.484 105.799C225.13 107.309 225.462 108.927 225.462 110.561Z" fill="#110239"/>
</g>
<defs>
<clipPath id="clip0">
<rect width="340" height="365" fill="white"/>
</clipPath>
</defs>
</svg>
