<svg width="38" height="30" viewBox="0 0 38 30" fill="none" xmlns="http://www.w3.org/2000/svg">
<path d="M6 0H32C33.5913 0 35.1174 0.632141 36.2426 1.75736C37.3679 2.88258 38 4.4087 38 6V24C38 25.5913 37.3679 27.1174 36.2426 28.2426C35.1174 29.3679 33.5913 30 32 30H6C4.4087 30 2.88258 29.3679 1.75736 28.2426C0.632141 27.1174 0 25.5913 0 24V6C0 4.4087 0.632141 2.88258 1.75736 1.75736C2.88258 0.632141 4.4087 0 6 0ZM6 2C5.024 2 4.128 2.35 3.434 2.932L19 13.04L34.566 2.932C33.8471 2.32883 32.9384 1.99877 32 2H6ZM19 15.424L2.268 4.56C2.09057 5.01935 1.99971 5.50758 2 6V24C2 25.0609 2.42143 26.0783 3.17157 26.8284C3.92172 27.5786 4.93913 28 6 28H32C33.0609 28 34.0783 27.5786 34.8284 26.8284C35.5786 26.0783 36 25.0609 36 24V6C36 5.492 35.906 5.006 35.732 4.56L19 15.422V15.424Z" fill="#121212"/>
</svg>
