<svg width="21" height="30" viewBox="0 0 21 30" fill="none" xmlns="http://www.w3.org/2000/svg">
<path d="M10.2561 6.30956C11.3024 6.30956 12.3059 6.72522 13.0458 7.4651C13.7857 8.20498 14.2013 9.20847 14.2013 10.2548C14.2013 11.3012 13.7857 12.3046 13.0458 13.0445C12.3059 13.7844 11.3024 14.2001 10.2561 14.2001C9.20973 14.2001 8.20624 13.7844 7.46636 13.0445C6.72648 12.3046 6.31082 11.3012 6.31082 10.2548C6.31082 9.20847 6.72648 8.20498 7.46636 7.4651C8.20624 6.72522 9.20973 6.30956 10.2561 6.30956ZM10.2561 7.88766C9.62827 7.88766 9.02617 8.13706 8.58224 8.58098C8.13832 9.02491 7.88892 9.627 7.88892 10.2548C7.88892 10.8826 8.13832 11.4847 8.58224 11.9286C9.02617 12.3726 9.62827 12.622 10.2561 12.622C10.8839 12.622 11.486 12.3726 11.9299 11.9286C12.3738 11.4847 12.6232 10.8826 12.6232 10.2548C12.6232 9.627 12.3738 9.02491 11.9299 8.58098C11.486 8.13706 10.8839 7.88766 10.2561 7.88766ZM2.839 14.7634L10.2561 26.9622L17.6731 14.7634C18.4731 13.4473 18.9084 11.942 18.9344 10.4021C18.9604 8.86216 18.5762 7.34303 17.8212 6.00063C17.0662 4.65823 15.9676 3.54091 14.6381 2.76333C13.3086 1.98575 11.7962 1.57594 10.2561 1.57594C8.71592 1.57594 7.2035 1.98575 5.87404 2.76333C4.54459 3.54091 3.44598 4.65823 2.69097 6.00063C1.93596 7.34303 1.55175 8.86216 1.57776 10.4021C1.60378 11.942 2.03908 13.4473 2.839 14.7634ZM19.0208 15.5841L10.2561 30L1.4913 15.5841C0.546214 14.0286 0.0320054 12.2497 0.00144632 10.4299C-0.0291128 8.61007 0.425078 6.8149 1.31741 5.22859C2.20974 3.64227 3.50808 2.32195 5.07919 1.40311C6.65029 0.484268 8.43759 0 10.2577 0C12.0777 0 13.865 0.484268 15.4361 1.40311C17.0072 2.32195 18.3056 3.64227 19.1979 5.22859C20.0902 6.8149 20.5444 8.61007 20.5139 10.4299C20.4833 12.2497 19.9691 14.0286 19.024 15.5841H19.0208Z" fill="#121212"/>
</svg>
