<svg width="30" height="30" viewBox="0 0 30 30" fill="none" xmlns="http://www.w3.org/2000/svg">
<path d="M27.6316 30C28.9374 30 30 28.9374 30 27.6316V22.1053C30 20.7995 28.9374 19.7368 27.6316 19.7368C25.7842 19.7368 23.9684 19.4463 22.2316 18.8732C21.8164 18.7421 21.3734 18.7261 20.9499 18.8271C20.5264 18.928 20.1382 19.142 19.8268 19.4463L17.5532 21.72C13.6233 19.5866 10.3958 16.3602 8.26105 12.4311L10.5158 10.1621C11.1663 9.55895 11.4 8.64158 11.1221 7.75895C10.5501 6.01942 10.2601 4.19957 10.2632 2.36842C10.2632 1.06263 9.20053 0 7.89474 0H2.36842C1.06263 0 0 1.06263 0 2.36842C0 17.6053 12.3947 30 27.6316 30ZM2.36842 1.57895H7.89474C8.10412 1.57895 8.30492 1.66212 8.45298 1.81018C8.60103 1.95823 8.68421 2.15904 8.68421 2.36842C8.68421 4.38474 9 6.36474 9.62053 8.24211C9.66612 8.37834 9.67145 8.52483 9.63588 8.66402C9.60032 8.80321 9.52536 8.92918 9.42 9.02684L6.33158 12.1311C8.91632 17.2279 12.7342 21.0458 17.8547 23.6526L20.9321 20.5737C21.0371 20.4698 21.1684 20.3964 21.3119 20.3613C21.4554 20.3263 21.6058 20.3309 21.7468 20.3747C23.6353 21 25.6153 21.3158 27.6316 21.3158C28.0658 21.3158 28.4211 21.6711 28.4211 22.1053V27.6316C28.4211 28.0658 28.0658 28.4211 27.6316 28.4211C13.2663 28.4211 1.57895 16.7337 1.57895 2.36842C1.57895 2.15904 1.66212 1.95823 1.81018 1.81018C1.95823 1.66212 2.15904 1.57895 2.36842 1.57895Z" fill="#121212"/>
</svg>
