<svg width="19" height="30" viewBox="0 0 19 30" fill="none" xmlns="http://www.w3.org/2000/svg">
<path d="M0 1.95652V28.0435C0 29.1222 0.901339 30 2.00893 30H16.7411C17.8487 30 18.75 29.1222 18.75 28.0435V1.95652C18.75 0.877826 17.8487 0 16.7411 0H2.00893C0.901339 0 0 0.877826 0 1.95652ZM17.4107 1.95652V28.0435C17.4107 28.2164 17.3402 28.3823 17.2146 28.5046C17.089 28.6269 16.9187 28.6957 16.7411 28.6957H2.00893C1.83133 28.6957 1.661 28.6269 1.53542 28.5046C1.40984 28.3823 1.33929 28.2164 1.33929 28.0435V1.95652C1.33929 1.78355 1.40984 1.61767 1.53542 1.49536C1.661 1.37306 1.83133 1.30435 2.00893 1.30435H16.7411C16.9187 1.30435 17.089 1.37306 17.2146 1.49536C17.3402 1.61767 17.4107 1.78355 17.4107 1.95652Z" fill="#121212"/>
<path d="M9.37444 26.087C10.1141 26.087 10.7137 25.503 10.7137 24.7826C10.7137 24.0622 10.1141 23.4783 9.37444 23.4783C8.63477 23.4783 8.03516 24.0622 8.03516 24.7826C8.03516 25.503 8.63477 26.087 9.37444 26.087Z" fill="#121212"/>
<path d="M0 0V-1H-1V0H0ZM18.75 0H19.75V-1H18.75V0ZM18.75 30V31H19.75V30H18.75ZM0 30H-1V31H0V30ZM0 1H18.75V-1H0V1ZM17.75 0V30H19.75V0H17.75ZM18.75 29H0V31H18.75V29ZM1 30V0H-1V30H1Z" fill="black"/>
</svg>
