<svg width="53" height="60" viewBox="0 0 53 60" fill="none" xmlns="http://www.w3.org/2000/svg">
<path fill-rule="evenodd" clip-rule="evenodd" d="M27.7455 0H24.2161V10.7133C18.2296 11.5696 13.6278 16.718 13.6278 22.9412C13.6278 26.393 15.0435 29.5141 17.3261 31.7555L0 60H4.33011L12.932 45.9774C16.783 48.1634 21.236 49.4117 25.9806 49.4117C30.7253 49.4117 35.1784 48.1634 39.0294 45.9773L47.6314 60H51.9615L42.1064 43.9345C48.3971 39.0951 52.4512 31.4916 52.4512 22.9412H48.9218C48.9218 30.2181 45.5337 36.7037 40.2489 40.9065L34.6353 31.7555C36.9179 29.5141 38.3336 26.3929 38.3336 22.9412C38.3336 16.718 33.7318 11.5697 27.7455 10.7133V0ZM25.9807 31.7647C27.3424 31.7647 28.6321 31.4562 29.7837 30.9053L29.7836 30.9052C30.9178 30.3626 31.918 29.5848 32.7211 28.635L32.7213 28.6352C34.0208 27.0985 34.8042 25.1113 34.8042 22.9412C34.8042 18.0681 30.8538 14.1176 25.9807 14.1176C21.1076 14.1176 17.1572 18.0681 17.1572 22.9412C17.1572 27.8143 21.1076 31.7647 25.9807 31.7647ZM25.9807 35.2941C28.019 35.2941 29.9421 34.8004 31.6367 33.9261L37.1823 42.9663C33.8694 44.8234 30.0487 45.8823 25.9806 45.8823C21.9126 45.8823 18.0919 44.8235 14.7791 42.9664L20.3247 33.9261C22.0194 34.8004 23.9424 35.2941 25.9807 35.2941Z" fill="#656565"/>
</svg>
