<svg width="42" height="60" viewBox="0 0 42 60" fill="none" xmlns="http://www.w3.org/2000/svg">
<path d="M28.4222 53.684C28.4222 55.3591 27.7568 56.9656 26.5723 58.1501C25.3878 59.3346 23.7813 60 22.1062 60H18.9481C17.273 60 15.6665 59.3346 14.482 58.1501C13.2975 56.9656 12.6321 55.3591 12.6321 53.684H15.7901C15.7901 54.5215 16.1228 55.3248 16.7151 55.917C17.3073 56.5093 18.1106 56.842 18.9481 56.842H22.1062C22.9437 56.842 23.747 56.5093 24.3392 55.917C24.9315 55.3248 25.2642 54.5215 25.2642 53.684H28.4222ZM31.5802 44.2099C31.5802 45.885 30.9148 47.4915 29.7303 48.676C28.5458 49.8605 26.9393 50.5259 25.2642 50.5259H15.7901C14.115 50.5259 12.5085 49.8605 11.324 48.676C10.1395 47.4915 9.47407 45.885 9.47407 44.2099V37.8244C5.73298 35.4338 2.86778 31.8947 1.30821 27.738C-0.251371 23.5813 -0.421257 19.0309 0.824028 14.7695C2.06931 10.508 4.66264 6.76518 8.21506 4.10228C11.7675 1.43939 16.0875 0 20.5272 0C24.9668 0 29.2868 1.43939 32.8393 4.10228C36.3917 6.76518 38.985 10.508 40.2303 14.7695C41.4756 19.0309 41.3057 23.5813 39.7461 27.738C38.1865 31.8947 35.3213 35.4338 31.5802 37.8244V44.2099ZM12.6321 44.2099C12.6321 45.0474 12.9648 45.8507 13.5571 46.4429C14.1493 47.0352 14.9526 47.3679 15.7901 47.3679H25.2642C26.1018 47.3679 26.905 47.0352 27.4973 46.4429C28.0895 45.8507 28.4222 45.0474 28.4222 44.2099V35.999C31.8965 34.2261 34.6729 31.3353 36.3042 27.7923C37.9355 24.2493 38.3269 20.2604 37.4151 16.4679C36.5034 12.6755 34.3417 9.30029 31.2782 6.88598C28.2146 4.47168 24.4277 3.1588 20.5272 3.1588C16.6266 3.1588 12.8397 4.47168 9.77616 6.88598C6.71265 9.30029 4.55094 12.6755 3.6392 16.4679C2.72746 20.2604 3.11877 24.2493 4.7501 27.7923C6.38143 31.3353 9.15782 34.2261 12.6321 35.999V44.2099ZM9.88146 22.4858L17.3691 14.9982L23.6852 21.3142L29.2117 15.7877L31.4444 18.0204L23.6852 25.7797L17.3691 19.4636L12.1142 24.7186L9.88146 22.4858Z" fill="#121212"/>
</svg>
