<svg width="67" height="60" viewBox="0 0 67 60" fill="none" xmlns="http://www.w3.org/2000/svg">
<path d="M15.7895 6.31579H56.8421C59.3547 6.31579 61.7643 7.31391 63.541 9.09057C65.3177 10.8672 66.3158 13.2769 66.3158 15.7895V37.8947C66.3158 40.4073 65.3177 42.817 63.541 44.5936C61.7643 46.3703 59.3547 47.3684 56.8421 47.3684H42.6063L44.2105 56.8421H47.3684V60H25.2632V56.8421H28.4211L30.0253 47.3684H15.7895C13.2769 47.3684 10.8672 46.3703 9.09057 44.5936C7.31391 42.817 6.31579 40.4073 6.31579 37.8947V15.7895C6.31579 13.2769 7.31391 10.8672 9.09057 9.09057C10.8672 7.31391 13.2769 6.31579 15.7895 6.31579V6.31579ZM33.1832 47.3684L31.5789 56.8421H41.0526L39.4484 47.3684H33.1832V47.3684ZM15.7895 9.47368C14.1144 9.47368 12.508 10.1391 11.3235 11.3235C10.1391 12.508 9.47368 14.1144 9.47368 15.7895V37.8947C9.47368 39.5698 10.1391 41.1762 11.3235 42.3607C12.508 43.5451 14.1144 44.2105 15.7895 44.2105H56.8421C58.5172 44.2105 60.1236 43.5451 61.308 42.3607C62.4925 41.1762 63.1579 39.5698 63.1579 37.8947V15.7895C63.1579 14.1144 62.4925 12.508 61.308 11.3235C60.1236 10.1391 58.5172 9.47368 56.8421 9.47368H15.7895ZM0 15.7895C0 11.6018 1.66353 7.58573 4.62463 4.62463C7.58573 1.66353 11.6018 0 15.7895 0H53.6842V3.15789H15.7895C12.4394 3.15789 9.22648 4.48872 6.8576 6.8576C4.48872 9.22648 3.15789 12.4394 3.15789 15.7895V34.7368H0V15.7895Z" fill="#665566"/>
</svg>
