<svg width="62" height="62" viewBox="0 0 62 62" fill="none" xmlns="http://www.w3.org/2000/svg">
<path d="M3.8125 61.1H30.0625C30.3377 61.1 30.6016 60.9907 30.7961 60.7961C30.9907 60.6016 31.1 60.3377 31.1 60.0625C31.1 59.7873 30.9907 59.5234 30.7961 59.3289C30.6016 59.1343 30.3377 59.025 30.0625 59.025H3.8125C3.59038 59.025 3.37736 58.9368 3.2203 58.7797C3.06324 58.6226 2.975 58.4096 2.975 58.1875V3.8125C2.975 3.59038 3.06324 3.37736 3.2203 3.2203C3.37736 3.06324 3.59038 2.975 3.8125 2.975H43.1875C43.4096 2.975 43.6226 3.06324 43.7797 3.2203C43.9368 3.37736 44.025 3.59038 44.025 3.8125V13.1875C44.025 13.4627 44.1343 13.7266 44.3289 13.9211C44.5234 14.1157 44.7873 14.225 45.0625 14.225C45.3377 14.225 45.6016 14.1157 45.7961 13.9211C45.9907 13.7266 46.1 13.4627 46.1 13.1875V3.8125C46.1 2.20665 44.7934 0.9 43.1875 0.9H3.8125C2.20665 0.9 0.9 2.20665 0.9 3.8125V58.1875C0.9 59.7934 2.20665 61.1 3.8125 61.1Z" fill="#665566" stroke="#665566" stroke-width="0.2"/>
<path d="M34.65 20.6875V58.1875C34.65 59.7934 35.9566 61.1 37.5625 61.1H58.1875C59.7934 61.1 61.1 59.7934 61.1 58.1875V20.6875C61.1 19.0816 59.7934 17.775 58.1875 17.775H37.5625C35.9566 17.775 34.65 19.0816 34.65 20.6875ZM59.025 20.6875V58.1875C59.025 58.4096 58.9368 58.6226 58.7797 58.7797C58.6226 58.9368 58.4096 59.025 58.1875 59.025H37.5625C37.3404 59.025 37.1274 58.9368 36.9703 58.7797C36.8132 58.6226 36.725 58.4096 36.725 58.1875V20.6875C36.725 20.4654 36.8132 20.2524 36.9703 20.0953C37.1274 19.9382 37.3404 19.85 37.5625 19.85H58.1875C58.4096 19.85 58.6226 19.9382 58.7797 20.0953C58.9368 20.2524 59.025 20.4654 59.025 20.6875Z" fill="#665566" stroke="#665566" stroke-width="0.2"/>
<path d="M23.5 55.375C24.5355 55.375 25.375 54.5355 25.375 53.5C25.375 52.4645 24.5355 51.625 23.5 51.625C22.4645 51.625 21.625 52.4645 21.625 53.5C21.625 54.5355 22.4645 55.375 23.5 55.375Z" fill="#665566"/>
<path d="M47.875 55.375C48.9105 55.375 49.75 54.5355 49.75 53.5C49.75 52.4645 48.9105 51.625 47.875 51.625C46.8395 51.625 46 52.4645 46 53.5C46 54.5355 46.8395 55.375 47.875 55.375Z" fill="#665566"/>
</svg>
