<svg width="79" height="45" viewBox="0 0 79 45" fill="none" xmlns="http://www.w3.org/2000/svg">
<path fill-rule="evenodd" clip-rule="evenodd" d="M45.6817 14.2105H52.764V21.4737H56.3451C57.9988 21.4737 59.6997 21.1782 61.2658 20.6458C62.0353 20.384 62.8991 20.0197 63.6581 19.5616C62.6584 18.2521 62.148 16.5985 61.9977 14.9687C61.7936 12.7518 62.2394 9.86633 63.735 8.13127L64.4794 7.26741L65.3666 7.98283C67.6002 9.78312 69.4786 12.2987 69.8097 15.1664C72.4992 14.3727 75.6567 14.5604 78.0273 15.933L78.9999 16.496L78.488 17.4984C76.4832 21.4238 72.2918 22.6398 68.194 22.4246C62.0622 37.7462 48.7125 45 32.5261 45C24.1636 45 16.4913 41.8639 12.1223 34.4206L12.0506 34.2991L11.4141 32.9999C9.93725 29.7235 9.44674 26.1342 9.7795 22.5479L9.87936 21.4737H15.9355V14.2105H23.0177V7.10515H37.1827V0H45.6817V14.2105Z" fill="#364548"/>
<path fill-rule="evenodd" clip-rule="evenodd" d="M68.6275 16.8975C69.1024 13.1951 66.3405 10.2868 64.6276 8.90601C62.6538 11.1954 62.347 17.1955 65.4437 19.7217C63.7156 21.2618 60.0738 22.6577 56.3451 22.6577H10.9553C10.5927 26.5626 11.2761 30.1585 12.8367 33.2366L13.3531 34.184C13.6801 34.7407 14.0372 35.2778 14.4232 35.7951H14.4234C16.2894 35.9152 18.0099 35.9568 19.584 35.9219H19.5846C22.678 35.8531 25.2019 35.487 27.1148 34.822C27.3997 34.7227 27.71 34.8743 27.8086 35.1597C27.9069 35.4451 27.7563 35.7566 27.4718 35.8556C27.2175 35.944 26.9523 36.0267 26.6784 36.1053C26.6781 36.1054 26.6777 36.1054 26.6774 36.1056C25.1712 36.537 23.5562 36.8274 21.4722 36.9563C21.5958 36.9583 21.3433 36.975 21.3427 36.9751C21.2718 36.9795 21.1826 36.9896 21.1114 36.9936C20.2913 37.0397 19.406 37.0494 18.5009 37.0494C17.5111 37.0494 16.5362 37.0305 15.4464 36.9751L15.4185 36.9936C19.2005 41.258 25.1138 43.8157 32.5261 43.8157C48.2136 43.8157 61.5198 36.8392 67.4119 21.1766C71.5923 21.6069 75.6098 20.5375 77.4373 16.9586C74.5263 15.2733 70.783 15.8106 68.6275 16.8975Z" fill="#22A0C8"/>
<path fill-rule="evenodd" clip-rule="evenodd" d="M68.6275 16.8975C69.1025 13.1951 66.3405 10.2868 64.6276 8.90601C62.6538 11.1954 62.3471 17.1955 65.4438 19.7217C63.7156 21.2618 60.0738 22.6577 56.3451 22.6577H13.6431C13.4578 28.638 15.67 33.1775 19.584 35.9219H19.5847C22.678 35.8531 25.2019 35.487 27.1149 34.822C27.3997 34.7227 27.7101 34.8743 27.8086 35.1597C27.907 35.4451 27.7564 35.7566 27.4719 35.8556C27.2176 35.944 26.9523 36.0267 26.6785 36.1053C26.6781 36.1054 26.6778 36.1054 26.6775 36.1056C25.1712 36.537 23.4174 36.8646 21.3334 36.9936C21.3329 36.9936 21.283 36.9452 21.2823 36.9453C26.6211 39.6927 34.3624 39.6829 43.2378 36.2625C53.1897 32.4271 62.4501 25.1198 68.9117 16.762C68.8142 16.8061 68.7193 16.8514 68.6275 16.8975Z" fill="#37B1D9"/>
<path fill-rule="evenodd" clip-rule="evenodd" d="M11.0403 27.4021C11.3224 29.4938 11.9322 31.4523 12.8368 33.2365L13.3532 34.1839C13.6801 34.7406 14.0373 35.2778 14.4234 35.795C16.2898 35.9151 18.0105 35.9567 19.5847 35.9218C22.6781 35.8531 25.202 35.4869 27.1149 34.8219C27.3997 34.7226 27.7101 34.8742 27.8086 35.1596C27.907 35.445 27.7564 35.7565 27.4719 35.8556C27.2176 35.9439 26.9524 36.0266 26.6785 36.1052C26.6782 36.1053 26.6778 36.1053 26.6775 36.1055C25.1713 36.5369 23.4267 36.8459 21.3427 36.975C21.2712 36.9794 21.1465 36.9802 21.0743 36.9842C20.2545 37.0305 19.3783 37.0586 18.4731 37.0586C17.4835 37.0586 16.4714 37.0396 15.3817 36.9842C19.1635 41.2486 25.1139 43.8156 32.5262 43.8156C45.9561 43.8156 57.6405 38.7016 64.4221 27.4021H11.0403Z" fill="#1B81A5"/>
<path fill-rule="evenodd" clip-rule="evenodd" d="M14.0518 27.4021C14.8546 31.0747 16.784 33.9581 19.5848 35.9218C22.6781 35.8531 25.202 35.4869 27.115 34.8219C27.3998 34.7226 27.7102 34.8742 27.8087 35.1596C27.9071 35.445 27.7564 35.7565 27.472 35.8556C27.2177 35.9439 26.9524 36.0266 26.6785 36.1052C26.6782 36.1053 26.6779 36.1053 26.6775 36.1055C25.1713 36.5369 23.3898 36.8459 21.3058 36.975C26.6442 39.7219 34.3632 39.6825 43.2379 36.2624C48.6068 34.1931 53.774 31.1124 58.41 27.4021H14.0518Z" fill="#1D91B4"/>
<path fill-rule="evenodd" clip-rule="evenodd" d="M17.116 15.3945H23.2539V21.5526H17.116V15.3945ZM17.6272 15.9078H18.1116V21.0397H17.6272V15.9078ZM18.5379 15.9078H19.0417V21.0397H18.5379V15.9078ZM19.4677 15.9078H19.9715V21.0397H19.4677V15.9078ZM20.3979 15.9078H20.9017V21.0397H20.3979V15.9078ZM21.328 15.9078H21.8318V21.0397H21.328V15.9078ZM22.258 15.9078H22.7427V21.0397H22.258V15.9078Z" fill="#23A3C2"/>
<path fill-rule="evenodd" clip-rule="evenodd" d="M24.198 8.28931H30.3366V14.447H24.198V8.28931ZM24.7099 8.80253H25.194V13.934H24.7099V8.80253ZM25.6206 8.80253H26.1241V13.934H25.6206V8.80253ZM26.5502 8.80253H27.054V13.934H26.5502V8.80253ZM27.4803 8.80253H27.9841V13.934H27.4803V8.80253ZM28.4106 8.80253H28.9144V13.934H28.4106V8.80253ZM29.3403 8.80253H29.8254V13.934H29.3403V8.80253Z" fill="#23A3C2"/>
<path fill-rule="evenodd" clip-rule="evenodd" d="M24.198 15.3945H30.3366V21.5526H24.198V15.3945ZM24.7099 15.9078H25.194V21.0397H24.7099V15.9078ZM25.6206 15.9078H26.1241V21.0397H25.6206V15.9078ZM26.5502 15.9078H27.054V21.0397H26.5502V15.9078ZM27.4803 15.9078H27.9841V21.0397H27.4803V15.9078ZM28.4106 15.9078H28.9144V21.0397H28.4106V15.9078ZM29.3403 15.9078H29.8254V21.0397H29.3403V15.9078Z" fill="#34BBDE"/>
<path fill-rule="evenodd" clip-rule="evenodd" d="M31.2808 15.3945H37.4191V21.5526H31.2808V15.3945ZM31.7923 15.9078H32.2764V21.0397H31.7923V15.9078ZM32.7029 15.9078H33.2067V21.0397H32.7029V15.9078ZM33.633 15.9078H34.1368V21.0397H33.633V15.9078ZM34.5631 15.9078H35.0669V21.0397H34.5631V15.9078ZM35.493 15.9078H35.9971V21.0397H35.493V15.9078ZM36.4231 15.9078H36.9075V21.0397H36.4231V15.9078Z" fill="#23A3C2"/>
<path fill-rule="evenodd" clip-rule="evenodd" d="M31.2808 8.28931H37.4191V14.447H31.2808V8.28931ZM31.7923 8.80253H32.2764V13.934H31.7923V8.80253ZM32.7029 8.80253H33.2067V13.934H32.7029V8.80253ZM33.633 8.80253H34.1368V13.934H33.633V8.80253ZM34.5631 8.80253H35.0669V13.934H34.5631V8.80253ZM35.493 8.80253H35.9971V13.934H35.493V8.80253ZM36.4231 8.80253H36.9075V13.934H36.4231V8.80253Z" fill="#34BBDE"/>
<path fill-rule="evenodd" clip-rule="evenodd" d="M38.3633 15.3945H44.5014V21.5526H38.3633V15.3945ZM38.8749 15.9078H39.3591V21.0397H38.8749V15.9078ZM39.7856 15.9078H40.2893V21.0397H39.7856V15.9078ZM40.7153 15.9078H41.2191V21.0397H40.7153V15.9078ZM41.6456 15.9078H42.1494V21.0397H41.6456V15.9078ZM42.5757 15.9078H43.0795V21.0397H42.5757V15.9078ZM43.5056 15.9078H43.9902V21.0397H43.5056V15.9078Z" fill="#34BBDE"/>
<path fill-rule="evenodd" clip-rule="evenodd" d="M38.3633 8.28931H44.5014V14.447H38.3633V8.28931ZM38.8749 8.80253H39.3591V13.934H38.8749V8.80253ZM39.7856 8.80253H40.2893V13.934H39.7856V8.80253ZM40.7153 8.80253H41.2191V13.934H40.7153V8.80253ZM41.6456 8.80253H42.1494V13.934H41.6456V8.80253ZM42.5757 8.80253H43.0795V13.934H42.5757V8.80253ZM43.5056 8.80253H43.9902V13.934H43.5056V8.80253Z" fill="#23A3C2"/>
<path fill-rule="evenodd" clip-rule="evenodd" d="M38.3633 1.18408H44.5014V7.34215H38.3633V1.18408ZM38.8749 1.69698H39.3591V6.82893H38.8749V1.69698ZM39.7856 1.69698H40.2893V6.82893H39.7856V1.69698ZM40.7153 1.69698H41.2191V6.82893H40.7153V1.69698ZM41.6456 1.69698H42.1494V6.82893H41.6456V1.69698ZM42.5757 1.69698H43.0795V6.82893H42.5757V1.69698ZM43.5056 1.69698H43.9902V6.82893H43.5056V1.69698Z" fill="#34BBDE"/>
<path fill-rule="evenodd" clip-rule="evenodd" d="M45.4456 15.3945H51.5839V21.5526H45.4456V15.3945ZM45.9568 15.9078H46.4415V21.0397H45.9568V15.9078ZM46.8675 15.9078H47.3713V21.0397H46.8675V15.9078ZM47.7978 15.9078H48.3015V21.0397H47.7978V15.9078ZM48.7275 15.9078H49.2313V21.0397H48.7275V15.9078ZM49.658 15.9078H50.1616V21.0397H49.658V15.9078ZM50.5879 15.9078H51.0723V21.0397H50.5879V15.9078Z" fill="#23A3C2"/>
<path fill-rule="evenodd" clip-rule="evenodd" d="M29.9523 31.5366C30.8874 31.5366 31.6454 32.2975 31.6454 33.2356C31.6454 34.1737 30.8874 34.9342 29.9523 34.9342C29.017 34.9342 28.2588 34.1737 28.2588 33.2356C28.2588 32.2975 29.017 31.5366 29.9523 31.5366Z" fill="#D3ECEC"/>
<path fill-rule="evenodd" clip-rule="evenodd" d="M29.9524 32.0186C30.1074 32.0186 30.2552 32.0478 30.3915 32.1009C30.2437 32.1866 30.1437 32.3472 30.1437 32.531C30.1437 32.8052 30.3653 33.0272 30.6387 33.0272C30.826 33.0272 30.9887 32.9229 31.0728 32.7688C31.1322 32.9124 31.1652 33.0701 31.1652 33.2356C31.1652 33.9074 30.6223 34.4521 29.9524 34.4521C29.2828 34.4521 28.7395 33.9074 28.7395 33.2356C28.7395 32.5634 29.2828 32.0186 29.9524 32.0186Z" fill="#364548"/>
<path fill-rule="evenodd" clip-rule="evenodd" d="M0 28.0163H78.7736C77.0583 27.5798 73.3467 26.9902 73.9588 24.7351C70.8401 28.3557 63.3187 27.2751 61.4205 25.4898C59.3066 28.5655 47.001 27.3964 46.1427 25.0004C43.4928 28.1204 35.2813 28.1204 32.6312 25.0004C31.7725 27.3964 19.4671 28.5655 17.3531 25.4898C15.4549 27.2751 7.93414 28.3557 4.81506 24.7351C5.42716 26.9902 1.71555 27.5798 0 28.0163Z" fill="#364548"/>
<path fill-rule="evenodd" clip-rule="evenodd" d="M34.4538 43.7788C30.2601 41.7823 27.9582 39.0683 26.6774 36.1055C25.1197 36.5516 23.2471 36.8367 21.0714 36.9592C20.2518 37.0053 19.3897 37.0289 18.4848 37.0289C17.4417 37.0289 16.3426 36.998 15.1887 36.9366C19.0345 40.7924 23.7658 43.7613 32.526 43.8155C33.1728 43.8155 33.815 43.8029 34.4538 43.7788Z" fill="#BDD9D7"/>
<path fill-rule="evenodd" clip-rule="evenodd" d="M28.2353 38.8394C27.6551 38.0493 27.0922 37.0563 26.6785 36.1052C25.1206 36.5516 23.2476 36.8368 21.0715 36.9593C22.5661 37.7732 24.7039 38.5274 28.2353 38.8394Z" fill="#D3ECEC"/>
</svg>
