<svg width="78" height="79" viewBox="0 0 78 79" fill="none" xmlns="http://www.w3.org/2000/svg">
<path d="M76.5288 35.9807L42.4728 1.49006C40.513 -0.496686 37.3319 -0.496686 35.3695 1.49006L28.2978 8.65257L37.2686 17.7386C39.3534 17.0252 41.7437 17.5036 43.4057 19.187C45.0754 20.8808 45.5444 23.3226 44.8229 25.4411L53.4685 34.1977C55.5602 33.4678 57.9736 33.9402 59.6442 35.6349C61.9789 37.9987 61.9789 41.83 59.6442 44.1956C57.3086 46.5611 53.5259 46.5611 51.1895 44.1956C49.4333 42.4151 48.9994 39.8025 49.8886 37.6112L41.8258 29.4449L41.825 50.9351C42.3941 51.2211 42.9316 51.6016 43.4057 52.0801C45.7404 54.4439 45.7404 58.2753 43.4057 60.6425C41.0701 63.0072 37.2857 63.0072 34.9535 60.6425C32.6188 58.2753 32.6188 54.4439 34.9535 52.0801C35.5304 51.4968 36.1979 51.0555 36.91 50.7591V29.0687C36.1979 28.774 35.5312 28.3354 34.9535 27.7477C33.1845 25.9586 32.7592 23.3295 33.6655 21.1295L24.8231 12.1718L1.47181 35.8212C-0.490604 37.8097 -0.490604 41.0317 1.47181 43.0184L35.5278 77.5099C37.4885 79.4967 40.6688 79.4967 42.632 77.5099L76.5288 43.1788C78.4904 41.1912 78.4904 37.9675 76.5288 35.9807Z" fill="#DE4C36"/>
</svg>
