<svg width="79" height="79" viewBox="0 0 79 79" fill="none" xmlns="http://www.w3.org/2000/svg">
<path d="M0 0H79V79H0V0Z" fill="#F7DF1E"/>
<path d="M20.7721 66.0183L26.8177 62.3596C27.984 64.4275 29.045 66.1772 31.59 66.1772C34.0294 66.1772 35.5674 65.2229 35.5674 61.5112V36.2688H42.9914V61.6161C42.9914 69.3055 38.4841 72.8054 31.9082 72.8054C25.9693 72.8054 22.5219 69.7296 20.772 66.0177" fill="black"/>
<path d="M47.0239 65.2227L53.0688 61.7227C54.6601 64.3215 56.7283 66.2304 60.3871 66.2304C63.4632 66.2304 65.4248 64.6924 65.4248 62.5712C65.4248 60.0258 63.4098 59.1241 60.0158 57.6398L58.1603 56.8438C52.804 54.564 49.2508 51.7004 49.2508 45.6549C49.2508 40.0868 53.4931 35.8442 60.1221 35.8442C64.8418 35.8442 68.2357 37.4883 70.6748 41.7838L64.8945 45.4956C63.6217 43.2156 62.2433 42.3142 60.1223 42.3142C57.948 42.3142 56.5691 43.6929 56.5691 45.4956C56.5691 47.7229 57.948 48.6247 61.1294 50.0035L62.9853 50.7989C69.2959 53.5036 72.849 56.2608 72.849 62.4651C72.849 69.1472 67.5992 72.8059 60.5463 72.8059C53.6525 72.8059 49.1979 69.5183 47.0241 65.2227" fill="black"/>
</svg>
