<svg width="157" height="33" viewBox="0 0 157 33" fill="none" xmlns="http://www.w3.org/2000/svg">
<path d="M29.4189 32.9352C28.5321 32.9352 27.6589 32.5891 27.0068 31.9337L6.82162 11.6897V29.5147C6.82162 31.4042 5.29494 32.9352 3.41081 32.9352C1.52804 32.9352 0 31.4042 0 29.5147V3.43122C0 2.0466 0.832237 0.80016 2.10651 0.270664C3.37943 -0.2602 4.84744 0.0325964 5.82293 1.01223L26.0081 21.2562V3.43122C26.0081 1.54173 27.5348 0.0107051 29.4189 0.0107051C31.303 0.0107051 32.8297 1.54173 32.8297 3.43122V29.5147C32.8297 30.898 31.9975 32.1458 30.7232 32.6753C30.3016 32.8504 29.8596 32.9352 29.4189 32.9352Z" fill="#009900"/>
<path d="M45.2136 0.0427246L44.2763 1.79676L37.0276 15.0082L36.0903 16.676L37.0276 18.3425L44.2763 31.127L45.2559 32.8797H64.2295L65.1668 30.956L70.5818 20.0103L73.0116 15.0506H67.5121L53.656 15.093C51.8537 15.0684 50.1961 16.7061 50.1961 18.5135C50.1961 20.3209 51.8537 21.96 53.656 21.934L62.0125 21.8916L59.966 26.0386H49.2219L43.8915 16.6322L49.2642 6.88376H60.6932L63.3577 12.3675H70.223L65.8953 1.96779L64.9567 0.0427246H45.2136Z" fill="#009900"/>
<path d="M79.7677 0.000240632C77.9804 0.0221319 76.376 1.67219 76.3992 3.46317V12.377H83.2208V3.46317C83.2426 1.64346 81.5809 -0.0230189 79.7677 0.000240632Z" fill="#009900"/>
<path d="M90.7014 33C90.2621 33 89.8187 32.9152 89.3971 32.7401C88.1229 32.2106 87.292 30.9628 87.292 29.5795V3.49605C87.292 1.60656 88.8187 0.0755329 90.7028 0.0755329C92.5869 0.0755329 94.1136 1.60656 94.1136 3.49605V21.321L114.299 1.07706C115.272 0.100161 116.737 -0.195372 118.015 0.335492C119.289 0.864988 120.12 2.11279 120.12 3.49605V29.5795C120.12 31.469 118.594 33 116.71 33C114.825 33 113.299 31.469 113.299 29.5795V11.7545L93.1136 31.9985C92.4628 32.6525 91.5896 33 90.7014 33Z" fill="#009900"/>
<path d="M145.386 16.5118L155.997 5.90956C157.331 4.57692 157.335 2.41105 156.005 1.07158C154.676 -0.266526 152.518 -0.269262 151.182 1.06337L140.555 11.6834L129.929 1.06337C128.593 -0.270631 126.434 -0.266526 125.106 1.07158C123.775 2.41105 123.78 4.57692 125.112 5.90956L135.723 16.5118L125.144 27.0839C123.808 28.4179 123.805 30.5824 125.136 31.9205C125.801 32.5923 126.676 32.9275 127.552 32.9275C128.422 32.9275 129.293 32.595 129.959 31.9287L140.555 21.3402L151.151 31.9287C151.818 32.595 152.687 32.9275 153.559 32.9275C154.434 32.9275 155.308 32.5923 155.975 31.9205C157.304 30.5824 157.301 28.4179 155.967 27.0839L145.386 16.5118Z" fill="#009900"/>
<path d="M79.7677 32.9028C77.9804 32.8809 76.376 31.2308 76.3992 29.4399V15.1216H83.2208V29.4399C83.2426 31.2582 81.5809 32.9247 79.7677 32.9028Z" fill="#009900"/>
</svg>
