<svg width="79" height="81" viewBox="0 0 79 81" fill="none" xmlns="http://www.w3.org/2000/svg">
<path d="M78.7909 48.5208C78.3161 47.0906 77.0723 46.0944 75.4637 45.8554C74.7052 45.7428 73.8366 45.7908 72.8087 46.0015C71.017 46.3692 69.6878 46.5091 68.7178 46.5362C72.3793 40.3881 75.3567 33.3771 77.0707 26.7774C79.8424 16.1058 78.3613 11.2442 76.6305 9.04527C72.0502 3.2248 65.3677 0.0979911 57.3058 0.0023164C53.0051 -0.0499817 49.2296 0.794478 47.2601 1.40175C45.4264 1.07996 43.4547 0.900305 41.3858 0.86708C37.5077 0.805553 34.0812 1.64632 31.1534 3.37431C29.5324 2.82918 26.9309 2.06071 23.9267 1.57034C16.8608 0.416701 11.166 1.31561 7.00048 4.24215C1.95647 7.7855 -0.381797 13.9419 0.0506532 22.5403C0.187998 25.2703 1.72354 33.5764 4.1413 41.4538C5.53083 45.9815 7.01255 49.7415 8.5453 52.6302C10.719 56.7263 13.0449 59.1385 15.656 60.0048C17.1194 60.4896 19.7785 60.8293 22.5752 58.5128C22.9297 58.9398 23.4027 59.364 24.0303 59.7581C24.8275 60.258 25.8022 60.6665 26.7756 60.9086C30.2838 61.7808 33.5699 61.5627 36.3734 60.3401C36.3907 60.836 36.404 61.3098 36.4151 61.7189C36.4337 62.3825 36.4523 63.0332 36.4767 63.6417C36.6428 67.756 36.9243 70.9551 37.7583 73.1934C37.8041 73.3165 37.8656 73.5042 37.9306 73.7032C38.3466 74.97 39.0423 77.0909 40.8123 78.7518C42.6451 80.4724 44.8621 81 46.8926 81C47.911 81 48.8826 80.8671 49.7348 80.6856C52.7725 80.038 56.2225 79.0517 58.7182 75.5176C61.0778 72.1767 62.2248 67.1447 62.4324 59.216C62.4593 58.9918 62.484 58.7776 62.5079 58.5737L62.5573 58.1547L63.1132 58.2033L63.2564 58.2128C66.3504 58.3531 70.1336 57.7006 72.457 56.6273C74.2929 55.78 80.1761 52.6911 78.7909 48.5208Z" fill="black"/>
<path d="M73.5008 49.3317C64.3011 51.219 63.6685 48.1214 63.6685 48.1214C73.3817 33.7878 77.4423 15.5933 73.9385 11.1402C64.3788 -1.00675 47.8309 4.73804 47.5547 4.88694L47.4659 4.90293C45.6482 4.52762 43.6144 4.30427 41.3281 4.26705C37.1657 4.19937 34.008 5.35239 31.6119 7.15944C31.6119 7.15944 2.09202 -4.93495 3.46516 22.3702C3.75717 28.179 11.837 66.323 21.474 54.8017C24.9964 50.5887 28.4 47.0266 28.4 47.0266C30.0902 48.1433 32.1139 48.713 34.2353 48.5084L34.4002 48.3694C34.3489 48.8924 34.3724 49.404 34.4661 50.0097C31.9834 52.7683 32.7131 53.2525 27.7501 54.2686C22.7281 55.298 25.6782 57.1302 27.6044 57.6095C29.9396 58.19 35.3418 59.0127 38.992 53.9308L38.8466 54.5107C39.8191 55.2857 40.5021 59.5507 40.3877 63.4174C40.2732 67.2837 40.1968 69.9383 40.9631 72.0118C41.7299 74.0853 42.4936 78.7506 49.0181 77.3604C54.4695 76.1984 57.2947 73.1876 57.6879 68.1651C57.9666 64.5947 58.5979 65.1226 58.6375 61.9303L59.1439 60.4192C59.7276 55.5791 59.2367 54.0176 62.5952 54.7439L63.4118 54.8153C65.8834 54.9269 69.119 54.4197 71.018 53.542C75.1068 51.6549 77.532 48.5038 73.5001 49.3317H73.5008Z" fill="#336791"/>
<path d="M33.3398 24.9679C32.5108 24.8532 31.76 24.9593 31.3802 25.2454C31.1667 25.4063 31.1005 25.5927 31.0826 25.721C31.0349 26.0609 31.2744 26.4369 31.4216 26.6307C31.838 27.1795 32.4461 27.5567 33.0481 27.6397C33.1353 27.652 33.2223 27.6576 33.3086 27.6576C34.3123 27.6576 35.2252 26.8802 35.3056 26.3064C35.4062 25.5878 34.3572 25.1088 33.3398 24.9682V24.9679ZM60.8038 24.9907C60.7246 24.4274 59.7168 24.2668 58.7603 24.3991C57.8051 24.5314 56.879 24.9602 56.9563 25.5247C57.0182 25.9637 57.8153 26.7131 58.7588 26.7131C58.8386 26.7131 58.919 26.7079 59.0001 26.6965C59.6299 26.6098 60.092 26.212 60.3116 25.9828C60.6457 25.6333 60.8394 25.2439 60.8038 24.9907Z" fill="white"/>
<path d="M76.5619 49.1173C76.2111 48.0624 75.0821 47.7231 73.2062 48.1082C67.6367 49.2514 65.6421 48.4596 64.9872 47.98C69.3164 41.4212 72.8777 33.4928 74.799 26.0957C75.7091 22.5917 76.2118 19.3376 76.2529 16.6851C76.2984 13.774 75.7997 11.6347 74.7715 10.3278C70.6258 5.05957 64.5412 2.23363 57.1759 2.1561C52.1124 2.0995 47.8343 3.38819 47.005 3.75058C45.2585 3.31866 43.3545 3.05348 41.2816 3.01964C37.4805 2.95842 34.1948 3.86348 31.4745 5.70837C30.2928 5.27092 27.2391 4.22834 23.5045 3.62999C17.048 2.59633 11.9174 3.37957 8.25611 5.9591C3.88738 9.0373 1.87051 14.5397 2.2612 22.313C2.39267 24.9282 3.89109 32.9735 6.25565 40.6782C9.36817 50.8191 12.7517 56.5599 16.3115 57.7409C16.7282 57.8791 17.2086 57.9757 17.7385 57.9757C19.0371 57.9757 20.6292 57.3936 22.2857 55.4131C24.3061 53.0026 26.3962 50.6507 28.5531 48.3602C29.9526 49.1071 31.49 49.5243 33.0623 49.5661C33.0654 49.607 33.0694 49.648 33.0731 49.6886C32.8025 50.0096 32.5374 50.3352 32.2781 50.6653C31.1887 52.0408 30.9619 52.3272 27.455 53.0452C26.4574 53.2501 23.8079 53.793 23.769 55.6401C23.7269 57.6582 26.901 58.5057 27.2626 58.5956C28.5228 58.9093 29.737 59.0641 30.8948 59.0641C33.7107 59.0641 36.1888 58.1436 38.1691 56.3627C38.1082 63.5571 38.4098 70.6462 39.2784 72.8062C39.9899 74.5744 41.7277 78.8958 47.2172 78.8955C48.0227 78.8955 48.9092 78.8023 49.8846 78.5943C55.6138 77.373 58.1017 74.8547 59.0641 69.3028C59.5791 66.3357 60.4629 59.2505 60.8786 55.45C61.7559 55.7222 62.8853 55.8468 64.1062 55.8465C66.6527 55.8465 69.5911 55.3085 71.4338 54.4578C73.5038 53.5017 77.2394 51.1557 76.5619 49.1173ZM62.9184 23.4359C62.8995 24.5578 62.7442 25.5764 62.5797 26.6396C62.4024 27.7831 62.2193 28.9653 62.1732 30.4004C62.1277 31.7971 62.3031 33.2491 62.4726 34.6535C62.8154 37.4899 63.1671 40.41 61.8057 43.2913C61.5796 42.8928 61.3781 42.4809 61.2025 42.058C61.0333 41.6501 60.6658 40.9948 60.157 40.0879C58.1775 36.5575 53.5421 28.2901 55.915 24.9165C56.6219 23.9124 58.4157 22.88 62.9184 23.4359ZM57.4605 4.42799C64.0598 4.57289 69.2802 7.02813 72.9761 11.7251C75.8109 15.3278 72.6894 31.7208 63.6528 45.8631C63.5619 45.7482 63.4705 45.6337 63.3787 45.5195L63.2642 45.3774C65.5994 41.5421 65.1428 37.7474 64.7364 34.3831C64.5693 33.0024 64.4116 31.6983 64.4518 30.4733C64.4932 29.1751 64.6658 28.0615 64.8329 26.9848C65.038 25.6579 65.2468 24.2849 65.1892 22.6665C65.2322 22.4967 65.2495 22.2961 65.227 22.058C65.08 20.506 63.2983 15.861 59.6667 11.6568C57.6801 9.35724 54.7832 6.78387 50.8277 5.04819C52.5291 4.69748 54.8556 4.37047 57.4605 4.42799ZM20.5327 53.9635C18.7076 56.1458 17.4474 55.7275 17.0329 55.5903C14.3324 54.6944 11.1988 49.0179 8.43615 40.0165C6.04561 32.2278 4.64865 24.3957 4.53791 22.1995C4.18898 15.2537 5.88197 10.413 9.57017 7.81168C15.5725 3.57861 25.4409 6.1123 29.4063 7.39729C29.3494 7.45328 29.29 7.50558 29.2337 7.56249C22.7265 14.0979 22.8809 25.2638 22.8969 25.9465C22.8963 26.2098 22.9186 26.5827 22.9489 27.0955C23.0609 28.9736 23.2694 32.469 22.7126 36.4273C22.1954 40.1057 23.3356 43.706 25.8403 46.3052C26.0973 46.5714 26.3675 46.8248 26.6498 47.0644C25.5349 48.2519 23.1119 50.8779 20.5327 53.9635ZM27.4862 44.7366C25.4675 42.6416 24.5506 39.7276 24.9704 36.7411C25.5581 32.5597 25.3413 28.9179 25.2247 26.9614C25.2083 26.6876 25.1938 26.4476 25.1854 26.2584C26.136 25.4201 30.5412 23.0729 33.6828 23.7887C35.1163 24.1151 35.9899 25.086 36.353 26.7559C38.2325 35.4014 36.6017 39.0047 35.2914 41.9005C35.0213 42.497 34.7661 43.0609 34.5484 43.6441L34.3795 44.0951C33.952 45.2352 33.5541 46.2953 33.3076 47.3019C31.1614 47.2958 29.0737 46.3839 27.4862 44.7363V44.7366ZM27.8157 56.396C27.189 56.2403 26.6254 55.9699 26.2947 55.7456C26.5709 55.6164 27.0624 55.4404 27.915 55.2657C32.0406 54.4212 32.6778 53.825 34.0692 52.0681C34.3881 51.6651 34.7497 51.2086 35.2505 50.6524L35.2512 50.6518C35.997 49.8212 36.3382 49.9621 36.9568 50.2174C37.4583 50.4235 37.9467 51.0486 38.1447 51.7365C38.2384 52.0614 38.3436 52.6779 37.9993 53.1578C35.0928 57.205 30.8574 57.153 27.8157 56.396ZM49.4069 76.3775C44.3598 77.453 42.5728 74.8919 41.3952 71.9642C40.6351 70.0741 40.2615 61.5507 40.5266 52.138C40.53 52.0128 40.512 51.8919 40.4774 51.778C40.4464 51.5533 40.3992 51.331 40.3363 51.1129C39.9422 49.7433 38.9817 48.5977 37.8295 48.1227C37.3717 47.9341 36.5315 47.588 35.5218 47.8449C35.7371 46.9626 36.1105 45.9662 36.5154 44.8873L36.6852 44.4335C36.8764 43.9219 37.1165 43.3919 37.3701 42.8308C38.7414 39.8012 40.6194 35.6515 38.5812 26.2769C37.8177 22.7655 35.2682 21.0508 31.4033 21.4492C29.0864 21.6876 26.9666 22.6173 25.9092 23.1504C25.6819 23.2648 25.474 23.3756 25.2797 23.4832C25.5749 19.9454 26.6897 13.3337 30.8601 9.15051C33.4861 6.51715 36.9831 5.21646 41.2439 5.2866C49.6393 5.4232 55.0229 9.70794 58.0612 13.2787C60.6794 16.3553 62.0971 19.4548 62.6629 21.1265C58.408 20.6961 55.5141 21.5313 54.0473 23.6171C50.8559 28.1541 55.7932 36.9598 58.1661 41.192C58.6013 41.9675 58.9768 42.6379 59.095 42.9227C59.8677 44.7852 60.8681 46.0286 61.5985 46.9362C61.8224 47.2143 62.0396 47.4841 62.2048 47.7197C60.9161 48.0892 58.6013 48.9429 58.8123 53.2101C58.6421 55.3512 57.4323 65.3758 56.8177 68.9176C56.0063 73.5968 54.275 75.3395 49.4069 76.3778V76.3775ZM70.4739 52.4016C69.1561 53.0098 66.9509 53.466 64.8561 53.5642C62.5422 53.6718 61.3643 53.3064 61.0871 53.0815C60.9572 50.4223 61.9523 50.1445 63.0056 49.8504C63.1711 49.8042 63.3326 49.759 63.4885 49.7049C63.5853 49.7833 63.6914 49.8612 63.8077 49.9375C65.6674 51.1581 68.9845 51.2898 73.6675 50.3285L73.7188 50.3183C73.0872 50.9056 72.0063 51.6937 70.4739 52.4016Z" fill="white"/>
</svg>
