<svg width="79" height="70" viewBox="0 0 79 70" fill="none" xmlns="http://www.w3.org/2000/svg">
<path d="M0 34.8743C0 40.754 5.82572 46.2429 15.0104 49.3368C13.1763 58.4367 14.6817 65.7712 19.7099 68.6292C24.8784 71.5666 32.5781 69.5333 39.8862 63.2375C47.01 69.2791 54.2098 71.6568 59.2333 68.7907C64.3967 65.8448 65.9673 58.0129 64.0825 48.6289C73.6488 45.5118 79 40.8314 79 34.8743C79 29.1309 73.1635 24.1621 64.1026 21.088C66.1317 11.3162 64.4124 4.15968 59.1761 1.18371C54.1277 -1.68531 46.8443 0.815333 39.6158 7.01512C32.0958 0.434536 24.8843 -1.5746 19.6531 1.41004C14.6096 4.28722 13.1704 11.755 15.0104 21.0234C6.13585 24.0728 0 29.1539 0 34.8743Z" fill="white"/>
<path d="M62.1839 24.141C61.4561 23.8941 60.7019 23.6605 59.9254 23.4396C60.053 22.9262 60.1702 22.4195 60.2743 21.9215C61.9839 13.7427 60.8661 7.15386 57.0491 4.98453C53.389 2.90443 47.4033 5.07326 41.358 10.2582C40.7767 10.7568 40.1937 11.2846 39.611 11.8379C39.2228 11.4718 38.8351 11.1181 38.4485 10.7798C32.1129 5.23572 25.7623 2.89938 21.9491 5.07499C18.2925 7.16112 17.2097 13.3553 18.7486 21.1063C18.8972 21.855 19.0709 22.6195 19.2673 23.3969C18.3686 23.6483 17.5009 23.9164 16.6707 24.2016C9.2428 26.7538 4.49902 30.7537 4.49902 34.9027C4.49902 39.1879 9.59147 43.4859 17.3282 46.092C17.9387 46.2977 18.5723 46.4922 19.2251 46.6768C19.0132 47.5175 18.8289 48.3414 18.6742 49.1449C17.2068 56.7615 18.3527 62.8093 21.9995 64.8822C25.7663 67.023 32.0881 64.8226 38.244 59.5195C38.7305 59.1003 39.2188 58.6557 39.7079 58.1898C40.342 58.7915 40.975 59.361 41.6047 59.8951C47.5673 64.9519 53.4564 66.9939 57.0998 64.9151C60.8629 62.7682 62.0858 56.2714 60.4981 48.367C60.3768 47.7633 60.2357 47.1466 60.0772 46.5189C60.5212 46.3895 60.957 46.256 61.382 46.1171C69.425 43.4908 74.6581 39.2451 74.6581 34.9027C74.6581 30.7387 69.7614 26.7118 62.1839 24.141Z" fill="#53C1DE"/>
<path d="M60.4392 43.3131C60.0555 43.4382 59.6619 43.5592 59.2608 43.6765C58.3729 40.9062 57.1745 37.9604 55.708 34.9169C57.1074 31.9458 58.2595 29.0377 59.1225 26.2853C59.8402 26.49 60.5368 26.7059 61.2081 26.9337C67.7005 29.1364 71.6607 32.3931 71.6607 34.9025C71.6607 37.5754 67.3838 41.0453 60.4392 43.3131ZM57.5576 48.9403C58.2597 52.4356 58.36 55.5957 57.895 58.066C57.4771 60.2858 56.6368 61.7658 55.5977 62.3585C53.3867 63.6198 48.6584 61.9803 43.5591 57.6557C42.9745 57.1599 42.3857 56.6306 41.795 56.0704C43.7719 53.9395 45.7477 51.4624 47.676 48.7113C51.0676 48.4147 54.272 47.9298 57.1779 47.2677C57.321 47.8367 57.4481 48.3947 57.5576 48.9403ZM28.4176 62.1406C26.2574 62.8924 24.5369 62.914 23.4969 62.323C21.2838 61.065 20.3638 56.2092 21.6188 49.6955C21.7625 48.9496 21.9336 48.1833 22.1308 47.4C25.0048 48.0264 28.1857 48.4771 31.5855 48.7487C33.5268 51.4407 35.5596 53.9152 37.6082 56.0818C37.1606 56.5076 36.7148 56.9131 36.2715 57.2951C33.5494 59.64 30.8216 61.3038 28.4176 62.1406ZM18.2973 43.2967C14.8763 42.1443 12.0511 40.6466 10.1145 39.0123C8.3744 37.5437 7.49585 36.0856 7.49585 34.9025C7.49585 32.3847 11.3046 29.1733 17.657 26.9905C18.4278 26.7257 19.2347 26.4761 20.072 26.2416C20.9499 29.0561 22.1016 31.9987 23.4914 34.9743C22.0836 37.9941 20.9156 40.9836 20.029 43.8311C19.4321 43.662 18.8538 43.484 18.2973 43.2967ZM21.6897 20.5388C20.3712 13.8979 21.2469 8.8882 23.4504 7.6311C25.7976 6.29192 30.9878 8.20131 36.4582 12.9883C36.8078 13.2943 37.1589 13.6146 37.5109 13.9459C35.4725 16.103 33.4582 18.5589 31.5342 21.235C28.2345 21.5364 25.076 22.0206 22.172 22.669C21.9894 21.9452 21.8277 21.234 21.6897 20.5388ZM51.9532 27.9035C51.259 26.7217 50.5463 25.5679 49.8197 24.4456C52.0582 24.7245 54.2029 25.0947 56.217 25.5477C55.6124 27.4576 54.8587 29.4545 53.9715 31.5016C53.3351 30.3109 52.662 29.1103 51.9532 27.9035ZM39.6118 16.0569C40.9943 17.5329 42.3787 19.1809 43.7404 20.9689C42.3682 20.9051 40.979 20.8718 39.5783 20.8718C38.1909 20.8718 36.812 20.9043 35.4482 20.9671C36.8113 19.1957 38.2078 17.5499 39.6118 16.0569ZM27.1914 27.9239C26.4979 29.109 25.8373 30.3031 25.2109 31.4994C24.3381 29.4594 23.5914 27.4534 22.9815 25.5165C24.9832 25.075 27.1178 24.714 29.3421 24.4404C28.6053 25.5731 27.8867 26.7354 27.1914 27.9237V27.9239ZM29.4062 45.5752C27.1081 45.3225 24.9414 44.9801 22.9402 44.5508C23.5598 42.5793 24.323 40.5305 25.2143 38.4465C25.8423 39.642 26.5055 40.8365 27.2033 42.0242H27.2034C27.9141 43.2342 28.6504 44.4194 29.4062 45.5752ZM39.6947 53.9563C38.2742 52.4458 36.8573 50.7749 35.4735 48.9776C36.8168 49.0296 38.1864 49.0562 39.5783 49.0562C41.0084 49.0562 42.422 49.0244 43.8135 48.9634C42.4473 50.793 41.0678 52.4665 39.6947 53.9563ZM54.0001 38.3403C54.9379 40.4468 55.7284 42.4849 56.356 44.4229C54.3218 44.8802 52.1255 45.2486 49.8115 45.5223C50.5398 44.3848 51.2587 43.2112 51.9652 42.0039C52.6799 40.7825 53.3585 39.5593 54.0001 38.3403ZM49.369 40.5282C48.2723 42.4023 47.1463 44.1913 46.0033 45.8801C43.9214 46.0268 41.7705 46.1023 39.5783 46.1023C37.395 46.1023 35.2713 46.0355 33.2262 45.9047C32.0371 44.1938 30.8867 42.3995 29.7969 40.5444H29.7972C28.7103 38.6943 27.71 36.8286 26.8036 34.9733C27.7098 33.1138 28.7075 31.246 29.7881 29.3993L29.7878 29.3996C30.8713 27.5479 32.0116 25.7624 33.1897 24.0622C35.2763 23.9068 37.4159 23.8256 39.5782 23.8256H39.5783C41.7504 23.8256 43.8928 23.9074 45.9787 24.0642C47.1388 25.7519 48.2714 27.5317 49.3591 29.3836C50.4592 31.2563 51.4698 33.1117 52.3836 34.9314C51.4725 36.7823 50.4642 38.6564 49.369 40.5282ZM55.5518 7.54323C57.9012 8.87848 58.8148 14.2635 57.3387 21.325C57.2446 21.7756 57.1385 22.2345 57.0234 22.6996C54.1126 22.0377 50.9519 21.5452 47.6426 21.2392C45.7148 18.5336 43.7171 16.074 41.7118 13.9445C42.251 13.4334 42.7893 12.946 43.3254 12.4861C48.5051 8.04365 53.3461 6.2897 55.5518 7.54323Z" fill="white"/>
<path d="M39.5782 28.7283C43.0382 28.7283 45.8432 31.4926 45.8432 34.9026C45.8432 38.3125 43.0382 41.0769 39.5782 41.0769C36.1182 41.0769 33.3132 38.3125 33.3132 34.9026C33.3132 31.4926 36.1182 28.7283 39.5782 28.7283Z" fill="#53C1DE"/>
</svg>
