<svg width="79" height="75" viewBox="0 0 79 75" fill="none" xmlns="http://www.w3.org/2000/svg">
<path d="M54.7387 52.3794C57.654 52.0778 59.8657 49.5643 59.7652 46.5483C59.6647 43.5322 57.1514 41.1193 54.1355 41.1193H53.9344C50.8179 41.2198 48.4052 43.8338 48.5057 46.9504C48.6063 48.4584 49.2095 49.7654 50.1142 50.6702C46.6962 57.4062 41.4686 62.3324 33.6272 66.4544C28.299 69.2694 22.7699 70.2748 17.2407 69.571C12.7168 68.9678 9.19819 66.9571 6.98651 63.6394C3.76953 58.7131 3.46794 53.3847 6.18227 48.0563C8.09235 44.2359 11.1083 41.4209 13.0184 40.0134C12.6162 38.7064 12.0131 36.4946 11.7115 34.8861C-2.86551 45.4424 -1.35754 59.7185 3.06581 66.4544C6.38333 71.4812 13.1189 74.5979 20.5582 74.5979C22.5688 74.5979 24.5794 74.3968 26.59 73.8941C39.458 71.3807 49.2095 63.7399 54.7387 52.3794ZM72.4321 39.9129C64.7917 30.9651 53.5323 26.0389 40.6643 26.0389H39.0558C38.1511 24.2292 36.241 23.0228 34.1298 23.0228H33.9288C30.8123 23.1233 28.3996 25.7373 28.5001 28.8539C28.6006 31.87 31.1139 34.2828 34.1298 34.2828H34.3309C36.5426 34.1823 38.4527 32.7748 39.2569 30.8646H41.0665C48.7068 30.8646 55.945 33.0764 62.4795 37.3995C67.5061 40.7172 71.1252 45.0402 73.1358 50.2681C74.8448 54.4906 74.7443 58.6126 72.9347 62.1314C70.1199 67.4598 65.3949 70.3753 59.162 70.3753C55.1408 70.3753 51.3206 69.1689 49.31 68.2641C48.2042 69.2694 46.1935 70.878 44.7861 71.8834C49.1089 73.8941 53.5323 75 57.7546 75C67.4055 75 74.5432 69.6716 77.2576 64.3432C80.173 58.5121 79.9719 48.4584 72.4321 39.9129ZM21.3624 54.0885C21.463 57.1046 23.9762 59.5174 26.9921 59.5174H27.1932C30.3097 59.4169 32.7224 56.8029 32.6219 53.6863C32.5213 50.6702 30.0081 48.2574 26.9921 48.2574H26.7911C26.59 48.2574 26.2884 48.2574 26.0874 48.3579C21.9656 41.5214 20.2566 34.0818 20.8598 26.0389C21.2619 20.0067 23.2725 14.7788 26.7911 10.4558C29.7065 6.73592 35.3362 4.92627 39.1564 4.82574C49.8126 4.62466 54.3365 17.8954 54.6381 23.2239C55.945 23.5255 58.1567 24.2292 59.6647 24.7319C58.4583 8.44504 48.4052 0 38.7543 0C29.7065 0 21.3624 6.53485 18.0449 16.1863C13.4205 29.055 16.4364 41.4209 22.0661 51.1729C21.5635 51.8767 21.2619 52.9826 21.3624 54.0885Z" fill="#764ABC"/>
</svg>
