<svg width="79" height="59" viewBox="0 0 79 59" fill="none" xmlns="http://www.w3.org/2000/svg">
<path d="M68.0252 33.9168C65.2691 33.9312 62.8738 34.5922 60.8681 35.5693C60.1322 34.118 59.3963 32.8247 59.2664 31.8763C59.1221 30.7698 58.9489 30.0944 59.1221 28.7724C59.2952 27.4503 60.0744 25.5679 60.06 25.4242C60.0456 25.2805 59.8869 24.6051 58.2996 24.5907C56.7123 24.5763 55.3415 24.8925 55.1828 25.3092C55.0241 25.7259 54.721 26.6744 54.519 27.6515C54.2449 29.0885 51.3445 34.2186 49.6851 36.9057C49.1512 35.8567 48.6894 34.9371 48.5884 34.2042C48.4441 33.0977 48.271 32.4223 48.4441 31.1003C48.6173 29.7783 49.3965 27.8958 49.3821 27.7521C49.3676 27.6084 49.2089 26.933 47.6217 26.9186C46.0344 26.9043 44.6636 27.2204 44.5048 27.6371C44.3461 28.0539 44.173 29.031 43.8411 29.9794C43.5092 30.9279 39.6565 39.4923 38.6464 41.7053C38.1269 42.8405 37.6796 43.7458 37.3622 44.3637C37.3622 44.3637 37.3477 44.4068 37.3044 44.4787C37.0303 45.0104 36.8716 45.2978 36.8716 45.2978C36.8716 45.2978 36.8716 45.2978 36.8716 45.3121C36.6551 45.7001 36.4242 46.0594 36.3088 46.0594C36.2222 46.0594 36.0635 45.0247 36.3377 43.6165C36.9148 40.6419 38.2857 36.0148 38.2712 35.8567C38.2712 35.7705 38.531 34.9658 37.3766 34.5491C36.2511 34.1323 35.847 34.8221 35.746 34.8221C35.645 34.8221 35.5729 35.0664 35.5729 35.0664C35.5729 35.0664 36.8283 29.8645 33.1776 29.8645C30.8977 29.8645 27.752 32.3505 26.1936 34.5922C25.2124 35.1239 23.1201 36.2591 20.8835 37.4805C20.0321 37.9547 19.1519 38.4289 18.3294 38.8744C18.2717 38.8169 18.214 38.7451 18.1563 38.6876C13.7408 33.9886 5.57363 30.6692 5.91994 24.3608C6.04981 22.0616 6.84344 16.0262 21.605 8.69759C33.7548 2.73407 43.4226 4.38662 45.0965 8.05094C47.4918 13.2816 39.9162 22.9957 27.3624 24.4039C22.5718 24.9356 20.061 23.0962 19.4261 22.4065C18.7623 21.688 18.6613 21.6449 18.416 21.7886C18.012 22.0041 18.2717 22.6508 18.416 23.0244C18.7912 24.0016 20.3352 25.7259 22.9469 26.5738C25.2557 27.321 30.8688 27.7377 37.6652 25.1224C45.2696 22.1909 51.2146 14.0432 49.4687 7.21749C47.7227 0.291189 36.1789 -1.99363 25.2557 1.87188C18.7623 4.17107 11.7207 7.79228 6.65586 12.5056C0.638688 18.1099 -0.313669 22.9813 0.0759316 25.0218C1.47561 32.2643 11.5042 36.9776 15.5157 40.4695C15.3137 40.5844 15.1261 40.685 14.9673 40.7712C12.9616 41.7628 5.3139 45.7432 3.40918 49.9536C1.24473 54.7244 3.75549 58.1445 5.4149 58.6043C10.5663 60.0269 15.862 57.4691 18.7046 53.2443C21.5473 49.0196 21.201 43.5303 19.8879 41.0155C19.8734 40.9868 19.859 40.958 19.8301 40.9293C20.3496 40.6275 20.8835 40.3114 21.403 40.0096C22.4275 39.4061 23.4375 38.8457 24.3033 38.3858C23.8127 39.7222 23.452 41.3173 23.2788 43.6165C23.0624 46.318 24.1735 49.8243 25.6309 51.2038C26.2802 51.8073 27.045 51.8217 27.5356 51.8217C29.2383 51.8217 30.003 50.4135 30.8544 48.7465C31.8933 46.706 32.8313 44.335 32.8313 44.335C32.8313 44.335 31.6625 50.744 34.837 50.744C35.9913 50.744 37.1601 49.2495 37.6796 48.4879V48.5023C37.6796 48.5023 37.7085 48.4591 37.7662 48.3586C37.8816 48.1717 37.9538 48.0568 37.9538 48.0568V48.028C38.4155 47.2233 39.4545 45.3984 40.9984 42.3663C42.9897 38.4577 44.9089 33.5719 44.9089 33.5719C44.9089 33.5719 45.082 34.7646 45.6736 36.7477C46.02 37.9116 46.7414 39.1906 47.3186 40.4264C46.8569 41.073 46.5683 41.4323 46.5683 41.4323C46.5683 41.4323 46.5683 41.4323 46.5827 41.4466C46.2076 41.9352 45.8035 42.4669 45.3562 42.9842C43.7834 44.8523 41.9075 46.9934 41.6478 47.6113C41.3448 48.3442 41.4169 48.8759 41.9941 49.307C42.4125 49.6231 43.1629 49.6662 43.9277 49.6231C45.3418 49.5225 46.3374 49.1776 46.828 48.9621C47.5928 48.6891 48.4874 48.2723 49.3244 47.6544C50.8683 46.5192 51.8063 44.8954 51.7197 42.7543C51.6764 41.576 51.2868 40.3976 50.8106 39.2911C50.9549 39.09 51.0848 38.8888 51.2291 38.6876C53.6677 35.1382 55.558 31.244 55.558 31.244C55.558 31.244 55.7311 32.4367 56.3227 34.4197C56.6113 35.4256 57.2029 36.5177 57.7224 37.5811C55.4281 39.4348 54.014 41.5903 53.509 42.9986C52.5999 45.6139 53.3069 46.7922 54.6489 47.0653C55.2549 47.1946 56.1207 46.9072 56.7556 46.6342C57.5637 46.3755 58.516 45.93 59.4251 45.269C60.9691 44.1338 62.4553 42.5531 62.3688 40.412C62.3255 39.4348 62.0657 38.4721 61.705 37.538C63.653 36.7333 66.1638 36.2878 69.3671 36.6614C76.2357 37.4662 77.5921 41.734 77.3323 43.5303C77.0726 45.3265 75.6296 46.3037 75.1534 46.6054C74.6773 46.9072 74.5185 47.0078 74.5618 47.2233C74.6195 47.5395 74.8504 47.5251 75.2544 47.4676C75.8172 47.367 78.8619 46.0163 78.9917 42.7112C79.2082 38.4864 75.1679 33.8737 68.0252 33.9168ZM15.0395 51.7068C12.7596 54.1784 9.58508 55.1124 8.21426 54.3221C6.74243 53.4742 7.31962 49.8243 10.119 47.209C11.8217 45.6139 14.015 44.1338 15.4724 43.2285C15.8043 43.0273 16.2949 42.7399 16.8865 42.3807C16.9875 42.3232 17.0452 42.2945 17.0452 42.2945C17.1606 42.2226 17.2761 42.1508 17.3915 42.0789C18.416 45.8151 17.4348 49.1058 15.0395 51.7068ZM31.6336 40.4695C30.84 42.395 29.1805 47.3239 28.1705 47.0509C27.3047 46.821 26.7708 43.0848 27.9973 39.3917C28.6178 37.538 29.9309 35.325 30.6957 34.4629C31.9366 33.0833 33.3074 32.6235 33.6393 33.1839C34.0578 33.9168 32.1242 39.2624 31.6336 40.4695ZM45.3273 46.9934C44.9955 47.1659 44.678 47.2808 44.5337 47.1946C44.4327 47.1371 44.678 46.9072 44.678 46.9072C44.678 46.9072 46.3951 45.0678 47.0733 44.2344C47.4629 43.7458 47.9247 43.171 48.4153 42.5244V42.7112C48.4153 44.9098 46.2797 46.3899 45.3273 46.9934ZM55.8899 44.5936C55.6445 44.4212 55.6878 43.8464 56.5103 42.0502C56.8278 41.346 57.5781 40.1677 58.8624 39.0325C59.0067 39.4923 59.1077 39.9378 59.0932 40.3545C59.0788 43.1279 57.0875 44.1625 55.8899 44.5936Z" fill="#CD6799"/>
</svg>
