<svg width="79" height="89" viewBox="0 0 79 89" fill="none" xmlns="http://www.w3.org/2000/svg">
<path d="M39.5 0L79 22.2463V66.7537L39.5 89L0 66.7537V22.2463L39.5 0Z" fill="white"/>
<path d="M71.9496 65.2104L40.8116 82.767V69.1135L60.2188 58.4727L71.9496 65.2104ZM74.0811 63.2959V26.6096L62.6931 33.1543V56.7511L74.0811 63.2959ZM6.93107 65.2104L38.069 82.7521V69.0987L18.6618 58.4727L6.93107 65.2104ZM4.79956 63.2959V26.6096L16.1875 33.1543V56.7511L4.79956 63.2959ZM6.12616 24.235L38.069 6.24805V19.4563L17.6035 30.6611L17.4396 30.7501L6.12616 24.235ZM72.7396 24.235L40.8116 6.24805V19.4563L61.2622 30.6759L61.4262 30.765L72.7396 24.235Z" fill="#8ED6FB"/>
<path d="M38.069 65.9968L18.9302 55.5044V34.7422L38.069 45.7392V65.9968ZM40.8117 65.9968L59.9506 55.5193V34.7422L40.8117 45.7392V65.9968ZM20.2121 32.338L39.4404 21.8159L58.6538 32.338L39.4404 43.3795L20.2121 32.338Z" fill="#1C78C0"/>
</svg>
