<svg width="25" height="25" viewBox="0 0 25 25" fill="none" xmlns="http://www.w3.org/2000/svg">
<path d="M12.5 0C15.8152 0 18.9946 1.31696 21.3388 3.66116C23.683 6.00537 25 9.18479 25 12.5C25 15.8152 23.683 18.9946 21.3388 21.3388C18.9946 23.683 15.8152 25 12.5 25C9.18479 25 6.00537 23.683 3.66116 21.3388C1.31696 18.9946 0 15.8152 0 12.5C0 9.18479 1.31696 6.00537 3.66116 3.66116C6.00537 1.31696 9.18479 0 12.5 0ZM12.5 1.31579C9.53376 1.31579 6.68902 2.49412 4.59157 4.59157C2.49412 6.68902 1.31579 9.53376 1.31579 12.5C1.31579 15.4662 2.49412 18.311 4.59157 20.4084C6.68902 22.5059 9.53376 23.6842 12.5 23.6842C15.4662 23.6842 18.311 22.5059 20.4084 20.4084C22.5059 18.311 23.6842 15.4662 23.6842 12.5C23.6842 9.53376 22.5059 6.68902 20.4084 4.59157C18.311 2.49412 15.4662 1.31579 12.5 1.31579Z" fill="#FFF4F4"/>
<path d="M5.26318 10.1408L12.7066 17.5842L20.15 10.1408L19.2198 9.21053L12.7066 15.7237L6.19345 9.21053L5.26318 10.1408Z" fill="#FFF4F4"/>
</svg>
