<svg width="30" height="30" viewBox="0 0 30 30" fill="none" xmlns="http://www.w3.org/2000/svg">
<path d="M14.7712 10.3505C12.3264 10.3505 10.3544 12.3225 10.3544 14.7673C10.3544 17.2121 12.3264 19.1841 14.7712 19.1841C17.216 19.1841 19.1879 17.2121 19.1879 14.7673C19.1879 12.3225 17.216 10.3505 14.7712 10.3505ZM14.7712 17.6388C13.1913 17.6388 11.8997 16.351 11.8997 14.7673C11.8997 13.1836 13.1874 11.8958 14.7712 11.8958C16.3549 11.8958 17.6427 13.1836 17.6427 14.7673C17.6427 16.351 16.3511 17.6388 14.7712 17.6388V17.6388ZM20.3988 10.1699C20.3988 10.7426 19.9375 11.2001 19.3686 11.2001C18.7959 11.2001 18.3384 10.7388 18.3384 10.1699C18.3384 9.60095 18.7997 9.13967 19.3686 9.13967C19.9375 9.13967 20.3988 9.60095 20.3988 10.1699ZM23.3241 11.2154C23.2587 9.83544 22.9435 8.61304 21.9326 7.60591C20.9254 6.59878 19.703 6.28357 18.323 6.21438C16.9008 6.13366 12.6378 6.13366 11.2155 6.21438C9.83931 6.27973 8.61692 6.59494 7.60594 7.60207C6.59497 8.6092 6.2836 9.83159 6.21441 11.2116C6.13369 12.6339 6.13369 16.8969 6.21441 18.3192C6.27976 19.6992 6.59497 20.9216 7.60594 21.9287C8.61692 22.9358 9.83547 23.251 11.2155 23.3202C12.6378 23.4009 16.9008 23.4009 18.323 23.3202C19.703 23.2549 20.9254 22.9397 21.9326 21.9287C22.9397 20.9216 23.2549 19.6992 23.3241 18.3192C23.4048 16.8969 23.4048 12.6377 23.3241 11.2154V11.2154ZM21.4867 19.8452C21.1868 20.5987 20.6064 21.1791 19.8491 21.4828C18.7151 21.9325 16.0243 21.8287 14.7712 21.8287C13.518 21.8287 10.8234 21.9287 9.69324 21.4828C8.93981 21.183 8.35937 20.6025 8.05569 19.8452C7.60594 18.7113 7.70973 16.0204 7.70973 14.7673C7.70973 13.5142 7.60979 10.8195 8.05569 9.68937C8.35553 8.93594 8.93597 8.35549 9.69324 8.05182C10.8272 7.60207 13.518 7.70586 14.7712 7.70586C16.0243 7.70586 18.719 7.60591 19.8491 8.05182C20.6025 8.35165 21.183 8.9321 21.4867 9.68937C21.9364 10.8233 21.8326 13.5142 21.8326 14.7673C21.8326 16.0204 21.9364 18.7151 21.4867 19.8452Z" fill="#121212"/>
<path d="M15 0C18.9782 0 22.7936 1.58035 25.6066 4.3934C28.4196 7.20644 30 11.0218 30 15C30 18.9782 28.4196 22.7936 25.6066 25.6066C22.7936 28.4196 18.9782 30 15 30C11.0218 30 7.20644 28.4196 4.3934 25.6066C1.58035 22.7936 0 18.9782 0 15C0 11.0218 1.58035 7.20644 4.3934 4.3934C7.20644 1.58035 11.0218 0 15 0V0ZM15 1.57895C11.4405 1.57895 8.02682 2.99295 5.50988 5.50988C2.99295 8.02682 1.57895 11.4405 1.57895 15C1.57895 18.5595 2.99295 21.9732 5.50988 24.4901C8.02682 27.0071 11.4405 28.4211 15 28.4211C18.5595 28.4211 21.9732 27.0071 24.4901 24.4901C27.0071 21.9732 28.4211 18.5595 28.4211 15C28.4211 11.4405 27.0071 8.02682 24.4901 5.50988C21.9732 2.99295 18.5595 1.57895 15 1.57895Z" fill="#121212"/>
</svg>
