<svg width="30" height="30" viewBox="0 0 30 30" fill="none" xmlns="http://www.w3.org/2000/svg">
<path d="M15.2381 6.15384C11.443 6.15384 7.69232 8.68389 7.69232 12.7786C7.69232 15.3826 9.15709 16.8622 10.0448 16.8622C10.411 16.8622 10.6219 15.8413 10.6219 15.5528C10.6219 15.2088 9.74522 14.4764 9.74522 13.0449C9.74522 10.071 12.0089 7.96261 14.9385 7.96261C17.4574 7.96261 19.3217 9.39408 19.3217 12.024C19.3217 13.9881 18.5338 17.6722 15.9816 17.6722C15.0605 17.6722 14.2727 17.0064 14.2727 16.0521C14.2727 14.6539 15.2492 13.3001 15.2492 11.8576C15.2492 9.40888 11.7759 9.85275 11.7759 12.8119C11.7759 13.4333 11.8536 14.1213 12.131 14.6872C11.6206 16.8844 10.5775 20.1579 10.5775 22.4216C10.5775 23.1207 10.6773 23.8087 10.7439 24.5078C10.8697 24.6484 10.8068 24.6336 10.9991 24.5633C12.8634 22.0111 12.7968 21.5117 13.6402 18.1716C14.0951 19.0371 15.2714 19.5032 16.2035 19.5032C20.1318 19.5032 21.8961 15.6748 21.8961 12.2237C21.8961 8.55073 18.7225 6.15384 15.2381 6.15384Z" fill="#121212"/>
<path d="M15 0C18.9782 0 22.7936 1.58035 25.6066 4.3934C28.4196 7.20644 30 11.0218 30 15C30 18.9782 28.4196 22.7936 25.6066 25.6066C22.7936 28.4196 18.9782 30 15 30C11.0218 30 7.20644 28.4196 4.3934 25.6066C1.58035 22.7936 0 18.9782 0 15C0 11.0218 1.58035 7.20644 4.3934 4.3934C7.20644 1.58035 11.0218 0 15 0V0ZM15 1.57895C11.4405 1.57895 8.02682 2.99295 5.50988 5.50988C2.99295 8.02682 1.57895 11.4405 1.57895 15C1.57895 18.5595 2.99295 21.9732 5.50988 24.4901C8.02682 27.0071 11.4405 28.4211 15 28.4211C18.5595 28.4211 21.9732 27.0071 24.4901 24.4901C27.0071 21.9732 28.4211 18.5595 28.4211 15C28.4211 11.4405 27.0071 8.02682 24.4901 5.50988C21.9732 2.99295 18.5595 1.57895 15 1.57895Z" fill="#121212"/>
</svg>
