<svg width="30" height="30" viewBox="0 0 30 30" fill="none" xmlns="http://www.w3.org/2000/svg">
<path d="M22.9919 10.7303C23.1103 10.3096 22.9919 10 22.4226 10H20.5385C20.0587 10 19.838 10.2659 19.7196 10.562C19.7196 10.562 18.76 13.0221 17.4038 14.6173C16.9655 15.0784 16.764 15.2264 16.5241 15.2264C16.4058 15.2264 16.2234 15.0784 16.2234 14.6577V10.7303C16.2234 10.2255 16.0891 10 15.6925 10H12.7304C12.4298 10 12.2506 10.2356 12.2506 10.4543C12.2506 10.9322 12.9288 11.0433 12.9991 12.3894V15.3106C12.9991 15.95 12.8904 16.0678 12.6505 16.0678C12.0107 16.0678 10.4562 13.5976 9.53492 10.7707C9.34939 10.2221 9.16707 10 8.68406 10H6.80001C6.26263 10 6.15387 10.2659 6.15387 10.562C6.15387 11.087 6.79361 13.6952 9.13188 17.1413C10.6897 19.4937 12.884 20.7692 14.88 20.7692C16.0795 20.7692 16.2266 20.4865 16.2266 19.9986C16.2266 17.7505 16.1179 17.5385 16.7192 17.5385C16.9975 17.5385 17.4773 17.6865 18.5969 18.8207C19.8764 20.1668 20.0875 20.7692 20.804 20.7692H22.6881C23.2254 20.7692 23.4973 20.4865 23.3406 19.9279C22.9823 18.7534 20.5609 16.337 20.4522 16.1755C20.1739 15.7986 20.2538 15.6303 20.4522 15.2937C20.4554 15.2904 22.7552 11.8846 22.9919 10.7303V10.7303Z" fill="#121212"/>
<path d="M15 0C18.9782 0 22.7936 1.58035 25.6066 4.3934C28.4196 7.20644 30 11.0218 30 15C30 18.9782 28.4196 22.7936 25.6066 25.6066C22.7936 28.4196 18.9782 30 15 30C11.0218 30 7.20644 28.4196 4.3934 25.6066C1.58035 22.7936 0 18.9782 0 15C0 11.0218 1.58035 7.20644 4.3934 4.3934C7.20644 1.58035 11.0218 0 15 0V0ZM15 1.57895C11.4405 1.57895 8.02682 2.99295 5.50988 5.50988C2.99295 8.02682 1.57895 11.4405 1.57895 15C1.57895 18.5595 2.99295 21.9732 5.50988 24.4901C8.02682 27.0071 11.4405 28.4211 15 28.4211C18.5595 28.4211 21.9732 27.0071 24.4901 24.4901C27.0071 21.9732 28.4211 18.5595 28.4211 15C28.4211 11.4405 27.0071 8.02682 24.4901 5.50988C21.9732 2.99295 18.5595 1.57895 15 1.57895Z" fill="#121212"/>
</svg>
