<svg width="402" height="416" viewBox="0 0 402 416" fill="none" xmlns="http://www.w3.org/2000/svg">
<path d="M174.877 386.933C271.458 386.933 349.753 308.638 349.753 212.056C349.753 115.475 271.458 37.1797 174.877 37.1797C78.295 37.1797 0 115.475 0 212.056C0 308.638 78.295 386.933 174.877 386.933Z" fill="#AA22C6"/>
<path d="M306.458 228.308C315.405 155.649 263.756 89.4934 191.097 80.5462C118.437 71.599 52.2823 123.248 43.3351 195.907C34.3879 268.567 86.0368 334.722 158.696 343.669C231.356 352.616 297.511 300.967 306.458 228.308Z" fill="white"/>
<path d="M196.614 304.24C247.5 292.229 279.016 241.242 267.005 190.356C254.995 139.469 204.008 107.954 153.121 119.965C102.235 131.975 70.7201 182.962 82.7303 233.848C94.7405 284.735 145.728 316.25 196.614 304.24Z" fill="#AA22C6"/>
<path d="M240.068 212.056C240.077 224.953 236.26 237.564 229.1 248.292C221.94 259.02 211.759 267.383 199.845 272.322C187.931 277.262 174.819 278.557 162.169 276.043C149.519 273.529 137.898 267.32 128.778 258.2C119.658 249.079 113.448 237.459 110.935 224.809C108.421 212.159 109.715 199.047 114.655 187.133C119.595 175.219 127.958 165.038 138.686 157.878C149.414 150.718 162.024 146.901 174.922 146.91C192.2 146.91 208.77 153.774 220.987 165.991C233.204 178.208 240.068 194.778 240.068 212.056Z" fill="white"/>
<path d="M204.954 212.054C204.954 218.005 203.188 223.822 199.881 228.77C196.574 233.717 191.874 237.572 186.375 239.847C180.877 242.122 174.827 242.715 168.991 241.551C163.155 240.387 157.796 237.517 153.591 233.306C149.387 229.095 146.526 223.732 145.37 217.894C144.215 212.056 144.817 206.007 147.101 200.512C149.384 195.017 153.247 190.323 158.199 187.023C163.151 183.724 168.971 181.967 174.922 181.977C182.891 181.989 190.53 185.163 196.16 190.803C201.791 196.442 204.954 204.085 204.954 212.054Z" fill="#AA22C6"/>
<path d="M252.728 133.981C252.728 133.981 250.186 140.126 250.325 139.941C249.034 139.162 247.653 138.542 246.213 138.093C244.574 138.093 242.936 137.969 241.316 137.724C240.295 137.426 239.339 136.94 238.497 136.291C237.989 135.968 237.157 135.044 237.897 134.813C238.636 134.582 239.283 135.506 239.699 135.691C240.328 135.764 240.964 135.764 241.593 135.691L239.976 134.998C238.717 134.577 237.509 134.019 236.372 133.334C236.002 132.965 236.048 132.179 237.065 132.364C237.934 132.568 238.784 132.846 239.606 133.196L241.731 133.981L239.467 133.057L235.864 131.532C234.755 131.07 235.032 129.823 235.864 129.869C237.124 130.285 238.345 130.811 239.514 131.44L241.685 132.364C240.846 132.012 240.028 131.611 239.236 131.163C238.867 131.163 236.557 130.054 236.28 129.361C236.002 128.668 236.28 128.344 237.111 128.483C238.117 128.708 239.094 129.049 240.022 129.5C241.502 130.256 243.049 130.875 244.642 131.348C245.289 131.348 246.028 131.348 246.028 130.47L247.183 128.391C247.183 128.391 247.923 128.76 248.338 130.655C248.708 131.902 250.418 133.196 252.728 133.981Z" fill="#F88667"/>
<path d="M322.17 158.518C322.108 156 321.139 153.59 319.441 151.731C317.743 149.871 315.43 148.688 312.929 148.399C304.613 147.152 289.135 144.749 284.468 143.779C277.954 142.254 251.433 133.43 251.433 133.43L248.569 140.406C248.569 140.406 277.399 154.914 282.574 156.023C287.749 157.132 314.408 166.649 319.536 163.646C320.426 163.14 321.149 162.385 321.617 161.474C322.084 160.563 322.277 159.536 322.17 158.518Z" fill="#49E4DB"/>
<path d="M343.284 227.954L341.575 222.918H266.68L268.251 227.954H343.284Z" fill="#110239"/>
<path d="M352.155 254.656L350.492 249.574H275.135L276.752 254.656H352.155Z" fill="#110239"/>
<path d="M332.011 201.205L330.301 196.215H255.407L256.978 201.205H332.011Z" fill="#110239"/>
<path d="M361.164 281.64L359.454 276.512H283.728L285.391 281.64H361.164Z" fill="#110239"/>
<path d="M370.268 308.947L368.558 303.727H292.417L294.034 308.947H370.268Z" fill="#110239"/>
<path d="M379.461 336.537L377.706 331.27H301.194L302.858 336.537H379.461Z" fill="#110239"/>
<path d="M388.747 364.384L386.991 359.117H310.018L311.727 364.384H388.747Z" fill="#110239"/>
<path d="M397.571 404.538C398.127 404.541 398.675 404.409 399.169 404.155C399.663 403.901 400.089 403.532 400.41 403.079C400.732 402.626 400.94 402.103 401.017 401.553C401.093 401.003 401.037 400.442 400.852 399.918L330.624 189.188C330.392 188.502 329.951 187.905 329.362 187.483C328.774 187.06 328.068 186.833 327.343 186.832H322.723L394.291 402.136C394.515 402.831 394.953 403.438 395.542 403.869C396.131 404.3 396.841 404.535 397.571 404.538Z" fill="#110239"/>
<path d="M321.155 404.547H321.524C322.08 404.547 322.628 404.414 323.122 404.16C323.617 403.906 324.044 403.539 324.369 403.088C324.694 402.637 324.907 402.115 324.99 401.566C325.074 401.016 325.026 400.455 324.851 399.927L257.58 189.244C257.351 188.565 256.917 187.973 256.337 187.551C255.758 187.129 255.062 186.897 254.346 186.887C253.786 186.878 253.233 187.003 252.733 187.254C252.233 187.505 251.801 187.873 251.474 188.327C251.147 188.781 250.935 189.308 250.856 189.861C250.777 190.415 250.833 190.98 251.019 191.507L317.967 402.237C318.201 402.9 318.631 403.477 319.201 403.889C319.77 404.302 320.452 404.531 321.155 404.547Z" fill="#110239"/>
<path d="M320.969 125.523L320.507 126.032C319.109 127.554 317.561 128.932 315.886 130.144C314.824 130.883 313.16 131.299 312.236 132.038L311.127 132.87C312.038 137.439 312.579 142.074 312.745 146.73C312.745 146.73 321.985 146.037 325.681 142.11C323.616 136.734 322.039 131.182 320.969 125.523Z" fill="#F88667"/>
<path d="M315.886 141.371C316.561 138.593 318.078 136.092 320.229 134.21C320.953 133.615 321.709 133.059 322.493 132.546C321.808 130.247 321.298 127.9 320.969 125.523L320.507 126.032C319.109 127.554 317.561 128.932 315.886 130.144C314.824 130.883 313.16 131.299 312.236 132.038L311.127 132.87C312.038 137.439 312.579 142.074 312.745 146.73C312.745 146.73 314.362 146.73 316.533 146.176C315.75 144.703 315.521 142.998 315.886 141.371Z" fill="#E45940"/>
<path d="M315.748 294.813C315.748 294.813 315.471 304.054 313.993 305.578C312.514 307.103 293.71 307.426 292.093 305.578C290.476 303.73 291.4 300.958 295.419 299.803C299.439 298.648 301.888 299.803 304.66 298.648C307.432 297.493 306.647 293.242 306.647 293.242L315.748 294.813Z" fill="#110239"/>
<path d="M362.411 294.489C362.411 294.489 363.843 303.729 362.411 305.069C360.978 306.409 341.804 307.934 340.141 306.27C338.478 304.607 339.263 301.65 343.283 300.356C347.303 299.063 349.613 299.894 352.523 298.878C355.434 297.861 353.216 293.703 353.216 293.703L362.411 294.489Z" fill="#110239"/>
<path d="M348.458 241.45C348.81 223.839 347.495 206.234 344.531 188.871C341.365 188.887 338.23 189.498 335.29 190.673C329.561 193.307 323.786 195.801 318.01 198.343C324.478 213.945 329.881 229.968 334.181 246.301C335.706 254.525 352.939 296.523 352.939 296.523L363.335 295.229C363.058 288.53 348.458 243.76 348.458 241.45Z" fill="#D0D1DE"/>
<path d="M327.114 194.404C324.064 195.882 320.969 197.037 317.873 198.192C323.686 212.173 328.7 226.472 332.889 241.022C334.321 236.402 341.39 225.914 344.116 214.271C345.93 206.469 346.229 198.391 344.994 190.477C338.826 190.528 332.736 191.866 327.114 194.404Z" fill="#ABADC4"/>
<path d="M334.876 192.985C330.856 194.371 323.464 196.358 317.873 198.344C313.992 208.139 302.488 231.333 301.887 241.821C301.241 253.372 305.26 297.264 305.26 297.264H317.18C317.18 297.264 318.289 247.873 319.953 244.732C325.451 234.244 331.549 225.973 335.015 219.459C339.1 212.25 342.06 204.46 343.793 196.358C344.255 194.094 346.196 186.563 342.361 184.16C339.219 185.038 338.295 191.876 334.876 192.985Z" fill="#D0D1DE"/>
<path d="M313.53 200.741C319.861 203.16 326.631 204.215 333.397 203.837C338.673 203.911 343.903 202.856 348.737 200.741C348.737 200.741 344.116 165.119 338.895 153.938C337.658 150.855 335.783 148.068 333.395 145.759C331.006 143.45 328.158 141.672 325.035 140.539C321.249 142.742 317.018 144.068 312.652 144.42C312.652 144.42 312.652 166.274 313.207 175.006C313.761 183.738 313.53 200.741 313.53 200.741Z" fill="#49E4DB"/>
<path d="M313.067 171.772C313.067 170.802 313.067 169.785 313.067 168.722V168.399C313.067 167.383 313.067 166.32 313.067 165.257V164.703C313.067 163.502 313.067 162.254 313.067 161.007C313.513 161.054 313.962 161.054 314.407 161.007C317.717 159.976 320.838 158.416 323.648 156.386C324.151 156.072 324.676 155.794 325.219 155.555C325.224 160.354 324.411 165.12 322.816 169.646C319.92 180.492 319.322 191.822 321.06 202.912C318.484 202.359 315.951 201.618 313.483 200.695C313.483 200.695 313.483 183.692 313.114 174.96C313.114 174.174 313.114 173.296 313.114 172.326L313.067 171.772Z" fill="#21A59B"/>
<path d="M325.911 116.656C325.911 116.656 321.845 108.201 316.671 108.57C311.496 108.94 307.846 109.772 307.107 111.851C306.321 115.256 305.223 118.581 303.826 121.784C302.44 123.91 299.206 126.682 299.529 127.652C299.853 128.622 302.671 128.946 302.856 129.315C303.438 132.156 304.435 134.896 305.813 137.447C310.767 136.829 315.371 134.568 318.888 131.025C320.274 127.975 326.373 122.2 325.911 116.656Z" fill="#F88667"/>
<path d="M314.915 117.569C314.367 117.669 313.827 117.808 313.298 117.985C312.513 117.985 311.681 118.216 310.896 118.355C309.377 118.718 307.794 118.718 306.276 118.355C303.919 117.569 304.705 115.259 303.596 113.734C303.088 112.949 301.979 112.949 301.424 112.071C300.899 111.162 300.658 110.116 300.731 109.068C300.731 106.573 303.134 106.342 305.028 105.88C306.922 105.418 307.384 104.124 308.447 102.461C311.034 98.3028 314.731 104.032 317.688 103.708C319.166 103.708 320.737 102.553 322.308 103.385C323.453 104.191 324.413 105.23 325.126 106.434C326.004 107.589 326.882 107.127 328.129 107.589C329.129 108.072 330.024 108.747 330.763 109.576C331.548 110.452 332.132 111.489 332.476 112.614C332.819 113.739 332.912 114.926 332.75 116.091C332.38 117.985 330.809 119.002 330.763 121.034C330.842 122.73 330.59 124.424 330.024 126.024C328.869 128.103 326.374 128.381 324.71 129.813C323.916 130.56 322.963 131.118 321.923 131.446C320.884 131.774 319.783 131.863 318.704 131.707C318.704 130.183 318.704 127.688 319.905 127.087C320.603 126.822 321.269 126.482 321.892 126.07C322.283 125.719 322.542 125.245 322.626 124.726C322.711 124.207 322.617 123.675 322.358 123.218C322.1 122.76 321.693 122.404 321.205 122.209C320.717 122.013 320.177 121.99 319.674 122.143C318.011 122.374 317.226 127.041 315.377 126.302C313.529 125.562 315.655 123.345 316.024 122.559C316.394 121.774 316.81 118.817 316.024 117.939C316.036 117.804 316.002 117.669 315.928 117.556C315.854 117.443 315.744 117.358 315.616 117.316C315.488 117.273 315.349 117.275 315.222 117.321C315.094 117.367 314.987 117.454 314.915 117.569Z" fill="#110239"/>
<path d="M269.73 200.738C269.269 200.704 268.806 200.704 268.344 200.738C267.298 200.885 266.231 200.758 265.249 200.369C263.659 199.561 261.903 199.134 260.12 199.121C259.242 199.121 254.068 200.461 255.5 202.586C255.605 202.763 255.745 202.916 255.912 203.035C256.079 203.154 256.269 203.238 256.47 203.279C256.978 203.048 258.503 202.54 258.503 202.54L257.117 203.095C257.117 203.095 256.516 203.418 256.378 203.649C256.239 203.88 256.378 205.035 256.979 205.174C257.579 205.312 257.764 204.896 258.18 204.665C257.81 204.943 257.025 205.127 257.533 206.236C258.041 207.345 258.457 206.698 258.965 206.56L259.52 206.329C259.15 206.501 258.795 206.702 258.457 206.929C257.949 207.345 259.011 208.777 259.982 208.685C260.952 208.593 261.968 207.761 262.292 207.853C262.692 207.876 263.093 207.876 263.493 207.853C264.708 207.913 265.917 207.659 267.004 207.114L268.945 206.283C269.967 205.722 270.927 205.056 271.81 204.296C270.839 203.002 269.546 202.633 269.73 200.738Z" fill="#F88667"/>
<path d="M271.532 207.394L267.328 199.124C277.371 192.855 286.931 185.844 295.927 178.148C303.504 170.525 311.728 155.047 317.504 153.938C323.279 152.829 329.147 156.156 325.774 164.195C322.401 172.234 305.445 182.953 301.98 186.511C292.203 194 282.04 200.97 271.532 207.394Z" fill="#49E4DB"/>
<path d="M329.145 11.3061C325.449 9.73518 313.621 3.54404 304.149 25.9985C294.909 47.3903 285.668 76.3593 285.668 76.3593C285.668 76.3593 309.232 56.9542 325.911 40.7833C343.191 23.6421 332.61 13.339 329.145 11.3061Z" fill="#AA22C6"/>
<path d="M308.955 28.2617L286.316 51.363C279.491 58.3916 273.306 66.0143 267.835 74.1409L175.43 211.871L280.171 98.4896C291.98 85.6968 301.666 71.0971 308.863 55.244L317.734 35.7928C314.298 33.9453 311.304 31.3761 308.955 28.2617Z" fill="#110239"/>
<path d="M281.696 77.932C281.696 77.932 266.449 35.4718 280.726 7.98127C295.003 -19.5093 313.576 32.8383 313.576 32.8383L281.696 77.932Z" fill="#AA22C6"/>
<path d="M281.603 77.6544C281.603 77.6544 326.697 77.6544 347.719 54.8766C368.741 32.0987 313.206 32.4221 313.206 32.4221L281.603 77.6544Z" fill="#AA22C6"/>
<path d="M247.877 134.07C247.554 134.07 247.184 134.856 246.861 134.763V133.701C246.861 132.777 243.257 132.546 242.24 132.176C239.93 130.929 240.854 129.496 241.917 129.82C242.98 130.143 244.273 130.513 244.92 130.79C245.704 130.996 246.513 131.089 247.323 131.067C248.39 131.659 249.396 132.356 250.326 133.146C251.758 133.932 249.171 134.579 247.877 134.07Z" fill="#F88667"/>
<path d="M84.8728 267.878C73.3234 271.026 62.3889 276.102 52.531 282.893C38.6702 293.197 24.0702 325.261 21.2518 347.577C18.4335 369.893 12.7044 387.635 21.2518 399.139C29.7993 410.644 57.4284 413 81.3152 415.264C105.202 417.528 137.867 411.891 144.474 403.621C151.081 395.351 150.573 332.746 138.144 309.137C125.716 285.527 102.938 267.369 84.8728 267.878Z" fill="#49E4DB"/>
<path d="M116.522 402.548C111.535 401.239 106.834 399.015 102.661 395.987C99.5243 392.911 95.7789 390.524 91.6653 388.98C87.5516 387.436 83.1606 386.77 78.7742 387.024C69.164 387.024 59.8311 387.024 51.5608 381.665C47.8481 378.902 44.9752 375.163 43.2621 370.864C41.549 366.565 41.063 361.875 41.8583 357.316C42.8774 351.423 45.2672 345.852 48.8349 341.053C51.3735 338.182 53.1317 334.706 53.9407 330.96C54.7498 327.214 54.5826 323.324 53.4551 319.661C50.895 309.602 51.0704 299.042 53.9634 289.075C55.8578 283.828 59.2667 279.261 63.7583 275.953C59.8017 277.949 56.0157 280.267 52.4387 282.884C38.5779 293.187 23.9779 325.251 21.1595 347.567C18.3412 369.883 12.6121 387.625 21.1595 399.129C29.707 410.634 57.3362 412.99 81.2229 415.254C105.11 417.518 137.775 411.881 144.382 403.611C146.145 400.463 147.171 396.956 147.385 393.354C138.837 401.67 128.211 406.429 116.522 402.548Z" fill="#21A59B"/>
<path d="M82.2869 272.54C82.2869 272.54 62.2812 267.92 59.6014 252.581C56.9217 237.241 64.8223 232.205 70.9211 235.717C77.0198 239.228 77.9901 237.287 82.2869 234.654C86.5837 232.02 92.7287 236.271 95.8243 240.753C98.9198 245.234 99.5205 239.967 106.867 239.367C114.213 238.766 116.754 245.604 112.873 254.521C108.992 263.438 105.342 272.91 82.2869 272.54Z" fill="#49E4DB"/>
<path d="M103.909 264.039C98.7338 265.379 101.783 258.68 100.952 256.37C99.6117 256.37 99.1035 258.68 98.6414 259.65C98.1539 260.694 97.3764 261.576 96.4015 262.19C95.4267 262.805 94.2956 263.126 93.1433 263.115C89.9091 263.115 89.4933 259.558 88.1072 257.432C87.5066 256.508 87.2756 256.554 86.906 257.432C86.5364 258.31 86.906 260.066 85.7509 260.99C83.718 262.699 80.2528 260.759 78.6819 259.373C77.111 257.987 76.187 255.353 74.2927 253.875C73.9898 254.245 73.7976 254.694 73.7382 255.168C73.2762 257.34 73.4148 261.498 69.8572 260.713C66.2996 259.927 64.8212 255.168 63.8971 252.673C62.6273 249.748 61.8918 246.618 61.7256 243.433C61.726 242.104 61.8186 240.776 62.0028 239.46C62.1065 238.414 62.3553 237.387 62.742 236.41C59.8775 238.905 58.1218 244.265 59.6465 252.581C61.9566 265.425 76.7414 270.831 81.0845 272.171C81.8482 272.406 82.6417 272.531 83.4408 272.541C101.645 272.541 107.281 266.257 110.839 259.142C108.737 261.051 106.41 262.696 103.909 264.039Z" fill="#00A7CC"/>
<path d="M90.6954 317.448C100.444 318.418 109.176 322.808 109.176 332.603L92.636 332.325C92.636 328.629 88.8473 327.705 86.4448 327.705C84.9663 327.705 80.1151 327.705 80.0689 330.57C80.0689 337.315 110.193 330.847 109.823 349.836C109.823 361.248 100.583 365.314 89.679 365.915L90.1872 378.02H80.2075L81.0391 365.822C70.8745 364.575 61.5416 359.631 61.6802 349.42L78.0359 349.698V350.021C78.0359 354.641 83.072 355.519 85.6132 355.565C88.1543 355.611 92.9594 355.565 93.0056 352.239C93.0056 345.262 62.9277 351.084 63.2511 332.741C63.2511 322.115 71.7062 318.234 81.7321 317.494L81.3625 305.297H91.3423L90.6954 317.448Z" fill="white"/>
<path d="M67.7331 265.43L65.9312 274.67C65.9312 274.67 71.0134 279.568 84.9204 279.568C92.4229 279.914 99.8791 278.221 106.497 274.67L105.573 266.077C93.0955 268.948 80.1051 268.726 67.7331 265.43Z" fill="#110239"/>
</svg>
