<svg width="574" height="424" viewBox="0 0 574 424" fill="none" xmlns="http://www.w3.org/2000/svg">
<path d="M107.513 423.716C79.1361 423.716 58.2365 416.562 44.8144 402.254C31.3923 387.947 24.2725 364.1 23.4549 330.715L82.9345 322.948C82.8481 330.932 83.3777 338.91 84.5186 346.812C85.1438 351.959 86.6657 356.957 89.0154 361.579C90.4772 364.467 92.6377 366.944 95.3006 368.784C97.6818 370.186 100.407 370.894 103.17 370.828C111.039 370.828 114.974 365.207 114.974 353.914C115.261 343.863 112.635 333.943 107.411 325.35C100.689 315.516 92.5628 306.719 83.2922 299.238L65.1519 283.908C58.5601 278.287 53.1947 273.228 48.9534 268.885C44.2634 263.841 39.991 258.423 36.1786 252.687C31.817 246.221 28.5699 239.07 26.572 231.531C24.4278 223.1 23.3801 214.426 23.4549 205.726C23.4549 180.96 30.9324 161.849 45.8875 148.393C60.8426 134.937 81.4356 128.123 107.667 127.953C154.712 127.953 178.405 155.853 178.746 211.654L117.886 217.684C117.886 210.223 117.886 204.602 117.631 200.821C117.449 196.921 116.953 193.042 116.149 189.221C115.766 186.119 114.406 183.22 112.266 180.943C110.245 179.317 107.703 178.481 105.112 178.593C103.015 178.662 100.984 179.335 99.2616 180.532C97.5392 181.729 96.1992 183.397 95.4028 185.338C93.28 189.465 92.1596 194.034 92.1324 198.675C92.1296 201.056 92.3347 203.432 92.7456 205.777C93.1544 208.077 93.5121 210.121 93.8698 211.909C94.293 213.978 95.0526 215.963 96.1182 217.786C97.2424 219.932 98.111 221.618 98.6731 222.896C99.6279 224.729 100.794 226.444 102.148 228.006C103.885 230.101 105.061 231.531 105.623 232.349C106.902 233.873 108.285 235.307 109.762 236.641L113.747 240.372L118.244 244.357C120.748 246.606 122.179 247.832 122.383 248.088L138.991 262.753C145.292 268.347 151.263 274.302 156.875 280.587C162.104 286.551 166.822 292.943 170.979 299.698C175.549 306.974 178.994 314.899 181.199 323.204C183.504 332.149 184.637 341.356 184.571 350.593C184.797 360.258 183.036 369.867 179.397 378.823C175.758 387.78 170.319 395.894 163.416 402.663C156.01 409.777 147.236 415.311 137.627 418.93C128.017 422.549 117.772 424.178 107.513 423.716Z" fill="#D0D1DE"/>
<path d="M215.077 419.222V132.504H349.263V179.515H285.287V243.492H333.014V292.292H285.287V372.364H349.979V419.222H215.077Z" fill="#D0D1DE"/>
<path d="M504.861 417.379C477.566 425.828 448.354 425.828 421.058 417.379C410.343 413.751 400.833 407.245 393.567 398.574C386.609 389.873 381.592 379.786 378.85 368.988C375.635 355.831 374.124 342.315 374.353 328.773V222.946C374.12 209.404 375.632 195.887 378.85 182.731C381.592 171.933 386.609 161.845 393.567 153.144C400.844 144.474 410.349 137.955 421.058 134.289C448.364 125.909 477.555 125.909 504.861 134.289C515.607 137.967 525.159 144.482 532.506 153.144C539.511 161.836 544.581 171.923 547.376 182.731C550.657 195.878 552.203 209.398 551.975 222.946V328.773C552.201 342.321 550.654 355.84 547.376 368.988C544.581 379.796 539.511 389.883 532.506 398.574C525.17 407.237 515.613 413.738 504.861 417.379ZM462.909 375.12C466.208 375.261 469.472 374.387 472.26 372.616C474.737 370.803 476.536 368.212 477.37 365.258C478.338 362.388 479.005 359.425 479.363 356.418C479.701 353.158 479.854 349.883 479.823 346.606V204.959C479.854 201.666 479.7 198.373 479.363 195.097C479.01 192.122 478.342 189.193 477.37 186.359C476.519 183.44 474.721 180.887 472.26 179.103C469.472 177.332 466.208 176.458 462.909 176.599C460.13 176.507 457.378 177.16 454.937 178.49C452.909 179.528 451.158 181.035 449.827 182.884C448.544 185.014 447.693 187.375 447.323 189.834C446.789 192.219 446.464 194.647 446.352 197.09C446.352 198.981 446.352 201.587 446.352 204.959V346.606C446.352 349.826 446.352 352.432 446.352 354.374C446.463 356.85 446.788 359.312 447.323 361.732C447.701 364.173 448.551 366.516 449.827 368.63C451.151 370.512 452.903 372.053 454.937 373.127C457.363 374.504 460.12 375.193 462.909 375.12Z" fill="#D0D1DE"/>
<path d="M298.88 49.559C298.88 49.559 306.954 78.6857 310.889 83.4379C316.033 88.0462 321.732 91.9944 327.854 95.1908L324.43 101.323C324.43 101.323 300.822 89.2632 296.734 79.4522C294.627 74.5192 293.035 69.3821 291.982 64.1224C291.318 60.4943 288.66 51.5519 289.989 47.975C290.561 47.2433 291.321 46.6813 292.189 46.3493C293.056 46.0174 293.997 45.9281 294.911 46.0909C295.826 46.2538 296.678 46.6628 297.377 47.2738C298.077 47.8849 298.596 48.6749 298.88 49.559Z" fill="#00BAD1"/>
<g style="mix-blend-mode:multiply" opacity="0.65">
<path d="M298.88 49.559C298.88 49.559 306.954 78.6857 310.889 83.4379C316.033 88.0462 321.732 91.9944 327.854 95.1908L324.43 101.323C324.43 101.323 300.822 89.2632 296.734 79.4522C294.627 74.5192 293.035 69.3821 291.982 64.1224C291.318 60.4943 288.66 51.5519 289.989 47.975C290.561 47.2433 291.321 46.6813 292.189 46.3493C293.056 46.0174 293.997 45.9281 294.911 46.0909C295.826 46.2538 296.678 46.6628 297.377 47.2738C298.077 47.8849 298.596 48.6749 298.88 49.559Z" fill="#1AA3A4"/>
</g>
<path d="M379.77 188.551L385.697 182.981C385.697 182.981 409.509 181.243 410.889 183.339C412.269 185.434 388.354 196.727 385.339 196.522C382.324 196.318 380.178 190.85 379.77 188.551Z" fill="#110239"/>
<path d="M336.132 108.076C336.132 108.076 358.666 102.302 360.506 106.032C362.345 109.763 385.698 182.988 385.698 182.988L379.77 188.558C379.77 188.558 354.732 126.727 347.476 120.238C340.219 113.748 332.81 110.58 336.132 108.076Z" fill="#F88667"/>
<path d="M336.132 108.076C336.132 108.076 358.666 102.302 360.506 106.032C362.345 109.763 385.698 182.988 385.698 182.988L379.77 188.558C379.77 188.558 354.732 126.727 347.476 120.238C340.219 113.748 332.81 110.58 336.132 108.076Z" fill="#E45940"/>
<path d="M324.532 94.3786C326.172 93.9715 327.752 93.3531 329.233 92.539C330.363 91.6966 331.763 91.2967 333.168 91.4149C334.241 91.4149 342.928 95.1451 340.577 96.7803C339.862 97.2913 337.971 96.3715 337.255 96.116C336.54 95.8605 335.109 95.1963 334.087 94.7364C335.007 94.7364 339.708 96.6781 339.197 97.8023C338.329 99.6929 333.627 97.138 332.503 96.5248C333.372 96.5248 336.285 97.7512 336.285 98.8242C336.285 99.8973 332.81 98.8242 332.043 98.8242C331.576 98.4582 331.036 98.1968 330.459 98.0578C329.729 98.0513 329.002 98.1723 328.313 98.4154C327.093 98.5944 325.854 98.5944 324.634 98.4154C323.919 98.4154 322.232 98.4155 321.875 97.9045C321.731 97.4573 321.698 96.9822 321.779 96.5195C321.859 96.0568 322.049 95.6203 322.334 95.2473C323.005 94.8214 323.751 94.5267 324.532 94.3786Z" fill="#F88667"/>
<path d="M324.532 94.3786C326.172 93.9715 327.752 93.3531 329.233 92.539C330.363 91.6966 331.763 91.2967 333.168 91.4149C334.241 91.4149 342.928 95.1451 340.577 96.7803C339.862 97.2913 337.971 96.3715 337.255 96.116C336.54 95.8605 335.109 95.1963 334.087 94.7364C335.007 94.7364 339.708 96.6781 339.197 97.8023C338.329 99.6929 333.627 97.138 332.503 96.5248C333.372 96.5248 336.285 97.7512 336.285 98.8242C336.285 99.8973 332.81 98.8242 332.043 98.8242C331.576 98.4582 331.036 98.1968 330.459 98.0578C329.729 98.0513 329.002 98.1723 328.313 98.4154C327.093 98.5944 325.854 98.5944 324.634 98.4154C323.919 98.4154 322.232 98.4155 321.875 97.9045C321.731 97.4573 321.698 96.9822 321.779 96.5195C321.859 96.0568 322.049 95.6203 322.334 95.2473C323.005 94.8214 323.751 94.5267 324.532 94.3786Z" fill="#E45940"/>
<path d="M363.52 55.6953L368.834 57.8416L350.643 101.685L345.277 98.8232L363.52 55.6953Z" fill="#110239"/>
<path d="M347.221 98.0508H312.627V103.416H347.221V98.0508Z" fill="#110239"/>
<path d="M251.408 73.0684C256.007 70.4112 256.518 67.4985 254.218 57.7386C253.295 53.3588 253.835 48.797 255.755 44.7537C257.675 40.7105 260.869 37.4092 264.847 35.357C269.599 33.4153 273.738 32.5466 276.6 27.4878C279.462 22.4289 274.045 11.6469 283.192 3.67545C289.835 -2.14987 299.39 2.50019 299.39 2.50019C301.434 1.37601 302.303 13.3332 302.405 22.3267C290.857 40.0581 294.178 63.2062 298.368 82.9816C298.467 83.4353 298.603 83.8797 298.777 84.3102C297.908 99.64 297.142 112.364 297.142 112.364C297.142 112.364 269.344 128.102 250.437 114.612C231.53 101.122 242.108 78.3316 251.408 73.0684Z" fill="#110239"/>
<path d="M333.167 184.918L340.218 188.955C340.218 188.955 348.854 211.183 347.27 213.125C345.686 215.067 327.852 195.496 327.137 192.685C326.422 189.875 331.072 185.94 333.167 184.918Z" fill="#110239"/>
<path d="M324.124 106.734C324.124 106.734 369.5 109.902 373.741 113.939C377.983 117.976 339.454 188.544 339.454 188.544L333.168 184.916C333.168 184.916 342.673 151.394 345.126 143.627C347.578 135.86 352.382 126.509 351.513 125.232C350.644 123.954 304.911 130.904 305.268 118.027C305.626 105.15 324.124 106.734 324.124 106.734Z" fill="#F88667"/>
<path d="M301.792 30.249C299.13 37.4857 298.477 45.308 299.901 52.886L284.061 49.0024C286.504 40.2678 289.596 31.7275 293.31 23.4527C296.12 19.9269 301.792 30.249 301.792 30.249Z" fill="#F88667"/>
<path d="M295.149 41.8997C294.096 41.8725 293.048 42.0556 292.067 42.4382C291.086 42.8209 290.191 43.3954 289.434 44.1282C288.678 44.861 288.075 45.7373 287.661 46.7059C287.247 47.6744 287.031 48.7158 287.024 49.769L284.061 49.0025C286.504 40.2679 289.596 31.7276 293.31 23.4528C296.12 19.7737 301.792 30.0958 301.792 30.0958C300.39 34.1626 299.481 38.3829 299.084 42.6662C297.853 42.0981 296.503 41.8352 295.149 41.8997Z" fill="#E45940"/>
<path d="M303.428 13.3271C306.307 14.5975 308.897 16.4404 311.042 18.7436C312.523 21.2474 311.042 24.6711 311.348 26.9706C311.693 29.0125 311.83 31.0841 311.757 33.1536C311.45 33.7157 309.151 33.1536 308.793 33.6646C308.435 34.1756 305.472 35.964 304.552 38.0591C303.632 40.1542 302.406 40.3586 300.26 39.2855C295.177 34.7615 291.535 28.8448 289.784 22.2694C290.049 20.764 290.619 19.3288 291.459 18.0522C292.3 16.7756 293.393 15.6848 294.672 14.8469C295.95 14.009 297.386 13.4419 298.892 13.1805C300.398 12.9191 301.942 12.969 303.428 13.3271Z" fill="#F88667"/>
<path d="M298.215 6.38162C299.537 8.96083 300.599 11.6655 301.384 14.4553C301.279 17.9915 300.181 21.4268 298.215 24.3686C296.887 25.2884 298.216 16.8059 294.741 19.2587C291.266 21.7114 294.741 26.7191 294.741 27.69C294.435 28.8637 293.784 29.9191 292.874 30.7204C291.963 31.5217 290.834 32.0324 289.631 32.1868C286.258 32.1868 280.74 15.6817 284.521 11.4915C288.234 8.05054 293.156 6.21419 298.215 6.38162Z" fill="#110239"/>
<path d="M297.654 3.00117C299.295 1.86293 301.264 1.29629 303.259 1.38864C305.254 1.48099 307.163 2.22723 308.691 3.51219C314.363 8.06003 314.159 14.9584 318.911 14.3452C318.911 14.3452 315.794 22.2657 309.049 20.375C302.304 18.4843 295.303 7.80451 297.654 3.00117Z" fill="#110239"/>
<path d="M279.154 92.7872L300.156 91.2031C300.156 91.2031 311.142 103.416 321.924 103.416H358.92C357.492 113.803 353.755 123.738 347.985 132.491C347.985 132.491 312.88 133.616 295.761 132.185C278.643 130.754 262.394 111.898 279.154 92.7872Z" fill="#AA22C6"/>
<path d="M277.162 95.2399C277.775 94.4223 278.439 93.6048 279.154 92.7872L300.156 91.2031C300.156 91.2031 310.836 103.058 321.516 103.416C308.639 104.591 284.009 107.555 277.162 95.2399Z" fill="#81199B"/>
<path d="M349.162 105.871C343.796 105.36 338.584 104.082 333.321 103.418H356.52C354.22 104.593 353.096 106.28 349.162 105.871Z" fill="#81199B"/>
<path d="M286.053 41.6914C290.253 43.3921 294.574 44.7756 298.981 45.8304C298.981 45.8304 305.777 60.8536 308.435 64.8905C311.092 68.9273 301.741 84.5127 301.178 91.2067C301.178 91.2067 295.558 96.5721 278.541 93.2506C278.541 93.2506 274.096 51.1448 286.053 41.6914Z" fill="#49E4DB"/>
<g style="mix-blend-mode:multiply" opacity="0.65">
<path d="M283.447 50.6318C285.149 50.0031 287.011 49.9581 288.741 50.5039C290.471 51.0497 291.97 52.1553 293.003 53.6466C294.792 57.3258 293.003 63.8665 293.003 67.8012C293.129 72.4179 293.642 77.0159 294.536 81.5469C295.703 85.2866 297.595 88.7595 300.106 91.7668C297.909 93.0954 291.623 95.7014 278.389 93.1464C278.389 93.1464 275.68 67.5967 280.177 51.7049C281.286 51.406 282.377 51.0478 283.447 50.6318Z" fill="#008F9C"/>
</g>
<path d="M321.211 94.3694C322.851 93.9623 324.431 93.3439 325.912 92.5298C327.058 91.6795 328.477 91.2795 329.898 91.4056C330.971 91.4056 339.607 95.1359 337.307 96.7711C336.541 97.2821 334.701 96.3622 333.935 96.1067C333.168 95.8512 331.789 95.187 330.767 94.7271C331.738 94.7271 336.388 96.6688 335.877 97.793C335.008 99.6837 330.256 97.1287 329.131 96.5155C330 96.5155 332.913 97.7419 332.913 98.815C332.913 99.8881 329.438 98.815 328.672 98.815C328.205 98.4489 327.664 98.1875 327.088 98.0485C326.373 98.0383 325.663 98.1595 324.992 98.4062C323.773 98.5844 322.533 98.5844 321.313 98.4062C320.547 98.4062 318.912 98.4062 318.554 97.8953C318.387 97.4516 318.341 96.9712 318.422 96.504C318.503 96.0368 318.707 95.5996 319.014 95.2381C319.677 94.7975 320.426 94.5015 321.211 94.3694Z" fill="#F88667"/>
<path d="M322.692 94.3777L320.853 101.378C320.853 101.378 275.323 96.2683 274.25 87.9902C273.177 79.7122 276.09 42.3074 287.076 46.2421C298.062 50.1767 287.076 77.4127 288.916 79.5077C290.755 81.6028 322.692 94.3777 322.692 94.3777Z" fill="#49E4DB"/>
<path d="M549.317 270.407H476.347C462.755 270.407 452.995 258.91 457.338 247.719C457.318 247.549 457.318 247.377 457.338 247.208C464.186 231.878 484.472 236.068 489.837 243.069C489.837 243.069 476.143 218.234 505.423 218.234C529.95 218.234 522.388 242.404 522.388 242.404C522.388 242.404 526.987 223.753 541.397 225.184C564.749 227.483 550.85 250.734 550.85 250.734C550.85 250.734 574.254 245.624 573.998 258.041C573.743 270.458 549.317 270.407 549.317 270.407Z" fill="#49E4DB"/>
<path d="M95.9126 278.328H45.8353C36.4841 278.328 29.8412 270.408 32.7539 262.743V262.386C37.5061 252.166 51.4052 254.721 55.0843 259.524C55.0843 259.524 45.682 242.508 65.7641 242.508C82.6268 242.508 77.4147 259.064 77.4147 259.064C77.4147 259.064 80.5829 246.289 90.4451 247.26C106.49 248.844 96.9346 264.787 96.9346 264.787C96.9346 264.787 112.98 261.21 112.827 269.897C112.673 278.584 95.9126 278.328 95.9126 278.328Z" fill="#49E4DB"/>
<path d="M283.754 365.198H182.475C163.517 365.198 149.925 349.153 155.955 333.619L156.261 332.852C165.817 311.85 194.024 317.522 201.484 327.129C201.484 327.129 182.424 292.586 223.15 292.586C257.285 292.586 246.758 326.158 246.758 326.158C246.758 326.158 253.145 300.251 273.228 302.244C305.676 305.412 286.36 337.758 286.36 337.758C286.36 337.758 318.91 330.451 318.604 347.978C318.297 365.505 283.754 365.198 283.754 365.198Z" fill="#49E4DB"/>
<path d="M127.952 138.774C128.175 137.08 128.294 135.373 128.31 133.664C128.296 131.955 128.177 130.249 127.952 128.555L120.083 127.328C119.844 126.131 119.52 124.953 119.112 123.802L125.346 118.692C124.07 115.534 122.349 112.575 120.236 109.903L112.776 112.765C111.958 111.845 111.089 111.027 110.221 110.21L113.082 102.749C110.389 100.669 107.434 98.9508 104.293 97.6394L99.1833 103.874C98.008 103.516 96.8838 103.158 95.6574 102.903L94.4311 95.0334C91.0411 94.5566 87.6011 94.5566 84.2112 95.0334L82.9848 102.903C81.7584 103.158 80.6342 103.516 79.4589 103.874L74.349 97.6394C71.1867 98.9391 68.2134 100.658 65.5088 102.749L68.3704 110.21C67.5017 111.027 66.633 111.845 65.8154 112.765L58.355 109.903C56.2622 112.588 54.5432 115.545 53.245 118.692L59.4791 123.802C59.0716 124.953 58.7472 126.131 58.5082 127.328L50.6389 128.555C50.4145 130.249 50.2951 131.955 50.2812 133.664C50.2969 135.373 50.4163 137.08 50.6389 138.774L58.5082 140.001C58.7604 141.195 59.0845 142.372 59.4791 143.527L53.245 148.637C54.554 151.794 56.272 154.766 58.355 157.477L65.8154 154.564C66.6152 155.466 67.4684 156.319 68.3704 157.119L65.5088 164.631C68.2243 166.706 71.1954 168.423 74.349 169.741L79.4589 163.506C80.6342 163.864 81.7584 164.222 82.9848 164.477L84.2112 172.347C87.6011 172.823 91.0411 172.823 94.4311 172.347L95.6574 164.477C96.8838 164.477 98.008 163.864 99.1833 163.506L104.293 169.741C107.424 168.41 110.377 166.693 113.082 164.631L110.221 157.119C111.123 156.319 111.976 155.466 112.776 154.564L120.236 157.477C122.337 154.779 124.057 151.804 125.346 148.637L119.112 143.527C119.507 142.372 119.831 141.195 120.083 140.001L127.952 138.774ZM89.3722 154.104C85.3296 154.104 81.3778 152.905 78.0165 150.659C74.6552 148.414 72.0354 145.221 70.4884 141.486C68.9414 137.752 68.5365 133.642 69.3252 129.677C70.1139 125.712 72.0606 122.07 74.9191 119.211C77.7777 116.353 81.4197 114.406 85.3846 113.617C89.3495 112.829 93.4593 113.234 97.1941 114.781C100.929 116.328 104.121 118.947 106.367 122.309C108.613 125.67 109.812 129.622 109.812 133.664C109.798 139.077 107.639 144.262 103.807 148.084C99.9756 151.907 94.7843 154.053 89.3722 154.053V154.104Z" fill="#49E4DB"/>
<path d="M89.3728 110.727C84.835 110.727 80.3991 112.072 76.6261 114.593C72.853 117.114 69.9122 120.698 68.1757 124.89C66.4391 129.082 65.9848 133.696 66.8701 138.146C67.7553 142.597 69.9405 146.685 73.1493 149.894C76.358 153.102 80.4461 155.288 84.8967 156.173C89.3474 157.058 93.9606 156.604 98.153 154.867C102.345 153.131 105.929 150.19 108.45 146.417C110.971 142.644 112.316 138.208 112.316 133.67C112.316 127.585 109.899 121.749 105.596 117.447C101.294 113.144 95.4579 110.727 89.3728 110.727ZM89.3728 147.927C86.5531 147.927 83.7968 147.091 81.4523 145.524C79.1078 143.958 77.2804 141.731 76.2014 139.126C75.1223 136.521 74.84 133.654 75.3901 130.889C75.9402 128.123 77.298 125.583 79.2918 123.589C81.2857 121.595 83.826 120.238 86.5915 119.687C89.3571 119.137 92.2236 119.42 94.8287 120.499C97.4337 121.578 99.6604 123.405 101.227 125.75C102.793 128.094 103.63 130.85 103.63 133.67C103.63 137.451 102.127 141.078 99.4538 143.751C96.7802 146.425 93.154 147.927 89.3728 147.927Z" fill="#110239"/>
<path d="M467.763 339.133C468.668 337.495 469.437 335.786 470.063 334.023C470.716 332.226 471.228 330.381 471.596 328.504L463.829 324.263C463.829 322.935 464.084 321.555 464.135 320.226L472.567 317.263C472.364 313.456 471.659 309.694 470.472 306.072H461.58C461.069 304.845 460.456 303.619 459.843 302.444L465.668 295.648C463.616 292.435 461.141 289.513 458.31 286.961L450.696 291.611C449.631 290.77 448.522 289.985 447.375 289.26L449.01 280.522C447.358 279.647 445.651 278.879 443.9 278.223C442.095 277.594 440.252 277.081 438.381 276.69L434.14 284.508C432.787 284.304 431.42 284.202 430.052 284.201L427.139 275.719C423.333 275.922 419.571 276.626 415.949 277.814V286.756C414.689 287.262 413.461 287.842 412.27 288.494L405.524 282.617C402.312 284.669 399.39 287.144 396.838 289.976L401.488 297.64C400.635 298.697 399.85 299.806 399.137 300.962L390.399 299.276C389.533 300.932 388.765 302.638 388.1 304.386C387.471 306.19 386.958 308.034 386.567 309.904L394.385 314.146C394.183 315.499 394.081 316.865 394.078 318.233L385.596 321.197C385.804 325.003 386.508 328.765 387.691 332.388L396.633 332.132C397.129 333.396 397.71 334.626 398.371 335.812L392.494 342.557C394.546 345.785 397.02 348.724 399.852 351.295L407.466 346.645C408.55 347.469 409.675 348.237 410.839 348.944L409.153 357.682C410.808 358.565 412.514 359.35 414.262 360.033C416.068 360.645 417.912 361.14 419.781 361.515L424.022 353.748C425.402 353.748 426.731 354.003 428.11 354.054L431.023 362.485C434.844 362.299 438.623 361.612 442.265 360.442V351.499C443.529 351.003 444.758 350.423 445.944 349.762L452.689 355.587C455.904 353.538 458.841 351.082 461.427 348.28L456.777 340.615C457.601 339.549 458.369 338.44 459.077 337.294L467.763 339.133ZM421.467 340.717C417.222 339.201 413.522 336.461 410.835 332.842C408.147 329.223 406.594 324.888 406.37 320.386C406.146 315.884 407.262 311.417 409.577 307.549C411.892 303.682 415.302 300.587 419.376 298.658C423.449 296.728 428.004 296.05 432.463 296.709C436.922 297.367 441.086 299.334 444.427 302.359C447.769 305.384 450.138 309.333 451.236 313.704C452.334 318.076 452.11 322.675 450.594 326.92C449.593 329.743 448.044 332.34 446.037 334.562C444.03 336.784 441.603 338.588 438.897 339.87C436.191 341.152 433.258 341.887 430.267 342.032C427.276 342.177 424.285 341.731 421.467 340.717Z" fill="#AA22C6"/>
<path d="M437.972 295.191C433.22 293.47 428.064 293.197 423.157 294.407C418.25 295.616 413.811 298.254 410.404 301.987C406.996 305.719 404.772 310.378 404.012 315.375C403.253 320.372 403.993 325.482 406.138 330.058C408.283 334.634 411.737 338.472 416.063 341.084C420.39 343.697 425.394 344.968 430.443 344.737C435.491 344.505 440.358 342.781 444.427 339.783C448.496 336.785 451.584 332.648 453.302 327.895C455.603 321.525 455.281 314.502 452.406 308.37C449.532 302.237 444.34 297.497 437.972 295.191ZM423.766 334.537C420.804 333.467 418.225 331.544 416.355 329.01C414.485 326.475 413.407 323.444 413.258 320.298C413.108 317.152 413.895 314.032 415.517 311.332C417.139 308.632 419.524 306.473 422.372 305.128C425.219 303.782 428.402 303.31 431.518 303.772C434.633 304.233 437.543 305.607 439.878 307.72C442.214 309.833 443.871 312.59 444.642 315.644C445.412 318.698 445.26 321.912 444.206 324.88C443.503 326.859 442.415 328.68 441.006 330.238C439.597 331.796 437.893 333.06 435.994 333.958C434.094 334.855 432.036 335.368 429.938 335.468C427.839 335.567 425.742 335.251 423.766 334.537Z" fill="#110239"/>
<path d="M46.5501 127.43H40.9292V130.7H46.5501V127.43Z" fill="#110239"/>
<path d="M35.6169 130.7H30.507V127.43H35.6169V130.7ZM25.0905 130.7H19.9806V127.43H25.0905V130.7ZM14.564 130.7H9.4541V127.43H14.564V130.7Z" fill="#110239"/>
<path d="M3.27035 131.415H0V127.43H3.98582V130.7H3.27035V131.415Z" fill="#110239"/>
<path d="M3.27035 214.72H0V210.07H3.27035V214.72ZM3.27035 205.471H0V200.821H3.27035V205.471ZM3.27035 196.222H0V191.47H3.27035V196.222ZM3.27035 186.973H0V182.323H3.27035V186.973ZM3.27035 177.724H0V173.074H3.27035V177.724ZM3.27035 168.424H0V163.825H3.27035V168.424ZM3.27035 159.175H0V154.576H3.27035V159.175ZM3.27035 149.926H0V145.48H3.27035V149.926ZM3.27035 140.677H0V136.078H3.27035V140.677Z" fill="#110239"/>
<path d="M3.98582 223.357H0V219.371H3.27035V220.035H3.98582V223.357Z" fill="#110239"/>
<path d="M78.2329 223.353H73.5829V220.031H78.2329V223.353ZM68.9839 223.353H64.3339V220.031H68.9839V223.353ZM59.6838 223.353H55.0338V220.031H59.8371L59.6838 223.353ZM50.3837 223.353H45.7848V220.031H50.3837V223.353ZM41.1348 223.353H36.4847V220.031H41.1348V223.353ZM31.8347 223.353H27.1847V220.031H31.8347V223.353ZM22.5346 223.353H17.9357V220.031H22.5346V223.353ZM13.2856 223.353H8.73779V220.031H13.3879L13.2856 223.353Z" fill="#110239"/>
<path d="M86.8671 224.068H83.5967V223.353H82.8813V220.031H86.8671V224.068Z" fill="#110239"/>
<path d="M86.868 259.788H83.5977V255.343H86.868V259.788ZM86.868 250.846H83.5977V246.4H86.868V250.846ZM86.868 241.904H83.5977V237.458H86.868V241.904ZM86.868 233.012H83.5977V228.516H86.868V233.012Z" fill="#110239"/>
<path d="M87.5834 268.26H83.5977V264.223H86.868V264.938H87.5834V268.26Z" fill="#110239"/>
<path d="M173.891 268.114H169.088V264.793H173.891V268.114ZM164.284 268.114H159.481V264.793H164.284V268.114ZM154.678 268.114H149.926V264.793H154.678V268.114ZM145.122 268.114H140.319V264.793H145.122V268.114ZM135.516 268.114H130.712V264.793H135.516V268.114ZM125.96 268.114H121.157V264.793H125.96V268.114ZM116.353 268.114H111.55V264.793H116.353V268.114ZM106.747 268.114H101.994V264.793H106.747V268.114ZM97.191 268.114H92.3877V264.793H97.191V268.114Z" fill="#110239"/>
<path d="M182.679 268.978H179.358V268.263H178.643V264.941H182.679V268.978Z" fill="#110239"/>
<path d="M182.476 337.864H179.154V332.754H182.476V337.864ZM182.476 328.002H179.154V322.892H182.476V328.002ZM182.476 318.191H179.154V313.081H182.476V318.191ZM182.476 308.329H179.154V303.219H182.476V308.329ZM182.476 298.467H179.154V293.357H182.476V298.467ZM182.476 288.656H179.154V283.546H182.476V288.656ZM182.476 278.794H179.154V273.684H182.476V278.794Z" fill="#110239"/>
<path d="M183.396 346.806H179.359V342.77H182.68V343.485H183.396V346.806Z" fill="#110239"/>
<path d="M293.309 346.806H288.761V343.484H293.309V346.806ZM284.162 346.806H279.563V343.484H284.162V346.806ZM275.016 346.806H270.417V343.484H275.016V346.806ZM265.818 346.806H261.27V343.484H265.818V346.806ZM256.671 346.806H252.072V343.484H256.671V346.806ZM247.524 346.806H242.925V343.484H247.524V346.806ZM238.326 346.806H233.574V343.484H238.122L238.326 346.806ZM229.18 346.806H224.581V343.484H229.18V346.806ZM220.033 346.806H215.434V343.484H220.033V346.806ZM210.886 346.806H206.287V343.484H210.886V346.806ZM201.688 346.806H197.14V343.484H201.688V346.806ZM192.541 346.806H187.942V343.484H192.541V346.806Z" fill="#110239"/>
<path d="M301.894 346.806H297.908V343.485H298.624V342.77H301.894V346.806Z" fill="#110239"/>
<path d="M301.894 338.121H298.624V333.42H301.894V338.121ZM301.894 328.718H298.624V324.017H301.894V328.718ZM301.894 319.367H298.624V314.666H301.894V319.367ZM301.894 309.965H298.624V305.264H301.894V309.965ZM301.894 300.614H298.624V295.913H301.894V300.614ZM301.894 291.212H298.624V286.562H301.894V291.212ZM301.894 281.86H298.624V277.159H301.894V281.86ZM301.894 272.458H298.624V267.808H301.894V272.458ZM301.894 263.107H298.624V258.406H301.894V263.107ZM301.894 253.705H298.624V249.055H301.894V253.705ZM301.894 244.354H298.624V239.652H301.894V244.354Z" fill="#110239"/>
<path d="M301.894 234.954H298.624V230.969H302.61V234.29H301.894V234.954Z" fill="#110239"/>
<path d="M423.971 234.29H419.269V230.969H423.971V234.29ZM414.619 234.29H409.969V230.969H414.619V234.29ZM405.268 234.29H400.618V230.969H405.268V234.29ZM395.968 234.29H391.267V230.969H395.968V234.29ZM386.617 234.29H381.763V230.969H386.873L386.617 234.29ZM377.266 234.29H372.616V230.969H377.266V234.29ZM367.966 234.29H363.265V230.969H367.966V234.29ZM358.615 234.29H353.965V230.969H358.615V234.29ZM349.263 234.29H344.613V230.969H349.263V234.29ZM339.963 234.29H335.262V230.969H339.963V234.29ZM330.612 234.29H325.962V230.969H330.663L330.612 234.29ZM321.261 234.29H316.611V230.969H321.261V234.29ZM311.961 234.29H307.26V230.969H311.961V234.29Z" fill="#110239"/>
<path d="M432.606 234.954H429.336V234.29H428.621V230.969H432.606V234.954Z" fill="#110239"/>
<path d="M432.862 262.345H429.591V257.899H432.862V262.345ZM432.862 253.249H429.591V248.65H432.862V253.249ZM432.862 244.102H429.591V239.555H432.862V244.102Z" fill="#110239"/>
<path d="M432.607 266.938H429.336V271.434H432.607V266.938Z" fill="#110239"/>
</svg>
