<svg width="639" height="478" viewBox="0 0 639 478" fill="none" xmlns="http://www.w3.org/2000/svg">
<path d="M134.868 355.326H116.813V456.645H134.868V355.326Z" fill="#110239"/>
<path d="M476.674 355.326H458.619V456.645H476.674V355.326Z" fill="#110239"/>
<path d="M593.314 0H0.231445V364.573H593.314V0Z" fill="#D0D1DE"/>
<path d="M564.962 24.3809H28.5874V340.125H564.962V24.3809Z" fill="white"/>
<path d="M402.156 310.473H63.8271C63.8271 310.473 65.5023 182.972 107.258 164.669C149.014 146.366 176.562 238.563 196.106 239.804C215.65 241.045 213.913 164.296 242.329 152.942C315.604 123.595 308.158 239.184 321.56 237.943C334.961 236.702 347.06 131.227 365.549 131.227C410.718 131.227 402.156 310.473 402.156 310.473Z" fill="#E4E5EC"/>
<path d="M402.156 310.473H63.8271C63.8271 310.473 72.3893 201.771 113.897 183.468C155.405 165.164 173.77 253.082 193.314 254.322C212.858 255.563 231.161 193.209 261.563 190.789C291.965 188.369 312.874 262.822 326.337 261.644C339.801 260.465 346.936 143.139 365.425 143.139C402.156 143.139 402.156 310.473 402.156 310.473Z" fill="#49E4DB"/>
<path d="M402.156 310.48H63.8271C63.8271 310.48 74.809 256.749 116.379 238.446C157.949 220.143 179.85 270.771 199.394 272.012C218.938 273.253 226.88 199.668 257.406 197.186C287.932 194.705 270.994 286.034 319.45 286.034C354.568 286.034 349.232 210.96 367.721 210.96C404.327 210.96 402.156 310.48 402.156 310.48Z" fill="#AA22C6"/>
<path d="M541.882 125.58H441.556V143.139H541.882V125.58Z" fill="#E4E5EC"/>
<path d="M541.882 164.66H441.556V182.219H541.882V164.66Z" fill="#E4E5EC"/>
<path d="M541.882 203.824H441.556V221.383H541.882V203.824Z" fill="#49E4DB"/>
<path d="M541.882 242.908H441.556V260.467H541.882V242.908Z" fill="#E4E5EC"/>
<path d="M541.882 282.059H441.556V299.617H541.882V282.059Z" fill="#AA22C6"/>
<path d="M73.0112 43.373H54.708V61.6761H73.0112V43.373Z" fill="#49E4DB"/>
<path d="M173.771 43.373H90.6934V61.6761H173.771V43.373Z" fill="#E4E5EC"/>
<path d="M73.0112 74.0918H54.708V92.395H73.0112V74.0918Z" fill="#49E4DB"/>
<path d="M173.771 74.0918H90.6934V92.395H173.771V74.0918Z" fill="#E4E5EC"/>
<path d="M73.0112 104.855H54.708V123.159H73.0112V104.855Z" fill="#49E4DB"/>
<path d="M173.771 104.855H90.6934V123.159H173.771V104.855Z" fill="#E4E5EC"/>
<path d="M541.881 43.373H281.046V68.8732H541.881V43.373Z" fill="#E4E5EC"/>
<path d="M340.732 97.6621H209.88V119.253H340.732V97.6621Z" fill="#E4E5EC"/>
<path d="M149.822 443.811H101.799V461.741H149.822V443.811Z" fill="#D0D1DE"/>
<path d="M491.687 443.811H443.665V461.741H491.687V443.811Z" fill="#D0D1DE"/>
<path d="M229.362 48.2139C235.877 48.7103 241.771 51.5023 241.771 58.079H230.852C230.852 55.5972 228.246 55.1008 226.694 55.1008C225.143 55.1008 222.413 55.1008 222.413 57.0862C222.413 61.6155 242.516 57.0862 242.578 69.4951C242.578 77.0646 236.746 79.9806 229.424 80.539L229.921 88.6048H223.282L223.654 80.4769C216.829 79.7945 210.501 76.6302 210.501 69.8053H221.855C221.855 72.7834 225.267 73.3419 227.005 73.3419C228.742 73.3419 231.844 73.3419 231.844 71.0463C231.844 66.3929 211.742 71.0463 211.68 58.6374C211.68 51.5643 217.078 48.8344 224.089 48.2139L223.592 40.0859H230.293L229.362 48.2139Z" fill="#49E4DB"/>
<path d="M271.924 58.8787L261.625 38.9004L251.388 58.8787H258.399V88.7221H264.913V58.8787H271.924Z" fill="#AA22C6"/>
<path d="M556.275 166.221C548.576 171.884 542.482 179.453 538.593 188.184C530.527 204.316 525.439 213.002 524.509 212.133C520.228 208.721 508.873 199.042 492.246 173.045C490.26 169.881 492.246 167.834 492.246 165.352C492.246 162.87 495.596 157.162 494.914 155.487C494.231 153.812 492.184 154.308 490.198 158.155C488.213 162.002 488.895 164.359 487.344 163.367C484.819 160.997 482.589 158.33 480.705 155.425C479.464 153.439 475.556 149.22 474.501 150.089C473.446 150.958 473.26 151.764 479.154 160.202C476.983 157.224 471.771 150.275 469.91 151.95C468.048 153.626 473.756 159.458 476.114 162.188C474.129 159.892 469.537 154.991 467.924 156.604C466.311 158.217 475.68 165.972 475.68 165.972C475.68 165.972 468.42 160.202 467.428 161.877C466.435 163.553 470.716 167.337 474.873 169.633C479.03 171.929 479.775 172.859 481.45 173.666C482.994 175.085 484.275 176.765 485.235 178.629C485.235 178.629 515.76 243.9 526.68 237.882C537.6 231.863 552.119 210.52 552.119 210.52C554.978 205.231 556.869 199.474 557.703 193.52C559.146 184.421 558.66 175.12 556.275 166.221Z" fill="#F88667"/>
<path d="M532.574 194.137C534.746 188.987 547.527 163.115 556.586 159.33L568.994 164.108C574.33 170.808 567.505 186.692 565.272 188.491C563.038 190.29 554.352 208.593 552.491 210.517C545.405 205.623 538.743 200.144 532.574 194.137Z" fill="#AA22C6"/>
<path d="M578.55 122.102L596.046 124.832C593.273 134.415 594.204 144.691 598.652 153.62C598.652 153.62 586.243 167.27 577.309 163.671C576.022 163.208 574.84 162.494 573.831 161.571C572.822 160.648 572.005 159.534 571.428 158.294C570.852 157.054 570.526 155.712 570.47 154.345C570.415 152.979 570.63 151.615 571.105 150.332C571.105 150.332 580.97 142.762 578.55 122.102Z" fill="#E45940"/>
<path d="M613.541 448.772C613.541 448.772 618.256 467.385 615.589 470.55C612.921 473.714 573.709 480.291 569.924 477.188C566.139 474.086 567.318 467.882 575.26 464.469C583.201 461.057 588.537 462.732 593.873 459.692C599.209 456.652 596.541 448.027 596.541 448.027L613.541 448.772Z" fill="#110239"/>
<path d="M564.838 445.598C564.838 445.598 565.768 469.051 562.604 471.657C559.44 474.263 519.731 474.821 516.443 471.222C513.155 467.624 515.078 462.35 523.144 460.551C531.21 458.751 535.553 460.551 541.385 458.007C547.217 455.463 548.768 444.854 548.768 444.854L564.838 445.598Z" fill="#110239"/>
<path d="M548.024 249.918L599.149 240.859C599.149 240.859 579.791 346.335 577.247 358.248C574.703 370.16 567.01 450.446 567.01 450.446L544.736 447.84C544.736 447.84 544.736 360.357 546.101 352.602C547.466 344.846 548.024 249.918 548.024 249.918Z" fill="#49E4DB"/>
<path d="M566.885 291.862C564.403 275.358 566.079 262.515 562.418 254.635C560.991 251.471 556.213 252.277 555.221 248.989C555.865 248.249 556.389 247.411 556.772 246.507L599.272 240.303C599.272 240.303 579.976 331.074 575.013 353.348C575.013 352.975 568.932 305.015 566.885 291.862Z" fill="#27C3BA"/>
<path d="M569.304 244.832L610.378 255.256C613.614 266.243 614.419 277.803 612.735 289.132C609.323 311.964 609.013 347.826 608.578 352.665C608.144 357.505 616.272 434.688 616.892 453.177L594.742 454.108C594.742 454.108 577.804 357.443 576.812 355.333C575.819 353.224 569.304 244.832 569.304 244.832Z" fill="#49E4DB"/>
<path d="M550.258 208.909C551.126 191.599 546.411 165.478 556.462 159.274C564.962 154.124 572.035 149.967 572.035 149.967C572.793 151.738 573.967 153.301 575.458 154.521C576.949 155.742 578.712 156.585 580.598 156.978C586.802 157.785 596.295 148.664 596.295 148.664C596.295 148.664 607.401 155.179 617.39 159.646C614.97 167.65 619.934 174.847 619.872 182.851C619.889 187.25 620.473 191.629 621.609 195.88C617.709 203.257 614.749 211.095 612.799 219.209C610.565 234.968 617.7 259.165 617.7 259.165C605.17 261.961 592.462 263.889 579.667 264.936C566.999 265.403 554.335 263.896 542.13 260.468C545.774 243.442 548.487 226.231 550.258 208.909Z" fill="#AA22C6"/>
<path d="M621.732 196.061C621.422 194.882 621.236 193.642 620.987 192.463C620.739 191.284 620.615 190.663 620.491 189.795C620.165 187.555 619.999 185.295 619.995 183.032C619.995 179.123 619.995 174.904 619.995 170.623C617.885 172.112 615.403 175.773 612.86 174.284C601.133 167.397 599.52 199.101 599.52 214.799C599.52 230.496 599.086 249.234 592.819 263.628C607.896 261.642 618.071 259.223 618.071 259.223C618.071 259.223 617.079 255.81 615.9 250.722C615.341 248.179 614.783 245.201 614.225 242.036C614.225 240.982 613.914 239.927 613.728 238.81C613.294 235.522 612.922 232.109 612.798 228.759C612.635 225.59 612.76 222.412 613.17 219.266C615.051 211.206 617.927 203.411 621.732 196.061Z" fill="#810F98"/>
<path d="M595.673 93.2562C595.673 93.2562 570.855 89.4715 567.753 92.2635C564.651 95.0555 564.403 105.107 564.527 113.607C564.651 122.107 561.052 138.425 570.731 141.465C580.41 144.505 599.644 135.26 606.345 118.322C615.217 96.7928 597.41 93.5044 595.673 93.2562Z" fill="#F88667"/>
<path d="M599.954 91.2626C599.954 91.2626 588.103 91.6349 585.994 109.504C585.063 117.569 583.078 123.712 585.56 124.146C586.128 124.262 586.714 124.259 587.281 124.138C587.849 124.017 588.385 123.78 588.857 123.442C589.328 123.104 589.725 122.673 590.023 122.175C590.32 121.677 590.512 121.123 590.585 120.548C590.585 118.19 591.268 110.621 595.983 112.73C600.698 114.84 599.147 123.96 593.129 126.628C592.817 128.164 592.99 129.759 593.624 131.193C594.257 132.626 595.32 133.828 596.666 134.632C600.4 132.127 603.592 128.898 606.054 125.135C608.516 121.373 610.198 117.155 610.998 112.73C612.735 98.7701 607.461 90.8904 599.954 91.2626Z" fill="#110239"/>
<path d="M604.669 92.8194C603.602 89.3868 601.481 86.3772 598.608 84.2169C595.735 82.0565 592.255 80.8553 588.661 80.7829C582.512 80.5947 576.434 82.1416 571.123 85.2469C565.813 88.3522 561.484 92.8903 558.632 98.3414C558.632 98.3414 562.23 104.546 575.818 105.476C582.92 105.673 589.983 104.362 596.541 101.63C598.434 100.808 600.135 99.5995 601.535 98.0824C602.934 96.5653 604.002 94.7727 604.669 92.8194Z" fill="#110239"/>
<path d="M638.607 237.63C637.801 233.597 634.016 209.896 632.713 201.086C625.019 203.63 617.946 206.298 610.005 208.407C613.649 218.99 616.47 229.839 618.443 240.856C619.311 248.86 615.651 284.288 614.596 296.696C614.596 297.689 614.596 298.496 614.596 299.178C614.227 301.788 613.249 304.275 611.742 306.438C609.943 308.671 603.986 316.054 604.979 319.219C605.972 322.383 611.183 316.551 612.859 314.565C614.534 312.58 614.968 319.219 614.534 322.817C614.1 326.416 606.84 332.434 607.647 334.854C608.453 337.274 610.377 335.35 613.169 332.186C611.866 334.109 610.873 336.033 611.618 336.529C612.362 337.025 614.348 335.971 616.333 333.861C615.278 335.474 614.596 336.963 615.278 337.336C615.961 337.708 618.381 336.157 620.242 334.109C619.311 335.536 618.629 336.963 619.311 337.398C619.994 337.832 624.833 334.357 626.446 329.27C627.749 325.175 624.647 313.573 623.53 307.678C623.218 305.896 623.346 304.064 623.902 302.343C627.067 291.919 640.903 248.86 638.607 237.63Z" fill="#F88667"/>
<path d="M610.004 216.101C619.49 214.373 628.752 211.584 637.614 207.787C635.505 192.896 630.293 172.422 622.6 164.356C620.428 162.06 616.395 158.151 613.169 159.082C608.64 160.695 602.745 166.9 602.311 178.998C602.978 187.917 604.516 196.748 606.902 205.367C607.833 207.787 608.764 212.44 610.004 216.101Z" fill="#AA22C6"/>
</svg>
