<svg width="564" height="497" viewBox="0 0 564 497" fill="none" xmlns="http://www.w3.org/2000/svg">
<path d="M480.002 354.521H83.5605V412.704H480.002V354.521Z" fill="#110239"/>
<path d="M493.329 78.1553H70.2313C56.8201 78.1553 45.9482 89.0272 45.9482 102.438V370.039C45.9482 383.45 56.8201 394.322 70.2313 394.322H493.329C506.741 394.322 517.612 383.45 517.612 370.039V102.438C517.612 89.0272 506.741 78.1553 493.329 78.1553Z" fill="#110239"/>
<path d="M495.884 99.1514H67.6738V370.16H495.884V99.1514Z" fill="#FEFEFE"/>
<path d="M0 478.795V487.437C0 492.184 5.23379 496.079 11.6241 496.079H551.999C558.389 496.079 563.623 492.184 563.623 487.437V478.795H0Z" fill="#110239"/>
<path d="M281.782 412.094H50.5145C49.7234 412.946 13.3901 445.445 2.2527 469.667C-2.49437 480.013 0.609495 485.43 9.49504 485.43H554.495C563.32 485.43 566.667 480.013 561.677 469.667C550.6 445.323 514.206 412.946 513.415 412.094H281.782Z" fill="#110239"/>
<path d="M534.35 473.076H41.4458L75.5881 422.501H500.207L534.35 473.076Z" fill="#9C9EB9"/>
<path d="M528.325 464.185L527.291 462.603H494.365L488.279 450.431H519.014L517.918 448.848H487.488L481.402 436.676H509.702L508.607 435.094H480.611L474.525 422.922H471.725L477.811 435.094H442.574L437.644 422.922H434.783L439.652 435.094H404.414L400.763 422.922H397.902L401.493 435.094H365.829L363.456 422.922H360.595L362.908 435.094H327.731L326.575 422.922H323.714L324.749 435.094H291.58V422.922H288.476V435.094H253.786L254.882 422.922H252.021L250.865 435.094H215.627L218.001 422.922H215.14L212.706 435.094H177.529L181.059 422.922H178.259L174.547 435.094H139.37L144.178 422.922H141.378L136.387 435.094H101.21L107.296 422.922H104.436L98.35 435.094H67.3116L66.2769 436.676H97.6197L91.5337 448.848H58.0001L56.9654 450.431H90.7425L84.6565 462.603H48.7492L47.6538 464.185H83.8655L79.4227 473.07H82.7092L87.0302 464.185H125.007L121.477 473.07H124.702L128.172 464.185H166.148L163.531 473.07H166.757L169.313 464.185H207.289L205.524 473.07H208.75L210.454 464.185H248.37L247.579 473.07H250.804L251.534 464.185H288.72V473.07H291.824V464.185H327.731L328.522 473.07H331.748L330.896 464.185H368.872L370.515 473.07H373.741L372.037 464.185H410.014L412.57 473.07H415.795L413.178 464.185H451.033L454.441 473.07H457.728L454.198 464.185H492.114L496.495 473.07H499.721L495.278 464.185H528.325ZM138.822 436.494H174.182L170.53 448.666H134.014L138.822 436.494ZM100.48 436.494H135.84L130.971 448.666H94.4551L100.48 436.494ZM125.433 462.603H87.6388L93.7248 450.431H130.241L125.433 462.603ZM166.452 462.603H128.476L133.284 450.431H169.8L166.452 462.603ZM207.411 462.603H169.556L173.086 450.431H209.602L207.411 462.603ZM210.089 448.726H173.573L177.103 436.555H212.462L210.089 448.726ZM248.37 462.603H210.576L212.827 450.431H249.343L248.37 462.603ZM249.648 448.726H213.132L215.445 436.555H250.804L249.648 448.726ZM288.537 462.603H251.534L252.569 450.431H288.537V462.603ZM288.537 448.726H252.63L253.665 436.555H288.476L288.537 448.726ZM291.641 436.555H325.175L326.27 448.726H291.58L291.641 436.555ZM291.641 462.663V450.491H326.392L327.427 462.663H291.641ZM478.481 436.555L484.567 448.726H448.051L443.182 436.555H478.481ZM440.139 436.555L444.947 448.726H408.431L404.78 436.555H440.139ZM328.157 436.555H363.517L365.829 448.726H329.313L328.157 436.555ZM330.591 462.663L329.435 450.491H365.951L368.264 462.663H330.591ZM366.438 436.555H401.858L405.388 448.726H368.872L366.438 436.555ZM371.55 462.663L369.177 450.491H405.692L409.222 462.663H371.55ZM412.509 462.663L408.857 450.491H445.373L450.12 462.663H412.509ZM453.467 462.663L448.599 450.491H485.115L491.201 462.663H453.467Z" fill="#D0D1DE"/>
<path d="M281.781 485.429H257.863C257.829 486.64 258.265 487.818 259.08 488.715C259.306 488.956 259.58 489.145 259.884 489.271C260.188 489.397 260.516 489.456 260.845 489.445H302.717C303.055 489.454 303.391 489.393 303.705 489.268C304.019 489.142 304.304 488.954 304.543 488.715C305.358 487.818 305.795 486.64 305.76 485.429H281.781Z" fill="#110239"/>
<path d="M495.884 99.1514H67.6738V370.16H495.884V99.1514Z" fill="#FEFEFE"/>
<path d="M289.752 237.36L251.105 254.584L202.235 205.713L67.6738 308.201V370.157H495.884V51.6768L317.017 268.216L289.752 237.36Z" fill="#49E4DB"/>
<path d="M165.843 287.39H152.15V297.736H165.843V287.39Z" fill="#FEFEFE"/>
<path d="M185.072 287.39H171.379V297.736H185.072V287.39Z" fill="#FEFEFE"/>
<path d="M204.368 287.39H190.675V297.736H204.368V287.39Z" fill="#AA22C6"/>
<path d="M223.66 287.39H209.967V297.736H223.66V287.39Z" fill="#FEFEFE"/>
<path d="M242.89 287.39H229.197V297.736H242.89V287.39Z" fill="#FEFEFE"/>
<path d="M262.185 287.39H248.492V297.736H262.185V287.39Z" fill="#AA22C6"/>
<path d="M165.843 305.102H152.15V315.448H165.843V305.102Z" fill="#FEFEFE"/>
<path d="M185.072 305.102H171.379V315.448H185.072V305.102Z" fill="#FEFEFE"/>
<path d="M204.368 305.102H190.675V315.448H204.368V305.102Z" fill="#FEFEFE"/>
<path d="M223.66 305.102H209.967V315.448H223.66V305.102Z" fill="#FEFEFE"/>
<path d="M242.89 305.102H229.197V315.448H242.89V305.102Z" fill="#AA22C6"/>
<path d="M262.185 305.102H248.492V315.448H262.185V305.102Z" fill="#FEFEFE"/>
<path d="M165.843 322.812H152.15V333.159H165.843V322.812Z" fill="#FEFEFE"/>
<path d="M185.072 322.812H171.379V333.159H185.072V322.812Z" fill="#AA22C6"/>
<path d="M204.368 322.812H190.675V333.159H204.368V322.812Z" fill="#FEFEFE"/>
<path d="M223.66 322.812H209.967V333.159H223.66V322.812Z" fill="#FEFEFE"/>
<path d="M242.89 322.812H229.197V333.159H242.89V322.812Z" fill="#FEFEFE"/>
<path d="M262.185 322.812H248.492V333.159H262.185V322.812Z" fill="#FEFEFE"/>
<path d="M165.843 340.458H152.15V350.804H165.843V340.458Z" fill="#FEFEFE"/>
<path d="M185.072 340.458H171.379V350.804H185.072V340.458Z" fill="#FEFEFE"/>
<path d="M204.368 340.458H190.675V350.804H204.368V340.458Z" fill="#AA22C6"/>
<path d="M223.66 340.458H209.967V350.804H223.66V340.458Z" fill="#FEFEFE"/>
<path d="M294.377 258.118L292.977 256.779L291.273 257.449L290.178 254.771L293.586 253.371L296.264 256.049L294.377 258.118Z" fill="white"/>
<path d="M263.218 269.253L262.123 266.575L266.809 264.627L267.904 267.305L263.218 269.253ZM272.59 265.297L271.495 262.619L276.181 260.671L277.277 263.349L272.59 265.297ZM281.963 261.402L280.868 258.724L285.493 256.776L286.588 259.454L281.963 261.402Z" fill="white"/>
<path d="M255.124 272.659L252.325 270.164L254.09 267.973L255.611 269.312L257.437 268.52L258.532 271.259L255.124 272.659Z" fill="white"/>
<path d="M248.186 266.577L244.047 262.926L245.812 260.735L249.951 264.386L248.186 266.577ZM239.848 259.335L235.71 255.744L237.536 253.492L241.674 257.144L239.848 259.335ZM231.571 252.093L227.433 248.502L229.259 246.25L233.397 249.902L231.571 252.093ZM223.294 244.85L219.156 241.259L220.982 239.069L225.12 242.659L223.294 244.85ZM215.017 237.608L210.879 234.017L212.705 231.826L216.843 235.417L215.017 237.608Z" fill="white"/>
<path d="M206.678 230.364L205.339 229.207L203.94 230.181L202.296 227.807L205.522 225.556L208.504 228.173L206.678 230.364Z" fill="white"/>
<path d="M77.351 319.159L75.647 316.663L80.6375 313.194L82.3416 315.629L77.351 319.159ZM87.2712 312.16L85.6279 309.664L90.5575 306.196L92.2616 308.63L87.2712 312.16ZM97.1912 305.161L95.5481 302.726L100.478 299.257L102.121 301.692L97.1912 305.161ZM107.051 298.223L105.407 295.788L110.215 292.38L111.858 294.815L107.051 298.223ZM116.91 291.346L115.267 288.911L120.196 285.442L121.84 287.877L116.91 291.346ZM126.708 284.408L125.065 281.973L129.934 278.565L131.638 281L126.708 284.408ZM136.507 277.591L134.864 275.157L139.732 271.749L141.376 274.122L136.507 277.591ZM146.244 270.714L144.601 268.28L149.47 264.933L151.113 267.306L146.244 270.714ZM155.921 263.898L154.278 261.524L159.147 258.116L160.79 260.551L155.921 263.898ZM165.598 257.142L163.955 254.708L168.763 251.361L170.406 253.734L165.598 257.142ZM175.214 250.387L173.571 247.953L178.378 244.605L180.022 246.979L175.214 250.387ZM184.83 243.632L183.186 241.197L187.994 237.85L189.637 240.284L184.83 243.632ZM194.384 236.876L192.741 234.503L197.549 231.155L199.192 233.529L194.384 236.876Z" fill="white"/>
<path d="M327.607 276.986L325.538 275.038L329.19 270.778L331.259 272.726L327.607 276.986ZM334.971 268.465L332.841 266.518L336.493 262.258L338.623 264.205L334.971 268.465ZM342.275 259.945L340.144 257.998L343.796 253.737L345.926 255.685L342.275 259.945ZM349.517 251.425L347.569 249.781L351.221 245.582L353.29 247.53L349.517 251.425ZM356.82 242.965L354.69 241.018L358.341 236.818L360.411 238.766L356.82 242.965ZM364.002 234.566L361.932 232.619L365.584 228.42L367.653 230.367L364.002 234.566ZM371.244 226.168L369.175 224.22L372.765 220.021L374.835 221.968L371.244 226.168ZM378.425 217.769L376.356 215.882L379.947 211.683L382.016 213.631L378.425 217.769ZM385.546 209.431L383.477 207.545L387.067 203.345L389.137 205.293L385.546 209.431ZM392.727 201.154L390.658 199.207L394.188 195.068L396.257 197.016L392.727 201.154ZM399.787 192.877L397.779 190.93L401.309 186.791L403.378 188.739L399.787 192.877ZM406.908 184.6L404.839 182.714L408.368 178.575L410.438 180.462L406.908 184.6ZM413.967 176.384L411.898 174.498L415.428 170.359L417.497 172.307L413.967 176.384ZM420.966 168.168L418.958 166.282L422.427 162.204L424.496 164.091L420.966 168.168ZM428.026 160.013L425.957 158.126L429.426 154.049L431.495 155.935L428.026 160.013ZM434.964 151.858L432.956 149.971L436.425 145.894L438.494 147.841L434.964 151.858ZM441.963 143.763L439.894 141.877L443.363 137.799L445.432 139.747L441.963 143.763ZM448.901 135.669L446.832 133.782L450.301 129.766L452.37 131.652L448.901 135.669ZM455.778 127.636L453.77 125.749L457.117 121.976L459.125 123.862L455.778 127.636ZM462.716 119.602L460.647 117.715L464.116 113.699L466.124 115.585L462.716 119.602ZM469.289 111.629L467.281 109.743L470.689 105.726L472.758 107.613L469.289 111.629ZM476.166 103.657L474.158 101.77L477.566 97.7534L479.574 99.6401L476.166 103.657ZM482.557 96.0493L480.487 94.1627L483.895 90.2068L485.965 92.0934L482.557 96.0493ZM488.642 88.5027L486.634 86.6161L490.042 82.6602L492.051 84.5468L488.642 88.5027Z" fill="white"/>
<path d="M321.156 284.53L318.052 281.426L319.939 279.357L320.974 280.331L321.826 279.296L323.956 281.243L321.156 284.53Z" fill="white"/>
<path d="M313.306 276.803L308.559 272.116L310.507 270.047L315.193 274.734L313.306 276.803ZM303.812 267.43L299.126 262.805L301.013 260.675L305.76 265.361L303.812 267.43Z" fill="white"/>
<path d="M484.504 20.0938L317.566 231.521L290.605 198.961L251.046 217.706L200.837 164.088L67.6143 272.48V285.504L200.289 177.66L249.768 230.426L289.083 211.802L317.627 246.31L490.834 26.7275C488.602 24.6362 486.489 22.4215 484.504 20.0938Z" fill="#AA22C6"/>
<path d="M510.369 0.920898L470.992 14.2492L497.04 40.2973L510.369 0.920898Z" fill="#AA22C6"/>
<path d="M119.223 133.658C128.109 134.327 136.264 138.1 136.264 146.986H121.475C121.475 143.639 117.884 142.908 115.754 142.908C113.624 142.908 109.668 142.908 109.668 145.708C109.668 151.794 136.994 145.282 137.116 162.505C137.116 172.851 129.083 176.746 118.858 177.538L119.588 188.492H110.52L111.007 177.416C101.756 176.503 93.1751 172.243 93.1143 162.931H107.964V163.235C107.964 167.313 112.65 168.104 114.963 168.104C117.276 168.104 121.597 168.104 121.597 164.939C121.597 158.853 94.2705 164.513 94.1488 147.838C94.1488 138.222 101.513 134.51 110.764 133.658L110.155 122.581H119.162L119.223 133.658Z" fill="#AA22C6"/>
<path d="M345.439 431.811C345.439 431.811 346.048 443.983 344.283 445.627C342.518 447.27 318.661 450.069 316.47 448C314.279 445.931 315.131 442.218 320.182 440.393C325.234 438.567 328.338 439.662 331.685 437.958C335.032 436.254 333.693 430.898 333.693 430.898L345.439 431.811Z" fill="#110239"/>
<path d="M423.704 431.811C423.704 431.811 423.096 443.983 424.861 445.627C426.626 447.27 450.483 450.069 452.735 448C454.986 445.931 454.013 442.218 449.022 440.393C444.032 438.567 440.806 439.662 437.459 437.958C434.111 436.254 435.45 430.898 435.45 430.898L423.704 431.811Z" fill="#110239"/>
<path d="M425.044 362.063C419.039 341.169 411.762 320.662 403.256 300.656C401.187 299.925 398.874 299.256 396.562 298.586C397.17 295.787 397.596 293.352 398.022 291.283C393.945 292.379 389.624 292.866 385.303 294.265L383.355 294.874L381.408 294.265C377.026 292.866 372.705 292.379 368.688 291.283C369.114 293.352 369.54 295.787 370.148 298.586C367.836 299.256 365.523 299.925 363.454 300.656C354.886 320.658 347.549 341.165 341.483 362.063C337.893 380.321 331.868 434.121 331.868 434.121L347.204 436.13C347.204 436.13 362.663 363.767 364.854 359.751C368.81 352.569 372.948 346.179 376.66 340.58C377.369 339.5 378.336 338.613 379.473 338C380.609 337.386 381.881 337.065 383.173 337.065C384.464 337.065 385.736 337.386 386.872 338C388.009 338.613 388.976 339.5 389.685 340.58C393.397 346.179 397.535 352.752 401.491 359.751C403.682 363.767 419.08 436.13 419.08 436.13L434.477 434.121C434.477 434.121 428.635 380.26 425.044 362.063Z" fill="#AA22C6"/>
<path d="M429.244 138.103C428.331 132.017 427.418 130.921 425.349 129.704C424.327 129.227 423.415 128.543 422.671 127.696C421.824 126.753 420.887 125.897 419.871 125.14C418.801 124.477 417.936 123.528 417.376 122.401C416.889 120.879 418.837 121.305 420.115 121.731C421.393 122.157 424.071 126.052 425.531 125.505C426.992 124.957 423.584 120.575 422.914 119.419C421.21 117.349 419.263 117.593 416.828 116.68C414.394 115.767 415.185 115.463 416.524 114.672C417.06 114.433 417.641 114.31 418.228 114.31C418.815 114.31 419.396 114.433 419.932 114.672C422.248 115.33 424.348 116.59 426.018 118.323C424.572 116.66 422.815 115.296 420.845 114.307C419.75 113.759 414.759 112.176 415.368 110.351C416.828 106.699 426.809 113.576 427.905 115.524C426.529 113.804 424.86 112.341 422.975 111.203C421.941 110.411 419.324 108.768 421.515 107.916C424.679 106.577 428.574 112.542 430.765 114.854C429.738 113.044 428.491 111.368 427.053 109.864C425.288 107.734 427.479 107.186 429.67 109.073C430.66 110.033 431.595 111.049 432.469 112.116C435.262 115.762 436.741 120.243 436.669 124.835C436.669 126.783 436.973 129.887 437.582 135.486C438.008 139.259 431.922 137.616 429.244 138.103Z" fill="#F88667"/>
<path d="M279.773 225.435C273.687 223.244 273.139 220.87 272.409 218.558C272.144 217.481 271.668 216.468 271.009 215.576C270.274 214.545 269.641 213.444 269.122 212.289C268.694 211.088 267.934 210.033 266.931 209.246C265.592 208.455 265.532 210.463 265.714 211.802C265.897 213.141 269.061 216.61 268.27 217.888C267.479 219.166 263.828 214.906 263.158 214.054C261.515 211.985 262.184 210.159 261.698 207.968C261.698 206.629 260.906 206.081 259.811 207.238C259.509 207.734 259.31 208.287 259.226 208.862C259.143 209.437 259.176 210.023 259.324 210.585C259.539 212.934 260.333 215.192 261.637 217.158C260.31 215.335 259.358 213.266 258.837 211.072C258.533 209.916 258.107 204.56 256.159 204.986C252.264 205.655 256.889 217.158 258.533 218.375C257.142 216.642 256.052 214.687 255.307 212.593C254.82 211.437 253.725 208.577 252.447 210.463C250.499 213.324 255.429 218.375 257.255 220.992C255.68 219.632 254.307 218.054 253.177 216.306C251.473 214.115 250.438 216.306 251.838 218.679C252.552 219.867 253.345 221.006 254.212 222.088C257.164 225.595 261.219 227.998 265.714 228.904C269.113 229.818 272.416 231.061 275.574 232.616C278.495 233.773 278.677 227.808 279.773 225.435Z" fill="#F88667"/>
<path d="M390.904 213.568C387.597 214.212 384.215 214.376 380.862 214.055C379.655 213.988 378.466 213.741 377.332 213.324C377.943 219.43 376.979 225.59 374.532 231.217C374.532 231.217 375.567 235.903 384.148 236.025C392.729 236.147 393.764 231.217 393.764 231.217C391.597 225.596 390.623 219.586 390.904 213.568Z" fill="#F88667"/>
<path d="M423.826 237.242C417.892 231.955 410.707 228.268 402.951 226.531C390.85 224.669 378.536 224.669 366.435 226.531C360.214 226.883 354.22 228.994 349.151 232.617C346.23 236.329 355.237 256.961 356.454 276.436C357.671 292.321 359.802 304.614 359.802 304.614C364.609 313.439 402.403 313.682 406.968 304.614C406.968 304.614 407.82 291.042 410.437 276.193C413.602 257.083 426.686 241.016 423.826 237.242Z" fill="#E5E6ED"/>
<path d="M363.576 271.993C364.673 265.67 364.673 259.206 363.576 252.883C360.899 246.127 354.752 243.571 349.092 240.711C352.208 252.541 354.587 264.554 356.212 276.679C357.43 292.564 359.56 304.857 359.56 304.857C360.967 306.782 362.983 308.176 365.281 308.813C359.742 298.467 363.09 282.096 363.576 271.993Z" fill="#ABADC4"/>
<path d="M402.344 190.321C402.344 190.321 384.573 179.853 381.896 182.47C379.218 185.087 375.018 193.729 372.949 195.068C370.88 196.407 367.776 197.624 368.019 199.206C368.263 200.789 369.358 200.91 369.237 202.493C369.115 204.075 365.585 211.622 367.533 213.813C369.48 216.004 382.382 220.994 390.112 215.821C397.841 210.648 411.169 195.007 402.344 190.321Z" fill="#F88667"/>
<path d="M406.362 194.151H391.39C389.427 198.916 386.286 203.104 382.261 206.323C382.261 206.323 382.565 208.514 384.209 208.088C384.947 207.985 385.655 207.725 386.284 207.326C386.914 206.927 387.451 206.398 387.86 205.775C388.895 204.071 392.12 199.689 394.311 203.523C396.502 207.357 391.816 208.696 389.869 208.636C389.869 208.636 383.052 216.913 388.347 218.434C394.262 216.566 399.464 212.935 403.258 208.027C412.204 198.655 410.378 193.36 406.362 194.151Z" fill="#110239"/>
<path d="M378.001 176.748C378.001 176.748 370.759 181.13 379.158 189.955C387.556 198.779 407.336 194.154 407.336 194.154C407.336 194.154 409.405 188.372 402.284 182.347C400.324 180.163 397.791 178.572 394.973 177.755C392.155 176.937 389.164 176.926 386.339 177.722C378.488 181.313 378.001 176.748 378.001 176.748Z" fill="#110239"/>
<path d="M277.825 222.453L271.739 232.556C282.663 242.84 294.385 252.242 306.794 260.673C317.749 267.915 355.178 256.352 360.96 254.587C369.237 252.153 375.444 234.625 361.629 228.113C353.596 224.34 321.157 248.927 313.246 244.789C303.082 239.555 277.825 222.453 277.825 222.453Z" fill="#E5E6ED"/>
<path d="M426.687 135.485L439.285 133.416C439.285 133.416 447.623 169.932 447.136 182.895C446.649 195.858 425.774 243.755 421.027 247.346C415.306 251.788 399.483 238.886 410.985 224.949C422.488 211.012 429.852 182.347 430.156 181.13C430.461 179.913 426.687 135.485 426.687 135.485Z" fill="#E5E6ED"/>
<path d="M267.601 114.73H165.965V123.859H267.601V114.73Z" fill="#D0D1DE"/>
<path d="M267.601 129.214H165.965V138.343H267.601V129.214Z" fill="#D0D1DE"/>
<path d="M242.892 143.639H165.965V152.768H242.892V143.639Z" fill="#D0D1DE"/>
</svg>
