<svg viewBox="0 0 560 462" fill="none" xmlns="http://www.w3.org/2000/svg">
<path d="M182.607 386.788C281.094 386.788 360.933 306.949 360.933 208.463C360.933 109.976 281.094 30.1367 182.607 30.1367C84.1205 30.1367 4.28125 109.976 4.28125 208.463C4.28125 306.949 84.1205 386.788 182.607 386.788Z" fill="#81199B"/>
<path d="M330.813 243.14C349.923 161.344 299.105 79.5431 217.309 60.4332C135.512 41.3233 53.7114 92.1408 34.6015 173.937C15.4916 255.734 66.3092 337.535 148.106 356.645C229.902 375.754 311.703 324.937 330.813 243.14Z" fill="#110239"/>
<path d="M182.799 84.2227H182.734C181.093 84.2227 179.762 85.5535 179.762 87.1949V209.245C179.762 210.886 181.093 212.217 182.734 212.217H182.799C184.44 212.217 185.771 210.886 185.771 209.245V87.1949C185.771 85.5535 184.44 84.2227 182.799 84.2227Z" fill="#FEFEFE"/>
<path d="M185.384 210.918C185.003 211.599 184.369 212.103 183.619 212.32C182.87 212.538 182.065 212.452 181.378 212.081L109.014 173.314C108.322 172.944 107.804 172.315 107.574 171.565C107.344 170.814 107.421 170.003 107.786 169.308C108.157 168.616 108.786 168.099 109.536 167.869C110.287 167.639 111.098 167.715 111.792 168.081L184.156 206.847C184.507 207.031 184.818 207.282 185.071 207.587C185.324 207.892 185.513 208.245 185.627 208.624C185.741 209.003 185.779 209.402 185.737 209.796C185.695 210.189 185.575 210.571 185.384 210.918Z" fill="#FEFEFE"/>
<path d="M559.158 214.73H234.489V415.67H559.158V214.73Z" fill="#D0D1DE"/>
<path d="M396.791 324.117L559.158 223.647V214.73H234.489V223.647L396.791 324.117Z" fill="#110239"/>
<path d="M396.791 315.2L234.489 214.73H559.158L396.791 315.2Z" fill="#D0D1DE"/>
<g style="mix-blend-mode:multiply" opacity="0.32">
<path d="M234.489 415.663H518.712V255.17V246.254H234.489V415.663Z" fill="#B1B3C8"/>
</g>
<path d="M503.011 260.289H178.342V461.229H503.011V260.289Z" fill="#D0D1DE"/>
<path d="M340.709 369.675L503.011 269.205V260.289H178.342V269.205L340.709 369.675Z" fill="#110239"/>
<path d="M340.709 360.759L178.342 260.289H503.011L340.709 360.759Z" fill="#D0D1DE"/>
<path d="M412.168 38.2871L423.798 37.4472L435.428 36.6719C435.428 36.6719 440.984 68.1374 447.316 71.4325C447.316 71.4325 457.46 108.39 428.902 110.199C394.335 112.59 405.19 74.2107 405.19 74.2107C411.07 70.2049 412.168 38.2871 412.168 38.2871Z" fill="#E45940"/>
<path d="M480.399 214.858L492.998 146.37C491.254 115.486 487.054 85.0547 487.054 85.0547C474.539 78.6639 461.183 74.0743 447.383 71.4219C441.614 76.2007 434.495 79.0562 427.022 79.5891C419.55 80.122 412.098 78.3056 405.709 74.3939C391.672 78.8877 378.371 85.4184 366.232 93.7772C365.282 106.73 365.933 119.75 368.17 132.544C371.117 150.339 375.438 167.879 381.092 185.008L391.042 214.858H480.399Z" fill="#01C7E2"/>
<path d="M480.397 214.849L492.996 146.362C492.609 139.901 492.544 133.44 492.609 127.689C474.776 154.503 453.842 180.799 419.922 172.206C399.052 166.973 384.967 141.387 369.719 128.206L366.424 125.363C366.941 128.077 367.458 130.92 367.974 133.827C370.92 151.242 375.241 168.396 380.897 185.128L390.847 214.849H480.397Z" fill="#00BAD1"/>
<path d="M394.013 45.523C396.985 41.5817 401.25 46.9444 401.25 46.9444C401.25 46.9444 394.465 26.3982 399.117 16.8358C403.769 7.27336 421.408 10.8917 421.408 10.8917C421.408 10.8917 438.336 4.81821 444.28 13.6699C450.225 22.5216 446.412 43.7786 446.412 43.7786C446.412 43.7786 449.902 37.8988 453.391 41.3878C456.88 44.8768 448.932 54.827 446.929 56.0546C446.929 56.0546 436.139 80.1544 426.125 80.8651C416.11 81.5758 402.09 59.2204 402.09 59.2204C400.28 58.4451 391.041 49.7227 394.013 45.523Z" fill="#F88667"/>
<path d="M426.318 19.1424C426.318 19.1424 439.563 20.4992 441.501 27.4126C442.147 30.8934 442.147 34.4631 441.501 37.944C441.16 41.8131 441.16 45.7049 441.501 49.574C441.797 49.6252 442.101 49.6113 442.391 49.5332C442.681 49.4551 442.951 49.3146 443.181 49.1217C444.787 47.4564 446.137 45.5621 447.187 43.5006C449.448 39.6886 453.002 40.0116 454.23 42.273C454.23 42.273 454.682 7.64149 440.209 7.44766C425.736 7.25382 426.318 19.1424 426.318 19.1424Z" fill="#110239"/>
<path d="M417.789 19.6681C417.789 19.6681 404.867 22.8986 403.963 30.0058C403.789 33.5313 404.271 37.0583 405.384 40.4081C406.356 44.1796 407.004 48.0271 407.322 51.9088C407.062 52.0395 406.774 52.1077 406.482 52.1077C406.191 52.1077 405.903 52.0395 405.642 51.9088C403.806 50.4562 402.176 48.7608 400.796 46.8692C398.083 43.4448 394.336 44.2847 393.689 46.8692C393.689 46.8692 388.391 12.6255 402.67 10.4288C416.949 8.23199 417.789 19.6681 417.789 19.6681Z" fill="#110239"/>
<path d="M456.362 273.964C455.263 275.967 450.418 278.681 451.839 281.523C452.55 283.01 456.943 280.425 457.977 279.327C462.852 273.404 467.3 267.143 471.287 260.59C472.644 257.553 473.936 254.581 475.422 251.802C472.317 249.495 469.498 246.828 467.022 243.855C462.241 245.6 457.137 248.12 452.485 249.735C449.965 250.575 447.252 251.092 444.667 251.802C443.116 252.255 439.692 252.836 439.369 254.904C439.046 256.971 442.406 256.778 443.763 256.648C445.12 256.519 449.319 254.904 450.224 257.165C451.968 260.46 445.701 263.626 443.763 265.694C441.824 267.761 434.459 273.124 439.369 274.029C442.79 272.315 446.055 270.304 449.125 268.02C449.125 268.343 443.957 272.284 443.763 272.607C442.47 274.029 438.788 277.065 439.692 279.068C441.566 282.686 449.707 274.222 450.934 273.059L447.833 276.419C445.184 278.939 443.504 281.136 445.442 282.17C447.381 283.203 453.906 276.096 456.362 273.964Z" fill="#F88667"/>
<path d="M457.396 245.794L473.678 258.199C473.678 258.199 530.406 197.465 526.271 173.494C519.487 134.082 499.393 89.5003 487.505 85.3652C482.53 83.8145 476.844 103.908 483.434 132.337C483.434 132.337 495.129 174.14 494.418 178.534C493.707 182.927 457.396 245.794 457.396 245.794Z" fill="#01C7E2"/>
<path d="M396.081 307.325C396.986 309.393 401.637 312.494 400.022 315.273C399.182 316.629 394.983 313.722 394.078 312.494C389.674 306.227 385.743 299.64 382.319 292.788C381.221 289.622 380.122 286.327 378.895 283.613C382.187 281.595 385.224 279.187 387.94 276.441C392.527 278.509 397.438 281.481 401.961 283.484C404.416 284.518 407.065 285.293 409.52 286.198C411.975 287.102 414.43 287.619 414.56 289.687C414.689 291.754 411.394 291.302 410.037 291.044C408.68 290.785 404.674 288.847 403.576 291.044C401.573 294.209 407.517 297.892 409.52 300.089C411.523 302.286 418.178 308.295 413.203 308.747C409.957 306.873 406.886 304.711 404.028 302.286L409.003 307.261C410.166 308.812 413.526 312.107 412.557 313.722C410.36 317.146 402.93 308.036 401.767 306.809L404.61 310.427C407 313.14 408.551 315.466 406.483 316.306C404.416 317.146 398.342 309.651 396.081 307.325Z" fill="#F88667"/>
<path d="M395.11 279.337L379.862 289.61C379.862 289.61 326.622 224.03 331.921 200.254C340.578 161.487 355.31 101.657 367.263 92.5474C371.398 89.3814 384.578 114.386 383.609 129.957C383.609 129.957 363.903 207.813 364.226 212.207C364.549 216.6 395.11 279.337 395.11 279.337Z" fill="#01C7E2"/>
<path d="M444.99 11.5914C444.935 9.78048 444.372 8.02143 443.367 6.51392C442.362 5.00641 440.955 3.81076 439.305 3.06274C435.009 1.04569 430.321 0 425.575 0C420.829 0 416.141 1.04569 411.845 3.06274C402.347 7.77933 399.44 8.87768 396.662 7.26241C393.883 5.64714 395.692 4.09654 395.692 4.09654C395.692 4.09654 389.231 4.09648 389.748 13.7235C390.265 23.3505 401.895 35.3037 417.402 35.3037C441.049 35.3037 448.673 18.7632 444.99 11.5914Z" fill="#110239"/>
</svg>
