<svg width="20" height="20" viewBox="0 0 20 20" fill="none" xmlns="http://www.w3.org/2000/svg">
<path d="M9.11702 12.8194C9.18622 12.8504 9.24856 12.8949 9.30041 12.9502C9.35226 13.0056 9.39258 13.0707 9.41903 13.1418C9.44548 13.2128 9.45753 13.2885 9.45448 13.3642C9.45142 13.44 9.43333 13.5144 9.40124 13.5832C9.36916 13.6519 9.32373 13.7135 9.26759 13.7645C9.21146 13.8155 9.14574 13.8548 9.07427 13.8802C9.0028 13.9055 8.92699 13.9164 8.85127 13.9122C8.77555 13.908 8.70142 13.8888 8.63321 13.8556V13.8568C7.88318 13.5071 7.22853 12.9817 6.72476 12.3252C6.22098 11.6687 5.88293 10.9004 5.73926 10.0854C5.5956 9.27048 5.65056 8.43289 5.89948 7.64369C6.1484 6.85449 6.58394 6.13694 7.16918 5.55188L11.2135 1.50752C11.6915 1.02958 12.2589 0.650451 12.8833 0.391791C13.5078 0.133131 14.1771 5.03594e-09 14.853 0C15.5289 -5.03594e-09 16.1982 0.133131 16.8227 0.391791C17.4471 0.650451 18.0145 1.02958 18.4925 1.50752C18.9704 1.98546 19.3496 2.55286 19.6082 3.17732C19.8669 3.80178 20 4.47108 20 5.14699C20 5.8229 19.8669 6.49219 19.6082 7.11665C19.3496 7.74112 18.9704 8.30852 18.4925 8.78646L16.6236 10.6542L16.452 9.20851L17.6838 7.97781C18.4346 7.22703 18.8564 6.20875 18.8564 5.14699C18.8564 4.08522 18.4346 3.06694 17.6838 2.31616C16.9331 1.56538 15.9148 1.1436 14.853 1.1436C13.7913 1.1436 12.773 1.56538 12.0222 2.31616L7.97783 6.36053C7.52248 6.81552 7.18358 7.37362 6.98984 7.98748C6.79611 8.60135 6.75327 9.25288 6.86495 9.88682C6.97664 10.5208 7.23955 11.1184 7.63139 11.6291C8.02323 12.1398 8.53246 12.5485 9.11588 12.8205V12.8194H9.11702ZM1.50753 18.4925C1.02958 18.0145 0.650457 17.4471 0.391795 16.8227C0.133132 16.1982 0 15.5289 0 14.853C0 14.1771 0.133132 13.5078 0.391795 12.8833C0.650457 12.2589 1.02958 11.6915 1.50753 11.2135L3.37645 9.34576L3.54801 10.7915L2.31617 12.0222C1.56539 12.773 1.14361 13.7912 1.14361 14.853C1.14361 15.3787 1.24716 15.8993 1.44835 16.385C1.64954 16.8707 1.94443 17.3121 2.31617 17.6838C2.68792 18.0556 3.12925 18.3505 3.61497 18.5517C4.10068 18.7528 4.62127 18.8564 5.147 18.8564C6.20877 18.8564 7.22705 18.4346 7.97783 17.6838L12.0222 13.6395C12.4775 13.1845 12.8164 12.6264 13.0102 12.0125C13.2039 11.3986 13.2467 10.7471 13.1351 10.1132C13.0234 9.47922 12.7605 8.88155 12.3686 8.37085C11.9768 7.86014 11.4676 7.45146 10.8841 7.17946V7.18061C10.8136 7.15053 10.7498 7.10658 10.6966 7.05136C10.6434 6.99614 10.6019 6.93078 10.5744 6.85918C10.547 6.78757 10.5342 6.71118 10.5369 6.63454C10.5396 6.55791 10.5577 6.48259 10.59 6.41308C10.6224 6.34357 10.6684 6.28128 10.7254 6.22991C10.7823 6.17855 10.849 6.13916 10.9215 6.11409C10.9939 6.08902 11.0707 6.07878 11.1472 6.08398C11.2237 6.08918 11.2984 6.10971 11.3668 6.14435V6.14321C12.1168 6.49288 12.7715 7.01825 13.2753 7.67476C13.779 8.33128 14.1171 9.09958 14.2608 9.91454C14.4044 10.7295 14.3495 11.5671 14.1005 12.3563C13.8516 13.1455 13.4161 13.863 12.8308 14.4481L8.78647 18.4925C8.30853 18.9704 7.74113 19.3495 7.11667 19.6082C6.49221 19.8669 5.82291 20 5.147 20C4.47109 20 3.80179 19.8669 3.17733 19.6082C2.55287 19.3495 1.98547 18.9704 1.50753 18.4925Z" fill="#656565"/>
</svg>
