<svg width="523" height="370" viewBox="0 0 523 370" fill="none" xmlns="http://www.w3.org/2000/svg">
<path d="M474.093 332.46H94.8417C90.0647 332.702 85.3864 331.042 81.8299 327.844C78.2733 324.645 76.1279 320.169 75.8628 315.393V27.4456C76.1279 22.6699 78.2733 18.1934 81.8299 14.9951C85.3864 11.7968 90.0647 10.137 94.8417 10.3786H474.093C478.87 10.137 483.548 11.7968 487.105 14.9951C490.661 18.1934 492.807 22.6699 493.072 27.4456V315.393C492.807 320.169 490.661 324.645 487.105 327.844C483.548 331.042 478.87 332.702 474.093 332.46Z" fill="#D0D1DE"/>
<path d="M474.092 30.6211H94.8408V312.227H474.092V30.6211Z" fill="white"/>
<path d="M352.57 277.745C411.656 242.523 431.002 166.07 395.779 106.984C360.557 47.8979 284.104 28.5524 225.018 63.7749C165.932 98.9973 146.587 175.45 181.809 234.536C217.032 293.622 293.484 312.967 352.57 277.745Z" fill="#110239"/>
<path d="M270.825 47.6407C303.226 43.5121 336.999 51.731 363 71.5C389.001 91.269 406.816 119.175 411.5 151.5C416.184 183.825 406.316 218.528 386.996 244.865C367.677 271.201 338.785 288.894 306.545 294.133L270.825 47.6407Z" fill="#AA22C6"/>
<path d="M279.919 295.199H279.266L287.986 171.16L392.067 101.586C405.072 120.924 412.386 143.524 413.177 166.814C413.968 190.104 408.205 213.149 396.543 233.325C384.88 253.5 367.788 269.996 347.211 280.935C326.634 291.874 303.4 296.816 280.152 295.199H279.919Z" fill="#49E4DB"/>
<path d="M272.318 294.225C279.409 295.19 286.571 295.534 293.722 295.251L288.779 170.606L165.346 154.285C160.974 187.028 169.788 220.166 189.85 246.41C209.911 272.654 239.575 289.853 272.318 294.225Z" fill="#E5E6ED"/>
<path d="M238.37 201.945L122.865 141.324C113.649 158.909 108.565 178.365 108 198.21C107.434 218.056 111.402 237.769 119.601 255.85L238.37 201.945Z" fill="#49E4DB"/>
<path d="M301.229 183.104L426.621 160.395C427.615 165.804 428.269 171.271 428.579 176.762C429.729 199.423 424.751 221.974 414.17 242.046L301.229 183.104Z" fill="#AA22C6"/>
<path d="M125.665 138.664C122.498 138.815 119.441 139.866 116.852 141.695C114.404 142.983 111.803 143.954 109.111 144.586C109.395 146.127 109.582 147.685 109.67 149.249C109.67 149.249 114.007 148.503 114.334 148.363C115.826 147.897 116.945 146.778 118.624 147.198C119.42 147.495 120.185 147.87 120.909 148.317C121.795 148.83 123.986 150.975 125.059 150.555C126.131 150.135 124.033 148.084 123.753 147.571C123.473 147.058 123.473 145.379 124.639 145.705C125.805 146.032 129.022 148.084 130.794 147.244C132.566 146.405 126.131 144.306 124.965 143.56C126.831 144.493 132.939 146.358 133.406 145.286C134.385 143.234 127.903 142.161 126.131 141.275C127.683 142.125 129.451 142.498 131.214 142.348C133.592 141.462 127.017 139.224 125.665 138.664Z" fill="#F88667"/>
<path d="M119.043 257.575C115.914 257.058 112.999 255.649 110.649 253.519C108.356 251.978 105.881 250.725 103.282 249.788C103.761 248.264 104.12 246.705 104.354 245.125C104.354 245.125 108.598 246.384 109.017 246.571C110.416 247.223 111.396 248.482 113.121 248.249C113.951 248.016 114.761 247.72 115.546 247.363C116.478 246.99 118.857 245.125 119.882 245.638C120.908 246.151 118.577 247.97 118.25 248.482C117.924 248.995 117.737 250.581 118.903 250.441C120.069 250.301 123.566 248.576 125.198 249.602C126.83 250.627 120.255 252.026 118.996 252.586C120.955 251.886 127.204 250.767 127.577 251.84C128.276 253.985 121.748 254.311 119.882 255.011C121.518 254.326 123.321 254.147 125.058 254.498C127.25 255.71 120.442 257.156 119.043 257.575Z" fill="#F88667"/>
<path d="M44.0133 192.985C46.2956 194.759 49.1348 195.663 52.0227 195.535C54.9106 195.406 57.6586 194.255 59.7747 192.285C67.0491 185.803 80.5255 173.633 84.9089 170.369C91.0175 165.705 118.437 148.499 118.437 148.499L114.286 140.758C114.286 140.758 80.1525 155.866 75.3495 159.643C70.5465 163.421 42.7077 180.301 41.3554 187.109C41.2117 188.239 41.3841 189.386 41.8533 190.423C42.3226 191.46 43.0703 192.347 44.0133 192.985Z" fill="#FD425F"/>
<path d="M44.0133 192.985C46.2956 194.759 49.1348 195.663 52.0227 195.535C54.9106 195.406 57.6586 194.255 59.7747 192.285C67.0491 185.803 80.5255 173.633 84.9089 170.369C91.0175 165.705 118.437 148.499 118.437 148.499L114.286 140.758C114.286 140.758 80.1525 155.866 75.3495 159.643C70.5465 163.421 42.7077 180.301 41.3554 187.109C41.2117 188.239 41.3841 189.386 41.8533 190.423C42.3226 191.46 43.0703 192.347 44.0133 192.985Z" fill="#9017A9"/>
<path d="M48.9561 159.457L49.5157 160.063C51.1831 161.786 53.0099 163.348 54.9715 164.726C56.2306 165.566 58.0958 166.079 59.1683 166.918C59.581 167.259 60.0173 167.571 60.474 167.851C59.4341 173.125 58.8105 178.473 58.6087 183.845C58.6087 183.845 47.6504 183.052 43.6401 178.622C45.9774 172.404 47.7564 165.991 48.9561 159.457Z" fill="#F88667"/>
<path d="M59.9144 171.356C59.9144 170.004 60.3341 168.792 60.474 167.952C60.0173 167.673 59.581 167.361 59.1683 167.02C58.0958 166.18 56.2306 165.667 54.9715 164.828C53.0099 163.449 51.1831 161.888 49.5157 160.165L48.9561 159.559C47.7618 166.124 45.9827 172.569 43.6401 178.817C45.387 180.477 47.5178 181.679 49.8421 182.315C50.1521 179.66 51.293 177.171 53.1019 175.203C54.9107 173.235 57.295 171.889 59.9144 171.356Z" fill="#E45940"/>
<path d="M55.0635 355.213C55.0635 355.213 55.3433 366.125 57.0686 367.617C58.794 369.109 80.3842 369.762 82.3893 367.617C84.3945 365.472 83.1821 362.254 78.519 360.949C73.8558 359.643 71.058 360.949 67.887 359.596C64.7161 358.244 65.6021 353.348 65.6021 353.348L55.0635 355.213Z" fill="#110239"/>
<path d="M1.11133 354.847C1.11133 354.847 -0.567389 365.479 1.11133 367.064C2.79006 368.65 24.9399 370.328 26.8517 368.416C28.7636 366.505 27.831 363.1 23.2145 361.608C18.598 360.116 15.8934 361.049 12.6759 359.883C10.2044 358.95 11.8831 353.914 11.8831 353.914L1.11133 354.847Z" fill="#110239"/>
<path d="M17.1532 293.523C16.8103 273.215 18.3715 252.92 21.8163 232.903C25.5408 232.881 29.233 233.594 32.6814 235.001C39.303 238.032 45.9712 240.924 52.6395 243.815C45.1891 261.858 38.9576 280.381 33.987 299.259C32.0752 308.632 12.1637 357.128 12.1637 357.128L0.132812 355.683C0.132812 347.802 17.1998 296.135 17.1532 293.523Z" fill="#D0D1DE"/>
<path d="M42.1014 239.156C45.6152 240.785 49.2106 242.233 52.8732 243.493C46.201 259.659 40.456 276.194 35.6663 293.015C33.9875 287.932 25.7805 275.575 22.6562 262.098C20.5695 253.076 20.2213 243.739 21.6303 234.586C28.6959 234.683 35.6653 236.239 42.1014 239.156Z" fill="#B8B9CD"/>
<path d="M32.7739 237.471C37.437 239.056 46.0172 241.341 52.4523 243.626C57.1154 255.004 70.2188 281.771 71.1048 293.895C71.8508 307.278 67.2344 357.919 67.2344 357.919H53.3849C53.3849 357.919 52.0792 300.843 50.1674 297.299C43.7789 285.221 36.7376 275.615 32.7739 268.108C28.0368 259.791 24.6081 250.795 22.6083 241.435C22.0954 238.823 19.8105 230.103 24.2404 227.445C28.1108 228.238 28.9502 236.165 32.7739 237.471Z" fill="#D0D1DE"/>
<path d="M57.5816 246.382C50.258 249.189 42.423 250.413 34.5924 249.973C28.4981 250.046 22.4579 248.822 16.8726 246.382C16.8726 246.382 22.1419 205.207 28.1107 192.244C29.5438 188.677 31.7195 185.456 34.4933 182.795C37.2671 180.133 40.5754 178.093 44.1984 176.809C48.5657 179.405 53.4556 180.998 58.5142 181.472C58.5142 181.472 58.5142 206.746 57.8614 216.818C57.2085 226.891 57.5816 246.382 57.5816 246.382Z" fill="#AA22C6"/>
<path d="M58.1424 212.946C58.1424 211.827 58.1424 210.661 58.1424 209.402V208.982C58.1424 207.77 58.1424 206.557 58.1424 205.298V204.645C58.1424 203.247 58.1424 201.848 58.1424 200.402H56.6036C52.6696 199.355 48.9464 197.635 45.5986 195.319L43.7334 194.387C43.7496 199.945 44.6953 205.461 46.5313 210.708C49.8631 223.237 50.5461 236.323 48.5364 249.132C51.5177 248.493 54.4479 247.636 57.3031 246.567C57.3031 246.567 57.3031 226.935 57.7227 216.816C57.7227 215.93 57.7227 214.904 57.7227 213.785L58.1424 212.946Z" fill="#9017A9"/>
<path d="M106.126 254.172L110.79 244.566C99.327 237.297 88.4167 229.193 78.1478 220.318C69.3811 211.504 59.8683 193.458 53.2001 192.339C46.5318 191.22 39.7703 194.904 43.6407 204.183C47.5111 213.463 66.9563 225.867 71.1531 229.97C82.3809 238.642 94.0546 246.72 106.126 254.172Z" fill="#AA22C6"/>
<path d="M45.6913 140.762C45.6913 140.762 63.4112 138.757 64.6236 141.694C65.836 144.632 66.1158 153.072 67.2816 154.844C68.4473 156.616 70.4991 158.761 69.7064 159.88C68.9137 161 68.0743 160.767 67.608 162.026C67.1417 163.285 67.2816 170.559 64.95 171.632C62.6184 172.704 50.6809 172.098 46.2975 165.29C41.9142 158.482 37.1112 141.415 45.6913 140.762Z" fill="#F88667"/>
<path d="M41.2144 142.633L52.9655 148.042C52.8654 152.52 53.9086 156.95 55.9965 160.913C55.9965 160.913 54.924 162.498 53.8515 161.612C53.2894 161.282 52.809 160.83 52.4457 160.289C52.0824 159.748 51.8456 159.133 51.753 158.488C51.4733 156.762 50.4474 152.192 47.3697 154.477C44.2921 156.762 47.3697 159.42 49.1417 160.073C49.1417 160.073 51.6132 168.98 46.9034 168.374C46.9034 168.374 42.5201 165.576 38.743 154.85C34.9658 144.125 38.3233 140.441 41.2144 142.633Z" fill="#110239"/>
<path d="M69.7526 138.519C69.7526 138.519 73.9494 144.581 64.2035 148.591C54.4576 152.602 40.375 142.016 40.375 142.016C40.375 142.016 40.748 136.7 48.5355 134.415C54.3644 132.737 59.8202 132.97 62.5248 136.374C67.8408 142.063 69.7526 138.519 69.7526 138.519Z" fill="#110239"/>
<path d="M487.381 163.473L486.915 164.032C485.345 165.751 483.611 167.313 481.739 168.695C480.619 169.535 478.801 170.094 477.775 170.934L476.562 171.866C477.721 176.897 478.485 182.011 478.847 187.161C478.847 187.161 489.339 186.089 492.837 181.705C490.488 175.799 488.662 169.698 487.381 163.473Z" fill="#F88667"/>
<path d="M487.616 165.012L487.15 165.571C485.58 167.29 483.847 168.852 481.974 170.234C480.808 171.027 479.036 171.587 478.01 172.473L476.798 173.405L477.357 176.203C480.211 176.087 483.018 176.948 485.316 178.644C487.614 180.34 489.264 182.769 489.994 185.529C491.193 184.945 492.269 184.138 493.165 183.151C490.79 177.278 488.933 171.209 487.616 165.012Z" fill="#E45940"/>
<path d="M471.341 353.633C471.341 353.633 471.901 364.125 470.362 365.71C468.823 367.296 448.026 369.534 446.067 367.762C444.109 365.99 444.948 362.679 449.331 361.094C453.715 359.508 456.466 360.487 459.357 358.995C462.248 357.503 461.129 352.84 461.129 352.84L471.341 353.633Z" fill="#110239"/>
<path d="M520.91 353.395C520.91 353.395 523.801 363.374 522.449 365.052C521.097 366.731 500.112 371.161 498.014 369.715C495.916 368.27 496.429 364.726 500.672 362.767C504.915 360.809 507.76 361.555 510.511 359.783C513.262 358.011 511.677 353.488 511.677 353.488L520.91 353.395Z" fill="#110239"/>
<path d="M519.277 292.689C520.153 273.104 519.201 253.481 516.432 234.073C512.852 233.955 509.283 234.557 505.94 235.845C499.459 238.597 492.977 241.208 486.495 243.819C493.258 261.354 498.805 279.334 503.096 297.632C504.588 306.958 510.976 357.18 510.976 357.18L522.867 356.807C522.867 349.252 519.184 295.207 519.277 292.689Z" fill="#AA22C6"/>
<path d="M496.895 239.764C493.482 241.247 489.996 242.555 486.449 243.681C493.134 261.195 498.679 279.123 503.05 297.353C504.822 292.69 511.677 275.203 515.034 262.333C517.275 253.707 517.829 244.729 516.666 235.893C509.881 235.823 503.153 237.14 496.895 239.764Z" fill="#9017A9"/>
<path d="M506.08 233.693C501.417 235.138 493.303 237.19 487.054 239.288C479.651 256.732 473.313 274.609 468.075 292.821C464.904 308.676 459.682 355.633 459.682 355.633L473.065 357.405C473.065 357.405 486.495 294.313 488.453 290.816C494.748 279.298 501.696 270.205 505.66 262.837C511.517 253.046 515.428 242.216 517.178 230.941C513.634 232.061 509.903 232.527 506.08 233.693Z" fill="#AA22C6"/>
<path d="M424.942 153.958C426.248 153.958 429.139 157.596 430.538 160.207C431.861 162.282 433.426 164.192 435.201 165.896C434.285 166.928 433.458 168.035 432.73 169.207C432.73 169.207 429.652 166.735 429.372 166.409C429.092 166.082 428.02 164.031 426.528 163.611C425.768 163.54 425.003 163.54 424.243 163.611C423.357 163.611 420.699 164.31 420.046 163.611C419.393 162.912 421.911 162.119 422.377 161.839C422.844 161.559 423.543 160.254 422.377 160.02C421.212 159.787 417.714 160.02 416.875 158.528C416.036 157.036 421.818 158.248 423.077 158.155C421.212 158.155 415.616 156.896 415.709 155.824C415.709 153.818 421.352 155.824 423.17 155.824C421.505 155.878 419.868 155.386 418.507 154.425C417.528 152.699 423.683 153.818 424.942 153.958Z" fill="#F88667"/>
<path d="M506.267 201.197C506.627 198.44 505.994 195.646 504.482 193.313C502.969 190.981 500.676 189.263 498.013 188.466C489.106 185.622 472.506 180.306 467.609 178.301C460.708 175.503 433.149 161.141 433.149 161.141L428.486 168.322C428.486 168.322 457.63 189.306 463.133 191.637C468.635 193.969 496.288 208.844 502.443 206.466C503.519 206.047 504.451 205.328 505.129 204.393C505.807 203.459 506.202 202.349 506.267 201.197Z" fill="#01C7E2"/>
<path d="M506.267 201.197C506.627 198.44 505.994 195.646 504.482 193.313C502.969 190.981 500.676 189.263 498.013 188.466C489.106 185.622 472.506 180.306 467.609 178.301C460.708 175.503 433.149 161.141 433.149 161.141L428.486 168.322C428.486 168.322 457.63 189.306 463.133 191.637C468.635 193.969 496.288 208.844 502.443 206.466C503.519 206.047 504.451 205.328 505.129 204.393C505.807 203.459 506.202 202.349 506.267 201.197Z" fill="#49E4DB"/>
<path d="M481.553 247.268C488.755 248.124 496.034 248.124 503.236 247.268C511.35 246.289 518.718 243.258 520.396 240.227C520.396 240.227 514.474 206.559 508.272 194.249C506.789 190.861 504.605 187.826 501.864 185.342C499.123 182.859 495.888 180.984 492.371 179.84C488.216 182.382 483.55 183.974 478.708 184.503C478.708 184.503 479.594 208.798 480.34 218.497C481.086 228.196 481.553 247.268 481.553 247.268Z" fill="#49E4DB"/>
<path d="M490.926 212.578C492.569 207.492 493.311 202.158 493.118 196.816L491.392 197.749C488.234 200.074 484.701 201.84 480.947 202.972C480.451 203.02 479.951 203.02 479.455 202.972C479.734 208.894 480.061 214.863 480.341 218.64C481.087 228.339 481.553 247.225 481.553 247.225C481.553 247.225 484.584 247.644 489.014 247.878C486.309 236.919 488.454 224.002 490.926 212.578Z" fill="#2FCBC2"/>
<path d="M492.183 152.369C492.183 152.369 487.52 143.042 481.318 143.789C475.116 144.535 469.521 146.12 468.821 148.452C468.122 150.783 468.821 155.913 467.562 158.337C466.303 160.762 463.225 164.073 464.158 165.052C465.114 165.798 466.017 166.609 466.863 167.477C467.704 170.577 468.942 173.555 470.547 176.337C476.032 175.416 481.053 172.692 484.816 168.596C486.448 165.146 492.93 158.431 492.183 152.369Z" fill="#F88667"/>
<path d="M483.092 144.068C483.092 144.068 478.429 157.404 466.398 156.285C465.613 154.789 465.204 153.125 465.204 151.435C465.204 149.746 465.613 148.082 466.398 146.586C468.448 144.281 471.24 142.768 474.289 142.308C477.339 141.848 480.453 142.47 483.092 144.068Z" fill="#110239"/>
<path d="M520.396 192.761C520.051 189.849 519.106 187.041 517.622 184.513C516.137 181.984 514.144 179.791 511.769 178.072C506.188 173.423 502.167 167.173 500.251 160.166C498.34 153.311 499.272 146.736 492.697 141.979C490.227 140.618 487.42 139.988 484.604 140.161C481.789 140.334 479.081 141.305 476.796 142.959C476.819 143.207 476.819 143.457 476.796 143.705C476.796 143.705 472.366 147.902 479.454 153.87C481.252 155.582 482.598 157.713 483.371 160.072C483.705 159.386 484.221 158.805 484.863 158.394C485.021 158.215 485.214 158.072 485.432 157.974C485.649 157.876 485.884 157.825 486.122 157.825C486.36 157.825 486.596 157.876 486.813 157.974C487.03 158.072 487.224 158.215 487.381 158.394C488.78 159.839 486.682 162.451 485.376 162.684C485.376 162.684 484.817 163.01 484.443 163.43C486.152 169.295 487.2 175.332 487.568 181.429C487.946 184.178 489.149 186.747 491.018 188.797C493.024 191.315 494.469 191.409 495.682 194.393C496.894 197.377 494.376 205.258 500.345 208.849C503.715 210.09 507.365 210.365 510.883 209.641C519.23 206.937 521.189 200.968 520.396 192.761Z" fill="#110239"/>
<path d="M424.149 234.629C422.675 235.238 421.074 235.478 419.486 235.328C418.73 235.192 417.957 235.192 417.201 235.328C416.319 235.446 415.425 235.446 414.543 235.328C413.679 235.162 412.786 235.26 411.978 235.608C410.999 236.168 411.978 236.867 413.097 237.194C414.217 237.52 417.154 236.82 417.761 237.753C418.367 238.686 414.45 239.432 413.704 239.572C411.885 239.852 410.999 238.826 409.414 238.313C407.828 237.8 407.968 238.313 408.341 239.199C408.714 240.085 409.507 240.364 410.206 240.644C411.671 241.289 413.273 241.562 414.869 241.437C413.312 241.666 411.725 241.571 410.206 241.157C409.367 240.924 405.963 239.385 405.543 240.691C404.657 243.256 413.004 244.282 414.496 243.769C412.953 244.036 411.376 244.036 409.833 243.769C408.901 243.769 406.802 243.349 407.548 244.794C408.294 246.24 413.331 245.634 415.569 245.447C414.202 245.938 412.774 246.237 411.325 246.333C409.414 246.66 410.3 247.919 412.305 247.965C413.275 247.93 414.242 247.821 415.196 247.639C418.411 247.145 421.368 245.585 423.589 243.209C424.569 242.323 427.367 241.717 427.506 240.551C427.786 238.173 425.315 236.121 424.149 234.629Z" fill="#F88667"/>
<path d="M424.477 243.492L420.653 234.679C420.653 234.679 445.461 220.363 455.254 212.716C465.046 205.068 476.751 188.421 483.512 188.141C490.274 187.861 496.476 192.385 491.486 201.105C486.497 209.825 465.466 219.757 460.989 223.115C449.185 230.544 436.998 237.346 424.477 243.492Z" fill="#49E4DB"/>
</svg>
